<?xml version="1.0" encoding="utf-8"?>
<!-- Generator: Adobe Illustrator 21.1.0, SVG Export Plug-In . SVG Version: 6.00 Build 0)  -->
<svg version="1.1" id="Layer_1" xmlns="http://www.w3.org/2000/svg" xmlns:xlink="http://www.w3.org/1999/xlink" x="0px" y="0px"
	 viewBox="0 0 600 600" style="enable-background:new 0 0 600 600;" xml:space="preserve">
<style type="text/css">
	.st0{fill:#FFFFFF;}
	.st1{fill:#A8B0B7;}
	.st2{fill:#1A95D3;}
	.st3{fill:#EC2231;}
	.st4{fill:none;stroke:#E0F3FA;stroke-width:80;stroke-miterlimit:10;}
	.st5{fill:none;stroke:#843147;stroke-width:10;stroke-linecap:round;stroke-linejoin:round;}
	.st6{fill:none;stroke:#F299C1;stroke-width:6;stroke-linecap:round;stroke-linejoin:round;}
	.st7{fill:none;stroke:#6D6E71;stroke-width:10;stroke-linecap:round;stroke-miterlimit:10;}
	.st8{fill:none;stroke:#F1F2F2;stroke-width:6;stroke-linecap:round;stroke-miterlimit:10;}
	.st9{fill:none;stroke:#F58220;stroke-width:10;stroke-linecap:round;stroke-linejoin:round;}
	.st10{fill:none;stroke:#853147;stroke-width:10;stroke-linecap:round;stroke-linejoin:round;}
	.st11{fill:none;stroke:#FFCB0C;stroke-width:10;stroke-linecap:round;stroke-linejoin:round;}
	.st12{fill:none;stroke:#E52991;stroke-width:10;stroke-linecap:round;stroke-linejoin:round;}
	.st13{fill:none;stroke:#FFFFFF;stroke-width:8;stroke-linecap:round;stroke-linejoin:round;}
	.st14{fill:none;stroke:#0B67B2;stroke-width:10;stroke-linecap:round;stroke-linejoin:round;}
	.st15{fill:none;stroke:#26B24B;stroke-width:10;stroke-linecap:round;stroke-linejoin:round;}
	.st16{fill:none;stroke:#FFFFFF;stroke-width:10;stroke-linecap:round;stroke-linejoin:round;}
	.st17{fill:none;stroke:#FFFFFF;stroke-width:12;stroke-linecap:round;stroke-linejoin:round;}
	.st18{fill:none;stroke:#BDD531;stroke-width:10;stroke-linecap:round;stroke-linejoin:round;}
	.st19{fill:none;stroke:#F299C1;stroke-width:10;stroke-linecap:round;stroke-linejoin:round;}
	.st20{fill:none;stroke:#ED1F2F;stroke-width:10;stroke-linecap:round;stroke-linejoin:round;}
	.st21{fill:none;stroke:#9E2063;stroke-width:10;stroke-linecap:round;stroke-miterlimit:10;}
	.st22{fill:none;stroke:#1A95D3;stroke-width:10;stroke-linecap:round;stroke-linejoin:round;}
	.st23{fill:#0B67B2;}
	.st24{font-family:'Cabin-Bold';}
	.st25{font-size:14px;}
	.st26{fill:#F299C1;}
	.st27{fill:#843147;}
	.st28{fill:#BDD531;}
	.st29{fill:#FFFFFF;stroke:#9E2063;stroke-miterlimit:10;}
	.st30{fill:#9E2063;}
	.st31{fill:none;stroke:#CCCCCC;stroke-width:4;stroke-miterlimit:10;}
	.st32{fill:#CCCCCC;}
</style>
<symbol  id="Final_2" viewBox="-9 -14 18 28">
	<g id="_Group_5_1_">
		<g id="_Rectangle_3_1_">
			<path id="_Path_10_1_" class="st0" d="M0,12c-3.9,0-7-3.1-7-7V-5c0-3.9,3.1-7,7-7s7,3.1,7,7V5C7,8.9,3.9,12,0,12z"/>
			<path id="_Compound_Path_2_1_" class="st1" d="M0-10c2.8,0,5,2.2,5,5V5c0,2.8-2.2,5-5,5s-5-2.2-5-5V-5C-5-7.8-2.8-10,0-10 M0-14
				c-5,0-9,4-9,9V5c0,5,4,9,9,9s9-4,9-9V-5C9-10,5-14,0-14z"/>
		</g>
	</g>
</symbol>
<symbol  id="Final_4" viewBox="-9 -24 18 48">
	<g id="_Group_4_1_">
		<g id="_Rectangle_2_1_">
			<path id="_Path_9_1_" class="st0" d="M0,22c-3.9,0-7-3.1-7-7v-30c0-3.9,3.1-7,7-7s7,3.1,7,7v30C7,18.9,3.9,22,0,22z"/>
			<path id="_Compound_Path__1_" class="st1" d="M0-20c2.8,0,5,2.2,5,5v30c0,2.8-2.2,5-5,5s-5-2.2-5-5v-30C-5-17.8-2.8-20,0-20
				 M0-24c-5,0-9,4-9,9v30c0,5,4,9,9,9s9-4,9-9v-30C9-20,5-24,0-24z"/>
		</g>
	</g>
</symbol>
<symbol  id="New_Symbol_2" viewBox="-9 -9 18 18">
	<g id="_Group_10_1_">
		<g id="_Group_11_1_">
			<circle id="_Path_15_1_" class="st0" cx="0" cy="0" r="7"/>
			<path id="_Compound_Path_7_1_" class="st2" d="M0-5c2.8,0,5,2.2,5,5S2.8,5,0,5s-5-2.2-5-5S-2.8-5,0-5 M0-9c-5,0-9,4-9,9s4,9,9,9
				s9-4,9-9S5-9,0-9z"/>
		</g>
	</g>
</symbol>
<symbol  id="Tram_12-2" viewBox="-9 -9 18 18">
	<g id="_Group_22_1_">
		<g id="_Group_23_1_">
			<circle id="_Path_18_1_" class="st0" cx="0" cy="0" r="7"/>
			<path id="_Compound_Path_10_1_" class="st3" d="M0-5c2.8,0,5,2.2,5,5S2.8,5,0,5s-5-2.2-5-5S-2.8-5,0-5 M0-9c-5,0-9,4-9,9s4,9,9,9
				s9-4,9-9S5-9,0-9z"/>
		</g>
	</g>
</symbol>
<title>antwerpen22</title>
<g>
	<g id="Tramlijnen">
		<path id="rivier" class="st4" d="M-918.6,1330.2v-240c0-193.3,156.7-350,350-350h136c235.2,0,425.7-191,425-426.4v-504.6
			c0-193.3-156.7-350-350-350h-357.2"/>
		<g id="_Group_">
			<path id="_Path_" class="st5" d="M1346.4,581.2l-34.3-17.2c-14.8-7.4-32.8-1.4-40.2,13.4c-0.3,0.6-0.6,1.2-0.8,1.8
				c-12.8,30-29.3,58.3-49,84.3l-0.1,0.1c-10.4,12.9-29.3,14.9-42.2,4.5c-0.8-0.7-1.6-1.4-2.4-2.1l-122.2-122
				c-5.6-5.6-8.8-13.3-8.8-21.2v-23.2c0-8-3.2-15.6-8.8-21.2l-32.4-32.4c-5.6-5.6-13.3-8.8-21.2-8.8H657.3
				c-15.9,0-31.1-6.3-42.4-17.5l-30.6-30.6c-5.6-5.7-13.3-8.9-21.3-8.9h-60.5"/>
			<path id="_Path_2" class="st6" d="M1346.4,581.2l-34.3-17.2c-14.8-7.4-32.8-1.4-40.2,13.4c-0.3,0.6-0.6,1.2-0.8,1.8
				c-12.8,30-29.3,58.3-49,84.3l-0.1,0.1c-10.4,12.9-29.3,14.9-42.2,4.5c-0.8-0.7-1.6-1.4-2.4-2.1l-122.2-122
				c-5.6-5.6-8.8-13.3-8.8-21.2v-23.2c0-8-3.2-15.6-8.8-21.2l-32.4-32.4c-5.6-5.6-13.3-8.8-21.2-8.8H657.3
				c-15.9,0-31.1-6.3-42.4-17.5l-30.6-30.6c-5.6-5.7-13.3-8.9-21.3-8.9h-60.5"/>
		</g>
		<g id="_Group_2">
			<path id="_Path_3" class="st7" d="M-429.4,440.2h913.1c10.5,0,19.1,8.1,19.9,18.5v0.1c4.7,57.8,21.9,113.9,50.3,164.5l0,0
				c12.1,19.7,9.1,45.2-7.2,61.5l-100,99.9c-11.7,11.7-11.7,30.7,0,42.4c0,0,0,0,0,0l27.3,27.5c110.5,111.5,263.8,180.6,433.3,180.6
				h650.9"/>
			<path id="_Path_4" class="st8" d="M-429.4,440.2h913.1c10.5,0,19.1,8.1,19.9,18.5v0.1c4.7,57.8,21.9,113.9,50.3,164.5l0,0
				c12.1,19.7,9.1,45.2-7.2,61.5l-100,99.9c-11.7,11.7-11.7,30.7,0,42.4c0,0,0,0,0,0l27.3,27.5c110.5,111.5,263.8,180.6,433.3,180.6
				h650.9"/>
		</g>
		<path id="Tram_9_Linkeroever" class="st9" d="M1092.9,773.9c-55.5,29.8-118.3,46.3-185.7,46.3c-207.2,0-377.1-159.5-393.7-362.4
			c-1.3-15.6-14.3-27.6-29.9-27.6h-913"/>
		<path id="Tram_5_Sportpaleis" class="st10" d="M-429.4,420.2h913c15.6,0,28.6-12,29.9-27.6C530,189.7,700,30.2,907.2,30.2
			c200.8,0,366.6,149.8,391.7,343.7c1.9,15,14.6,26.3,29.8,26.3h423.5"/>
		<path id="Tram_3_Zwijndrecht" class="st11" d="M-814.4,410.2h1298c10.4,0,19.1-8,19.9-18.4c7.8-95.6,49.4-185.3,117.3-253
			L785.6-26c5.6-5.6,13.3-8.8,21.2-8.8h494.4"/>
		<path id="Tram_6_Luchtbal" class="st12" d="M367.4-44.8h336.6c26.7,0,40.1,32.3,21.2,51.2l-93.4,93.4l-25,25
			C495.7,235.9,455,399.3,501.1,549.6"/>
		<rect id="_Path_5" x="177.4" y="396.2" class="st13" width="10" height="60"/>
		<path id="Tram_7_MAS" class="st14" d="M1158.3,1045.2H907.4c-171.2,0-326.2-69.4-438.4-181.6l-3.3-3.7L194.2,588.4
			c-7.5-7.5-11.7-17.7-11.7-38.3V373.2"/>
		<path id="Tram_2_Hoboken" class="st15" d="M-644.7,1040.2h805.6c10.6,0,20.8-4.2,28.3-11.7l350.7-350.7
			c13.2-13.2,15.5-33.9,5.5-49.7l0,0c-14.9-26.5-26.8-54.5-35.5-83.6v0c-11.7-38.7-17.5-78.8-17.4-119.2
			c-0.1-110.1,43.6-215.6,121.5-293.4l22.2-22.2L778.8-33.1c7.5-7.5,17.7-11.7,28.3-11.7h494.3"/>
		<path id="Tram_6_Luchtbal-2" class="st12" d="M501,549.8c9.1,29.7,21.4,58.3,36.8,85.4l0,0c6.5,11.7,4.5,26.3-5,35.8l-343.4,343.3
			c-3.8,3.7-5.9,8.8-5.9,14.1v39.4c0,16.6-13.4,30-30,30h-45.1"/>
		<rect id="_Path_6" x="297.3" y="397.8" class="st16" width="20" height="60"/>
		<rect id="_Rectangle_" x="479.9" y="315.2" class="st17" width="57" height="30.2"/>
		<path id="Tram_10_Melkmarkt" class="st18" d="M1742.4,410.2H656.9c-8,0-15.6-3.2-21.2-8.8l-59.9-59.5
			c-7.5-7.5-17.7-11.7-28.3-11.7h-442c-16.6,0-30-13.4-30-30l0,0v-15c0-16.6,13.4-30,30-30l0,0h132c10.9,0.2,21.4,4.5,29.1,12.2
			l62.9,62.8"/>
		<path id="Tram_24_Silsburg" class="st19" d="M1302.7,805.4L932.1,434.8c-9.4-9.4-22.1-14.6-35.4-14.6H657
			c-10.6,0-20.8-4.2-28.3-11.7L569.2,349c-5.6-5.6-13.3-8.8-21.2-8.8H342.4c-22.1,0-40,17.9-40,40v233.4c0,10.6-4.2,20.8-11.7,28.3
			L109.2,823.4c-5.6,5.6-13.3,8.8-21.2,8.8H-8.1c-8,0-15.6,3.2-21.2,8.8l-320.9,320.9"/>
		<line id="Tram_12b" class="st20" x1="452.4" y1="149.9" x2="452.4" y2="237.2"/>
		<g id="_Group_3">
			<path id="_Path_7" class="st21" d="M335.4,320.2h-17.6c-8,0-15.6-3.2-21.2-8.8l-37-37c-5.6-5.8-13.2-9.1-21.2-9.3h-133
				c-11,0-20,9-20,20v15c0,11,9,20,20,20h467c27.6,0,50,22.4,50,50l0,0v55c-0.1,75.6,29.9,148.1,83.5,201.5l2.8,2.8
				c19.5,19.5,19.5,51.2,0,70.7l-31,31"/>
			<path id="_Path_8" class="st8" d="M335.4,320.2h-17.6c-8,0-15.6-3.2-21.2-8.8l-37-37c-5.6-5.8-13.2-9.1-21.2-9.3h-133
				c-11,0-20,9-20,20v15c0,11,9,20,20,20h467c27.6,0,50,22.4,50,50l0,0v55c-0.1,75.6,29.9,148.1,83.5,201.5l2.8,2.8
				c19.5,19.5,19.5,51.2,0,70.7l-31,31"/>
		</g>
		<path id="Tram_12_Bolivar" class="st20" d="M648.4,58.2h-166c-16.6,0-30,13.4-30,30c0,0,0,0,0,0v62.2c0,8-3.2,15.6-8.8,21.2
			l-0.2,0.2c-11.7,11.7-11.7,30.7,0,42.4c0,0,0,0,0,0l0.2,0.2c5.6,5.6,8.8,13.3,8.8,21.2v84.6c0,16.6-13.4,30-30,30l0,0h-80
			c-16.6,0-30,13.4-30,30l0,0v235c0,10.6-4.2,22.5-15.5,33.8L179.5,766.4c-5.6,5.6-13.2,8.8-21.2,8.8H-23.1"/>
		<path id="Tram_4_Silsburg" class="st22" d="M-644.6,1030.3H-245c7.9,0,15.6-3.2,21.2-8.8l187.3-187.2c5.6-5.6,8.8-13.3,8.8-21.2
			v-97.1c0-7.9,3.1-15.6,8.7-21.2l72.3-72.2c5.8-5.8,9-13.6,9-21.7V488.5c0-16.6,13.4-30,30-30h70c16.6,0,30,13.4,30,30l0,0v72.6
			c0,8,3.1,15.6,8.7,21.2l85.5,84.5c5.6,5.6,13.2,8.7,21.1,8.7h183.5c8,0,15.7,3.2,21.3,8.9l48.1,48.3c5.6,5.7,13.3,8.9,21.3,8.9
			h62.6c8,0,13.8,2.9,21.4,8.6s-2.7-2-2.7-2c153,115.9,366.4,108.4,510.9-18c11.9-10.3,29.8-9.7,40.9,1.5l80.9,80.9"/>
		<path id="Tram_7_MAS-2" class="st14" d="M182.5,373.2V146.3c0-16.6-13.4-30-30-30h-74"/>
	</g>
	<g id="Stations">
		
			<use xlink:href="#Final_4"  width="18" height="48" id="Final_4-3" x="-9" y="-24" transform="matrix(1 0 0 1 121.44 425.1901)" style="overflow:visible;"/>
		
			<use xlink:href="#Final_2"  width="18" height="28" id="Final_2-3" x="-9" y="-14" transform="matrix(6.123234e-17 -1 1 6.123234e-17 307.44 510.1901)" style="overflow:visible;"/>
		
			<use xlink:href="#Final_2"  width="18" height="28" id="Final_2-6" x="-9" y="-14" transform="matrix(6.123234e-17 -1 1 6.123234e-17 187.44 490.1901)" style="overflow:visible;"/>
		
			<use xlink:href="#Final_2"  width="18" height="28" id="Final_2-9" x="-9" y="-14" transform="matrix(6.123234e-17 -1 1 6.123234e-17 187.44 550.1901)" style="overflow:visible;"/>
		
			<use xlink:href="#Final_2"  width="18" height="28" id="Final_2-12" x="-9" y="-14" transform="matrix(-0.71 -0.71 0.71 -0.71 209.46 597.08)" style="overflow:visible;"/>
		
			<use xlink:href="#Final_2"  width="18" height="28" id="Final_2-16" x="-9" y="-14" transform="matrix(6.123234e-17 -1 1 6.123234e-17 307.44 570.1901)" style="overflow:visible;"/>
	</g>
	<g id="Labels">
		<g id="Tram_4_Haltes">
			
				<use xlink:href="#New_Symbol_2"  width="18" height="18" id="New_Symbol_2-3" x="-9" y="-9" transform="matrix(6.123234e-17 -1 1 6.123234e-17 121.44 458.2901)" style="overflow:visible;"/>
			
				<use xlink:href="#New_Symbol_2"  width="18" height="18" id="New_Symbol_2-6" x="-9" y="-9" transform="matrix(6.123234e-17 -1 1 6.123234e-17 62.44 510.1901)" style="overflow:visible;"/>
			
				<use xlink:href="#New_Symbol_2"  width="18" height="18" id="New_Symbol_2-9" x="-9" y="-9" transform="matrix(1 0 0 1 62.26 570.1801)" style="overflow:visible;"/>
			<g id="_Group_16">
				<g id="_Group_17">
					<circle class="st0" cx="182.4" cy="163.8" r="7"/>
					<path class="st23" d="M182.4,158.8c2.8,0,5,2.2,5,5s-2.2,5-5,5s-5-2.2-5-5S179.7,158.8,182.4,158.8 M182.4,154.8c-5,0-9,4-9,9
						s4,9,9,9s9-4,9-9S187.4,154.8,182.4,154.8z"/>
				</g>
			</g>
			<g id="_Group_18">
				<g id="_Group_19">
					<circle class="st0" cx="132.4" cy="116.2" r="7"/>
					<path class="st23" d="M132.4,111.2c2.8,0,5,2.2,5,5s-2.2,5-5,5s-5-2.2-5-5S129.7,111.2,132.4,111.2 M132.4,107.2c-5,0-9,4-9,9
						s4,9,9,9s9-4,9-9S137.4,107.2,132.4,107.2z"/>
				</g>
			</g>
			<g id="_Group_20">
				<g id="_Group_21">
					<circle class="st0" cx="77.4" cy="116.3" r="7"/>
					<path class="st23" d="M77.4,111.3c2.8,0,5,2.2,5,5s-2.2,5-5,5s-5-2.2-5-5S74.7,111.3,77.4,111.3 M77.4,107.3c-5,0-9,4-9,9
						s4,9,9,9s9-4,9-9l0,0C86.4,111.3,82.4,107.3,77.4,107.3z"/>
				</g>
			</g>
		</g>
		<g id="Tram_12_Haltes">
			
				<use xlink:href="#Tram_12-2"  width="18" height="18" id="Tram_12-4" x="-9" y="-9" transform="matrix(1 0 0 1 452.44 240.8501)" style="overflow:visible;"/>
			
				<use xlink:href="#Tram_12-2"  width="18" height="18" id="Tram_12-7" x="-9" y="-9" transform="matrix(1 0 0 1 434.64 192.8901)" style="overflow:visible;"/>
			
				<use xlink:href="#Tram_12-2"  width="18" height="18" id="Tram_12-10" x="-9" y="-9" transform="matrix(1 0 0 1 452.44 97.4801)" style="overflow:visible;"/>
			
				<use xlink:href="#Tram_12-2"  width="18" height="18" id="Tram_12-13" x="-9" y="-9" transform="matrix(1 0 0 1 461.24 66.8901)" style="overflow:visible;"/>
			
				<use xlink:href="#Tram_12-2"  width="18" height="18" id="Tram_12-16" x="-9" y="-9" transform="matrix(1 0 0 1 452.44 144.9301)" style="overflow:visible;"/>
			
				<use xlink:href="#Tram_12-2"  width="18" height="18" id="Tram_12-19" x="-9" y="-9" transform="matrix(1 0 0 1 498.44 58.1901)" style="overflow:visible;"/>
			
				<use xlink:href="#Tram_12-2"  width="18" height="18" id="Tram_12-22" x="-9" y="-9" transform="matrix(1 0 0 1 578.49 58.1901)" style="overflow:visible;"/>
		</g>
		<g id="Tramcor_2-3_Haltes">
			
				<use xlink:href="#Final_4"  width="18" height="48" x="-9" y="-24" transform="matrix(0 1 -1 0 500.44 380.4401)" style="overflow:visible;"/>
			
				<use xlink:href="#Final_4"  width="18" height="48" id="Final_4-9" x="-9" y="-24" transform="matrix(-0.57 0.82 -0.82 -0.57 569.78 193.4801)" style="overflow:visible;"/>
			
				<use xlink:href="#Final_4"  width="18" height="48" id="Final_4-12" x="-9" y="-24" transform="matrix(-0.43 0.9 -0.9 -0.43 534.14 254.9901)" style="overflow:visible;"/>
			
				<use xlink:href="#Final_4"  width="18" height="48" id="Final_4-15" x="-9" y="-24" transform="matrix(-0.71 0.71 -0.71 -0.71 615.58 136.78)" style="overflow:visible;"/>
		</g>
		<g id="Groencor_Haltes">
			
				<use xlink:href="#Final_4"  width="18" height="48" x="-9" y="-24" transform="matrix(1 0 0 1 413.44 335.1901)" style="overflow:visible;"/>
			
				<use xlink:href="#Final_4"  width="18" height="48" id="Final_4-21" x="-9" y="-24" transform="matrix(1 0 0 1 340.44 335.1901)" style="overflow:visible;"/>
			
				<use xlink:href="#Final_2"  width="18" height="28" id="Final_2-20" x="-9" y="-14" transform="matrix(-1 0 0 -1 121.66 260.6601)" style="overflow:visible;"/>
			
				<use xlink:href="#Final_2"  width="18" height="28" id="Final_2-23" x="-9" y="-14" transform="matrix(-1 0 0 -1 242.09 261.3101)" style="overflow:visible;"/>
			
				<use xlink:href="#Final_2"  width="18" height="28" id="Final_2-26" x="-9" y="-14" transform="matrix(-0.71 -0.71 0.71 -0.71 279.9 287.61)" style="overflow:visible;"/>
			
				<use xlink:href="#Final_2"  width="18" height="28" id="Final_2-29" x="-9" y="-14" transform="matrix(0 -1 1 0 80.42 292.6901)" style="overflow:visible;"/>
			
				<use xlink:href="#Final_2"  width="18" height="28" id="Final_2-32" x="-9" y="-14" transform="matrix(-1 0 0 -1 242.09 325.8401)" style="overflow:visible;"/>
			
				<use xlink:href="#Final_2"  width="18" height="28" id="Final_2-35" x="-9" y="-14" transform="matrix(-1 0 0 -1 121.44 325.1901)" style="overflow:visible;"/>
		</g>
		<g id="Premet-Zuid_Haltes">
			
				<use xlink:href="#Final_4"  width="18" height="48" x="-9" y="-24" transform="matrix(1 0 0 1 378.77 425.1901)" style="overflow:visible;"/>
			
				<use xlink:href="#Final_4"  width="18" height="48" id="Final_4-27" x="-9" y="-24" transform="matrix(1 0 0 1 241.87 425.1901)" style="overflow:visible;"/>
			
				<use xlink:href="#Final_4"  width="18" height="48" id="Final_4-30" x="-9" y="-24" transform="matrix(0.23 0.97 -0.97 0.23 510.88 527.55)" style="overflow:visible;"/>
			
				<use xlink:href="#Final_4"  width="18" height="48" id="Final_4-33" x="-9" y="-24" transform="matrix(0.43 0.9 -0.9 0.43 533.97 595.3101)" style="overflow:visible;"/>
		</g>
	</g>
	<g id="Schildjes">
		<g id="_7">
			<path id="_Rectangle_24" class="st23" d="M40.4,109.2h16c2.2,0,4,1.8,4,4v6c0,2.2-1.8,4-4,4h-16c-2.2,0-4-1.8-4-4v-6
				C36.4,111,38.2,109.2,40.4,109.2z"/>
			<text transform="matrix(1 0 0 1 44.86 120.96)" class="st0 st24 st25">7</text>
		</g>
		<g id="_8">
			<path id="_Rectangle_25" class="st26" d="M450.4,373.2h16c2.2,0,4,1.8,4,4v6c0,2.2-1.8,4-4,4h-16c-2.2,0-4-1.8-4-4v-6
				C446.4,375,448.2,373.2,450.4,373.2z"/>
			<text transform="matrix(1 0 0 1 454.1799 384.96)" class="st27 st24 st25">8</text>
		</g>
		<g id="_10">
			<path id="_Rectangle_26" class="st28" d="M8.3,285.2h16c2.2,0,4,1.8,4,4v6c0,2.2-1.8,4-4,4h-16c-2.2,0-4-1.8-4-4v-6
				C4.3,287,6.1,285.2,8.3,285.2z"/>
			<text transform="matrix(1 0 0 1 8.75 296.96)" class="st0 st24 st25">10</text>
		</g>
		<g id="_11">
			<path id="_Rectangle_27" class="st29" d="M40.1,285.2h16c2.2,0,4,1.8,4,4v6c0,2.2-1.8,4-4,4h-16c-2.2,0-4-1.8-4-4v-6
				C36.1,287,37.9,285.2,40.1,285.2z"/>
			<g id="_Group_61">
				<text transform="matrix(1 0 0 1 42.95 296.96)" class="st30 st24 st25">11</text>
			</g>
		</g>
	</g>
	<g id="Overig">
		<g id="_Group_62">
			<g id="_Group_63">
				<path id="_Path_41" class="st31" d="M154.4,304h-38c-5.5,0-10-4.5-10-10v-0.8c0-5.5,4.5-10,10-10h19.4"/>
				<g id="_Group_64">
					<polygon id="_Path_42" class="st32" points="134.1,289.2 144.4,283.2 134.1,277.2 					"/>
				</g>
			</g>
		</g>
		<g id="_Group_65">
			<line class="st31" x1="468.5" y1="207.5" x2="468.5" y2="188.1"/>
			<polygon class="st32" points="474.5,189.9 468.5,179.5 462.5,189.9 			"/>
		</g>
		<g id="_Group_66">
			<path class="st31" d="M420.4,179.5l-1.2,3.3c-2,5.3-2.4,11-1.3,16.4"/>
			<polygon class="st32" points="411.8,199.3 420.4,207.5 423.3,195.9 			"/>
		</g>
	</g>
</g>
</svg>
