<svg xmlns="http://www.w3.org/2000/svg" xmlns:xlink="http://www.w3.org/1999/xlink" viewBox="0 0 600 600"><defs><style>.cls-1,.cls-52,.cls-56{fill:#fff;}.cls-2{fill:#a8b0b7;}.cls-3{fill:#1a95d3;}.cls-4{fill:#ec2231;}.cls-5{isolation:isolate;}.cls-10,.cls-11,.cls-12,.cls-13,.cls-14,.cls-15,.cls-16,.cls-17,.cls-18,.cls-19,.cls-20,.cls-21,.cls-22,.cls-23,.cls-24,.cls-58,.cls-6,.cls-7,.cls-8,.cls-9{fill:none;}.cls-6{stroke:#e0f3fa;stroke-width:80px;mix-blend-mode:darken;}.cls-10,.cls-23,.cls-56,.cls-58,.cls-6,.cls-9{stroke-miterlimit:10;}.cls-7{stroke:#843147;}.cls-10,.cls-11,.cls-12,.cls-13,.cls-14,.cls-15,.cls-16,.cls-17,.cls-18,.cls-19,.cls-20,.cls-21,.cls-22,.cls-23,.cls-24,.cls-7,.cls-8,.cls-9{stroke-linecap:round;}.cls-11,.cls-12,.cls-13,.cls-14,.cls-15,.cls-16,.cls-17,.cls-18,.cls-19,.cls-20,.cls-21,.cls-22,.cls-24,.cls-7,.cls-8{stroke-linejoin:round;}.cls-11,.cls-12,.cls-13,.cls-14,.cls-16,.cls-17,.cls-18,.cls-20,.cls-21,.cls-22,.cls-23,.cls-24,.cls-7,.cls-9{stroke-width:10px;}.cls-21,.cls-8{stroke:#f299c1;}.cls-10,.cls-8{stroke-width:6px;}.cls-9{stroke:#6d6e71;}.cls-10{stroke:#f1f2f2;}.cls-11{stroke:#f58220;}.cls-12{stroke:#853147;}.cls-13{stroke:#ffcb0c;}.cls-14{stroke:#e52991;}.cls-15,.cls-18,.cls-19{stroke:#fff;}.cls-15{stroke-width:8px;}.cls-16{stroke:#0b67b2;}.cls-17{stroke:#26b24b;}.cls-19{stroke-width:12px;}.cls-20{stroke:#bdd531;}.cls-22{stroke:#ed1f2f;}.cls-23,.cls-56{stroke:#9e2063;}.cls-24{stroke:#1a95d3;}.cls-25{fill:#0b67b2;}.cls-26,.cls-41,.cls-42,.cls-43,.cls-47,.cls-51{font-size:20px;fill:#231f20;font-family:CabinCondensed-SemiBold, Cabin Condensed;}.cls-26,.cls-41,.cls-42,.cls-43,.cls-47,.cls-51,.cls-52,.cls-54,.cls-57{font-weight:700;}.cls-27,.cls-42{letter-spacing:-0.01em;}.cls-28{letter-spacing:0em;}.cls-29{letter-spacing:0em;}.cls-30,.cls-47{letter-spacing:-0.01em;}.cls-31{letter-spacing:-0.01em;}.cls-32{letter-spacing:-0.01em;}.cls-33{letter-spacing:-0.01em;}.cls-34{letter-spacing:0em;}.cls-35{letter-spacing:0em;}.cls-36{letter-spacing:-0.01em;}.cls-37{letter-spacing:-0.01em;}.cls-38{letter-spacing:-0.02em;}.cls-39{letter-spacing:-0.01em;}.cls-40{letter-spacing:-0.01em;}.cls-41{letter-spacing:-0.08em;}.cls-43{letter-spacing:-0.01em;}.cls-44{letter-spacing:-0.03em;}.cls-45{letter-spacing:-0.01em;}.cls-46{letter-spacing:-0.09em;}.cls-48,.cls-51{letter-spacing:-0.01em;}.cls-49{letter-spacing:-0.03em;}.cls-50{letter-spacing:-0.01em;}.cls-52,.cls-54,.cls-57{font-size:14px;font-family:Cabin-Bold, Cabin;}.cls-53{fill:#f299c1;}.cls-54{fill:#843147;}.cls-55{fill:#bdd531;}.cls-57{fill:#9e2063;}.cls-58{stroke:#ccc;stroke-width:4px;}.cls-59{fill:#ccc;}</style><symbol id="Final_4" data-name="Final 4" viewBox="0 0 18 48"><g id="_Group_4" data-name="&lt;Group&gt;"><g id="_Rectangle_2" data-name="&lt;Rectangle&gt;"><path id="_Path_9" data-name="&lt;Path&gt;" class="cls-1" d="M9,46a7,7,0,0,1-7-7V9A7,7,0,0,1,16,9V39A7,7,0,0,1,9,46Z"/><path id="_Compound_Path_" data-name="&lt;Compound Path&gt;" class="cls-2" d="M9,4a5,5,0,0,1,5,5V39A5,5,0,0,1,4,39V9A5,5,0,0,1,9,4M9,0A9,9,0,0,0,0,9V39a9,9,0,0,0,18,0V9A9,9,0,0,0,9,0Z"/></g></g></symbol><symbol id="Final_2" data-name="Final 2" viewBox="0 0 18 28"><g id="_Group_5" data-name="&lt;Group&gt;"><g id="_Rectangle_3" data-name="&lt;Rectangle&gt;"><path id="_Path_10" data-name="&lt;Path&gt;" class="cls-1" d="M9,26a7,7,0,0,1-7-7V9A7,7,0,0,1,16,9V19A7,7,0,0,1,9,26Z"/><path id="_Compound_Path_2" data-name="&lt;Compound Path&gt;" class="cls-2" d="M9,4a5,5,0,0,1,5,5V19A5,5,0,0,1,4,19V9A5,5,0,0,1,9,4M9,0A9,9,0,0,0,0,9V19a9,9,0,0,0,18,0V9A9,9,0,0,0,9,0Z"/></g></g></symbol><symbol id="New_Symbol_2" data-name="New Symbol 2" viewBox="0 0 18 18"><g id="_Group_10" data-name="&lt;Group&gt;"><g id="_Group_11" data-name="&lt;Group&gt;"><circle id="_Path_15" data-name="&lt;Path&gt;" class="cls-1" cx="9" cy="9" r="7"/><path id="_Compound_Path_7" data-name="&lt;Compound Path&gt;" class="cls-3" d="M9,4A5,5,0,1,1,4,9,5,5,0,0,1,9,4M9,0a9,9,0,1,0,9,9A9,9,0,0,0,9,0Z"/></g></g></symbol><symbol id="Tram_12-2" data-name="Tram 12" viewBox="0 0 18 18"><g id="_Group_22" data-name="&lt;Group&gt;"><g id="_Group_23" data-name="&lt;Group&gt;"><circle id="_Path_18" data-name="&lt;Path&gt;" class="cls-1" cx="9" cy="9" r="7"/><path id="_Compound_Path_10" data-name="&lt;Compound Path&gt;" class="cls-4" d="M9,4A5,5,0,1,1,4,9,5,5,0,0,1,9,4M9,0a9,9,0,1,0,9,9A9,9,0,0,0,9,0Z"/></g></g></symbol></defs><title>antwerpen22</title><g class="cls-5"><g id="Tramlijnen"><path id="rivier" class="cls-6" d="M-918.56,1330.19v-240c0-193.3,156.7-350,350-350h136c235.18,0,425.74-191,425-426.37V-190.81c0-193.3-156.7-350-350-350H-714.71"/><g id="_Group_" data-name="&lt;Group&gt;"><path id="_Path_" data-name="&lt;Path&gt;" class="cls-7" d="M1346.45,581.21,1312.14,564a30,30,0,0,0-41.07,15.22,396.92,396.92,0,0,1-49,84.34l-.06.08a30,30,0,0,1-44.55,2.36L1055.24,544a30,30,0,0,1-8.8-21.22V499.61a30,30,0,0,0-8.79-21.21L1005.23,446A30,30,0,0,0,984,437.19H657.25a60,60,0,0,1-42.38-17.53l-30.63-30.58a30,30,0,0,0-21.32-8.9H502.44"/><path id="_Path_2" data-name="&lt;Path&gt;" class="cls-8" d="M1346.45,581.21,1312.14,564a30,30,0,0,0-41.07,15.22,396.92,396.92,0,0,1-49,84.34l-.06.08a30,30,0,0,1-44.55,2.36L1055.24,544a30,30,0,0,1-8.8-21.22V499.61a30,30,0,0,0-8.79-21.21L1005.23,446A30,30,0,0,0,984,437.19H657.25a60,60,0,0,1-42.38-17.53l-30.63-30.58a30,30,0,0,0-21.32-8.9H502.44"/></g><g id="_Group_2" data-name="&lt;Group&gt;"><path id="_Path_3" data-name="&lt;Path&gt;" class="cls-9" d="M-429.39,440.19H483.69a20,20,0,0,1,19.9,18.53l0,.07A402.16,402.16,0,0,0,553.87,623.3h0a50,50,0,0,1-7.24,61.55l-100,99.86a30,30,0,0,0,0,42.43l27.26,27.48c110.54,111.52,263.83,180.58,433.25,180.58h650.92"/><path id="_Path_4" data-name="&lt;Path&gt;" class="cls-10" d="M-429.39,440.19H483.69a20,20,0,0,1,19.9,18.53l0,.07A402.16,402.16,0,0,0,553.87,623.3h0a50,50,0,0,1-7.24,61.55l-100,99.86a30,30,0,0,0,0,42.43l27.26,27.48c110.54,111.52,263.83,180.58,433.25,180.58h650.92"/></g><path id="Tram_9_Linkeroever" data-name="Tram 9 Linkeroever" class="cls-11" d="M1092.91,773.89c-55.53,29.78-118.3,46.3-185.72,46.3-207.19,0-377.12-159.52-393.68-362.44a30,30,0,0,0-29.89-27.56h-913"/><path id="Tram_5_Sportpaleis" data-name="Tram 5 Sportpaleis" class="cls-12" d="M-429.39,420.19h913a30,30,0,0,0,29.89-27.56C530,189.71,700,30.19,907.19,30.19c200.78,0,366.57,149.8,391.7,343.73a30,30,0,0,0,29.76,26.27h423.54"/><path id="Tram_3_Zwijndrecht" data-name="Tram 3 Zwijndrecht" class="cls-13" d="M-814.39,410.19h1298a20,20,0,0,0,19.93-18.43,403.71,403.71,0,0,1,117.26-253L785.63-26a30,30,0,0,1,21.21-8.8h494.35"/><path id="Tram_6_Luchtbal" data-name="Tram 6 Luchtbal" class="cls-14" d="M367.44-44.81H704.06c26.73,0,40.11,32.31,21.21,51.21L631.92,99.76l-25,25A424.79,424.79,0,0,0,501.07,549.63"/><rect id="_Path_5" data-name="&lt;Path&gt;" class="cls-15" x="177.44" y="396.19" width="10" height="60"/><path id="Tram_7_MAS" data-name="Tram 7 MAS" class="cls-16" d="M1158.3,1045.19H907.44c-171.21,0-326.21-69.4-438.41-181.59l-3.32-3.68-271.5-271.5c-7.5-7.5-11.71-17.67-11.72-38.28l0-176.94"/><path id="Tram_2_Hoboken" data-name="Tram 2 Hoboken" class="cls-17" d="M-644.72,1040.19H160.87a40,40,0,0,0,28.28-11.72L539.83,677.8a40,40,0,0,0,5.49-49.71h0a412.55,412.55,0,0,1-35.5-83.63v-.05a408.8,408.8,0,0,1-17.4-119.2A413.7,413.7,0,0,1,613.89,131.84l22.17-22.17L778.84-33.1a40,40,0,0,1,28.28-11.71h494.32"/><path id="Tram_6_Luchtbal-2" data-name="Tram 6 Luchtbal" class="cls-14" d="M501,549.77a422.57,422.57,0,0,0,36.81,85.36h0a30,30,0,0,1-5,35.82L189.44,1014.29a20,20,0,0,0-5.86,14.14v39.36a30,30,0,0,1-30,30H108.44"/><rect id="_Path_6" data-name="&lt;Path&gt;" class="cls-18" x="297.32" y="397.79" width="19.99" height="60"/><rect id="_Rectangle_" data-name="&lt;Rectangle&gt;" class="cls-19" x="479.94" y="315.19" width="57" height="30.22"/><path id="Tram_10_Melkmarkt" data-name="Tram 10 Melkmarkt" class="cls-20" d="M1742.44,410.19H656.86a30,30,0,0,1-21.21-8.79l-59.93-59.5a40,40,0,0,0-28.28-11.72h-442a30,30,0,0,1-30-30v-15a30,30,0,0,1,30-30h132a42.48,42.48,0,0,1,29.14,12.18l62.86,62.82"/><path id="Tram_24_Silsburg" data-name="Tram 24 Silsburg" class="cls-21" d="M1302.69,805.44,932.08,434.83a50,50,0,0,0-35.36-14.64H657a40,40,0,0,1-28.28-11.72L569.23,349A30,30,0,0,0,548,340.19H342.44a40,40,0,0,0-40,40V613.62a40,40,0,0,1-11.72,28.28L109.23,823.4A30,30,0,0,1,88,832.19H-8.14A30,30,0,0,0-29.35,841l-320.89,320.89"/><line id="Tram_12b" data-name="Tram 12b" class="cls-22" x1="452.44" y1="149.85" x2="452.44" y2="237.19"/><g id="_Group_3" data-name="&lt;Group&gt;"><path id="_Path_7" data-name="&lt;Path&gt;" class="cls-23" d="M335.44,320.19H317.86a30,30,0,0,1-21.21-8.79l-37-37a30.47,30.47,0,0,0-21.21-9.26h-133a20,20,0,0,0-20,20v15a20,20,0,0,0,20,20h467a50,50,0,0,1,50,50v55a284.11,284.11,0,0,0,83.48,201.53l2.76,2.76a50,50,0,0,1,0,70.71l-31,31"/><path id="_Path_8" data-name="&lt;Path&gt;" class="cls-10" d="M335.44,320.19H317.86a30,30,0,0,1-21.21-8.79l-37-37a30.47,30.47,0,0,0-21.21-9.26h-133a20,20,0,0,0-20,20v15a20,20,0,0,0,20,20h467a50,50,0,0,1,50,50v55a284.11,284.11,0,0,0,83.48,201.53l2.76,2.76a50,50,0,0,1,0,70.71l-31,31"/></g><path id="Tram_12_Bolivar" data-name="Tram 12 Bolivar" class="cls-22" d="M648.44,58.19h-166a30,30,0,0,0-30,30v62.15a30,30,0,0,1-8.79,21.21l-.21.21a30,30,0,0,0,0,42.43l.21.21a30,30,0,0,1,8.79,21.21v84.57a30,30,0,0,1-30,30h-80a30,30,0,0,0-30,30v235c0,10.61-4.21,22.5-15.47,33.75L179.47,766.42a30,30,0,0,1-21.19,8.77H-23.14"/><path id="Tram_4_Silsburg" data-name="Tram 4 Silsburg" class="cls-24" d="M-644.56,1030.26H-245a30,30,0,0,0,21.19-8.78L-36.53,834.29a30,30,0,0,0,8.79-21.22V715.93A30,30,0,0,1-19,694.72L53.26,622.5a30.73,30.73,0,0,0,9-21.73V488.5a30,30,0,0,1,30-30h70a30,30,0,0,1,30,30v72.57A30,30,0,0,0,201,582.29l85.45,84.54a30,30,0,0,0,21.1,8.67H491.06a30,30,0,0,1,21.3,8.87l48.1,48.25a30,30,0,0,0,21.31,8.88H644.4c8,0,13.75,2.86,21.41,8.6s-2.74-2-2.74-2a404.86,404.86,0,0,0,510.92-18,29.94,29.94,0,0,1,40.87,1.47l80.86,80.86"/><path id="Tram_7_MAS-2" data-name="Tram 7 MAS" class="cls-16" d="M182.48,373.19l0-226.9a30,30,0,0,0-30-30h-74"/></g><g id="Stations"><use id="Final_4-3" data-name="Final 4" width="18" height="48" transform="translate(112.44 401.19)" xlink:href="#Final_4"/><use id="Final_2-3" data-name="Final 2" width="18" height="28" transform="translate(293.44 519.19) rotate(-90)" xlink:href="#Final_2"/><use id="Final_2-6" data-name="Final 2" width="18" height="28" transform="translate(173.44 499.19) rotate(-90)" xlink:href="#Final_2"/><use id="Final_2-9" data-name="Final 2" width="18" height="28" transform="translate(173.44 559.19) rotate(-90)" xlink:href="#Final_2"/><use id="Final_2-12" data-name="Final 2" width="18" height="28" transform="matrix(-0.71, -0.71, 0.71, -0.71, 205.91, 613.41)" xlink:href="#Final_2"/><use id="Final_2-16" data-name="Final 2" width="18" height="28" transform="translate(293.44 579.19) rotate(-90)" xlink:href="#Final_2"/></g><g id="Labels"><g id="Tram_4_Haltes" data-name="Tram 4 Haltes"><use id="New_Symbol_2-3" data-name="New Symbol 2" width="18" height="18" transform="translate(112.44 467.29) rotate(-90)" xlink:href="#New_Symbol_2"/><use id="New_Symbol_2-6" data-name="New Symbol 2" width="18" height="18" transform="translate(53.44 519.19) rotate(-90)" xlink:href="#New_Symbol_2"/><use id="New_Symbol_2-9" data-name="New Symbol 2" width="18" height="18" transform="matrix(1, 0, 0, 1, 53.26, 561.18)" xlink:href="#New_Symbol_2"/><g id="_Group_16" data-name="&lt;Group&gt;"><g id="_Group_17" data-name="&lt;Group&gt;"><circle class="cls-1" cx="182.44" cy="163.81" r="7"/><path class="cls-25" d="M182.44,158.81a5,5,0,1,1-5,5,5,5,0,0,1,5-5m0-4a9,9,0,1,0,9,9,9,9,0,0,0-9-9Z"/></g></g><g id="_Group_18" data-name="&lt;Group&gt;"><g id="_Group_19" data-name="&lt;Group&gt;"><circle class="cls-1" cx="132.44" cy="116.19" r="7"/><path class="cls-25" d="M132.44,111.19a5,5,0,1,1-5,5,5,5,0,0,1,5-5m0-4a9,9,0,1,0,9,9,9,9,0,0,0-9-9Z"/></g></g><g id="_Group_20" data-name="&lt;Group&gt;"><g id="_Group_21" data-name="&lt;Group&gt;"><circle class="cls-1" cx="77.44" cy="116.29" r="7"/><path class="cls-25" d="M77.44,111.29a5,5,0,1,1-5,5,5,5,0,0,1,5-5m0-4a9,9,0,1,0,9,9,9,9,0,0,0-9-9Z"/></g></g></g><g id="Tram_12_Haltes" data-name="Tram 12 Haltes"><use id="Tram_12-4" data-name="Tram 12" width="18" height="18" transform="translate(443.44 231.85)" xlink:href="#Tram_12-2"/><use id="Tram_12-7" data-name="Tram 12" width="18" height="18" transform="translate(425.64 183.89)" xlink:href="#Tram_12-2"/><use id="Tram_12-10" data-name="Tram 12" width="18" height="18" transform="translate(443.44 88.48)" xlink:href="#Tram_12-2"/><use id="Tram_12-13" data-name="Tram 12" width="18" height="18" transform="translate(452.24 57.89)" xlink:href="#Tram_12-2"/><use id="Tram_12-16" data-name="Tram 12" width="18" height="18" transform="translate(443.44 135.93)" xlink:href="#Tram_12-2"/><use id="Tram_12-19" data-name="Tram 12" width="18" height="18" transform="translate(489.44 49.19)" xlink:href="#Tram_12-2"/><use id="Tram_12-22" data-name="Tram 12" width="18" height="18" transform="translate(569.49 49.19)" xlink:href="#Tram_12-2"/></g><g id="Tram_12_Labels" data-name="Tram 12 Labels"><g id="_Group_36" data-name="&lt;Group&gt;"><text class="cls-26" transform="translate(535.97 41.08)">Schijnpoort</text></g><g id="_Group_37" data-name="&lt;Group&gt;"><text class="cls-26" transform="translate(476.69 22.91)"><tspan class="cls-27">H</tspan><tspan class="cls-28" x="12.52" y="0">a</tspan><tspan class="cls-29" x="21.04" y="0">l</tspan><tspan x="25.5" y="0">en</tspan><tspan x="0.97" y="18">st</tspan><tspan class="cls-30" x="14.27" y="18">r</tspan><tspan class="cls-28" x="20.03" y="18">a</tspan><tspan class="cls-31" x="28.55" y="18">a</tspan><tspan x="36.93" y="18">t</tspan></text></g><text class="cls-26" transform="translate(359.83 54.91)"><tspan class="cls-32">S</tspan><tspan x="9.74" y="0">tui</tspan><tspan class="cls-33" x="29.36" y="0">v</tspan><tspan class="cls-34" x="37.76" y="0">enbe</tspan><tspan class="cls-35" x="74.88" y="0">r</tspan><tspan x="80.68" y="0">g</tspan></text><text class="cls-26" transform="translate(366.65 102.51)">Gasst<tspan class="cls-30" x="40.56" y="0">r</tspan><tspan class="cls-28" x="46.32" y="0">a</tspan><tspan class="cls-31" x="54.84" y="0">a</tspan><tspan x="63.22" y="0">t</tspan></text><text class="cls-26" transform="translate(352.42 197.83)"><tspan class="cls-31">R</tspan><tspan x="10.62" y="0">icha</tspan><tspan class="cls-33" x="40.48" y="0">r</tspan><tspan x="46.18" y="0">d</tspan></text><text class="cls-26" transform="translate(351.64 245.85)"><tspan class="cls-29">D</tspan><tspan class="cls-34" x="12.28" y="0">e </tspan><tspan class="cls-36" x="25.02" y="0">C</tspan><tspan x="35.28" y="0">oninck</tspan></text><text class="cls-26" transform="translate(317.68 149.81)"><tspan class="cls-37">S</tspan><tspan x="9.86" y="0">i</tspan><tspan class="cls-30" x="14" y="0">n</tspan><tspan x="23.38" y="0">t-</tspan><tspan class="cls-31" x="36.38" y="0">G</tspan><tspan x="47.66" y="0">ummarus</tspan></text><g id="_Group_38" data-name="&lt;Group&gt;"><text class="cls-26" transform="translate(303.11 285.19)"><tspan class="cls-38">R</tspan><tspan x="10.4" y="0">oos</tspan><tspan class="cls-29" x="37.12" y="0">e</tspan><tspan class="cls-39" x="45.9" y="0">v</tspan><tspan x="54.3" y="0">e</tspan><tspan class="cls-40" x="63.18" y="0">l</tspan><tspan x="67.6" y="0">t</tspan><tspan x="14.49" y="18">pla</tspan><tspan class="cls-31" x="37.41" y="18">a</tspan><tspan x="45.79" y="18">ts</tspan></text></g><g id="_Group_39" data-name="&lt;Group&gt;"><text class="cls-26" transform="translate(382.51 285.19)"><tspan class="cls-36">C</tspan><tspan x="10.26" y="0">e</tspan><tspan class="cls-30" x="19.14" y="0">n</tspan><tspan class="cls-28" x="28.52" y="0">t</tspan><tspan class="cls-30" x="34.5" y="0">r</tspan><tspan x="40.26" y="0">aal</tspan><tspan class="cls-32" x="4.22" y="18">S</tspan><tspan x="13.96" y="18">t</tspan><tspan class="cls-31" x="19.94" y="18">a</tspan><tspan class="cls-28" x="28.32" y="18">tion</tspan></text></g><text class="cls-26" transform="translate(325.29 577.3)"><tspan class="cls-32">S</tspan><tspan x="9.74" y="0">tadspark</tspan></text><text class="cls-41" transform="translate(325.29 516.19)">T<tspan class="cls-34" x="7.94" y="0">eniers</tspan></text></g><g id="Tramcor_2-3_Haltes" data-name="Tramcor 2-3 Haltes"><use id="Final_4-6" data-name="Final 4" width="18" height="48" transform="matrix(0, 1, -1, 0, 524.44, 371.44)" xlink:href="#Final_4"/><use id="Final_4-9" data-name="Final 4" width="18" height="48" transform="matrix(-0.57, 0.82, -0.82, -0.57, 594.59, 199.78)" xlink:href="#Final_4"/><use id="Final_4-12" data-name="Final 4" width="18" height="48" transform="matrix(-0.43, 0.9, -0.9, -0.43, 559.61, 257.21)" xlink:href="#Final_4"/><use id="Final_4-15" data-name="Final 4" width="18" height="48" transform="matrix(-0.71, 0.71, -0.71, -0.71, 639.01, 147.43)" xlink:href="#Final_4"/></g><g id="Tramcor_2-3_Labels" data-name="Tramcor 2-3 Labels"><text class="cls-26" transform="translate(595.9 4.36)">Gast<tspan class="cls-35" x="33.24" y="0">h</tspan><tspan x="42.66" y="0">uisho</tspan><tspan class="cls-29" x="82.82" y="0">e</tspan><tspan class="cls-39" x="91.6" y="0">v</tspan><tspan x="100" y="0">e</tspan></text><text class="cls-42" transform="translate(595.02 224.99)">H<tspan class="cls-28" x="12.52" y="0">andel</tspan></text><text class="cls-26" transform="translate(561.63 282.35)">Elisabeth</text><text class="cls-26" transform="translate(396.49 387.19)">Astrid</text></g><g id="Tram_4" data-name="Tram 4"><text class="cls-26" transform="translate(208.96 557.19)"><tspan class="cls-29">O</tspan><tspan x="12.96" y="0">udaan</tspan></text><text class="cls-43" transform="translate(208.06 497.19)">M<tspan class="cls-34" x="14.22" y="0">eirbrug</tspan></text><text class="cls-26" transform="translate(80.39 168.81)"><tspan class="cls-44">K</tspan><tspan class="cls-34" x="9.98" y="0">ei</tspan><tspan class="cls-45" x="23" y="0">z</tspan><tspan x="30.98" y="0">erst</tspan><tspan class="cls-30" x="59.04" y="0">r</tspan><tspan x="64.8" y="0">a</tspan><tspan class="cls-40" x="73.32" y="0">a</tspan><tspan x="81.7" y="0">t</tspan></text><text class="cls-26" transform="translate(98.03 98.98)">Klapdorp</text><text class="cls-26" transform="translate(-91.35 122.19)"><tspan class="cls-37">S</tspan><tspan x="9.86" y="0">i</tspan><tspan class="cls-30" x="14" y="0">n</tspan><tspan x="23.38" y="0">t-</tspan><tspan class="cls-30" x="36.38" y="0">P</tspan><tspan x="46.56" y="0">ietersvliet</tspan></text><text class="cls-26" transform="translate(78.63 516.19)"><tspan class="cls-32">S</tspan><tspan x="9.74" y="0">t. Andries</tspan></text><text class="cls-26" transform="translate(78.63 557.19)"><tspan class="cls-46">T</tspan><tspan class="cls-33" x="7.66" y="0">r</tspan><tspan x="13.36" y="0">opisch</tspan><tspan class="cls-33" x="0" y="18">I</tspan><tspan x="4.66" y="18">nstituut</tspan></text><text class="cls-47" transform="translate(76.6 393.48)">G<tspan class="cls-33" x="11.3" y="0">r</tspan><tspan class="cls-28" x="17" y="0">oenpla</tspan><tspan class="cls-31" x="68" y="0">a</tspan><tspan class="cls-28" x="76.38" y="0">ts</tspan></text></g><g id="Groencor_Haltes" data-name="Groencor Haltes"><use id="Final_4-18" data-name="Final 4" width="18" height="48" transform="translate(404.44 311.19)" xlink:href="#Final_4"/><use id="Final_4-21" data-name="Final 4" width="18" height="48" transform="translate(331.44 311.19)" xlink:href="#Final_4"/><use id="Final_2-20" data-name="Final 2" width="18" height="28" transform="translate(130.66 274.66) rotate(180)" xlink:href="#Final_2"/><use id="Final_2-23" data-name="Final 2" width="18" height="28" transform="translate(251.09 275.31) rotate(180)" xlink:href="#Final_2"/><use id="Final_2-26" data-name="Final 2" width="18" height="28" transform="matrix(-0.71, -0.71, 0.71, -0.71, 276.35, 303.94)" xlink:href="#Final_2"/><use id="Final_2-29" data-name="Final 2" width="18" height="28" transform="matrix(0, -1, 1, 0, 66.42, 301.69)" xlink:href="#Final_2"/><use id="Final_2-32" data-name="Final 2" width="18" height="28" transform="translate(251.09 339.84) rotate(180)" xlink:href="#Final_2"/><use id="Final_2-35" data-name="Final 2" width="18" height="28" transform="translate(130.44 339.19) rotate(180)" xlink:href="#Final_2"/></g><g id="Groencor_Labels" data-name="Groencor Labels"><g id="_Group_52" data-name="&lt;Group&gt;"><text class="cls-26" transform="translate(202.65 297.69)"><tspan class="cls-48">J</tspan><tspan class="cls-34" x="4.6" y="0">ezusst</tspan><tspan class="cls-49" x="51.72" y="0">r</tspan><tspan x="57.02" y="0">.</tspan></text></g><g id="_Group_53" data-name="&lt;Group&gt;"><text class="cls-26" transform="translate(210.41 355.19)"><tspan class="cls-32">S</tspan><tspan x="9.74" y="0">t. </tspan><tspan class="cls-27" x="23.64" y="0">J</tspan><tspan x="28.3" y="0">a</tspan><tspan class="cls-50" x="36.82" y="0">c</tspan><tspan class="cls-28" x="44.36" y="0">ob</tspan></text></g><g id="_Group_54" data-name="&lt;Group&gt;"><text class="cls-26" transform="translate(210.41 238.64)"><tspan class="cls-32">S</tspan><tspan x="9.74" y="0">t. </tspan><tspan class="cls-27" x="23.64" y="0">J</tspan><tspan x="28.3" y="0">a</tspan><tspan class="cls-50" x="36.82" y="0">c</tspan><tspan class="cls-28" x="44.36" y="0">ob</tspan></text></g><g id="_Group_55" data-name="&lt;Group&gt;"><text class="cls-26" transform="translate(72.32 238.64)"><tspan class="cls-32">S</tspan><tspan x="9.74" y="0">t. K</tspan><tspan class="cls-31" x="34.28" y="0">a</tspan><tspan class="cls-28" x="42.66" y="0">thelijne</tspan></text></g><g id="_Group_56" data-name="&lt;Group&gt;"><text class="cls-26" transform="translate(72.32 357.14)"><tspan class="cls-32">S</tspan><tspan x="9.74" y="0">t. K</tspan><tspan class="cls-31" x="34.28" y="0">a</tspan><tspan class="cls-28" x="42.66" y="0">thelijne</tspan></text></g></g><g id="Premet-Zuid_Haltes" data-name="Premet-Zuid Haltes"><use id="Final_4-24" data-name="Final 4" width="18" height="48" transform="translate(369.77 401.19)" xlink:href="#Final_4"/><use id="Final_4-27" data-name="Final 4" width="18" height="48" transform="translate(232.87 401.19)" xlink:href="#Final_4"/><use id="Final_4-30" data-name="Final 4" width="18" height="48" transform="matrix(0.23, 0.97, -0.97, 0.23, 532.09, 513.3)" xlink:href="#Final_4"/><use id="Final_4-33" data-name="Final 4" width="18" height="48" transform="matrix(0.43, 0.9, -0.9, 0.43, 551.7, 576.89)" xlink:href="#Final_4"/></g><g id="Premet-Zuid_Labels" data-name="Premet-Zuid Labels"><text class="cls-51" transform="translate(225.31 393.48)">M<tspan class="cls-34" x="14.22" y="0">eir</tspan></text><text class="cls-26" transform="translate(355.81 467.19)"><tspan class="cls-31">O</tspan><tspan x="12.92" y="0">pe</tspan><tspan class="cls-30" x="31.64" y="0">r</tspan><tspan class="cls-28" x="37.4" y="0">a</tspan></text><text class="cls-26" transform="translate(561.18 582.13)"><tspan class="cls-29">P</tspan><tspan x="10.2" y="0">la</tspan><tspan class="cls-30" x="23.28" y="0">n</tspan><tspan x="32.66" y="0">tin</tspan></text><text class="cls-26" transform="translate(540.76 528.56)"><tspan class="cls-50">D</tspan><tspan x="12.22" y="0">iama</tspan><tspan class="cls-30" x="48.28" y="0">n</tspan><tspan x="57.66" y="0">t</tspan></text></g></g><g id="Schildjes"><g id="_7" data-name="7"><rect id="_Rectangle_24" data-name="&lt;Rectangle&gt;" class="cls-25" x="36.43" y="109.19" width="24" height="14" rx="4" ry="4"/><text class="cls-52" transform="translate(44.86 120.96)">7</text></g><g id="_8" data-name="8"><rect id="_Rectangle_25" data-name="&lt;Rectangle&gt;" class="cls-53" x="446.39" y="373.19" width="24" height="14" rx="4" ry="4"/><text class="cls-54" transform="translate(454.18 384.96)">8</text></g><g id="_10" data-name="10"><rect id="_Rectangle_26" data-name="&lt;Rectangle&gt;" class="cls-55" x="4.27" y="285.19" width="24" height="14" rx="4" ry="4"/><text class="cls-52" transform="translate(8.75 296.96)">10</text></g><g id="_11" data-name="11"><rect id="_Rectangle_27" data-name="&lt;Rectangle&gt;" class="cls-56" x="36.12" y="285.19" width="24" height="14" rx="4" ry="4"/><g id="_Group_61" data-name="&lt;Group&gt;"><text class="cls-57" transform="translate(42.95 296.96)">11</text></g></g></g><g id="Overig"><g id="_Group_62" data-name="&lt;Group&gt;"><g id="_Group_63" data-name="&lt;Group&gt;"><path id="_Path_41" data-name="&lt;Path&gt;" class="cls-58" d="M154.44,304h-38a10,10,0,0,1-10-10v-.83a10,10,0,0,1,10-10h19.39"/><g id="_Group_64" data-name="&lt;Group&gt;"><polygon id="_Path_42" data-name="&lt;Path&gt;" class="cls-59" points="134.08 289.17 144.44 283.19 134.08 277.2 134.08 289.17"/></g></g></g><g id="_Group_65" data-name="&lt;Group&gt;"><line class="cls-58" x1="468.48" y1="207.52" x2="468.48" y2="188.13"/><polygon class="cls-59" points="474.46 189.88 468.48 179.52 462.49 189.88 474.46 189.88"/></g><g id="_Group_66" data-name="&lt;Group&gt;"><path class="cls-58" d="M420.44,179.52l-1.24,3.32a30,30,0,0,0-1.31,16.45"/><polygon class="cls-59" points="411.79 199.25 420.44 207.52 423.28 195.9 411.79 199.25"/></g></g></g></svg>