<svg xmlns="http://www.w3.org/2000/svg" xmlns:xlink="http://www.w3.org/1999/xlink" viewBox="0 0 259 206.66"><defs><style>.cls-1,.cls-2,.cls-3,.cls-4,.cls-5{fill:none;}.cls-1,.cls-5{stroke-linejoin:round;stroke-width:8px;}.cls-1{stroke:url(#linear-gradient);}.cls-2{stroke:#c4c4c4;}.cls-2,.cls-3,.cls-4{stroke-miterlimit:10;}.cls-3{stroke:#dadada;}.cls-4{stroke:#efefef;}.cls-5{stroke:url(#linear-gradient-2);}</style><linearGradient id="linear-gradient" x1="129.11" y1="199.49" x2="129.11" y2="7.18" gradientUnits="userSpaceOnUse"><stop offset="0" stop-color="#0e5f99"/><stop offset="1" stop-color="#1dc7a2"/></linearGradient><linearGradient id="linear-gradient-2" x1="130" y1="152.15" x2="130" y2="70.34" xlink:href="#linear-gradient"/></defs><title>Artboard 7</title><g id="Layer_14" data-name="Layer 14"><polygon class="cls-1" points="129.1 195.49 72.41 111.34 129.1 11.18 185.8 111.34 129.1 195.49"/><polyline class="cls-2" points="98.43 203.06 37.08 112.01 98.43 3.61"/><polyline class="cls-3" points="71.08 187.71 19.95 110.67 71.08 18.96"/><polyline class="cls-4" points="43.73 172.35 2.83 109.34 43.73 34.32"/><polyline class="cls-2" points="159.78 3.6 221.13 112.01 159.78 203.06"/><polyline class="cls-3" points="187.13 18.96 238.26 110.67 187.13 187.7"/><polyline class="cls-4" points="214.48 34.32 255.38 109.34 214.49 172.35"/><polyline class="cls-5" points="72.41 111.15 129.98 74.34 185.8 111.15 185.8 111.34 128.23 148.15 72.41 111.34"/></g></svg>