<svg id="Layer_1" data-name="Layer 1" xmlns="http://www.w3.org/2000/svg" viewBox="0 0 328.45 15"><defs><style>.cls-1{fill:#15919d;}</style></defs><title>eth15</title><path class="cls-1" d="M160.3,10.41l1.32-.16V5h-1.34v-.9l2.9-.53v6.72l1.32.16v.94H160.3Z"/><path class="cls-1" d="M169.29,5.32l-.14-.53H167l-.22,1.8a2,2,0,0,1,.53-.27,2.44,2.44,0,0,1,2.42.57,2.84,2.84,0,0,1,.62,1.95,2.68,2.68,0,0,1-.68,1.87,2.51,2.51,0,0,1-2,.75,2.94,2.94,0,0,1-1.84-.59,1.86,1.86,0,0,1-.74-1.62v0l1.5-.08A1.09,1.09,0,0,0,167,10a1.05,1.05,0,0,0,.77.29.91.91,0,0,0,.81-.39,1.79,1.79,0,0,0,.26-1,1.88,1.88,0,0,0-.28-1.08.94.94,0,0,0-.83-.41,1.19,1.19,0,0,0-.69.17.91.91,0,0,0-.34.45l-1.39-.09.45-4.36h4.5V5.32Z"/></svg>