<svg id="Layer_1" data-name="Layer 1" xmlns="http://www.w3.org/2000/svg" xmlns:xlink="http://www.w3.org/1999/xlink" viewBox="0 0 340.16 204.67"><defs><style>.cls-1,.cls-5{fill:#fff;}.cls-1{stroke:#18a59f;}.cls-1,.cls-4{stroke-linejoin:round;stroke-width:2px;}.cls-2{fill:#18a59f;}.cls-3{fill:url(#linear-gradient);}.cls-4{fill:none;stroke:#fff;}.cls-6{fill:#9a9a9b;}</style><linearGradient id="linear-gradient" x1="169.47" y1="84.43" x2="169.47" y2="204.67" gradientUnits="userSpaceOnUse"><stop offset="0" stop-color="#1dc7a2"/><stop offset="1" stop-color="#16969e"/></linearGradient></defs><title>ethblock</title><rect class="cls-1" x="156.11" y="21.02" width="26.98" height="30.95" rx="8.5" ry="8.5" transform="matrix(-1, 0, 0, -1, 339.21, 72.98)"/><polygon class="cls-2" points="164.34 34.68 161.78 34.68 161.78 32.56 169.47 32.56 169.47 34.68 166.91 34.68 166.91 42.14 164.34 42.14 164.34 34.68"/><path class="cls-2" d="M172.3,37.21l-2.47-4.66h2.86l.66,1.56q.16.34.32.73t.37.86h.06q.16-.47.31-.86l.28-.73.57-1.56H178l-2.47,4.77,2.62,4.8h-2.86l-.77-1.71q-.18-.38-.34-.77l-.34-.83h-.06l-.31.83q-.15.38-.31.77l-.72,1.71h-2.74Z"/><rect class="cls-3" x="68.6" y="84.43" width="201.73" height="120.24" rx="11.34" ry="11.34"/><rect class="cls-4" x="79.46" y="162.82" width="26.98" height="30.95" rx="8.5" ry="8.5" transform="matrix(-1, 0, 0, -1, 185.89, 356.59)"/><path class="cls-5" d="M87.68,176.49H85.12v-2.12h7.69v2.12H90.25v7.46H87.68Zm8,2.53-2.47-4.66H96l.66,1.56q.16.34.32.73t.37.86h.06q.16-.47.31-.86l.28-.73.57-1.56h2.74l-2.47,4.77,2.62,4.8H98.62l-.77-1.71q-.18-.38-.34-.77l-.34-.83H97.1l-.31.83q-.15.38-.31.77l-.72,1.71H93Z"/><rect class="cls-4" x="117.49" y="162.82" width="26.98" height="30.95" rx="8.5" ry="8.5" transform="matrix(-1, 0, 0, -1, 261.97, 356.59)"/><path class="cls-5" d="M125.72,176.49h-2.56v-2.12h7.69v2.12h-2.56v7.46h-2.56Zm8,2.53-2.47-4.66h2.86l.66,1.56q.16.34.32.73t.37.86h.06q.16-.47.31-.86l.28-.73.57-1.56h2.74l-2.47,4.77,2.62,4.8h-2.86l-.77-1.71q-.18-.38-.34-.77l-.34-.83h-.06l-.31.83q-.15.38-.31.77l-.72,1.71h-2.74Z"/><rect class="cls-4" x="156.25" y="162.82" width="26.98" height="30.95" rx="8.5" ry="8.5" transform="matrix(-1, 0, 0, -1, 339.48, 356.59)"/><path class="cls-5" d="M164.47,176.49h-2.56v-2.12h7.69v2.12H167v7.46h-2.56Zm8,2.53L170,174.37h2.86l.66,1.56q.16.34.32.73t.37.86h.06q.16-.47.31-.86l.28-.73.57-1.56h2.74l-2.47,4.77,2.62,4.8h-2.86l-.77-1.71q-.18-.38-.34-.77l-.34-.83h-.06l-.31.83q-.15.38-.31.77l-.72,1.71h-2.74Z"/><rect class="cls-4" x="194.9" y="162.82" width="26.98" height="30.95" rx="8.5" ry="8.5" transform="matrix(-1, 0, 0, -1, 416.79, 356.59)"/><path class="cls-5" d="M203.13,176.49h-2.56v-2.12h7.69v2.12h-2.56v7.46h-2.56Zm8,2.53-2.47-4.66h2.86l.66,1.56q.16.34.32.73t.37.86h.06q.16-.47.31-.86l.28-.73.57-1.56h2.74l-2.47,4.77,2.62,4.8h-2.86l-.77-1.71q-.18-.38-.34-.77l-.34-.83h-.06l-.31.83q-.15.38-.31.77l-.72,1.71h-2.74Z"/><rect class="cls-4" x="232.5" y="162.82" width="26.98" height="30.95" rx="8.5" ry="8.5" transform="matrix(-1, 0, 0, -1, 491.98, 356.59)"/><path class="cls-5" d="M240.73,176.49h-2.56v-2.12h7.69v2.12h-2.56v7.46h-2.56Zm8,2.53-2.47-4.66h2.86l.66,1.56q.16.34.32.73t.37.86h.06q.16-.47.31-.86l.28-.73.57-1.56h2.74l-2.47,4.77,2.62,4.8h-2.86l-.77-1.71q-.18-.38-.34-.77l-.34-.83h-.06l-.31.83q-.15.38-.31.77l-.72,1.71h-2.74Z"/><rect class="cls-4" x="79.46" y="131.88" width="26.98" height="30.95" rx="8.5" ry="8.5" transform="matrix(-1, 0, 0, -1, 185.89, 294.7)"/><path class="cls-5" d="M87.68,145.54H85.12v-2.12h7.69v2.12H90.25V153H87.68Zm8,2.53-2.47-4.66H96l.66,1.56q.16.34.32.73t.37.86h.06q.16-.47.31-.86L98,145l.57-1.56h2.74l-2.47,4.77,2.62,4.8H98.62l-.77-1.71q-.18-.38-.34-.77l-.34-.83H97.1l-.31.83q-.15.38-.31.77L95.76,153H93Z"/><rect class="cls-4" x="117.49" y="131.88" width="26.98" height="30.95" rx="8.5" ry="8.5" transform="matrix(-1, 0, 0, -1, 261.97, 294.7)"/><path class="cls-5" d="M125.72,145.54h-2.56v-2.12h7.69v2.12h-2.56V153h-2.56Zm8,2.53-2.47-4.66h2.86l.66,1.56q.16.34.32.73t.37.86h.06q.16-.47.31-.86l.28-.73.57-1.56h2.74l-2.47,4.77,2.62,4.8h-2.86l-.77-1.71q-.18-.38-.34-.77l-.34-.83h-.06l-.31.83q-.15.38-.31.77L133.8,153h-2.74Z"/><rect class="cls-4" x="156.25" y="131.88" width="26.98" height="30.95" rx="8.5" ry="8.5" transform="matrix(-1, 0, 0, -1, 339.48, 294.7)"/><path class="cls-5" d="M164.47,145.54h-2.56v-2.12h7.69v2.12H167V153h-2.56Zm8,2.53L170,143.42h2.86l.66,1.56q.16.34.32.73t.37.86h.06q.16-.47.31-.86l.28-.73.57-1.56h2.74l-2.47,4.77,2.62,4.8h-2.86l-.77-1.71q-.18-.38-.34-.77l-.34-.83h-.06l-.31.83q-.15.38-.31.77l-.72,1.71h-2.74Z"/><rect class="cls-4" x="194.9" y="131.88" width="26.98" height="30.95" rx="8.5" ry="8.5" transform="matrix(-1, 0, 0, -1, 416.79, 294.7)"/><path class="cls-5" d="M203.13,145.54h-2.56v-2.12h7.69v2.12h-2.56V153h-2.56Zm8,2.53-2.47-4.66h2.86l.66,1.56q.16.34.32.73t.37.86h.06q.16-.47.31-.86l.28-.73.57-1.56h2.74l-2.47,4.77,2.62,4.8h-2.86l-.77-1.71q-.18-.38-.34-.77l-.34-.83h-.06l-.31.83q-.15.38-.31.77l-.72,1.71h-2.74Z"/><rect class="cls-4" x="232.5" y="131.88" width="26.98" height="30.95" rx="8.5" ry="8.5" transform="matrix(-1, 0, 0, -1, 491.98, 294.7)"/><path class="cls-5" d="M240.73,145.54h-2.56v-2.12h7.69v2.12h-2.56V153h-2.56Zm8,2.53-2.47-4.66h2.86l.66,1.56q.16.34.32.73t.37.86h.06q.16-.47.31-.86l.28-.73.57-1.56h2.74l-2.47,4.77,2.62,4.8h-2.86l-.77-1.71q-.18-.38-.34-.77l-.34-.83h-.06l-.31.83q-.15.38-.31.77L248.8,153h-2.74Z"/><rect class="cls-4" x="79.46" y="99.54" width="180.03" height="27.62" rx="8.5" ry="8.5"/><path class="cls-6" d="M115.58,3.28v1.9h-.66l-.06-1.27h-2.51v7.77l1,.08v.55h-2.77v-.55l1-.08V3.91h-2.5l0,1.27h-.66V3.28Z"/><path class="cls-6" d="M116.35,3.18V2.63h1.75V6.74a2.4,2.4,0,0,1,2.2-1.27,2,2,0,0,1,1.63.66,3.07,3.07,0,0,1,.57,2v3.51l1,.08v.55h-2.77v-.55l1-.08V8.16a2.3,2.3,0,0,0-.43-1.57,1.52,1.52,0,0,0-1.19-.47,2,2,0,0,0-1.27.4,2.32,2.32,0,0,0-.75,1.06v4.1l1,.08v.55h-2.76v-.55l1-.08V3.26Z"/><path class="cls-6" d="M124.57,11.76l1-.08V6.23l-1-.08V5.6h1.75v6.08l1,.08v.55h-2.76Zm1.75-8.09h-.74v-1h.74Z"/><path class="cls-6" d="M133.44,7.67h-.61l-.09-.95a1.88,1.88,0,0,0-.7-.45,2.74,2.74,0,0,0-1-.16,1.82,1.82,0,0,0-1.22.35,1.05,1.05,0,0,0-.41.82,1,1,0,0,0,.35.77,3.42,3.42,0,0,0,1.4.53,4.58,4.58,0,0,1,1.79.73,1.5,1.5,0,0,1,.6,1.26,1.63,1.63,0,0,1-.68,1.35,2.88,2.88,0,0,1-1.79.52,4.21,4.21,0,0,1-1.36-.21,3.22,3.22,0,0,1-1.06-.59V10.29h.6l.11,1a1.74,1.74,0,0,0,.75.43,3.37,3.37,0,0,0,1,.13,2.05,2.05,0,0,0,1.27-.35,1,1,0,0,0,.46-.86,1.09,1.09,0,0,0-.39-.83,3.15,3.15,0,0,0-1.4-.58,4.71,4.71,0,0,1-1.78-.69,1.42,1.42,0,0,1-.58-1.21,1.62,1.62,0,0,1,.65-1.3,2.63,2.63,0,0,1,1.72-.53,3.84,3.84,0,0,1,1.35.23,2.73,2.73,0,0,1,1,.61Z"/><path class="cls-6" d="M138,11.76l1-.08V6.23l-1-.08V5.6h1.75v6.08l1,.08v.55H138Zm1.75-8.09H139v-1h.74Z"/><path class="cls-6" d="M146.84,7.67h-.61l-.09-.95a1.88,1.88,0,0,0-.7-.45,2.74,2.74,0,0,0-1-.16,1.82,1.82,0,0,0-1.22.35,1.05,1.05,0,0,0-.41.82,1,1,0,0,0,.35.77,3.42,3.42,0,0,0,1.4.53,4.58,4.58,0,0,1,1.79.73,1.5,1.5,0,0,1,.6,1.26,1.63,1.63,0,0,1-.68,1.35,2.88,2.88,0,0,1-1.79.52,4.21,4.21,0,0,1-1.36-.21,3.22,3.22,0,0,1-1.06-.59V10.29h.6l.11,1a1.74,1.74,0,0,0,.75.43,3.37,3.37,0,0,0,1,.13,2.05,2.05,0,0,0,1.27-.35,1,1,0,0,0,.46-.86,1.09,1.09,0,0,0-.39-.83,3.15,3.15,0,0,0-1.4-.58,4.71,4.71,0,0,1-1.78-.69,1.42,1.42,0,0,1-.58-1.21,1.62,1.62,0,0,1,.65-1.3,2.63,2.63,0,0,1,1.72-.53,3.84,3.84,0,0,1,1.35.23,2.73,2.73,0,0,1,1,.61Z"/><path class="cls-6" d="M156.05,12.3q-.07-.34-.11-.59a4.08,4.08,0,0,1,0-.5,3,3,0,0,1-1,.88,2.8,2.8,0,0,1-1.39.35,2.14,2.14,0,0,1-1.53-.51,1.8,1.8,0,0,1-.54-1.38,1.7,1.7,0,0,1,.8-1.48,3.8,3.8,0,0,1,2.17-.55h1.48V7.64a1.43,1.43,0,0,0-.46-1.13,1.88,1.88,0,0,0-1.29-.41,3.24,3.24,0,0,0-1,.15,2.32,2.32,0,0,0-.77.41l-.06.9h-.61V6.28a3.88,3.88,0,0,1,1.11-.58,4.22,4.22,0,0,1,1.38-.22A2.69,2.69,0,0,1,156,6a2,2,0,0,1,.68,1.62V11c0,.14,0,.27,0,.39a3,3,0,0,0,0,.37l.67,0v.55Zm-2.44-.53a2.68,2.68,0,0,0,1.42-.37,2.2,2.2,0,0,0,.89-1V9.1h-1.49a2.79,2.79,0,0,0-1.62.42,1.25,1.25,0,0,0-.6,1.06,1.11,1.11,0,0,0,.38.87A1.51,1.51,0,0,0,153.61,11.78Z"/><path class="cls-6" d="M163.22,3.88V5.6h1.48V6.2h-1.48v4.37a1.43,1.43,0,0,0,.24.93.8.8,0,0,0,.64.28l.35,0,.39-.05.11.55a2,2,0,0,1-.45.12,3.38,3.38,0,0,1-.53,0,1.39,1.39,0,0,1-1.1-.45,2.1,2.1,0,0,1-.39-1.41V6.2h-1.15V5.6h1.15V3.88Z"/><path class="cls-6" d="M167.66,5.6l.09,1.12v.08a2.37,2.37,0,0,1,.78-1,2,2,0,0,1,1.17-.35l.28,0,.22,0-.1.69-.55,0a1.68,1.68,0,0,0-1.15.39,2.17,2.17,0,0,0-.64,1.08v4l1,.08v.55H166v-.55l1-.08V6.23l-1-.08V5.6h1.66Z"/><path class="cls-6" d="M175.79,12.3q-.07-.34-.11-.59a4.08,4.08,0,0,1,0-.5,3,3,0,0,1-1,.88,2.8,2.8,0,0,1-1.39.35,2.14,2.14,0,0,1-1.53-.51,1.8,1.8,0,0,1-.54-1.38,1.7,1.7,0,0,1,.8-1.48,3.8,3.8,0,0,1,2.17-.55h1.48V7.64a1.43,1.43,0,0,0-.46-1.13,1.88,1.88,0,0,0-1.29-.41,3.24,3.24,0,0,0-1,.15,2.32,2.32,0,0,0-.77.41l-.06.9h-.61V6.28a3.88,3.88,0,0,1,1.11-.58,4.22,4.22,0,0,1,1.38-.22,2.69,2.69,0,0,1,1.79.56,2,2,0,0,1,.68,1.62V11c0,.14,0,.27,0,.39a3,3,0,0,0,0,.37l.67,0v.55Zm-2.44-.53a2.68,2.68,0,0,0,1.42-.37,2.2,2.2,0,0,0,.89-1V9.1h-1.49a2.79,2.79,0,0,0-1.62.42,1.25,1.25,0,0,0-.6,1.06,1.11,1.11,0,0,0,.38.87A1.51,1.51,0,0,0,173.35,11.78Z"/><path class="cls-6" d="M178,11.76l1-.08V6.23l-1-.08V5.6h1.67l.07,1.17a2.4,2.4,0,0,1,.87-1,2.43,2.43,0,0,1,1.3-.34,2.07,2.07,0,0,1,1.66.67,3.16,3.16,0,0,1,.57,2.08v3.46l1,.08v.55h-2.77v-.55l1-.08V8.22A2.43,2.43,0,0,0,183,6.59a1.56,1.56,0,0,0-1.22-.48,1.92,1.92,0,0,0-1.27.41,2.3,2.3,0,0,0-.71,1.09v4.06l1,.08v.55H178Z"/><path class="cls-6" d="M191.21,7.67h-.61l-.09-.95a1.88,1.88,0,0,0-.7-.45,2.74,2.74,0,0,0-1-.16,1.82,1.82,0,0,0-1.22.35,1.05,1.05,0,0,0-.41.82,1,1,0,0,0,.35.77,3.42,3.42,0,0,0,1.4.53,4.58,4.58,0,0,1,1.79.73,1.5,1.5,0,0,1,.6,1.26,1.63,1.63,0,0,1-.68,1.35,2.88,2.88,0,0,1-1.79.52,4.21,4.21,0,0,1-1.36-.21,3.22,3.22,0,0,1-1.06-.59V10.29h.6l.11,1a1.74,1.74,0,0,0,.75.43,3.37,3.37,0,0,0,1,.13,2.05,2.05,0,0,0,1.27-.35,1,1,0,0,0,.46-.86,1.09,1.09,0,0,0-.39-.83,3.15,3.15,0,0,0-1.4-.58,4.71,4.71,0,0,1-1.78-.69,1.42,1.42,0,0,1-.58-1.21,1.62,1.62,0,0,1,.65-1.3,2.63,2.63,0,0,1,1.72-.53,3.84,3.84,0,0,1,1.35.23,2.73,2.73,0,0,1,1,.61Z"/><path class="cls-6" d="M197.33,12.3q-.07-.34-.11-.59a4.08,4.08,0,0,1,0-.5,3,3,0,0,1-1,.88,2.8,2.8,0,0,1-1.39.35,2.14,2.14,0,0,1-1.53-.51,1.8,1.8,0,0,1-.54-1.38,1.7,1.7,0,0,1,.8-1.48,3.8,3.8,0,0,1,2.17-.55h1.48V7.64a1.43,1.43,0,0,0-.46-1.13,1.88,1.88,0,0,0-1.29-.41,3.24,3.24,0,0,0-1,.15,2.32,2.32,0,0,0-.77.41l-.06.9H193V6.28a3.88,3.88,0,0,1,1.11-.58,4.22,4.22,0,0,1,1.38-.22,2.69,2.69,0,0,1,1.79.56,2,2,0,0,1,.68,1.62V11c0,.14,0,.27,0,.39a3,3,0,0,0,0,.37l.67,0v.55Zm-2.44-.53a2.68,2.68,0,0,0,1.42-.37,2.2,2.2,0,0,0,.89-1V9.1H195.7a2.79,2.79,0,0,0-1.62.42,1.25,1.25,0,0,0-.6,1.06,1.11,1.11,0,0,0,.38.87A1.51,1.51,0,0,0,194.89,11.78Z"/><path class="cls-6" d="M202.57,11.81a2.12,2.12,0,0,0,1.3-.42,1.38,1.38,0,0,0,.56-1.17h.66v0a1.84,1.84,0,0,1-.74,1.56,2.76,2.76,0,0,1-1.8.63,2.55,2.55,0,0,1-2.11-.94,3.75,3.75,0,0,1-.75-2.42V8.82a3.74,3.74,0,0,1,.75-2.41,2.54,2.54,0,0,1,2.11-.94,3.41,3.41,0,0,1,1.42.29,2.79,2.79,0,0,1,1,.79l0,1.46h-.63l-.12-1.19a2.15,2.15,0,0,0-.74-.53,2.48,2.48,0,0,0-1-.2,1.79,1.79,0,0,0-1.6.77,3.42,3.42,0,0,0-.52,1.94v.26a3.45,3.45,0,0,0,.51,2A1.79,1.79,0,0,0,202.57,11.81Z"/><path class="cls-6" d="M208.2,3.88V5.6h1.48V6.2H208.2v4.37a1.43,1.43,0,0,0,.24.93.8.8,0,0,0,.64.28l.35,0,.39-.05.11.55a2,2,0,0,1-.45.12,3.38,3.38,0,0,1-.53,0,1.39,1.39,0,0,1-1.1-.45,2.1,2.1,0,0,1-.39-1.41V6.2h-1.15V5.6h1.15V3.88Z"/><path class="cls-6" d="M211,11.76l1-.08V6.23l-1-.08V5.6h1.75v6.08l1,.08v.55H211Zm1.75-8.09H212v-1h.74Z"/><path class="cls-6" d="M215,8.85a3.61,3.61,0,0,1,.81-2.43,2.92,2.92,0,0,1,4.31,0,3.61,3.61,0,0,1,.81,2.43v.21a3.61,3.61,0,0,1-.81,2.43,2.93,2.93,0,0,1-4.31,0A3.6,3.6,0,0,1,215,9.06Zm.74.21a3.19,3.19,0,0,0,.59,2,1.93,1.93,0,0,0,1.64.79,1.91,1.91,0,0,0,1.62-.79,3.19,3.19,0,0,0,.59-2V8.85a3.18,3.18,0,0,0-.59-1.95,2.06,2.06,0,0,0-3.26,0,3.19,3.19,0,0,0-.59,1.95Z"/><path class="cls-6" d="M222,11.76l1-.08V6.23l-1-.08V5.6h1.67l.07,1.17a2.4,2.4,0,0,1,.87-1,2.43,2.43,0,0,1,1.3-.34,2.07,2.07,0,0,1,1.66.67,3.16,3.16,0,0,1,.57,2.08v3.46l1,.08v.55h-2.77v-.55l1-.08V8.22A2.43,2.43,0,0,0,227,6.59a1.56,1.56,0,0,0-1.22-.48,1.92,1.92,0,0,0-1.27.41,2.3,2.3,0,0,0-.71,1.09v4.06l1,.08v.55H222Z"/><path class="cls-6" d="M231.38,6.63h-.85v-1h.85Zm0,5.68h-.85v-1h.85Z"/><path class="cls-6" d="M134,68.26v1.9h-.66l-.06-1.27h-2.51v7.77l1,.08v.55H129v-.55l1-.08V68.9h-2.5l0,1.27h-.66v-1.9Z"/><path class="cls-6" d="M134.78,68.17v-.55h1.75v4.11a2.4,2.4,0,0,1,2.2-1.27,2,2,0,0,1,1.63.66,3.07,3.07,0,0,1,.57,2v3.51l1,.08v.55h-2.77v-.55l1-.08V73.14a2.3,2.3,0,0,0-.43-1.57,1.52,1.52,0,0,0-1.19-.47,2,2,0,0,0-1.27.4,2.32,2.32,0,0,0-.75,1.06v4.1l1,.08v.55h-2.76v-.55l1-.08V68.25Z"/><path class="cls-6" d="M143,76.75l1-.08V71.21l-1-.08v-.55h1.75v6.08l1,.08v.55H143Zm1.75-8.09H144v-1h.74Z"/><path class="cls-6" d="M151.87,72.65h-.61l-.09-.95a1.88,1.88,0,0,0-.7-.45,2.74,2.74,0,0,0-1-.16,1.82,1.82,0,0,0-1.22.35,1.05,1.05,0,0,0-.41.82,1,1,0,0,0,.35.77,3.42,3.42,0,0,0,1.4.53,4.58,4.58,0,0,1,1.79.73,1.5,1.5,0,0,1,.6,1.26,1.63,1.63,0,0,1-.68,1.35,2.88,2.88,0,0,1-1.79.52,4.21,4.21,0,0,1-1.36-.21,3.22,3.22,0,0,1-1.06-.59V75.28h.6l.11,1a1.74,1.74,0,0,0,.75.43,3.37,3.37,0,0,0,1,.13,2.05,2.05,0,0,0,1.27-.35,1,1,0,0,0,.46-.86,1.09,1.09,0,0,0-.39-.83,3.15,3.15,0,0,0-1.4-.58,4.71,4.71,0,0,1-1.78-.69,1.42,1.42,0,0,1-.58-1.21,1.62,1.62,0,0,1,.65-1.3,2.63,2.63,0,0,1,1.72-.53,3.84,3.84,0,0,1,1.35.23,2.73,2.73,0,0,1,1,.61Z"/><path class="cls-6" d="M156.39,76.75l1-.08V71.21l-1-.08v-.55h1.75v6.08l1,.08v.55h-2.76Zm1.75-8.09h-.74v-1h.74Z"/><path class="cls-6" d="M165.27,72.65h-.61l-.09-.95a1.88,1.88,0,0,0-.7-.45,2.74,2.74,0,0,0-1-.16,1.82,1.82,0,0,0-1.22.35,1.05,1.05,0,0,0-.41.82,1,1,0,0,0,.35.77,3.42,3.42,0,0,0,1.4.53,4.58,4.58,0,0,1,1.79.73,1.5,1.5,0,0,1,.6,1.26,1.63,1.63,0,0,1-.68,1.35,2.88,2.88,0,0,1-1.79.52,4.21,4.21,0,0,1-1.36-.21,3.22,3.22,0,0,1-1.06-.59V75.28h.6l.11,1a1.74,1.74,0,0,0,.75.43,3.37,3.37,0,0,0,1,.13,2.05,2.05,0,0,0,1.27-.35,1,1,0,0,0,.46-.86,1.09,1.09,0,0,0-.39-.83,3.15,3.15,0,0,0-1.4-.58,4.71,4.71,0,0,1-1.78-.69,1.42,1.42,0,0,1-.58-1.21,1.62,1.62,0,0,1,.65-1.3,2.63,2.63,0,0,1,1.72-.53,3.84,3.84,0,0,1,1.35.23,2.73,2.73,0,0,1,1,.61Z"/><path class="cls-6" d="M174.47,77.29q-.07-.34-.11-.59a4.08,4.08,0,0,1,0-.5,3,3,0,0,1-1,.88,2.8,2.8,0,0,1-1.39.35,2.14,2.14,0,0,1-1.53-.51,1.8,1.8,0,0,1-.54-1.38,1.7,1.7,0,0,1,.8-1.48,3.8,3.8,0,0,1,2.17-.55h1.48v-.89a1.43,1.43,0,0,0-.46-1.13,1.88,1.88,0,0,0-1.29-.41,3.24,3.24,0,0,0-1,.15,2.32,2.32,0,0,0-.77.41l-.06.9h-.61V71.26a3.88,3.88,0,0,1,1.11-.58,4.22,4.22,0,0,1,1.38-.22,2.69,2.69,0,0,1,1.79.56,2,2,0,0,1,.68,1.62v3.3c0,.14,0,.27,0,.39a3,3,0,0,0,0,.37l.67,0v.55ZM172,76.76a2.68,2.68,0,0,0,1.42-.37,2.2,2.2,0,0,0,.89-1V74.09h-1.49a2.79,2.79,0,0,0-1.62.42,1.25,1.25,0,0,0-.6,1.06,1.11,1.11,0,0,0,.38.87A1.51,1.51,0,0,0,172,76.76Z"/><path class="cls-6" d="M185.7,74.12a3.88,3.88,0,0,1-.68,2.4,2.23,2.23,0,0,1-1.88.9,2.59,2.59,0,0,1-1.27-.29,2.28,2.28,0,0,1-.86-.85l-.08,1h-.63v-9l-1-.08v-.55H181v4a2.29,2.29,0,0,1,2.1-1.18,2.19,2.19,0,0,1,1.89,1A4.37,4.37,0,0,1,185.7,74ZM185,74a3.93,3.93,0,0,0-.5-2.09,1.61,1.61,0,0,0-1.46-.8,1.93,1.93,0,0,0-1.26.38,2.29,2.29,0,0,0-.7,1v3a2,2,0,0,0,2,1.27,1.65,1.65,0,0,0,1.46-.72,3.39,3.39,0,0,0,.49-1.93Z"/><path class="cls-6" d="M186.75,68.17v-.55h1.75v9l1,.08v.55h-2.76v-.55l1-.08V68.25Z"/><path class="cls-6" d="M190.56,73.84a3.61,3.61,0,0,1,.81-2.43,2.92,2.92,0,0,1,4.31,0,3.61,3.61,0,0,1,.81,2.43V74a3.61,3.61,0,0,1-.81,2.43,2.93,2.93,0,0,1-4.31,0,3.6,3.6,0,0,1-.81-2.43Zm.74.21a3.19,3.19,0,0,0,.59,2,1.93,1.93,0,0,0,1.64.79,1.91,1.91,0,0,0,1.62-.79,3.19,3.19,0,0,0,.59-2v-.21a3.18,3.18,0,0,0-.59-1.95,2.06,2.06,0,0,0-3.26,0,3.19,3.19,0,0,0-.59,1.95Z"/><path class="cls-6" d="M200.57,76.8a2.12,2.12,0,0,0,1.3-.42,1.38,1.38,0,0,0,.56-1.17h.66v0a1.84,1.84,0,0,1-.74,1.56,2.76,2.76,0,0,1-1.8.63,2.55,2.55,0,0,1-2.11-.94,3.75,3.75,0,0,1-.75-2.42v-.26a3.74,3.74,0,0,1,.75-2.41,2.54,2.54,0,0,1,2.11-.94,3.41,3.41,0,0,1,1.42.29,2.79,2.79,0,0,1,1,.79l0,1.46h-.63l-.12-1.19a2.15,2.15,0,0,0-.74-.53,2.48,2.48,0,0,0-1-.2,1.79,1.79,0,0,0-1.6.77,3.42,3.42,0,0,0-.52,1.94v.26a3.45,3.45,0,0,0,.51,2A1.79,1.79,0,0,0,200.57,76.8Z"/><path class="cls-6" d="M204.27,68.17v-.55H206v5.77h.79l2-2.18v0l-.61,0v-.55h2.36v.55l-.78.07-2.29,2.44,2.61,3,.74.07v.55H208.5v-.55l.71,0L206.88,74H206v2.64l1,.08v.55h-2.76v-.55l1-.08V68.25Z"/><path class="cls-6" d="M213,71.61h-.85v-1H213Zm0,5.68h-.85v-1H213Z"/><path class="cls-5" d="M101.08,114.08v0l2.53.89v1.2l-3.78-1.61v-1l3.78-1.61v1.2Z"/><path class="cls-5" d="M108.18,113.38h-.86l-.14-.59a1.13,1.13,0,0,0-.33-.18,1.33,1.33,0,0,0-.44-.07.86.86,0,0,0-.54.15.46.46,0,0,0-.2.38.43.43,0,0,0,.19.36,2,2,0,0,0,.76.25,3.08,3.08,0,0,1,1.31.52,1.14,1.14,0,0,1,.43.94,1.25,1.25,0,0,1-.55,1,2.39,2.39,0,0,1-1.45.41,3,3,0,0,1-1-.16,2.56,2.56,0,0,1-.81-.46v-1.07h.9l.18.62a.73.73,0,0,0,.31.14,1.77,1.77,0,0,0,.41,0,1,1,0,0,0,.6-.14.44.44,0,0,0,.21-.38.45.45,0,0,0-.21-.36,2.12,2.12,0,0,0-.76-.27,3,3,0,0,1-1.27-.51,1.11,1.11,0,0,1-.43-.92,1.33,1.33,0,0,1,.49-1,2.06,2.06,0,0,1,1.4-.43,3.6,3.6,0,0,1,1,.15,2.24,2.24,0,0,1,.78.38Z"/><path class="cls-5" d="M108.93,114.08a2.55,2.55,0,0,1,.59-1.74,2.34,2.34,0,0,1,3.3,0,2.54,2.54,0,0,1,.6,1.74v.09a2.54,2.54,0,0,1-.6,1.75,2.35,2.35,0,0,1-3.3,0,2.55,2.55,0,0,1-.59-1.75Zm1.28.09a2.06,2.06,0,0,0,.23,1,.88.88,0,0,0,1.46,0,2.05,2.05,0,0,0,.23-1v-.09a2,2,0,0,0-.23-1,.79.79,0,0,0-.73-.4.78.78,0,0,0-.73.4,2.05,2.05,0,0,0-.23,1Z"/><path class="cls-5" d="M113.83,112.52v-.77h1.88l.05.63a1.6,1.6,0,0,1,.57-.53,1.66,1.66,0,0,1,.8-.19,1.45,1.45,0,0,1,.78.2,1.24,1.24,0,0,1,.49.61,1.64,1.64,0,0,1,.57-.6,1.55,1.55,0,0,1,.83-.22,1.37,1.37,0,0,1,1.11.49,2.27,2.27,0,0,1,.41,1.48v2l.62.13v.77h-2.46v-.77l.55-.13v-2a1.2,1.2,0,0,0-.18-.75.64.64,0,0,0-.52-.21.9.9,0,0,0-.47.12.89.89,0,0,0-.32.34c0,.06,0,.1,0,.14s0,.08,0,.12v2.22l.52.13v.77h-2.32v-.77l.52-.13v-2a1.21,1.21,0,0,0-.18-.75.64.64,0,0,0-.53-.22,1,1,0,0,0-.45.1.87.87,0,0,0-.32.28v2.57l.55.13v.77h-2.45v-.77l.62-.13v-2.95Z"/><path class="cls-5" d="M124.58,116.59a2.14,2.14,0,0,1-1.64-.66,2.35,2.35,0,0,1-.62-1.67v-.18a2.6,2.6,0,0,1,.58-1.75,2.17,2.17,0,0,1,3.06-.1,2.24,2.24,0,0,1,.53,1.57v.7h-2.84v0a1.24,1.24,0,0,0,.31.77,1,1,0,0,0,.76.3,2.49,2.49,0,0,0,.71-.08,3.29,3.29,0,0,0,.62-.27l.35.79a2.52,2.52,0,0,1-.76.39A3.25,3.25,0,0,1,124.58,116.59Zm-.11-3.95a.67.67,0,0,0-.56.27,1.42,1.42,0,0,0-.26.72v0h1.57v-.11a1,1,0,0,0-.19-.65A.69.69,0,0,0,124.47,112.65Z"/><path class="cls-5" d="M129.26,115.73l.62-.13v-2.95l-.69-.13v-.77h2v3.85l.62.13v.77h-2.52Zm1.9-5.12h-1.28v-1h1.28Z"/><path class="cls-5" d="M132.14,115.73l.62-.13v-2.95l-.68-.13v-.77h1.88l.06.68a1.75,1.75,0,0,1,.58-.57,1.52,1.52,0,0,1,.78-.2,1.43,1.43,0,0,1,1.13.45,2.09,2.09,0,0,1,.4,1.42v2.07l.62.13v.77h-2.45v-.77l.55-.13v-2.07a1,1,0,0,0-.19-.68.78.78,0,0,0-.58-.2,1,1,0,0,0-.46.1.94.94,0,0,0-.34.29v2.55l.52.13v.77h-2.42Z"/><path class="cls-5" d="M138,115.73l.62-.13v-3h-.71v-.9h.71v-.53a1.61,1.61,0,0,1,.46-1.23,1.82,1.82,0,0,1,1.3-.43l.33,0,.37.07-.11,1-.21,0h-.23a.62.62,0,0,0-.47.17.7.7,0,0,0-.16.49v.53h.95v.9h-.95v3l.62.13v.77H138Z"/><path class="cls-5" d="M141.27,114.08a2.55,2.55,0,0,1,.59-1.74,2.34,2.34,0,0,1,3.3,0,2.54,2.54,0,0,1,.6,1.74v.09a2.54,2.54,0,0,1-.6,1.75,2.35,2.35,0,0,1-3.3,0,2.55,2.55,0,0,1-.59-1.75Zm1.28.09a2.06,2.06,0,0,0,.23,1,.88.88,0,0,0,1.46,0,2.05,2.05,0,0,0,.23-1v-.09a2,2,0,0,0-.23-1,.79.79,0,0,0-.73-.4.78.78,0,0,0-.73.4,2.05,2.05,0,0,0-.23,1Z"/><path class="cls-5" d="M151.55,116.5a2.09,2.09,0,0,1-.09-.24,1.76,1.76,0,0,1-.06-.25,1.76,1.76,0,0,1-.56.43,1.66,1.66,0,0,1-.75.16,1.57,1.57,0,0,1-1.11-.38,1.34,1.34,0,0,1-.41-1,1.18,1.18,0,0,1,.54-1,2.8,2.8,0,0,1,1.57-.37h.66v-.46a.7.7,0,0,0-.2-.53.82.82,0,0,0-.58-.19,1.4,1.4,0,0,0-.39,0,1,1,0,0,0-.28.12l-.08.51h-1v-1.05a3.58,3.58,0,0,1,.81-.4,2.93,2.93,0,0,1,1-.16,2.26,2.26,0,0,1,1.43.43,1.48,1.48,0,0,1,.55,1.23v2c0,.07,0,.14,0,.21a1.53,1.53,0,0,0,0,.18l.39.05v.77Zm-1.11-.86a1.11,1.11,0,0,0,.53-.12,1,1,0,0,0,.37-.31v-.72h-.66a.89.89,0,0,0-.62.19.6.6,0,0,0-.21.46.48.48,0,0,0,.16.38A.64.64,0,0,0,150.43,115.64Z"/><path class="cls-5" d="M157.92,114.25a2.78,2.78,0,0,1-.47,1.7,1.6,1.6,0,0,1-1.37.64,1.45,1.45,0,0,1-.72-.17,1.49,1.49,0,0,1-.52-.5l-.09.58h-1.11v-6l-.68-.13v-.77h2v2.61a1.48,1.48,0,0,1,.49-.44,1.39,1.39,0,0,1,.66-.15,1.57,1.57,0,0,1,1.38.68,3.14,3.14,0,0,1,.47,1.82Zm-1.28-.09a2.48,2.48,0,0,0-.2-1.1.72.72,0,0,0-.7-.41,1,1,0,0,0-.5.13.87.87,0,0,0-.33.36v2a.81.81,0,0,0,.33.33,1.06,1.06,0,0,0,.51.11.73.73,0,0,0,.69-.35,2,2,0,0,0,.2-1Z"/><path class="cls-5" d="M158.51,114.08a2.55,2.55,0,0,1,.59-1.74,2.34,2.34,0,0,1,3.3,0,2.54,2.54,0,0,1,.6,1.74v.09a2.54,2.54,0,0,1-.6,1.75,2.35,2.35,0,0,1-3.3,0,2.55,2.55,0,0,1-.59-1.75Zm1.28.09a2.06,2.06,0,0,0,.23,1,.88.88,0,0,0,1.46,0,2.05,2.05,0,0,0,.23-1v-.09a2,2,0,0,0-.23-1,.79.79,0,0,0-.73-.4.78.78,0,0,0-.73.4,2.05,2.05,0,0,0-.23,1Z"/><path class="cls-5" d="M166.88,115.9a1.54,1.54,0,0,1-1.33.69,1.49,1.49,0,0,1-1.18-.48,2.21,2.21,0,0,1-.43-1.5v-2l-.52-.13v-.77h1.81v2.88a1.24,1.24,0,0,0,.17.75.61.61,0,0,0,.52.23,1.29,1.29,0,0,0,.53-.1.92.92,0,0,0,.36-.28v-2.56l-.56-.13v-.77h1.85v3.85l.58.13v.77H167Z"/><path class="cls-5" d="M171.07,110.58v1.17h.83v.9h-.83v2.42a.56.56,0,0,0,.11.4.41.41,0,0,0,.31.12h.23l.22,0,.11.93a3.31,3.31,0,0,1-.43.1,3,3,0,0,1-.46,0,1.37,1.37,0,0,1-1-.36,1.6,1.6,0,0,1-.36-1.16v-2.43h-.7v-.9h.7v-1.17Z"/><path class="cls-5" d="M176.63,110.58v1.17h.83v.9h-.83v2.42a.56.56,0,0,0,.11.4.41.41,0,0,0,.31.12h.23l.22,0,.11.93a3.31,3.31,0,0,1-.43.1,3,3,0,0,1-.46,0,1.37,1.37,0,0,1-1-.36,1.6,1.6,0,0,1-.36-1.16v-2.43h-.7v-.9h.7v-1.17Z"/><path class="cls-5" d="M178,115.73l.62-.13v-5l-.69-.13v-.77h2v2.71a1.6,1.6,0,0,1,.55-.51,1.44,1.44,0,0,1,.72-.18,1.46,1.46,0,0,1,1.17.49,2.31,2.31,0,0,1,.42,1.53v1.92l.62.13v.77h-2.45v-.77l.55-.13v-1.93a1.22,1.22,0,0,0-.2-.78.72.72,0,0,0-.58-.23,1.06,1.06,0,0,0-.47.1.93.93,0,0,0-.34.27v2.58l.55.13v.77H178Z"/><path class="cls-5" d="M186,116.59a2.14,2.14,0,0,1-1.64-.66,2.35,2.35,0,0,1-.62-1.67v-.18a2.6,2.6,0,0,1,.58-1.75,2.17,2.17,0,0,1,3.06-.1,2.24,2.24,0,0,1,.53,1.57v.7h-2.84v0a1.24,1.24,0,0,0,.31.77,1,1,0,0,0,.76.3,2.49,2.49,0,0,0,.71-.08,3.29,3.29,0,0,0,.62-.27l.35.79a2.52,2.52,0,0,1-.76.39A3.25,3.25,0,0,1,186,116.59Zm-.11-3.95a.67.67,0,0,0-.56.27,1.42,1.42,0,0,0-.26.72v0h1.57v-.11a1,1,0,0,0-.19-.65A.69.69,0,0,0,185.93,112.65Z"/><path class="cls-5" d="M195.37,114.25a2.78,2.78,0,0,1-.47,1.7,1.6,1.6,0,0,1-1.37.64,1.45,1.45,0,0,1-.72-.17,1.49,1.49,0,0,1-.52-.5l-.09.58h-1.11v-6l-.68-.13v-.77h2v2.61a1.48,1.48,0,0,1,.49-.44,1.39,1.39,0,0,1,.66-.15,1.57,1.57,0,0,1,1.38.68,3.14,3.14,0,0,1,.47,1.82Zm-1.28-.09a2.48,2.48,0,0,0-.2-1.1.72.72,0,0,0-.7-.41,1,1,0,0,0-.5.13.87.87,0,0,0-.33.36v2a.81.81,0,0,0,.33.33,1.06,1.06,0,0,0,.51.11.73.73,0,0,0,.69-.35,2,2,0,0,0,.2-1Z"/><path class="cls-5" d="M195.74,110.42v-.77h2v6l.62.13v.77H195.8v-.77l.62-.13v-5Z"/><path class="cls-5" d="M198.66,114.08a2.55,2.55,0,0,1,.59-1.74,2.34,2.34,0,0,1,3.3,0,2.54,2.54,0,0,1,.6,1.74v.09a2.54,2.54,0,0,1-.6,1.75,2.35,2.35,0,0,1-3.3,0,2.55,2.55,0,0,1-.59-1.75Zm1.28.09a2.06,2.06,0,0,0,.23,1,.88.88,0,0,0,1.46,0,2.05,2.05,0,0,0,.23-1v-.09a2,2,0,0,0-.23-1,.79.79,0,0,0-.73-.4.78.78,0,0,0-.73.4,2.05,2.05,0,0,0-.23,1Z"/><path class="cls-5" d="M205.93,115.61a.76.76,0,0,0,.55-.2.71.71,0,0,0,.21-.53h1.16v0a1.48,1.48,0,0,1-.54,1.21,2.29,2.29,0,0,1-3-.19,2.56,2.56,0,0,1-.58-1.73v-.13a2.53,2.53,0,0,1,.59-1.73,2.12,2.12,0,0,1,1.68-.68,3,3,0,0,1,1,.17,2,2,0,0,1,.76.48l0,1.27h-1l-.21-.74a.8.8,0,0,0-.24-.14.87.87,0,0,0-.32-.05.81.81,0,0,0-.77.39,2.06,2.06,0,0,0-.22,1v.13a2.19,2.19,0,0,0,.21,1A.75.75,0,0,0,205.93,115.61Z"/><path class="cls-5" d="M208.31,110.42v-.77h2v4h.29l.74-1-.42-.06v-.77h2.34v.77l-.56.13-.86,1.18,1.2,1.81.49.1v.77h-2.2v-.77l.26,0-.73-1.18h-.55v1.09l.55.13v.77h-2.45v-.77l.62-.13v-5Z"/><path class="cls-5" d="M216.07,115.73l.62-.13v-5l-.69-.13v-.77h2v2.71a1.6,1.6,0,0,1,.55-.51,1.44,1.44,0,0,1,.72-.18,1.46,1.46,0,0,1,1.17.49,2.31,2.31,0,0,1,.42,1.53v1.92l.62.13v.77H219v-.77l.55-.13v-1.93a1.22,1.22,0,0,0-.2-.78.72.72,0,0,0-.58-.23,1.06,1.06,0,0,0-.47.1.93.93,0,0,0-.34.27v2.58l.55.13v.77h-2.45Z"/><path class="cls-5" d="M224.09,116.59a2.14,2.14,0,0,1-1.64-.66,2.35,2.35,0,0,1-.62-1.67v-.18a2.6,2.6,0,0,1,.58-1.75,2.17,2.17,0,0,1,3.06-.1,2.24,2.24,0,0,1,.53,1.57v.7h-2.84v0a1.24,1.24,0,0,0,.31.77,1,1,0,0,0,.76.3,2.49,2.49,0,0,0,.71-.08,3.29,3.29,0,0,0,.62-.27l.35.79a2.52,2.52,0,0,1-.76.39A3.25,3.25,0,0,1,224.09,116.59Zm-.11-3.95a.67.67,0,0,0-.56.27,1.42,1.42,0,0,0-.26.72v0h1.57v-.11a1,1,0,0,0-.19-.65A.69.69,0,0,0,224,112.65Z"/><path class="cls-5" d="M226.7,115.73l.62-.13v-2.95l-.68-.13v-.77h1.88l.06.69a1.51,1.51,0,0,1,.43-.58,1,1,0,0,1,.61-.21l.21,0,.19,0-.14,1.17h-.53a.9.9,0,0,0-.47.11.71.71,0,0,0-.28.31v2.31l.62.13v.77H226.7Z"/><path class="cls-5" d="M232.59,116.59a2.14,2.14,0,0,1-1.64-.66,2.35,2.35,0,0,1-.62-1.67v-.18a2.6,2.6,0,0,1,.58-1.75,2.17,2.17,0,0,1,3.06-.1,2.24,2.24,0,0,1,.53,1.57v.7h-2.84v0a1.24,1.24,0,0,0,.31.77,1,1,0,0,0,.76.3,2.49,2.49,0,0,0,.71-.08,3.29,3.29,0,0,0,.62-.27l.35.79a2.52,2.52,0,0,1-.76.39A3.25,3.25,0,0,1,232.59,116.59Zm-.11-3.95a.67.67,0,0,0-.56.27,1.42,1.42,0,0,0-.26.72v0h1.57v-.11a1,1,0,0,0-.19-.65A.69.69,0,0,0,232.48,112.65Z"/><path class="cls-5" d="M237.86,114.13v0l-2.57-.91V112l3.83,1.61v1l-3.83,1.61v-1.19Z"/></svg>