<svg id="Layer_1" data-name="Layer 1" xmlns="http://www.w3.org/2000/svg" xmlns:xlink="http://www.w3.org/1999/xlink" viewBox="0 0 328.45 38.5"><defs><style>.cls-1{fill:url(#linear-gradient);}</style><linearGradient id="linear-gradient" x1="115.96" y1="-63.97" x2="212.31" y2="102.91" gradientUnits="userSpaceOnUse"><stop offset="0" stop-color="#1dc7a2"/><stop offset="1" stop-color="#0e5f99"/></linearGradient></defs><title>ethbajillion</title><path class="cls-1" d="M-.17,9.44l1.32-.16V4H-.19v-.9l2.9-.53V9.28L4,9.44v.94H-.17Zm10.4-2.11a3.45,3.45,0,0,1-.71,2.35,2.44,2.44,0,0,1-1.93.8,2.46,2.46,0,0,1-1.94-.8,3.44,3.44,0,0,1-.71-2.35V5.61a3.46,3.46,0,0,1,.71-2.36,2.44,2.44,0,0,1,1.93-.81,2.45,2.45,0,0,1,1.93.81,3.45,3.45,0,0,1,.72,2.36ZM8.67,5.45a2.57,2.57,0,0,0-.28-1.36,1,1,0,0,0-1.61,0A2.62,2.62,0,0,0,6.5,5.45v2a2.62,2.62,0,0,0,.28,1.38.91.91,0,0,0,.81.43.89.89,0,0,0,.8-.43,2.64,2.64,0,0,0,.27-1.37ZM16.6,7.33a3.45,3.45,0,0,1-.71,2.35,2.44,2.44,0,0,1-1.93.8A2.46,2.46,0,0,1,12,9.69a3.44,3.44,0,0,1-.71-2.35V5.61A3.46,3.46,0,0,1,12,3.25,2.44,2.44,0,0,1,14,2.45a2.45,2.45,0,0,1,1.93.81,3.45,3.45,0,0,1,.72,2.36ZM15,5.45a2.57,2.57,0,0,0-.28-1.36,1,1,0,0,0-1.61,0,2.62,2.62,0,0,0-.27,1.36v2a2.62,2.62,0,0,0,.28,1.38.91.91,0,0,0,.81.43.89.89,0,0,0,.8-.43A2.64,2.64,0,0,0,15,7.48ZM23,7.33a3.45,3.45,0,0,1-.71,2.35,2.44,2.44,0,0,1-1.93.8,2.46,2.46,0,0,1-1.94-.8,3.44,3.44,0,0,1-.71-2.35V5.61a3.46,3.46,0,0,1,.71-2.36,2.44,2.44,0,0,1,1.93-.81,2.45,2.45,0,0,1,1.93.81A3.45,3.45,0,0,1,23,5.61ZM21.4,5.45a2.57,2.57,0,0,0-.28-1.36,1,1,0,0,0-1.61,0,2.62,2.62,0,0,0-.27,1.36v2a2.62,2.62,0,0,0,.28,1.38.91.91,0,0,0,.81.43.89.89,0,0,0,.8-.43,2.64,2.64,0,0,0,.27-1.37Zm7.93,1.89a3.45,3.45,0,0,1-.71,2.35,2.72,2.72,0,0,1-3.86,0A3.44,3.44,0,0,1,24,7.33V5.61a3.46,3.46,0,0,1,.71-2.36,2.71,2.71,0,0,1,3.86,0,3.45,3.45,0,0,1,.72,2.36ZM27.77,5.45a2.57,2.57,0,0,0-.28-1.36,1,1,0,0,0-1.61,0,2.62,2.62,0,0,0-.27,1.36v2a2.62,2.62,0,0,0,.28,1.38.91.91,0,0,0,.81.43.89.89,0,0,0,.8-.43,2.64,2.64,0,0,0,.27-1.37Zm7.93,1.89A3.45,3.45,0,0,1,35,9.69a2.72,2.72,0,0,1-3.86,0,3.44,3.44,0,0,1-.71-2.35V5.61a3.46,3.46,0,0,1,.71-2.36,2.71,2.71,0,0,1,3.86,0,3.45,3.45,0,0,1,.72,2.36ZM34.13,5.45a2.57,2.57,0,0,0-.28-1.36,1,1,0,0,0-1.61,0A2.62,2.62,0,0,0,32,5.45v2a2.62,2.62,0,0,0,.28,1.38.91.91,0,0,0,.81.43.89.89,0,0,0,.8-.43,2.64,2.64,0,0,0,.27-1.37Zm7.93,1.89a3.45,3.45,0,0,1-.71,2.35,2.72,2.72,0,0,1-3.86,0,3.44,3.44,0,0,1-.71-2.35V5.61a3.46,3.46,0,0,1,.71-2.36,2.71,2.71,0,0,1,3.86,0,3.45,3.45,0,0,1,.72,2.36ZM40.5,5.45a2.57,2.57,0,0,0-.28-1.36,1,1,0,0,0-1.61,0,2.62,2.62,0,0,0-.27,1.36v2a2.62,2.62,0,0,0,.28,1.38.91.91,0,0,0,.81.43.89.89,0,0,0,.8-.43,2.64,2.64,0,0,0,.27-1.37Zm7.93,1.89a3.45,3.45,0,0,1-.71,2.35,2.72,2.72,0,0,1-3.86,0,3.44,3.44,0,0,1-.71-2.35V5.61a3.46,3.46,0,0,1,.71-2.36,2.71,2.71,0,0,1,3.86,0,3.45,3.45,0,0,1,.72,2.36ZM46.86,5.45a2.57,2.57,0,0,0-.28-1.36,1,1,0,0,0-1.61,0,2.62,2.62,0,0,0-.27,1.36v2A2.62,2.62,0,0,0,45,8.86a.91.91,0,0,0,.81.43.89.89,0,0,0,.8-.43,2.64,2.64,0,0,0,.27-1.37Zm7.93,1.89a3.45,3.45,0,0,1-.71,2.35,2.72,2.72,0,0,1-3.86,0,3.44,3.44,0,0,1-.71-2.35V5.61a3.46,3.46,0,0,1,.71-2.36,2.71,2.71,0,0,1,3.86,0,3.45,3.45,0,0,1,.72,2.36ZM53.23,5.45a2.57,2.57,0,0,0-.28-1.36,1,1,0,0,0-1.61,0,2.62,2.62,0,0,0-.27,1.36v2a2.62,2.62,0,0,0,.28,1.38.91.91,0,0,0,.81.43.89.89,0,0,0,.8-.43,2.64,2.64,0,0,0,.27-1.37Zm7.93,1.89a3.45,3.45,0,0,1-.71,2.35,2.72,2.72,0,0,1-3.86,0,3.44,3.44,0,0,1-.71-2.35V5.61a3.46,3.46,0,0,1,.71-2.36,2.71,2.71,0,0,1,3.86,0,3.45,3.45,0,0,1,.72,2.36ZM59.59,5.45a2.57,2.57,0,0,0-.28-1.36,1,1,0,0,0-1.61,0,2.62,2.62,0,0,0-.27,1.36v2a2.62,2.62,0,0,0,.28,1.38.91.91,0,0,0,.81.43.89.89,0,0,0,.8-.43,2.64,2.64,0,0,0,.27-1.37Zm7.93,1.89a3.45,3.45,0,0,1-.71,2.35,2.72,2.72,0,0,1-3.86,0,3.44,3.44,0,0,1-.71-2.35V5.61a3.46,3.46,0,0,1,.71-2.36,2.71,2.71,0,0,1,3.86,0,3.45,3.45,0,0,1,.72,2.36ZM66,5.45a2.57,2.57,0,0,0-.28-1.36,1,1,0,0,0-1.61,0,2.62,2.62,0,0,0-.27,1.36v2a2.62,2.62,0,0,0,.28,1.38.91.91,0,0,0,.81.43.89.89,0,0,0,.8-.43A2.64,2.64,0,0,0,66,7.48Zm7.93,1.89a3.45,3.45,0,0,1-.71,2.35,2.72,2.72,0,0,1-3.86,0,3.44,3.44,0,0,1-.71-2.35V5.61a3.46,3.46,0,0,1,.71-2.36,2.71,2.71,0,0,1,3.86,0,3.45,3.45,0,0,1,.72,2.36ZM72.32,5.45A2.57,2.57,0,0,0,72,4.09a1,1,0,0,0-1.61,0,2.62,2.62,0,0,0-.27,1.36v2a2.62,2.62,0,0,0,.28,1.38.91.91,0,0,0,.81.43.89.89,0,0,0,.8-.43,2.64,2.64,0,0,0,.27-1.37Zm7.93,1.89a3.45,3.45,0,0,1-.71,2.35,2.72,2.72,0,0,1-3.86,0A3.44,3.44,0,0,1,75,7.33V5.61a3.46,3.46,0,0,1,.71-2.36,2.71,2.71,0,0,1,3.86,0,3.45,3.45,0,0,1,.72,2.36ZM78.69,5.45a2.57,2.57,0,0,0-.28-1.36,1,1,0,0,0-1.61,0,2.62,2.62,0,0,0-.27,1.36v2a2.62,2.62,0,0,0,.28,1.38.91.91,0,0,0,.81.43.89.89,0,0,0,.8-.43,2.64,2.64,0,0,0,.27-1.37Zm7.93,1.89a3.45,3.45,0,0,1-.71,2.35,2.72,2.72,0,0,1-3.86,0,3.44,3.44,0,0,1-.71-2.35V5.61A3.46,3.46,0,0,1,82,3.25a2.71,2.71,0,0,1,3.86,0,3.45,3.45,0,0,1,.72,2.36ZM85.05,5.45a2.57,2.57,0,0,0-.28-1.36,1,1,0,0,0-1.61,0,2.62,2.62,0,0,0-.27,1.36v2a2.62,2.62,0,0,0,.28,1.38.91.91,0,0,0,.81.43.89.89,0,0,0,.8-.43,2.64,2.64,0,0,0,.27-1.37ZM93,7.33a3.45,3.45,0,0,1-.71,2.35,2.72,2.72,0,0,1-3.86,0,3.44,3.44,0,0,1-.71-2.35V5.61a3.46,3.46,0,0,1,.71-2.36,2.71,2.71,0,0,1,3.86,0A3.45,3.45,0,0,1,93,5.61ZM91.42,5.45a2.57,2.57,0,0,0-.28-1.36,1,1,0,0,0-1.61,0,2.62,2.62,0,0,0-.27,1.36v2a2.62,2.62,0,0,0,.28,1.38.91.91,0,0,0,.81.43.89.89,0,0,0,.8-.43,2.64,2.64,0,0,0,.27-1.37Zm7.93,1.89a3.45,3.45,0,0,1-.71,2.35,2.72,2.72,0,0,1-3.86,0,3.44,3.44,0,0,1-.71-2.35V5.61a3.46,3.46,0,0,1,.71-2.36,2.71,2.71,0,0,1,3.86,0,3.45,3.45,0,0,1,.72,2.36ZM97.79,5.45a2.57,2.57,0,0,0-.28-1.36,1,1,0,0,0-1.61,0,2.62,2.62,0,0,0-.27,1.36v2a2.62,2.62,0,0,0,.28,1.38.91.91,0,0,0,.81.43.89.89,0,0,0,.8-.43,2.64,2.64,0,0,0,.27-1.37Zm7.93,1.89A3.45,3.45,0,0,1,105,9.69a2.72,2.72,0,0,1-3.86,0,3.44,3.44,0,0,1-.71-2.35V5.61a3.46,3.46,0,0,1,.71-2.36,2.71,2.71,0,0,1,3.86,0,3.45,3.45,0,0,1,.72,2.36Zm-1.56-1.89a2.57,2.57,0,0,0-.28-1.36,1,1,0,0,0-1.61,0A2.62,2.62,0,0,0,102,5.45v2a2.62,2.62,0,0,0,.28,1.38.91.91,0,0,0,.81.43.89.89,0,0,0,.8-.43,2.64,2.64,0,0,0,.27-1.37Zm7.93,1.89a3.45,3.45,0,0,1-.71,2.35,2.72,2.72,0,0,1-3.86,0,3.44,3.44,0,0,1-.71-2.35V5.61a3.46,3.46,0,0,1,.71-2.36,2.71,2.71,0,0,1,3.86,0,3.45,3.45,0,0,1,.72,2.36Zm-1.56-1.89a2.57,2.57,0,0,0-.28-1.36,1,1,0,0,0-1.61,0,2.62,2.62,0,0,0-.27,1.36v2a2.62,2.62,0,0,0,.28,1.38.91.91,0,0,0,.81.43.89.89,0,0,0,.8-.43,2.64,2.64,0,0,0,.27-1.37Zm7.93,1.89a3.45,3.45,0,0,1-.71,2.35,2.72,2.72,0,0,1-3.86,0,3.44,3.44,0,0,1-.71-2.35V5.61a3.46,3.46,0,0,1,.71-2.36,2.71,2.71,0,0,1,3.86,0,3.45,3.45,0,0,1,.72,2.36Zm-1.56-1.89a2.57,2.57,0,0,0-.28-1.36,1,1,0,0,0-1.61,0,2.62,2.62,0,0,0-.27,1.36v2A2.62,2.62,0,0,0,115,8.86a.91.91,0,0,0,.81.43.89.89,0,0,0,.8-.43,2.64,2.64,0,0,0,.27-1.37Zm7.93,1.89a3.45,3.45,0,0,1-.71,2.35,2.72,2.72,0,0,1-3.86,0,3.44,3.44,0,0,1-.71-2.35V5.61a3.46,3.46,0,0,1,.71-2.36,2.71,2.71,0,0,1,3.86,0,3.45,3.45,0,0,1,.72,2.36Zm-1.56-1.89A2.57,2.57,0,0,0,123,4.09a1,1,0,0,0-1.61,0,2.62,2.62,0,0,0-.27,1.36v2a2.62,2.62,0,0,0,.28,1.38.91.91,0,0,0,.81.43.89.89,0,0,0,.8-.43,2.64,2.64,0,0,0,.27-1.37Zm7.93,1.89a3.45,3.45,0,0,1-.71,2.35,2.72,2.72,0,0,1-3.86,0,3.44,3.44,0,0,1-.71-2.35V5.61a3.46,3.46,0,0,1,.71-2.36,2.71,2.71,0,0,1,3.86,0,3.45,3.45,0,0,1,.72,2.36Zm-1.56-1.89a2.57,2.57,0,0,0-.28-1.36,1,1,0,0,0-1.61,0,2.62,2.62,0,0,0-.27,1.36v2a2.62,2.62,0,0,0,.28,1.38.91.91,0,0,0,.81.43.89.89,0,0,0,.8-.43,2.64,2.64,0,0,0,.27-1.37Zm7.93,1.89a3.45,3.45,0,0,1-.71,2.35,2.72,2.72,0,0,1-3.86,0,3.44,3.44,0,0,1-.71-2.35V5.61A3.46,3.46,0,0,1,133,3.25a2.71,2.71,0,0,1,3.86,0,3.45,3.45,0,0,1,.72,2.36ZM136,5.45a2.57,2.57,0,0,0-.28-1.36,1,1,0,0,0-1.61,0,2.62,2.62,0,0,0-.27,1.36v2a2.62,2.62,0,0,0,.28,1.38.91.91,0,0,0,.81.43.89.89,0,0,0,.8-.43A2.64,2.64,0,0,0,136,7.48Zm7.93,1.89a3.45,3.45,0,0,1-.71,2.35,2.72,2.72,0,0,1-3.86,0,3.44,3.44,0,0,1-.71-2.35V5.61a3.46,3.46,0,0,1,.71-2.36,2.71,2.71,0,0,1,3.86,0,3.45,3.45,0,0,1,.72,2.36Zm-1.56-1.89a2.57,2.57,0,0,0-.28-1.36,1,1,0,0,0-1.61,0,2.62,2.62,0,0,0-.27,1.36v2a2.62,2.62,0,0,0,.28,1.38.91.91,0,0,0,.81.43.89.89,0,0,0,.8-.43,2.64,2.64,0,0,0,.27-1.37Zm7.93,1.89a3.45,3.45,0,0,1-.71,2.35,2.72,2.72,0,0,1-3.86,0A3.44,3.44,0,0,1,145,7.33V5.61a3.46,3.46,0,0,1,.71-2.36,2.71,2.71,0,0,1,3.86,0,3.45,3.45,0,0,1,.72,2.36Zm-1.56-1.89a2.57,2.57,0,0,0-.28-1.36,1,1,0,0,0-1.61,0,2.62,2.62,0,0,0-.27,1.36v2a2.62,2.62,0,0,0,.28,1.38.91.91,0,0,0,.81.43.89.89,0,0,0,.8-.43,2.64,2.64,0,0,0,.27-1.37Zm7.93,1.89a3.45,3.45,0,0,1-.71,2.35,2.72,2.72,0,0,1-3.86,0,3.44,3.44,0,0,1-.71-2.35V5.61a3.46,3.46,0,0,1,.71-2.36,2.71,2.71,0,0,1,3.86,0,3.45,3.45,0,0,1,.72,2.36Zm-1.56-1.89a2.57,2.57,0,0,0-.28-1.36,1,1,0,0,0-1.61,0,2.62,2.62,0,0,0-.27,1.36v2a2.62,2.62,0,0,0,.28,1.38.91.91,0,0,0,.81.43.89.89,0,0,0,.8-.43,2.64,2.64,0,0,0,.27-1.37ZM163,7.33a3.45,3.45,0,0,1-.71,2.35,2.72,2.72,0,0,1-3.86,0,3.44,3.44,0,0,1-.71-2.35V5.61a3.46,3.46,0,0,1,.71-2.36,2.71,2.71,0,0,1,3.86,0A3.45,3.45,0,0,1,163,5.61Zm-1.56-1.89a2.57,2.57,0,0,0-.28-1.36,1,1,0,0,0-1.61,0,2.62,2.62,0,0,0-.27,1.36v2a2.62,2.62,0,0,0,.28,1.38.91.91,0,0,0,.81.43.89.89,0,0,0,.8-.43,2.64,2.64,0,0,0,.27-1.37Zm7.93,1.89a3.45,3.45,0,0,1-.71,2.35,2.72,2.72,0,0,1-3.86,0,3.44,3.44,0,0,1-.71-2.35V5.61a3.46,3.46,0,0,1,.71-2.36,2.71,2.71,0,0,1,3.86,0,3.45,3.45,0,0,1,.72,2.36Zm-1.56-1.89a2.57,2.57,0,0,0-.28-1.36,1,1,0,0,0-1.61,0,2.62,2.62,0,0,0-.27,1.36v2a2.62,2.62,0,0,0,.28,1.38.91.91,0,0,0,.81.43.89.89,0,0,0,.8-.43,2.64,2.64,0,0,0,.27-1.37Zm7.93,1.89A3.45,3.45,0,0,1,175,9.69a2.72,2.72,0,0,1-3.86,0,3.44,3.44,0,0,1-.71-2.35V5.61a3.46,3.46,0,0,1,.71-2.36,2.71,2.71,0,0,1,3.86,0,3.45,3.45,0,0,1,.72,2.36Zm-1.56-1.89a2.57,2.57,0,0,0-.28-1.36,1,1,0,0,0-1.61,0A2.62,2.62,0,0,0,172,5.45v2a2.62,2.62,0,0,0,.28,1.38.91.91,0,0,0,.81.43.89.89,0,0,0,.8-.43,2.64,2.64,0,0,0,.27-1.37Zm7.93,1.89a3.45,3.45,0,0,1-.71,2.35,2.72,2.72,0,0,1-3.86,0,3.44,3.44,0,0,1-.71-2.35V5.61a3.46,3.46,0,0,1,.71-2.36,2.71,2.71,0,0,1,3.86,0,3.45,3.45,0,0,1,.72,2.36Zm-1.56-1.89a2.57,2.57,0,0,0-.28-1.36,1,1,0,0,0-1.61,0,2.62,2.62,0,0,0-.27,1.36v2a2.62,2.62,0,0,0,.28,1.38.91.91,0,0,0,.81.43.89.89,0,0,0,.8-.43,2.64,2.64,0,0,0,.27-1.37Zm7.93,1.89a3.45,3.45,0,0,1-.71,2.35,2.72,2.72,0,0,1-3.86,0,3.44,3.44,0,0,1-.71-2.35V5.61a3.46,3.46,0,0,1,.71-2.36,2.71,2.71,0,0,1,3.86,0,3.45,3.45,0,0,1,.72,2.36ZM186.9,5.45a2.57,2.57,0,0,0-.28-1.36,1,1,0,0,0-1.61,0,2.62,2.62,0,0,0-.27,1.36v2A2.62,2.62,0,0,0,185,8.86a.91.91,0,0,0,.81.43.89.89,0,0,0,.8-.43,2.64,2.64,0,0,0,.27-1.37Zm7.93,1.89a3.45,3.45,0,0,1-.71,2.35,2.72,2.72,0,0,1-3.86,0,3.44,3.44,0,0,1-.71-2.35V5.61a3.46,3.46,0,0,1,.71-2.36,2.71,2.71,0,0,1,3.86,0,3.45,3.45,0,0,1,.72,2.36Zm-1.56-1.89A2.57,2.57,0,0,0,193,4.09a1,1,0,0,0-1.61,0,2.62,2.62,0,0,0-.27,1.36v2a2.62,2.62,0,0,0,.28,1.38.91.91,0,0,0,.81.43.89.89,0,0,0,.8-.43,2.64,2.64,0,0,0,.27-1.37Zm7.93,1.89a3.45,3.45,0,0,1-.71,2.35,2.72,2.72,0,0,1-3.86,0,3.44,3.44,0,0,1-.71-2.35V5.61a3.46,3.46,0,0,1,.71-2.36,2.71,2.71,0,0,1,3.86,0,3.45,3.45,0,0,1,.72,2.36Zm-1.56-1.89a2.57,2.57,0,0,0-.28-1.36,1,1,0,0,0-1.61,0,2.62,2.62,0,0,0-.27,1.36v2a2.62,2.62,0,0,0,.28,1.38.91.91,0,0,0,.81.43.89.89,0,0,0,.8-.43,2.64,2.64,0,0,0,.27-1.37Zm7.93,1.89a3.45,3.45,0,0,1-.71,2.35,2.72,2.72,0,0,1-3.86,0,3.44,3.44,0,0,1-.71-2.35V5.61A3.46,3.46,0,0,1,203,3.25a2.71,2.71,0,0,1,3.86,0,3.45,3.45,0,0,1,.72,2.36ZM206,5.45a2.57,2.57,0,0,0-.28-1.36,1,1,0,0,0-1.61,0,2.62,2.62,0,0,0-.27,1.36v2a2.62,2.62,0,0,0,.28,1.38.91.91,0,0,0,.81.43.89.89,0,0,0,.8-.43A2.64,2.64,0,0,0,206,7.48Zm7.93,1.89a3.45,3.45,0,0,1-.71,2.35,2.72,2.72,0,0,1-3.86,0,3.44,3.44,0,0,1-.71-2.35V5.61a3.46,3.46,0,0,1,.71-2.36,2.71,2.71,0,0,1,3.86,0,3.45,3.45,0,0,1,.72,2.36Zm-1.56-1.89a2.57,2.57,0,0,0-.28-1.36,1,1,0,0,0-1.61,0,2.62,2.62,0,0,0-.27,1.36v2a2.62,2.62,0,0,0,.28,1.38.91.91,0,0,0,.81.43.89.89,0,0,0,.8-.43,2.64,2.64,0,0,0,.27-1.37Zm7.93,1.89a3.45,3.45,0,0,1-.71,2.35,2.72,2.72,0,0,1-3.86,0A3.44,3.44,0,0,1,215,7.33V5.61a3.46,3.46,0,0,1,.71-2.36,2.71,2.71,0,0,1,3.86,0,3.45,3.45,0,0,1,.72,2.36Zm-1.56-1.89a2.57,2.57,0,0,0-.28-1.36,1,1,0,0,0-1.61,0,2.62,2.62,0,0,0-.27,1.36v2a2.62,2.62,0,0,0,.28,1.38.91.91,0,0,0,.81.43.89.89,0,0,0,.8-.43,2.64,2.64,0,0,0,.27-1.37Zm7.93,1.89a3.45,3.45,0,0,1-.71,2.35,2.72,2.72,0,0,1-3.86,0,3.44,3.44,0,0,1-.71-2.35V5.61a3.46,3.46,0,0,1,.71-2.36,2.71,2.71,0,0,1,3.86,0,3.45,3.45,0,0,1,.72,2.36ZM225.1,5.45a2.57,2.57,0,0,0-.28-1.36,1,1,0,0,0-1.61,0,2.62,2.62,0,0,0-.27,1.36v2a2.62,2.62,0,0,0,.28,1.38.91.91,0,0,0,.81.43.89.89,0,0,0,.8-.43,2.64,2.64,0,0,0,.27-1.37ZM233,7.33a3.45,3.45,0,0,1-.71,2.35,2.72,2.72,0,0,1-3.86,0,3.44,3.44,0,0,1-.71-2.35V5.61a3.46,3.46,0,0,1,.71-2.36,2.71,2.71,0,0,1,3.86,0A3.45,3.45,0,0,1,233,5.61Zm-1.56-1.89a2.57,2.57,0,0,0-.28-1.36,1,1,0,0,0-1.61,0,2.62,2.62,0,0,0-.27,1.36v2a2.62,2.62,0,0,0,.28,1.38.91.91,0,0,0,.81.43.89.89,0,0,0,.8-.43,2.64,2.64,0,0,0,.27-1.37Zm7.93,1.89a3.45,3.45,0,0,1-.71,2.35,2.72,2.72,0,0,1-3.86,0,3.44,3.44,0,0,1-.71-2.35V5.61a3.46,3.46,0,0,1,.71-2.36,2.71,2.71,0,0,1,3.86,0,3.45,3.45,0,0,1,.72,2.36Zm-1.56-1.89a2.57,2.57,0,0,0-.28-1.36,1,1,0,0,0-1.61,0,2.62,2.62,0,0,0-.27,1.36v2a2.62,2.62,0,0,0,.28,1.38.91.91,0,0,0,.81.43.89.89,0,0,0,.8-.43,2.64,2.64,0,0,0,.27-1.37Zm7.93,1.89A3.45,3.45,0,0,1,245,9.69a2.72,2.72,0,0,1-3.86,0,3.44,3.44,0,0,1-.71-2.35V5.61a3.46,3.46,0,0,1,.71-2.36,2.71,2.71,0,0,1,3.86,0,3.45,3.45,0,0,1,.72,2.36Zm-1.56-1.89a2.57,2.57,0,0,0-.28-1.36,1,1,0,0,0-1.61,0A2.62,2.62,0,0,0,242,5.45v2a2.62,2.62,0,0,0,.28,1.38.91.91,0,0,0,.81.43.89.89,0,0,0,.8-.43,2.64,2.64,0,0,0,.27-1.37Zm7.93,1.89a3.45,3.45,0,0,1-.71,2.35,2.72,2.72,0,0,1-3.86,0,3.44,3.44,0,0,1-.71-2.35V5.61a3.46,3.46,0,0,1,.71-2.36,2.71,2.71,0,0,1,3.86,0,3.45,3.45,0,0,1,.72,2.36Zm-1.56-1.89a2.57,2.57,0,0,0-.28-1.36,1,1,0,0,0-1.61,0,2.62,2.62,0,0,0-.27,1.36v2a2.62,2.62,0,0,0,.28,1.38.91.91,0,0,0,.81.43.89.89,0,0,0,.8-.43,2.64,2.64,0,0,0,.27-1.37Zm7.93,1.89a3.45,3.45,0,0,1-.71,2.35,2.72,2.72,0,0,1-3.86,0,3.44,3.44,0,0,1-.71-2.35V5.61a3.46,3.46,0,0,1,.71-2.36,2.71,2.71,0,0,1,3.86,0,3.45,3.45,0,0,1,.72,2.36Zm-1.56-1.89a2.57,2.57,0,0,0-.28-1.36,1,1,0,0,0-1.61,0,2.62,2.62,0,0,0-.27,1.36v2A2.62,2.62,0,0,0,255,8.86a.91.91,0,0,0,.81.43.89.89,0,0,0,.8-.43,2.64,2.64,0,0,0,.27-1.37Zm7.93,1.89a3.45,3.45,0,0,1-.71,2.35,2.72,2.72,0,0,1-3.86,0,3.44,3.44,0,0,1-.71-2.35V5.61a3.46,3.46,0,0,1,.71-2.36,2.71,2.71,0,0,1,3.86,0,3.45,3.45,0,0,1,.72,2.36Zm-1.56-1.89A2.57,2.57,0,0,0,263,4.09a1,1,0,0,0-1.61,0,2.62,2.62,0,0,0-.27,1.36v2a2.62,2.62,0,0,0,.28,1.38.91.91,0,0,0,.81.43.89.89,0,0,0,.8-.43,2.64,2.64,0,0,0,.27-1.37Zm7.93,1.89a3.45,3.45,0,0,1-.71,2.35,2.72,2.72,0,0,1-3.86,0,3.44,3.44,0,0,1-.71-2.35V5.61a3.46,3.46,0,0,1,.71-2.36,2.71,2.71,0,0,1,3.86,0,3.45,3.45,0,0,1,.72,2.36Zm-1.56-1.89a2.57,2.57,0,0,0-.28-1.36,1,1,0,0,0-1.61,0,2.62,2.62,0,0,0-.27,1.36v2a2.62,2.62,0,0,0,.28,1.38.91.91,0,0,0,.81.43.89.89,0,0,0,.8-.43,2.64,2.64,0,0,0,.27-1.37Zm7.93,1.89a3.45,3.45,0,0,1-.71,2.35,2.72,2.72,0,0,1-3.86,0,3.44,3.44,0,0,1-.71-2.35V5.61A3.46,3.46,0,0,1,273,3.25a2.71,2.71,0,0,1,3.86,0,3.45,3.45,0,0,1,.72,2.36ZM276,5.45a2.57,2.57,0,0,0-.28-1.36,1,1,0,0,0-1.61,0,2.62,2.62,0,0,0-.27,1.36v2a2.62,2.62,0,0,0,.28,1.38.91.91,0,0,0,.81.43.89.89,0,0,0,.8-.43A2.64,2.64,0,0,0,276,7.48Zm7.93,1.89a3.45,3.45,0,0,1-.71,2.35,2.72,2.72,0,0,1-3.86,0,3.44,3.44,0,0,1-.71-2.35V5.61a3.46,3.46,0,0,1,.71-2.36,2.71,2.71,0,0,1,3.86,0,3.45,3.45,0,0,1,.72,2.36Zm-1.56-1.89a2.57,2.57,0,0,0-.28-1.36,1,1,0,0,0-1.61,0,2.62,2.62,0,0,0-.27,1.36v2a2.62,2.62,0,0,0,.28,1.38.91.91,0,0,0,.81.43.89.89,0,0,0,.8-.43,2.64,2.64,0,0,0,.27-1.37Zm7.93,1.89a3.45,3.45,0,0,1-.71,2.35,2.72,2.72,0,0,1-3.86,0A3.44,3.44,0,0,1,285,7.33V5.61a3.46,3.46,0,0,1,.71-2.36,2.71,2.71,0,0,1,3.86,0,3.45,3.45,0,0,1,.72,2.36Zm-1.56-1.89a2.57,2.57,0,0,0-.28-1.36,1,1,0,0,0-1.61,0,2.62,2.62,0,0,0-.27,1.36v2a2.62,2.62,0,0,0,.28,1.38.91.91,0,0,0,.81.43.89.89,0,0,0,.8-.43,2.64,2.64,0,0,0,.27-1.37Zm7.93,1.89A3.45,3.45,0,0,1,296,9.69a2.72,2.72,0,0,1-3.86,0,3.44,3.44,0,0,1-.71-2.35V5.61a3.46,3.46,0,0,1,.71-2.36,2.71,2.71,0,0,1,3.86,0,3.45,3.45,0,0,1,.72,2.36Zm-1.56-1.89a2.57,2.57,0,0,0-.28-1.36,1,1,0,0,0-1.61,0A2.62,2.62,0,0,0,293,5.45v2a2.62,2.62,0,0,0,.28,1.38.91.91,0,0,0,.81.43.89.89,0,0,0,.8-.43,2.64,2.64,0,0,0,.27-1.37ZM303,7.33a3.45,3.45,0,0,1-.71,2.35,2.72,2.72,0,0,1-3.86,0,3.44,3.44,0,0,1-.71-2.35V5.61a3.46,3.46,0,0,1,.71-2.36,2.71,2.71,0,0,1,3.86,0A3.45,3.45,0,0,1,303,5.61Zm-1.56-1.89a2.57,2.57,0,0,0-.28-1.36,1,1,0,0,0-1.61,0,2.62,2.62,0,0,0-.27,1.36v2a2.62,2.62,0,0,0,.28,1.38.91.91,0,0,0,.81.43.89.89,0,0,0,.8-.43,2.64,2.64,0,0,0,.27-1.37Zm7.93,1.89a3.45,3.45,0,0,1-.71,2.35,2.72,2.72,0,0,1-3.86,0,3.44,3.44,0,0,1-.71-2.35V5.61a3.46,3.46,0,0,1,.71-2.36,2.71,2.71,0,0,1,3.86,0,3.45,3.45,0,0,1,.72,2.36Zm-1.56-1.89a2.57,2.57,0,0,0-.28-1.36,1,1,0,0,0-1.61,0,2.62,2.62,0,0,0-.27,1.36v2A2.62,2.62,0,0,0,306,8.86a.91.91,0,0,0,.81.43.89.89,0,0,0,.8-.43,2.64,2.64,0,0,0,.27-1.37Zm7.93,1.89a3.45,3.45,0,0,1-.71,2.35,2.72,2.72,0,0,1-3.86,0,3.44,3.44,0,0,1-.71-2.35V5.61a3.46,3.46,0,0,1,.71-2.36,2.71,2.71,0,0,1,3.86,0,3.45,3.45,0,0,1,.72,2.36Zm-1.56-1.89a2.57,2.57,0,0,0-.28-1.36,1,1,0,0,0-1.61,0A2.62,2.62,0,0,0,312,5.45v2a2.62,2.62,0,0,0,.28,1.38.91.91,0,0,0,.81.43.89.89,0,0,0,.8-.43,2.64,2.64,0,0,0,.27-1.37Zm7.93,1.89a3.45,3.45,0,0,1-.71,2.35,2.72,2.72,0,0,1-3.86,0,3.44,3.44,0,0,1-.71-2.35V5.61a3.46,3.46,0,0,1,.71-2.36,2.71,2.71,0,0,1,3.86,0,3.45,3.45,0,0,1,.72,2.36Zm-1.56-1.89a2.57,2.57,0,0,0-.28-1.36,1,1,0,0,0-1.61,0,2.62,2.62,0,0,0-.27,1.36v2a2.62,2.62,0,0,0,.28,1.38.91.91,0,0,0,.81.43.89.89,0,0,0,.8-.43,2.64,2.64,0,0,0,.27-1.37Zm7.93,1.89a3.45,3.45,0,0,1-.71,2.35,2.72,2.72,0,0,1-3.86,0,3.44,3.44,0,0,1-.71-2.35V5.61a3.46,3.46,0,0,1,.71-2.36,2.71,2.71,0,0,1,3.86,0,3.45,3.45,0,0,1,.72,2.36Zm-1.56-1.89a2.57,2.57,0,0,0-.28-1.36,1,1,0,0,0-1.61,0,2.62,2.62,0,0,0-.27,1.36v2a2.62,2.62,0,0,0,.28,1.38.91.91,0,0,0,.81.43.89.89,0,0,0,.8-.43,2.64,2.64,0,0,0,.27-1.37ZM5.29,20.53a3.45,3.45,0,0,1-.71,2.35,2.44,2.44,0,0,1-1.93.8,2.46,2.46,0,0,1-1.94-.8A3.44,3.44,0,0,1,0,20.53V18.81a3.46,3.46,0,0,1,.71-2.36,2.44,2.44,0,0,1,1.93-.81,2.45,2.45,0,0,1,1.93.81,3.45,3.45,0,0,1,.72,2.36ZM3.73,18.65a2.57,2.57,0,0,0-.28-1.36.9.9,0,0,0-.8-.43.9.9,0,0,0-.81.43,2.62,2.62,0,0,0-.27,1.36v2a2.62,2.62,0,0,0,.28,1.38.91.91,0,0,0,.81.43.89.89,0,0,0,.8-.43,2.64,2.64,0,0,0,.27-1.37Zm7.9,1.89a3.45,3.45,0,0,1-.71,2.35,2.44,2.44,0,0,1-1.93.8,2.46,2.46,0,0,1-1.94-.8,3.44,3.44,0,0,1-.71-2.35V18.81A3.46,3.46,0,0,1,7,16.45,2.44,2.44,0,0,1,9,15.65a2.45,2.45,0,0,1,1.93.81,3.45,3.45,0,0,1,.72,2.36Zm-1.56-1.89a2.57,2.57,0,0,0-.28-1.36,1,1,0,0,0-1.61,0,2.62,2.62,0,0,0-.27,1.36v2a2.62,2.62,0,0,0,.28,1.38.91.91,0,0,0,.81.43.89.89,0,0,0,.8-.43,2.64,2.64,0,0,0,.27-1.37ZM18,20.53a3.45,3.45,0,0,1-.71,2.35,2.44,2.44,0,0,1-1.93.8,2.46,2.46,0,0,1-1.94-.8,3.44,3.44,0,0,1-.71-2.35V18.81a3.46,3.46,0,0,1,.71-2.36,2.44,2.44,0,0,1,1.93-.81,2.45,2.45,0,0,1,1.93.81A3.45,3.45,0,0,1,18,18.81ZM16.4,18.65a2.57,2.57,0,0,0-.28-1.36,1,1,0,0,0-1.61,0,2.62,2.62,0,0,0-.27,1.36v2a2.62,2.62,0,0,0,.28,1.38.91.91,0,0,0,.81.43.89.89,0,0,0,.8-.43,2.64,2.64,0,0,0,.27-1.37Zm7.9,1.89a3.45,3.45,0,0,1-.71,2.35,2.44,2.44,0,0,1-1.93.8,2.46,2.46,0,0,1-1.94-.8A3.44,3.44,0,0,1,19,20.53V18.81a3.46,3.46,0,0,1,.71-2.36,2.44,2.44,0,0,1,1.93-.81,2.45,2.45,0,0,1,1.93.81,3.45,3.45,0,0,1,.72,2.36Zm-1.56-1.89a2.57,2.57,0,0,0-.28-1.36,1,1,0,0,0-1.61,0,2.62,2.62,0,0,0-.27,1.36v2a2.62,2.62,0,0,0,.28,1.38.91.91,0,0,0,.81.43.89.89,0,0,0,.8-.43,2.64,2.64,0,0,0,.27-1.37Zm7.9,1.89a3.45,3.45,0,0,1-.71,2.35,2.72,2.72,0,0,1-3.86,0,3.44,3.44,0,0,1-.71-2.35V18.81a3.46,3.46,0,0,1,.71-2.36,2.71,2.71,0,0,1,3.86,0,3.45,3.45,0,0,1,.72,2.36Zm-1.56-1.89a2.57,2.57,0,0,0-.28-1.36,1,1,0,0,0-1.61,0,2.62,2.62,0,0,0-.27,1.36v2a2.62,2.62,0,0,0,.28,1.38.91.91,0,0,0,.81.43.89.89,0,0,0,.8-.43,2.64,2.64,0,0,0,.27-1.37ZM37,20.53a3.45,3.45,0,0,1-.71,2.35,2.72,2.72,0,0,1-3.86,0,3.44,3.44,0,0,1-.71-2.35V18.81a3.46,3.46,0,0,1,.71-2.36,2.71,2.71,0,0,1,3.86,0A3.45,3.45,0,0,1,37,18.81Zm-1.56-1.89a2.57,2.57,0,0,0-.28-1.36,1,1,0,0,0-1.61,0,2.62,2.62,0,0,0-.27,1.36v2a2.62,2.62,0,0,0,.28,1.38.91.91,0,0,0,.81.43.89.89,0,0,0,.8-.43,2.64,2.64,0,0,0,.27-1.37Zm7.9,1.89a3.45,3.45,0,0,1-.71,2.35,2.72,2.72,0,0,1-3.86,0A3.44,3.44,0,0,1,38,20.53V18.81a3.46,3.46,0,0,1,.71-2.36,2.71,2.71,0,0,1,3.86,0,3.45,3.45,0,0,1,.72,2.36Zm-1.56-1.89a2.57,2.57,0,0,0-.28-1.36,1,1,0,0,0-1.61,0,2.62,2.62,0,0,0-.27,1.36v2a2.62,2.62,0,0,0,.28,1.38.91.91,0,0,0,.81.43.89.89,0,0,0,.8-.43,2.64,2.64,0,0,0,.27-1.37Zm7.9,1.89a3.45,3.45,0,0,1-.71,2.35,2.72,2.72,0,0,1-3.86,0,3.44,3.44,0,0,1-.71-2.35V18.81a3.46,3.46,0,0,1,.71-2.36,2.71,2.71,0,0,1,3.86,0,3.45,3.45,0,0,1,.72,2.36Zm-1.56-1.89a2.57,2.57,0,0,0-.28-1.36,1,1,0,0,0-1.61,0,2.62,2.62,0,0,0-.27,1.36v2a2.62,2.62,0,0,0,.28,1.38.91.91,0,0,0,.81.43.89.89,0,0,0,.8-.43,2.64,2.64,0,0,0,.27-1.37ZM56,20.53a3.45,3.45,0,0,1-.71,2.35,2.72,2.72,0,0,1-3.86,0,3.44,3.44,0,0,1-.71-2.35V18.81a3.46,3.46,0,0,1,.71-2.36,2.71,2.71,0,0,1,3.86,0A3.45,3.45,0,0,1,56,18.81Zm-1.56-1.89a2.57,2.57,0,0,0-.28-1.36,1,1,0,0,0-1.61,0,2.62,2.62,0,0,0-.27,1.36v2a2.62,2.62,0,0,0,.28,1.38.91.91,0,0,0,.81.43.89.89,0,0,0,.8-.43,2.64,2.64,0,0,0,.27-1.37Zm7.9,1.89a3.45,3.45,0,0,1-.71,2.35,2.72,2.72,0,0,1-3.86,0A3.44,3.44,0,0,1,57,20.53V18.81a3.46,3.46,0,0,1,.71-2.36,2.71,2.71,0,0,1,3.86,0,3.45,3.45,0,0,1,.72,2.36Zm-1.56-1.89a2.57,2.57,0,0,0-.28-1.36,1,1,0,0,0-1.61,0,2.62,2.62,0,0,0-.27,1.36v2a2.62,2.62,0,0,0,.28,1.38.91.91,0,0,0,.81.43.89.89,0,0,0,.8-.43,2.64,2.64,0,0,0,.27-1.37Zm7.9,1.89A3.45,3.45,0,0,1,68,22.89a2.72,2.72,0,0,1-3.86,0,3.44,3.44,0,0,1-.71-2.35V18.81a3.46,3.46,0,0,1,.71-2.36,2.71,2.71,0,0,1,3.86,0,3.45,3.45,0,0,1,.72,2.36ZM67.1,18.65a2.57,2.57,0,0,0-.28-1.36,1,1,0,0,0-1.61,0,2.62,2.62,0,0,0-.27,1.36v2a2.62,2.62,0,0,0,.28,1.38.91.91,0,0,0,.81.43.89.89,0,0,0,.8-.43,2.64,2.64,0,0,0,.27-1.37ZM75,20.53a3.45,3.45,0,0,1-.71,2.35,2.72,2.72,0,0,1-3.86,0,3.44,3.44,0,0,1-.71-2.35V18.81a3.46,3.46,0,0,1,.71-2.36,2.71,2.71,0,0,1,3.86,0A3.45,3.45,0,0,1,75,18.81Zm-1.56-1.89a2.57,2.57,0,0,0-.28-1.36,1,1,0,0,0-1.61,0,2.62,2.62,0,0,0-.27,1.36v2a2.62,2.62,0,0,0,.28,1.38.91.91,0,0,0,.81.43.89.89,0,0,0,.8-.43,2.64,2.64,0,0,0,.27-1.37Zm7.9,1.89a3.45,3.45,0,0,1-.71,2.35,2.72,2.72,0,0,1-3.86,0,3.44,3.44,0,0,1-.71-2.35V18.81a3.46,3.46,0,0,1,.71-2.36,2.71,2.71,0,0,1,3.86,0,3.45,3.45,0,0,1,.72,2.36Zm-1.56-1.89a2.57,2.57,0,0,0-.28-1.36,1,1,0,0,0-1.61,0,2.62,2.62,0,0,0-.27,1.36v2a2.62,2.62,0,0,0,.28,1.38.91.91,0,0,0,.81.43.89.89,0,0,0,.8-.43,2.64,2.64,0,0,0,.27-1.37Zm7.9,1.89A3.45,3.45,0,0,1,87,22.89a2.72,2.72,0,0,1-3.86,0,3.44,3.44,0,0,1-.71-2.35V18.81a3.46,3.46,0,0,1,.71-2.36,2.71,2.71,0,0,1,3.86,0,3.45,3.45,0,0,1,.72,2.36Zm-1.56-1.89a2.57,2.57,0,0,0-.28-1.36,1,1,0,0,0-1.61,0A2.62,2.62,0,0,0,84,18.65v2a2.62,2.62,0,0,0,.28,1.38.91.91,0,0,0,.81.43.89.89,0,0,0,.8-.43,2.64,2.64,0,0,0,.27-1.37ZM94,20.53a3.45,3.45,0,0,1-.71,2.35,2.72,2.72,0,0,1-3.86,0,3.44,3.44,0,0,1-.71-2.35V18.81a3.46,3.46,0,0,1,.71-2.36,2.71,2.71,0,0,1,3.86,0A3.45,3.45,0,0,1,94,18.81Zm-1.56-1.89a2.57,2.57,0,0,0-.28-1.36,1,1,0,0,0-1.61,0,2.62,2.62,0,0,0-.27,1.36v2a2.62,2.62,0,0,0,.28,1.38.91.91,0,0,0,.81.43.89.89,0,0,0,.8-.43,2.64,2.64,0,0,0,.27-1.37Zm7.9,1.89a3.45,3.45,0,0,1-.71,2.35,2.72,2.72,0,0,1-3.86,0,3.44,3.44,0,0,1-.71-2.35V18.81a3.46,3.46,0,0,1,.71-2.36,2.71,2.71,0,0,1,3.86,0,3.45,3.45,0,0,1,.72,2.36Zm-1.56-1.89a2.57,2.57,0,0,0-.28-1.36,1,1,0,0,0-1.61,0,2.62,2.62,0,0,0-.27,1.36v2a2.62,2.62,0,0,0,.28,1.38.91.91,0,0,0,.81.43.89.89,0,0,0,.8-.43,2.64,2.64,0,0,0,.27-1.37Zm7.9,1.89a3.45,3.45,0,0,1-.71,2.35,2.72,2.72,0,0,1-3.86,0,3.44,3.44,0,0,1-.71-2.35V18.81a3.46,3.46,0,0,1,.71-2.36,2.71,2.71,0,0,1,3.86,0,3.45,3.45,0,0,1,.72,2.36Zm-1.56-1.89a2.57,2.57,0,0,0-.28-1.36,1,1,0,0,0-1.61,0,2.62,2.62,0,0,0-.27,1.36v2a2.62,2.62,0,0,0,.28,1.38.91.91,0,0,0,.81.43.89.89,0,0,0,.8-.43,2.64,2.64,0,0,0,.27-1.37Zm7.9,1.89a3.45,3.45,0,0,1-.71,2.35,2.72,2.72,0,0,1-3.86,0,3.44,3.44,0,0,1-.71-2.35V18.81a3.46,3.46,0,0,1,.71-2.36,2.71,2.71,0,0,1,3.86,0,3.45,3.45,0,0,1,.72,2.36Zm-1.56-1.89a2.57,2.57,0,0,0-.28-1.36,1,1,0,0,0-1.61,0,2.62,2.62,0,0,0-.27,1.36v2a2.62,2.62,0,0,0,.28,1.38.91.91,0,0,0,.81.43.89.89,0,0,0,.8-.43,2.64,2.64,0,0,0,.27-1.37Zm7.9,1.89a3.45,3.45,0,0,1-.71,2.35,2.72,2.72,0,0,1-3.86,0,3.44,3.44,0,0,1-.71-2.35V18.81a3.46,3.46,0,0,1,.71-2.36,2.71,2.71,0,0,1,3.86,0,3.45,3.45,0,0,1,.72,2.36Zm-1.56-1.89a2.57,2.57,0,0,0-.28-1.36,1,1,0,0,0-1.61,0,2.62,2.62,0,0,0-.27,1.36v2a2.62,2.62,0,0,0,.28,1.38.91.91,0,0,0,.81.43.89.89,0,0,0,.8-.43,2.64,2.64,0,0,0,.27-1.37Zm7.9,1.89a3.45,3.45,0,0,1-.71,2.35,2.72,2.72,0,0,1-3.86,0,3.44,3.44,0,0,1-.71-2.35V18.81a3.46,3.46,0,0,1,.71-2.36,2.71,2.71,0,0,1,3.86,0,3.45,3.45,0,0,1,.72,2.36Zm-1.56-1.89a2.57,2.57,0,0,0-.28-1.36,1,1,0,0,0-1.61,0,2.62,2.62,0,0,0-.27,1.36v2a2.62,2.62,0,0,0,.28,1.38.91.91,0,0,0,.81.43.89.89,0,0,0,.8-.43,2.64,2.64,0,0,0,.27-1.37Zm7.9,1.89a3.45,3.45,0,0,1-.71,2.35,2.72,2.72,0,0,1-3.86,0,3.44,3.44,0,0,1-.71-2.35V18.81a3.46,3.46,0,0,1,.71-2.36,2.71,2.71,0,0,1,3.86,0,3.45,3.45,0,0,1,.72,2.36Zm-1.56-1.89a2.57,2.57,0,0,0-.28-1.36,1,1,0,0,0-1.61,0,2.62,2.62,0,0,0-.27,1.36v2a2.62,2.62,0,0,0,.28,1.38.91.91,0,0,0,.81.43.89.89,0,0,0,.8-.43,2.64,2.64,0,0,0,.27-1.37Zm7.9,1.89a3.45,3.45,0,0,1-.71,2.35,2.72,2.72,0,0,1-3.86,0,3.44,3.44,0,0,1-.71-2.35V18.81a3.46,3.46,0,0,1,.71-2.36,2.71,2.71,0,0,1,3.86,0,3.45,3.45,0,0,1,.72,2.36Zm-1.56-1.89a2.57,2.57,0,0,0-.28-1.36,1,1,0,0,0-1.61,0,2.62,2.62,0,0,0-.27,1.36v2a2.62,2.62,0,0,0,.28,1.38.91.91,0,0,0,.81.43.89.89,0,0,0,.8-.43,2.64,2.64,0,0,0,.27-1.37Zm7.9,1.89a3.45,3.45,0,0,1-.71,2.35,2.72,2.72,0,0,1-3.86,0,3.44,3.44,0,0,1-.71-2.35V18.81a3.46,3.46,0,0,1,.71-2.36,2.71,2.71,0,0,1,3.86,0,3.45,3.45,0,0,1,.72,2.36Zm-1.56-1.89a2.57,2.57,0,0,0-.28-1.36,1,1,0,0,0-1.61,0,2.62,2.62,0,0,0-.27,1.36v2a2.62,2.62,0,0,0,.28,1.38.91.91,0,0,0,.81.43.89.89,0,0,0,.8-.43,2.64,2.64,0,0,0,.27-1.37Zm7.9,1.89a3.45,3.45,0,0,1-.71,2.35,2.72,2.72,0,0,1-3.86,0,3.44,3.44,0,0,1-.71-2.35V18.81a3.46,3.46,0,0,1,.71-2.36,2.71,2.71,0,0,1,3.86,0,3.45,3.45,0,0,1,.72,2.36Zm-1.56-1.89a2.57,2.57,0,0,0-.28-1.36,1,1,0,0,0-1.61,0,2.62,2.62,0,0,0-.27,1.36v2a2.62,2.62,0,0,0,.28,1.38.91.91,0,0,0,.81.43.89.89,0,0,0,.8-.43,2.64,2.64,0,0,0,.27-1.37Zm7.9,1.89a3.45,3.45,0,0,1-.71,2.35,2.72,2.72,0,0,1-3.86,0,3.44,3.44,0,0,1-.71-2.35V18.81a3.46,3.46,0,0,1,.71-2.36,2.71,2.71,0,0,1,3.86,0,3.45,3.45,0,0,1,.72,2.36Zm-1.56-1.89a2.57,2.57,0,0,0-.28-1.36,1,1,0,0,0-1.61,0,2.62,2.62,0,0,0-.27,1.36v2a2.62,2.62,0,0,0,.28,1.38.91.91,0,0,0,.81.43.89.89,0,0,0,.8-.43,2.64,2.64,0,0,0,.27-1.37Zm7.9,1.89a3.45,3.45,0,0,1-.71,2.35,2.72,2.72,0,0,1-3.86,0,3.44,3.44,0,0,1-.71-2.35V18.81a3.46,3.46,0,0,1,.71-2.36,2.71,2.71,0,0,1,3.86,0,3.45,3.45,0,0,1,.72,2.36Zm-1.56-1.89a2.57,2.57,0,0,0-.28-1.36,1,1,0,0,0-1.61,0,2.62,2.62,0,0,0-.27,1.36v2a2.62,2.62,0,0,0,.28,1.38.91.91,0,0,0,.81.43.89.89,0,0,0,.8-.43,2.64,2.64,0,0,0,.27-1.37Zm7.9,1.89a3.45,3.45,0,0,1-.71,2.35,2.72,2.72,0,0,1-3.86,0,3.44,3.44,0,0,1-.71-2.35V18.81a3.46,3.46,0,0,1,.71-2.36,2.71,2.71,0,0,1,3.86,0,3.45,3.45,0,0,1,.72,2.36Zm-1.56-1.89a2.57,2.57,0,0,0-.28-1.36,1,1,0,0,0-1.61,0,2.62,2.62,0,0,0-.27,1.36v2a2.62,2.62,0,0,0,.28,1.38.91.91,0,0,0,.81.43.89.89,0,0,0,.8-.43,2.64,2.64,0,0,0,.27-1.37Zm7.9,1.89a3.45,3.45,0,0,1-.71,2.35,2.72,2.72,0,0,1-3.86,0,3.44,3.44,0,0,1-.71-2.35V18.81a3.46,3.46,0,0,1,.71-2.36,2.71,2.71,0,0,1,3.86,0,3.45,3.45,0,0,1,.72,2.36Zm-1.56-1.89a2.57,2.57,0,0,0-.28-1.36,1,1,0,0,0-1.61,0,2.62,2.62,0,0,0-.27,1.36v2a2.62,2.62,0,0,0,.28,1.38.91.91,0,0,0,.81.43.89.89,0,0,0,.8-.43,2.64,2.64,0,0,0,.27-1.37Zm7.9,1.89a3.45,3.45,0,0,1-.71,2.35,2.72,2.72,0,0,1-3.86,0,3.44,3.44,0,0,1-.71-2.35V18.81a3.46,3.46,0,0,1,.71-2.36,2.71,2.71,0,0,1,3.86,0,3.45,3.45,0,0,1,.72,2.36Zm-1.56-1.89a2.57,2.57,0,0,0-.28-1.36,1,1,0,0,0-1.61,0,2.62,2.62,0,0,0-.27,1.36v2a2.62,2.62,0,0,0,.28,1.38.91.91,0,0,0,.81.43.89.89,0,0,0,.8-.43,2.64,2.64,0,0,0,.27-1.37Zm7.9,1.89a3.45,3.45,0,0,1-.71,2.35,2.72,2.72,0,0,1-3.86,0,3.44,3.44,0,0,1-.71-2.35V18.81a3.46,3.46,0,0,1,.71-2.36,2.71,2.71,0,0,1,3.86,0,3.45,3.45,0,0,1,.72,2.36Zm-1.56-1.89a2.57,2.57,0,0,0-.28-1.36,1,1,0,0,0-1.61,0,2.62,2.62,0,0,0-.27,1.36v2a2.62,2.62,0,0,0,.28,1.38.91.91,0,0,0,.81.43.89.89,0,0,0,.8-.43,2.64,2.64,0,0,0,.27-1.37Zm7.9,1.89a3.45,3.45,0,0,1-.71,2.35,2.72,2.72,0,0,1-3.86,0,3.44,3.44,0,0,1-.71-2.35V18.81a3.46,3.46,0,0,1,.71-2.36,2.71,2.71,0,0,1,3.86,0,3.45,3.45,0,0,1,.72,2.36Zm-1.56-1.89a2.57,2.57,0,0,0-.28-1.36,1,1,0,0,0-1.61,0,2.62,2.62,0,0,0-.27,1.36v2a2.62,2.62,0,0,0,.28,1.38.91.91,0,0,0,.81.43.89.89,0,0,0,.8-.43,2.64,2.64,0,0,0,.27-1.37Zm7.9,1.89a3.45,3.45,0,0,1-.71,2.35,2.72,2.72,0,0,1-3.86,0,3.44,3.44,0,0,1-.71-2.35V18.81a3.46,3.46,0,0,1,.71-2.36,2.71,2.71,0,0,1,3.86,0,3.45,3.45,0,0,1,.72,2.36Zm-1.56-1.89a2.57,2.57,0,0,0-.28-1.36,1,1,0,0,0-1.61,0,2.62,2.62,0,0,0-.27,1.36v2a2.62,2.62,0,0,0,.28,1.38.91.91,0,0,0,.81.43.89.89,0,0,0,.8-.43,2.64,2.64,0,0,0,.27-1.37Zm7.9,1.89a3.45,3.45,0,0,1-.71,2.35,2.72,2.72,0,0,1-3.86,0,3.44,3.44,0,0,1-.71-2.35V18.81a3.46,3.46,0,0,1,.71-2.36,2.71,2.71,0,0,1,3.86,0,3.45,3.45,0,0,1,.72,2.36Zm-1.56-1.89a2.57,2.57,0,0,0-.28-1.36,1,1,0,0,0-1.61,0,2.62,2.62,0,0,0-.27,1.36v2a2.62,2.62,0,0,0,.28,1.38.91.91,0,0,0,.81.43.89.89,0,0,0,.8-.43,2.64,2.64,0,0,0,.27-1.37Zm7.9,1.89a3.45,3.45,0,0,1-.71,2.35,2.72,2.72,0,0,1-3.86,0,3.44,3.44,0,0,1-.71-2.35V18.81a3.46,3.46,0,0,1,.71-2.36,2.71,2.71,0,0,1,3.86,0,3.45,3.45,0,0,1,.72,2.36Zm-1.56-1.89a2.57,2.57,0,0,0-.28-1.36,1,1,0,0,0-1.61,0,2.62,2.62,0,0,0-.27,1.36v2a2.62,2.62,0,0,0,.28,1.38.91.91,0,0,0,.81.43.89.89,0,0,0,.8-.43,2.64,2.64,0,0,0,.27-1.37Zm7.9,1.89a3.45,3.45,0,0,1-.71,2.35,2.72,2.72,0,0,1-3.86,0,3.44,3.44,0,0,1-.71-2.35V18.81a3.46,3.46,0,0,1,.71-2.36,2.71,2.71,0,0,1,3.86,0,3.45,3.45,0,0,1,.72,2.36Zm-1.56-1.89a2.57,2.57,0,0,0-.28-1.36,1,1,0,0,0-1.61,0,2.62,2.62,0,0,0-.27,1.36v2a2.62,2.62,0,0,0,.28,1.38.91.91,0,0,0,.81.43.89.89,0,0,0,.8-.43,2.64,2.64,0,0,0,.27-1.37Zm7.9,1.89a3.45,3.45,0,0,1-.71,2.35,2.72,2.72,0,0,1-3.86,0,3.44,3.44,0,0,1-.71-2.35V18.81a3.46,3.46,0,0,1,.71-2.36,2.71,2.71,0,0,1,3.86,0,3.45,3.45,0,0,1,.72,2.36Zm-1.56-1.89a2.57,2.57,0,0,0-.28-1.36,1,1,0,0,0-1.61,0,2.62,2.62,0,0,0-.27,1.36v2a2.62,2.62,0,0,0,.28,1.38.91.91,0,0,0,.81.43.89.89,0,0,0,.8-.43,2.64,2.64,0,0,0,.27-1.37Zm7.9,1.89a3.45,3.45,0,0,1-.71,2.35,2.72,2.72,0,0,1-3.86,0,3.44,3.44,0,0,1-.71-2.35V18.81a3.46,3.46,0,0,1,.71-2.36,2.71,2.71,0,0,1,3.86,0,3.45,3.45,0,0,1,.72,2.36Zm-1.56-1.89a2.57,2.57,0,0,0-.28-1.36,1,1,0,0,0-1.61,0,2.62,2.62,0,0,0-.27,1.36v2a2.62,2.62,0,0,0,.28,1.38.91.91,0,0,0,.81.43.89.89,0,0,0,.8-.43,2.64,2.64,0,0,0,.27-1.37Zm7.9,1.89a3.45,3.45,0,0,1-.71,2.35,2.72,2.72,0,0,1-3.86,0,3.44,3.44,0,0,1-.71-2.35V18.81a3.46,3.46,0,0,1,.71-2.36,2.71,2.71,0,0,1,3.86,0,3.45,3.45,0,0,1,.72,2.36Zm-1.56-1.89a2.57,2.57,0,0,0-.28-1.36,1,1,0,0,0-1.61,0,2.62,2.62,0,0,0-.27,1.36v2a2.62,2.62,0,0,0,.28,1.38.91.91,0,0,0,.81.43.89.89,0,0,0,.8-.43,2.64,2.64,0,0,0,.27-1.37Zm7.9,1.89a3.45,3.45,0,0,1-.71,2.35,2.72,2.72,0,0,1-3.86,0,3.44,3.44,0,0,1-.71-2.35V18.81a3.46,3.46,0,0,1,.71-2.36,2.71,2.71,0,0,1,3.86,0,3.45,3.45,0,0,1,.72,2.36Zm-1.56-1.89a2.57,2.57,0,0,0-.28-1.36,1,1,0,0,0-1.61,0,2.62,2.62,0,0,0-.27,1.36v2a2.62,2.62,0,0,0,.28,1.38.91.91,0,0,0,.81.43.89.89,0,0,0,.8-.43,2.64,2.64,0,0,0,.27-1.37Zm7.9,1.89a3.45,3.45,0,0,1-.71,2.35,2.72,2.72,0,0,1-3.86,0,3.44,3.44,0,0,1-.71-2.35V18.81a3.46,3.46,0,0,1,.71-2.36,2.71,2.71,0,0,1,3.86,0,3.45,3.45,0,0,1,.72,2.36Zm-1.56-1.89a2.57,2.57,0,0,0-.28-1.36,1,1,0,0,0-1.61,0,2.62,2.62,0,0,0-.27,1.36v2a2.62,2.62,0,0,0,.28,1.38.91.91,0,0,0,.81.43.89.89,0,0,0,.8-.43,2.64,2.64,0,0,0,.27-1.37Zm7.9,1.89a3.45,3.45,0,0,1-.71,2.35,2.72,2.72,0,0,1-3.86,0,3.44,3.44,0,0,1-.71-2.35V18.81a3.46,3.46,0,0,1,.71-2.36,2.71,2.71,0,0,1,3.86,0,3.45,3.45,0,0,1,.72,2.36Zm-1.56-1.89a2.57,2.57,0,0,0-.28-1.36,1,1,0,0,0-1.61,0,2.62,2.62,0,0,0-.27,1.36v2a2.62,2.62,0,0,0,.28,1.38.91.91,0,0,0,.81.43.89.89,0,0,0,.8-.43,2.64,2.64,0,0,0,.27-1.37Zm7.9,1.89a3.45,3.45,0,0,1-.71,2.35,2.72,2.72,0,0,1-3.86,0,3.44,3.44,0,0,1-.71-2.35V18.81a3.46,3.46,0,0,1,.71-2.36,2.71,2.71,0,0,1,3.86,0,3.45,3.45,0,0,1,.72,2.36Zm-1.56-1.89a2.57,2.57,0,0,0-.28-1.36,1,1,0,0,0-1.61,0,2.62,2.62,0,0,0-.27,1.36v2a2.62,2.62,0,0,0,.28,1.38.91.91,0,0,0,.81.43.89.89,0,0,0,.8-.43,2.64,2.64,0,0,0,.27-1.37Zm7.9,1.89a3.45,3.45,0,0,1-.71,2.35,2.72,2.72,0,0,1-3.86,0,3.44,3.44,0,0,1-.71-2.35V18.81a3.46,3.46,0,0,1,.71-2.36,2.71,2.71,0,0,1,3.86,0,3.45,3.45,0,0,1,.72,2.36Zm-1.56-1.89a2.57,2.57,0,0,0-.28-1.36,1,1,0,0,0-1.61,0,2.62,2.62,0,0,0-.27,1.36v2a2.62,2.62,0,0,0,.28,1.38.91.91,0,0,0,.81.43.89.89,0,0,0,.8-.43,2.64,2.64,0,0,0,.27-1.37Zm7.9,1.89a3.45,3.45,0,0,1-.71,2.35,2.72,2.72,0,0,1-3.86,0,3.44,3.44,0,0,1-.71-2.35V18.81a3.46,3.46,0,0,1,.71-2.36,2.71,2.71,0,0,1,3.86,0,3.45,3.45,0,0,1,.72,2.36Zm-1.56-1.89a2.57,2.57,0,0,0-.28-1.36,1,1,0,0,0-1.61,0,2.62,2.62,0,0,0-.27,1.36v2a2.62,2.62,0,0,0,.28,1.38.91.91,0,0,0,.81.43.89.89,0,0,0,.8-.43,2.64,2.64,0,0,0,.27-1.37Zm7.9,1.89a3.45,3.45,0,0,1-.71,2.35,2.72,2.72,0,0,1-3.86,0,3.44,3.44,0,0,1-.71-2.35V18.81a3.46,3.46,0,0,1,.71-2.36,2.71,2.71,0,0,1,3.86,0,3.45,3.45,0,0,1,.72,2.36Zm-1.56-1.89a2.57,2.57,0,0,0-.28-1.36,1,1,0,0,0-1.61,0,2.62,2.62,0,0,0-.27,1.36v2a2.62,2.62,0,0,0,.28,1.38.91.91,0,0,0,.81.43.89.89,0,0,0,.8-.43,2.64,2.64,0,0,0,.27-1.37Zm7.9,1.89a3.45,3.45,0,0,1-.71,2.35,2.72,2.72,0,0,1-3.86,0,3.44,3.44,0,0,1-.71-2.35V18.81a3.46,3.46,0,0,1,.71-2.36,2.71,2.71,0,0,1,3.86,0,3.45,3.45,0,0,1,.72,2.36Zm-1.56-1.89a2.57,2.57,0,0,0-.28-1.36,1,1,0,0,0-1.61,0,2.62,2.62,0,0,0-.27,1.36v2a2.62,2.62,0,0,0,.28,1.38.91.91,0,0,0,.81.43.89.89,0,0,0,.8-.43,2.64,2.64,0,0,0,.27-1.37Zm7.9,1.89a3.45,3.45,0,0,1-.71,2.35,2.72,2.72,0,0,1-3.86,0,3.44,3.44,0,0,1-.71-2.35V18.81a3.46,3.46,0,0,1,.71-2.36,2.71,2.71,0,0,1,3.86,0,3.45,3.45,0,0,1,.72,2.36Zm-1.56-1.89a2.57,2.57,0,0,0-.28-1.36,1,1,0,0,0-1.61,0,2.62,2.62,0,0,0-.27,1.36v2a2.62,2.62,0,0,0,.28,1.38.91.91,0,0,0,.81.43.89.89,0,0,0,.8-.43,2.64,2.64,0,0,0,.27-1.37Zm7.9,1.89a3.45,3.45,0,0,1-.71,2.35,2.72,2.72,0,0,1-3.86,0,3.44,3.44,0,0,1-.71-2.35V18.81a3.46,3.46,0,0,1,.71-2.36,2.71,2.71,0,0,1,3.86,0,3.45,3.45,0,0,1,.72,2.36Zm-1.56-1.89a2.57,2.57,0,0,0-.28-1.36,1,1,0,0,0-1.61,0,2.62,2.62,0,0,0-.27,1.36v2a2.62,2.62,0,0,0,.28,1.38.91.91,0,0,0,.81.43.89.89,0,0,0,.8-.43,2.64,2.64,0,0,0,.27-1.37Zm7.9,1.89a3.45,3.45,0,0,1-.71,2.35,2.72,2.72,0,0,1-3.86,0,3.44,3.44,0,0,1-.71-2.35V18.81a3.46,3.46,0,0,1,.71-2.36,2.71,2.71,0,0,1,3.86,0,3.45,3.45,0,0,1,.72,2.36Zm-1.56-1.89a2.57,2.57,0,0,0-.28-1.36,1,1,0,0,0-1.61,0,2.62,2.62,0,0,0-.27,1.36v2a2.62,2.62,0,0,0,.28,1.38.91.91,0,0,0,.81.43.89.89,0,0,0,.8-.43,2.64,2.64,0,0,0,.27-1.37Zm7.9,1.89a3.45,3.45,0,0,1-.71,2.35,2.72,2.72,0,0,1-3.86,0,3.44,3.44,0,0,1-.71-2.35V18.81a3.46,3.46,0,0,1,.71-2.36,2.71,2.71,0,0,1,3.86,0,3.45,3.45,0,0,1,.72,2.36Zm-1.56-1.89a2.57,2.57,0,0,0-.28-1.36,1,1,0,0,0-1.61,0,2.62,2.62,0,0,0-.27,1.36v2a2.62,2.62,0,0,0,.28,1.38.91.91,0,0,0,.81.43.89.89,0,0,0,.8-.43,2.64,2.64,0,0,0,.27-1.37Zm7.9,1.89a3.45,3.45,0,0,1-.71,2.35,2.72,2.72,0,0,1-3.86,0,3.44,3.44,0,0,1-.71-2.35V18.81a3.46,3.46,0,0,1,.71-2.36,2.71,2.71,0,0,1,3.86,0,3.45,3.45,0,0,1,.72,2.36Zm-1.56-1.89a2.57,2.57,0,0,0-.28-1.36,1,1,0,0,0-1.61,0,2.62,2.62,0,0,0-.27,1.36v2a2.62,2.62,0,0,0,.28,1.38.91.91,0,0,0,.81.43.89.89,0,0,0,.8-.43,2.64,2.64,0,0,0,.27-1.37Zm7.9,1.89a3.45,3.45,0,0,1-.71,2.35,2.72,2.72,0,0,1-3.86,0,3.44,3.44,0,0,1-.71-2.35V18.81a3.46,3.46,0,0,1,.71-2.36,2.71,2.71,0,0,1,3.86,0,3.45,3.45,0,0,1,.72,2.36Zm-1.56-1.89a2.57,2.57,0,0,0-.28-1.36,1,1,0,0,0-1.61,0,2.62,2.62,0,0,0-.27,1.36v2a2.62,2.62,0,0,0,.28,1.38.91.91,0,0,0,.81.43.89.89,0,0,0,.8-.43,2.64,2.64,0,0,0,.27-1.37ZM5.29,33.73a3.45,3.45,0,0,1-.71,2.35,2.44,2.44,0,0,1-1.93.8,2.46,2.46,0,0,1-1.94-.8A3.44,3.44,0,0,1,0,33.73V32a3.46,3.46,0,0,1,.71-2.36,2.44,2.44,0,0,1,1.93-.81,2.45,2.45,0,0,1,1.93.81A3.45,3.45,0,0,1,5.29,32ZM3.73,31.85a2.57,2.57,0,0,0-.28-1.36.9.9,0,0,0-.8-.43.9.9,0,0,0-.81.43,2.62,2.62,0,0,0-.27,1.36v2a2.62,2.62,0,0,0,.28,1.38.91.91,0,0,0,.81.43.89.89,0,0,0,.8-.43,2.64,2.64,0,0,0,.27-1.37Zm8,1.89A3.45,3.45,0,0,1,11,36.09a2.44,2.44,0,0,1-1.93.8,2.46,2.46,0,0,1-1.94-.8,3.44,3.44,0,0,1-.71-2.35V32a3.46,3.46,0,0,1,.71-2.36,2.44,2.44,0,0,1,1.93-.81,2.45,2.45,0,0,1,1.93.81A3.45,3.45,0,0,1,11.75,32Zm-1.56-1.89a2.57,2.57,0,0,0-.28-1.36,1,1,0,0,0-1.61,0A2.62,2.62,0,0,0,8,31.85v2a2.62,2.62,0,0,0,.28,1.38.91.91,0,0,0,.81.43.89.89,0,0,0,.8-.43,2.64,2.64,0,0,0,.27-1.37Zm8,1.89a3.45,3.45,0,0,1-.71,2.35,2.44,2.44,0,0,1-1.93.8,2.46,2.46,0,0,1-1.94-.8,3.44,3.44,0,0,1-.71-2.35V32a3.46,3.46,0,0,1,.71-2.36,2.44,2.44,0,0,1,1.93-.81,2.45,2.45,0,0,1,1.93.81A3.45,3.45,0,0,1,18.22,32Zm-1.56-1.89a2.57,2.57,0,0,0-.28-1.36,1,1,0,0,0-1.61,0,2.62,2.62,0,0,0-.27,1.36v2a2.62,2.62,0,0,0,.28,1.38.91.91,0,0,0,.81.43.89.89,0,0,0,.8-.43,2.64,2.64,0,0,0,.27-1.37Zm8,1.89A3.45,3.45,0,0,1,24,36.09a2.44,2.44,0,0,1-1.93.8,2.46,2.46,0,0,1-1.94-.8,3.44,3.44,0,0,1-.71-2.35V32a3.46,3.46,0,0,1,.71-2.36A2.44,2.44,0,0,1,22,28.85a2.45,2.45,0,0,1,1.93.81A3.45,3.45,0,0,1,24.68,32Zm-1.56-1.89a2.57,2.57,0,0,0-.28-1.36,1,1,0,0,0-1.61,0A2.62,2.62,0,0,0,21,31.85v2a2.62,2.62,0,0,0,.28,1.38.91.91,0,0,0,.81.43.89.89,0,0,0,.8-.43,2.64,2.64,0,0,0,.27-1.37Zm8,1.89a3.45,3.45,0,0,1-.71,2.35,2.72,2.72,0,0,1-3.86,0,3.44,3.44,0,0,1-.71-2.35V32a3.46,3.46,0,0,1,.71-2.36,2.71,2.71,0,0,1,3.86,0A3.45,3.45,0,0,1,31.15,32Zm-1.56-1.89a2.57,2.57,0,0,0-.28-1.36,1,1,0,0,0-1.61,0,2.62,2.62,0,0,0-.27,1.36v2a2.62,2.62,0,0,0,.28,1.38.91.91,0,0,0,.81.43.89.89,0,0,0,.8-.43,2.64,2.64,0,0,0,.27-1.37Zm8,1.89a3.45,3.45,0,0,1-.71,2.35,2.72,2.72,0,0,1-3.86,0,3.44,3.44,0,0,1-.71-2.35V32A3.46,3.46,0,0,1,33,29.65a2.71,2.71,0,0,1,3.86,0A3.45,3.45,0,0,1,37.61,32ZM36,31.85a2.57,2.57,0,0,0-.28-1.36,1,1,0,0,0-1.61,0,2.62,2.62,0,0,0-.27,1.36v2a2.62,2.62,0,0,0,.28,1.38.91.91,0,0,0,.81.43.89.89,0,0,0,.8-.43A2.64,2.64,0,0,0,36,33.88Zm8,1.89a3.45,3.45,0,0,1-.71,2.35,2.72,2.72,0,0,1-3.86,0,3.44,3.44,0,0,1-.71-2.35V32a3.46,3.46,0,0,1,.71-2.36,2.71,2.71,0,0,1,3.86,0A3.45,3.45,0,0,1,44.08,32Zm-1.56-1.89a2.57,2.57,0,0,0-.28-1.36,1,1,0,0,0-1.61,0,2.62,2.62,0,0,0-.27,1.36v2a2.62,2.62,0,0,0,.28,1.38.91.91,0,0,0,.81.43.89.89,0,0,0,.8-.43,2.64,2.64,0,0,0,.27-1.37Zm8,1.89a3.45,3.45,0,0,1-.71,2.35,2.72,2.72,0,0,1-3.86,0,3.44,3.44,0,0,1-.71-2.35V32A3.46,3.46,0,0,1,46,29.65a2.71,2.71,0,0,1,3.86,0A3.45,3.45,0,0,1,50.54,32ZM49,31.85a2.57,2.57,0,0,0-.28-1.36,1,1,0,0,0-1.61,0,2.62,2.62,0,0,0-.27,1.36v2a2.62,2.62,0,0,0,.28,1.38.91.91,0,0,0,.81.43.89.89,0,0,0,.8-.43A2.64,2.64,0,0,0,49,33.88Zm8,1.89a3.45,3.45,0,0,1-.71,2.35,2.72,2.72,0,0,1-3.86,0,3.44,3.44,0,0,1-.71-2.35V32a3.46,3.46,0,0,1,.71-2.36,2.71,2.71,0,0,1,3.86,0A3.45,3.45,0,0,1,57,32Zm-1.56-1.89a2.57,2.57,0,0,0-.28-1.36,1,1,0,0,0-1.61,0,2.62,2.62,0,0,0-.27,1.36v2a2.62,2.62,0,0,0,.28,1.38.91.91,0,0,0,.81.43.89.89,0,0,0,.8-.43,2.64,2.64,0,0,0,.27-1.37Zm8,1.89a3.45,3.45,0,0,1-.71,2.35,2.72,2.72,0,0,1-3.86,0,3.44,3.44,0,0,1-.71-2.35V32a3.46,3.46,0,0,1,.71-2.36,2.71,2.71,0,0,1,3.86,0A3.45,3.45,0,0,1,63.47,32Zm-1.56-1.89a2.57,2.57,0,0,0-.28-1.36,1,1,0,0,0-1.61,0,2.62,2.62,0,0,0-.27,1.36v2A2.62,2.62,0,0,0,60,35.26a.91.91,0,0,0,.81.43.89.89,0,0,0,.8-.43,2.64,2.64,0,0,0,.27-1.37Zm8,1.89a3.45,3.45,0,0,1-.71,2.35,2.72,2.72,0,0,1-3.86,0,3.44,3.44,0,0,1-.71-2.35V32a3.46,3.46,0,0,1,.71-2.36,2.71,2.71,0,0,1,3.86,0A3.45,3.45,0,0,1,69.93,32Zm-1.56-1.89a2.57,2.57,0,0,0-.28-1.36,1,1,0,0,0-1.61,0,2.62,2.62,0,0,0-.27,1.36v2a2.62,2.62,0,0,0,.28,1.38.91.91,0,0,0,.81.43.89.89,0,0,0,.8-.43,2.64,2.64,0,0,0,.27-1.37Zm8,1.89a3.45,3.45,0,0,1-.71,2.35,2.72,2.72,0,0,1-3.86,0,3.44,3.44,0,0,1-.71-2.35V32a3.46,3.46,0,0,1,.71-2.36,2.71,2.71,0,0,1,3.86,0A3.45,3.45,0,0,1,76.4,32Zm-1.56-1.89a2.57,2.57,0,0,0-.28-1.36,1,1,0,0,0-1.61,0,2.62,2.62,0,0,0-.27,1.36v2a2.62,2.62,0,0,0,.28,1.38.91.91,0,0,0,.81.43.89.89,0,0,0,.8-.43,2.64,2.64,0,0,0,.27-1.37Zm8,1.89a3.45,3.45,0,0,1-.71,2.35,2.72,2.72,0,0,1-3.86,0,3.44,3.44,0,0,1-.71-2.35V32a3.46,3.46,0,0,1,.71-2.36,2.71,2.71,0,0,1,3.86,0A3.45,3.45,0,0,1,82.86,32ZM81.3,31.85A2.57,2.57,0,0,0,81,30.49a1,1,0,0,0-1.61,0,2.62,2.62,0,0,0-.27,1.36v2a2.62,2.62,0,0,0,.28,1.38.91.91,0,0,0,.81.43.89.89,0,0,0,.8-.43,2.64,2.64,0,0,0,.27-1.37Zm8,1.89a3.45,3.45,0,0,1-.71,2.35,2.72,2.72,0,0,1-3.86,0A3.44,3.44,0,0,1,84,33.73V32a3.46,3.46,0,0,1,.71-2.36,2.71,2.71,0,0,1,3.86,0A3.45,3.45,0,0,1,89.33,32Zm-1.56-1.89a2.57,2.57,0,0,0-.28-1.36,1,1,0,0,0-1.61,0,2.62,2.62,0,0,0-.27,1.36v2a2.62,2.62,0,0,0,.28,1.38.91.91,0,0,0,.81.43.89.89,0,0,0,.8-.43,2.64,2.64,0,0,0,.27-1.37Zm8,1.89a3.45,3.45,0,0,1-.71,2.35,2.72,2.72,0,0,1-3.86,0,3.44,3.44,0,0,1-.71-2.35V32a3.46,3.46,0,0,1,.71-2.36,2.71,2.71,0,0,1,3.86,0A3.45,3.45,0,0,1,95.79,32Zm-1.56-1.89a2.57,2.57,0,0,0-.28-1.36,1,1,0,0,0-1.61,0,2.62,2.62,0,0,0-.27,1.36v2a2.62,2.62,0,0,0,.28,1.38.91.91,0,0,0,.81.43.89.89,0,0,0,.8-.43,2.64,2.64,0,0,0,.27-1.37Zm8,1.89a3.45,3.45,0,0,1-.71,2.35,2.72,2.72,0,0,1-3.86,0A3.44,3.44,0,0,1,97,33.73V32a3.46,3.46,0,0,1,.71-2.36,2.71,2.71,0,0,1,3.86,0,3.45,3.45,0,0,1,.72,2.36Zm-1.56-1.89a2.57,2.57,0,0,0-.28-1.36,1,1,0,0,0-1.61,0,2.62,2.62,0,0,0-.27,1.36v2a2.62,2.62,0,0,0,.28,1.38.91.91,0,0,0,.81.43.89.89,0,0,0,.8-.43,2.64,2.64,0,0,0,.27-1.37Zm8,1.89a3.45,3.45,0,0,1-.71,2.35,2.72,2.72,0,0,1-3.86,0,3.44,3.44,0,0,1-.71-2.35V32a3.46,3.46,0,0,1,.71-2.36,2.71,2.71,0,0,1,3.86,0,3.45,3.45,0,0,1,.72,2.36Zm-1.56-1.89a2.57,2.57,0,0,0-.28-1.36,1,1,0,0,0-1.61,0,2.62,2.62,0,0,0-.27,1.36v2a2.62,2.62,0,0,0,.28,1.38.91.91,0,0,0,.81.43.89.89,0,0,0,.8-.43,2.64,2.64,0,0,0,.27-1.37Zm8,1.89a3.45,3.45,0,0,1-.71,2.35,2.72,2.72,0,0,1-3.86,0,3.44,3.44,0,0,1-.71-2.35V32a3.46,3.46,0,0,1,.71-2.36,2.71,2.71,0,0,1,3.86,0,3.45,3.45,0,0,1,.72,2.36Zm-1.56-1.89a2.57,2.57,0,0,0-.28-1.36,1,1,0,0,0-1.61,0,2.62,2.62,0,0,0-.27,1.36v2a2.62,2.62,0,0,0,.28,1.38.91.91,0,0,0,.81.43.89.89,0,0,0,.8-.43,2.64,2.64,0,0,0,.27-1.37Zm8,1.89a3.45,3.45,0,0,1-.71,2.35,2.72,2.72,0,0,1-3.86,0,3.44,3.44,0,0,1-.71-2.35V32a3.46,3.46,0,0,1,.71-2.36,2.71,2.71,0,0,1,3.86,0,3.45,3.45,0,0,1,.72,2.36Zm-1.56-1.89a2.57,2.57,0,0,0-.28-1.36,1,1,0,0,0-1.61,0,2.62,2.62,0,0,0-.27,1.36v2a2.62,2.62,0,0,0,.28,1.38.91.91,0,0,0,.81.43.89.89,0,0,0,.8-.43,2.64,2.64,0,0,0,.27-1.37Zm8,1.89a3.45,3.45,0,0,1-.71,2.35,2.72,2.72,0,0,1-3.86,0,3.44,3.44,0,0,1-.71-2.35V32a3.46,3.46,0,0,1,.71-2.36,2.71,2.71,0,0,1,3.86,0,3.45,3.45,0,0,1,.72,2.36Zm-1.56-1.89a2.57,2.57,0,0,0-.28-1.36,1,1,0,0,0-1.61,0,2.62,2.62,0,0,0-.27,1.36v2a2.62,2.62,0,0,0,.28,1.38.91.91,0,0,0,.81.43.89.89,0,0,0,.8-.43,2.64,2.64,0,0,0,.27-1.37Zm8,1.89a3.45,3.45,0,0,1-.71,2.35,2.72,2.72,0,0,1-3.86,0,3.44,3.44,0,0,1-.71-2.35V32a3.46,3.46,0,0,1,.71-2.36,2.71,2.71,0,0,1,3.86,0,3.45,3.45,0,0,1,.72,2.36ZM133,31.85a2.57,2.57,0,0,0-.28-1.36,1,1,0,0,0-1.61,0,2.62,2.62,0,0,0-.27,1.36v2a2.62,2.62,0,0,0,.28,1.38.91.91,0,0,0,.81.43.89.89,0,0,0,.8-.43,2.64,2.64,0,0,0,.27-1.37Zm8,1.89a3.45,3.45,0,0,1-.71,2.35,2.72,2.72,0,0,1-3.86,0,3.44,3.44,0,0,1-.71-2.35V32a3.46,3.46,0,0,1,.71-2.36,2.71,2.71,0,0,1,3.86,0A3.45,3.45,0,0,1,141,32Zm-1.56-1.89a2.57,2.57,0,0,0-.28-1.36,1,1,0,0,0-1.61,0,2.62,2.62,0,0,0-.27,1.36v2a2.62,2.62,0,0,0,.28,1.38.91.91,0,0,0,.81.43.89.89,0,0,0,.8-.43,2.64,2.64,0,0,0,.27-1.37Zm8,1.89a3.45,3.45,0,0,1-.71,2.35,2.72,2.72,0,0,1-3.86,0,3.44,3.44,0,0,1-.71-2.35V32a3.46,3.46,0,0,1,.71-2.36,2.71,2.71,0,0,1,3.86,0A3.45,3.45,0,0,1,147.5,32Zm-1.56-1.89a2.57,2.57,0,0,0-.28-1.36,1,1,0,0,0-1.61,0,2.62,2.62,0,0,0-.27,1.36v2a2.62,2.62,0,0,0,.28,1.38.91.91,0,0,0,.81.43.89.89,0,0,0,.8-.43,2.64,2.64,0,0,0,.27-1.37Zm8,1.89a3.45,3.45,0,0,1-.71,2.35,2.72,2.72,0,0,1-3.86,0,3.44,3.44,0,0,1-.71-2.35V32a3.46,3.46,0,0,1,.71-2.36,2.71,2.71,0,0,1,3.86,0A3.45,3.45,0,0,1,154,32Zm-1.56-1.89a2.57,2.57,0,0,0-.28-1.36,1,1,0,0,0-1.61,0,2.62,2.62,0,0,0-.27,1.36v2a2.62,2.62,0,0,0,.28,1.38.91.91,0,0,0,.81.43.89.89,0,0,0,.8-.43,2.64,2.64,0,0,0,.27-1.37Zm8,1.89a3.45,3.45,0,0,1-.71,2.35,2.72,2.72,0,0,1-3.86,0,3.44,3.44,0,0,1-.71-2.35V32a3.46,3.46,0,0,1,.71-2.36,2.71,2.71,0,0,1,3.86,0,3.45,3.45,0,0,1,.72,2.36Zm-1.56-1.89a2.57,2.57,0,0,0-.28-1.36,1,1,0,0,0-1.61,0,2.62,2.62,0,0,0-.27,1.36v2a2.62,2.62,0,0,0,.28,1.38.91.91,0,0,0,.81.43.89.89,0,0,0,.8-.43,2.64,2.64,0,0,0,.27-1.37Zm8,1.89a3.45,3.45,0,0,1-.71,2.35,2.72,2.72,0,0,1-3.86,0,3.44,3.44,0,0,1-.71-2.35V32a3.46,3.46,0,0,1,.71-2.36,2.71,2.71,0,0,1,3.86,0A3.45,3.45,0,0,1,166.9,32Zm-1.56-1.89a2.57,2.57,0,0,0-.28-1.36,1,1,0,0,0-1.61,0,2.62,2.62,0,0,0-.27,1.36v2a2.62,2.62,0,0,0,.28,1.38.91.91,0,0,0,.81.43.89.89,0,0,0,.8-.43,2.64,2.64,0,0,0,.27-1.37Zm8,1.89a3.45,3.45,0,0,1-.71,2.35,2.72,2.72,0,0,1-3.86,0,3.44,3.44,0,0,1-.71-2.35V32a3.46,3.46,0,0,1,.71-2.36,2.71,2.71,0,0,1,3.86,0,3.45,3.45,0,0,1,.72,2.36Zm-1.56-1.89a2.57,2.57,0,0,0-.28-1.36,1,1,0,0,0-1.61,0,2.62,2.62,0,0,0-.27,1.36v2a2.62,2.62,0,0,0,.28,1.38.91.91,0,0,0,.81.43.89.89,0,0,0,.8-.43,2.64,2.64,0,0,0,.27-1.37Zm8,1.89a3.45,3.45,0,0,1-.71,2.35,2.72,2.72,0,0,1-3.86,0,3.44,3.44,0,0,1-.71-2.35V32a3.46,3.46,0,0,1,.71-2.36,2.71,2.71,0,0,1,3.86,0,3.45,3.45,0,0,1,.72,2.36Zm-1.56-1.89a2.57,2.57,0,0,0-.28-1.36,1,1,0,0,0-1.61,0,2.62,2.62,0,0,0-.27,1.36v2a2.62,2.62,0,0,0,.28,1.38.91.91,0,0,0,.81.43.89.89,0,0,0,.8-.43,2.64,2.64,0,0,0,.27-1.37Zm8,1.89a3.45,3.45,0,0,1-.71,2.35,2.72,2.72,0,0,1-3.86,0,3.44,3.44,0,0,1-.71-2.35V32a3.46,3.46,0,0,1,.71-2.36,2.71,2.71,0,0,1,3.86,0,3.45,3.45,0,0,1,.72,2.36Zm-1.56-1.89a2.57,2.57,0,0,0-.28-1.36,1,1,0,0,0-1.61,0,2.62,2.62,0,0,0-.27,1.36v2a2.62,2.62,0,0,0,.28,1.38.91.91,0,0,0,.81.43.89.89,0,0,0,.8-.43,2.64,2.64,0,0,0,.27-1.37Zm8,1.89a3.45,3.45,0,0,1-.71,2.35,2.72,2.72,0,0,1-3.86,0,3.44,3.44,0,0,1-.71-2.35V32a3.46,3.46,0,0,1,.71-2.36,2.71,2.71,0,0,1,3.86,0,3.45,3.45,0,0,1,.72,2.36Zm-1.56-1.89a2.57,2.57,0,0,0-.28-1.36,1,1,0,0,0-1.61,0,2.62,2.62,0,0,0-.27,1.36v2a2.62,2.62,0,0,0,.28,1.38.91.91,0,0,0,.81.43.89.89,0,0,0,.8-.43,2.64,2.64,0,0,0,.27-1.37Zm8,1.89a3.45,3.45,0,0,1-.71,2.35,2.72,2.72,0,0,1-3.86,0,3.44,3.44,0,0,1-.71-2.35V32a3.46,3.46,0,0,1,.71-2.36,2.71,2.71,0,0,1,3.86,0,3.45,3.45,0,0,1,.72,2.36Zm-1.56-1.89a2.57,2.57,0,0,0-.28-1.36,1,1,0,0,0-1.61,0,2.62,2.62,0,0,0-.27,1.36v2a2.62,2.62,0,0,0,.28,1.38.91.91,0,0,0,.81.43.89.89,0,0,0,.8-.43,2.64,2.64,0,0,0,.27-1.37Zm8,1.89a3.45,3.45,0,0,1-.71,2.35,2.72,2.72,0,0,1-3.86,0,3.44,3.44,0,0,1-.71-2.35V32a3.46,3.46,0,0,1,.71-2.36,2.71,2.71,0,0,1,3.86,0,3.45,3.45,0,0,1,.72,2.36Zm-1.56-1.89a2.57,2.57,0,0,0-.28-1.36,1,1,0,0,0-1.61,0,2.62,2.62,0,0,0-.27,1.36v2a2.62,2.62,0,0,0,.28,1.38.91.91,0,0,0,.81.43.89.89,0,0,0,.8-.43,2.64,2.64,0,0,0,.27-1.37Zm8,1.89a3.45,3.45,0,0,1-.71,2.35,2.72,2.72,0,0,1-3.86,0,3.44,3.44,0,0,1-.71-2.35V32a3.46,3.46,0,0,1,.71-2.36,2.71,2.71,0,0,1,3.86,0,3.45,3.45,0,0,1,.72,2.36Zm-1.56-1.89a2.57,2.57,0,0,0-.28-1.36,1,1,0,0,0-1.61,0,2.62,2.62,0,0,0-.27,1.36v2a2.62,2.62,0,0,0,.28,1.38.91.91,0,0,0,.81.43.89.89,0,0,0,.8-.43,2.64,2.64,0,0,0,.27-1.37Zm8,1.89a3.45,3.45,0,0,1-.71,2.35,2.72,2.72,0,0,1-3.86,0,3.44,3.44,0,0,1-.71-2.35V32a3.46,3.46,0,0,1,.71-2.36,2.71,2.71,0,0,1,3.86,0,3.45,3.45,0,0,1,.72,2.36ZM217,31.85a2.57,2.57,0,0,0-.28-1.36,1,1,0,0,0-1.61,0,2.62,2.62,0,0,0-.27,1.36v2a2.62,2.62,0,0,0,.28,1.38.91.91,0,0,0,.81.43.89.89,0,0,0,.8-.43,2.64,2.64,0,0,0,.27-1.37Zm8,1.89a3.45,3.45,0,0,1-.71,2.35,2.72,2.72,0,0,1-3.86,0,3.44,3.44,0,0,1-.71-2.35V32a3.46,3.46,0,0,1,.71-2.36,2.71,2.71,0,0,1,3.86,0,3.45,3.45,0,0,1,.72,2.36Zm-1.56-1.89a2.57,2.57,0,0,0-.28-1.36,1,1,0,0,0-1.61,0,2.62,2.62,0,0,0-.27,1.36v2a2.62,2.62,0,0,0,.28,1.38.91.91,0,0,0,.81.43.89.89,0,0,0,.8-.43,2.64,2.64,0,0,0,.27-1.37Zm8,1.89a3.45,3.45,0,0,1-.71,2.35,2.72,2.72,0,0,1-3.86,0,3.44,3.44,0,0,1-.71-2.35V32a3.46,3.46,0,0,1,.71-2.36,2.71,2.71,0,0,1,3.86,0,3.45,3.45,0,0,1,.72,2.36ZM230,31.85a2.57,2.57,0,0,0-.28-1.36,1,1,0,0,0-1.61,0,2.62,2.62,0,0,0-.27,1.36v2a2.62,2.62,0,0,0,.28,1.38.91.91,0,0,0,.81.43.89.89,0,0,0,.8-.43,2.64,2.64,0,0,0,.27-1.37Zm8,1.89a3.45,3.45,0,0,1-.71,2.35,2.72,2.72,0,0,1-3.86,0,3.44,3.44,0,0,1-.71-2.35V32a3.46,3.46,0,0,1,.71-2.36,2.71,2.71,0,0,1,3.86,0A3.45,3.45,0,0,1,238,32Zm-1.56-1.89a2.57,2.57,0,0,0-.28-1.36,1,1,0,0,0-1.61,0,2.62,2.62,0,0,0-.27,1.36v2a2.62,2.62,0,0,0,.28,1.38.91.91,0,0,0,.81.43.89.89,0,0,0,.8-.43,2.64,2.64,0,0,0,.27-1.37Zm8,1.89a3.45,3.45,0,0,1-.71,2.35,2.72,2.72,0,0,1-3.86,0,3.44,3.44,0,0,1-.71-2.35V32a3.46,3.46,0,0,1,.71-2.36,2.71,2.71,0,0,1,3.86,0,3.45,3.45,0,0,1,.72,2.36Zm-1.56-1.89a2.57,2.57,0,0,0-.28-1.36,1,1,0,0,0-1.61,0,2.62,2.62,0,0,0-.27,1.36v2a2.62,2.62,0,0,0,.28,1.38.91.91,0,0,0,.81.43.89.89,0,0,0,.8-.43,2.64,2.64,0,0,0,.27-1.37Zm8,1.89a3.45,3.45,0,0,1-.71,2.35,2.72,2.72,0,0,1-3.86,0,3.44,3.44,0,0,1-.71-2.35V32a3.46,3.46,0,0,1,.71-2.36,2.71,2.71,0,0,1,3.86,0,3.45,3.45,0,0,1,.72,2.36Zm-1.56-1.89a2.57,2.57,0,0,0-.28-1.36,1,1,0,0,0-1.61,0,2.62,2.62,0,0,0-.27,1.36v2a2.62,2.62,0,0,0,.28,1.38.91.91,0,0,0,.81.43.89.89,0,0,0,.8-.43,2.64,2.64,0,0,0,.27-1.37Zm8,1.89a3.45,3.45,0,0,1-.71,2.35,2.72,2.72,0,0,1-3.86,0,3.44,3.44,0,0,1-.71-2.35V32a3.46,3.46,0,0,1,.71-2.36,2.71,2.71,0,0,1,3.86,0A3.45,3.45,0,0,1,257.4,32Zm-1.56-1.89a2.57,2.57,0,0,0-.28-1.36,1,1,0,0,0-1.61,0,2.62,2.62,0,0,0-.27,1.36v2a2.62,2.62,0,0,0,.28,1.38.91.91,0,0,0,.81.43.89.89,0,0,0,.8-.43,2.64,2.64,0,0,0,.27-1.37Zm8,1.89a3.45,3.45,0,0,1-.71,2.35,2.72,2.72,0,0,1-3.86,0,3.44,3.44,0,0,1-.71-2.35V32a3.46,3.46,0,0,1,.71-2.36,2.71,2.71,0,0,1,3.86,0,3.45,3.45,0,0,1,.72,2.36Zm-1.56-1.89a2.57,2.57,0,0,0-.28-1.36,1,1,0,0,0-1.61,0,2.62,2.62,0,0,0-.27,1.36v2a2.62,2.62,0,0,0,.28,1.38.91.91,0,0,0,.81.43.89.89,0,0,0,.8-.43,2.64,2.64,0,0,0,.27-1.37Zm8,1.89a3.45,3.45,0,0,1-.71,2.35,2.72,2.72,0,0,1-3.86,0,3.44,3.44,0,0,1-.71-2.35V32a3.46,3.46,0,0,1,.71-2.36,2.71,2.71,0,0,1,3.86,0,3.45,3.45,0,0,1,.72,2.36Zm-1.56-1.89a2.57,2.57,0,0,0-.28-1.36,1,1,0,0,0-1.61,0,2.62,2.62,0,0,0-.27,1.36v2a2.62,2.62,0,0,0,.28,1.38.91.91,0,0,0,.81.43.89.89,0,0,0,.8-.43,2.64,2.64,0,0,0,.27-1.37Zm8,1.89a3.45,3.45,0,0,1-.71,2.35,2.72,2.72,0,0,1-3.86,0,3.44,3.44,0,0,1-.71-2.35V32a3.46,3.46,0,0,1,.71-2.36,2.71,2.71,0,0,1,3.86,0,3.45,3.45,0,0,1,.72,2.36Zm-1.56-1.89a2.57,2.57,0,0,0-.28-1.36,1,1,0,0,0-1.61,0,2.62,2.62,0,0,0-.27,1.36v2a2.62,2.62,0,0,0,.28,1.38.91.91,0,0,0,.81.43.89.89,0,0,0,.8-.43,2.64,2.64,0,0,0,.27-1.37Zm8,1.89a3.45,3.45,0,0,1-.71,2.35,2.72,2.72,0,0,1-3.86,0,3.44,3.44,0,0,1-.71-2.35V32a3.46,3.46,0,0,1,.71-2.36,2.71,2.71,0,0,1,3.86,0,3.45,3.45,0,0,1,.72,2.36Zm-1.56-1.89a2.57,2.57,0,0,0-.28-1.36,1,1,0,0,0-1.61,0,2.62,2.62,0,0,0-.27,1.36v2a2.62,2.62,0,0,0,.28,1.38.91.91,0,0,0,.81.43.89.89,0,0,0,.8-.43,2.64,2.64,0,0,0,.27-1.37Zm8,1.89a3.45,3.45,0,0,1-.71,2.35,2.72,2.72,0,0,1-3.86,0,3.44,3.44,0,0,1-.71-2.35V32a3.46,3.46,0,0,1,.71-2.36,2.71,2.71,0,0,1,3.86,0,3.45,3.45,0,0,1,.72,2.36Zm-1.56-1.89a2.57,2.57,0,0,0-.28-1.36,1,1,0,0,0-1.61,0,2.62,2.62,0,0,0-.27,1.36v2a2.62,2.62,0,0,0,.28,1.38.91.91,0,0,0,.81.43.89.89,0,0,0,.8-.43,2.64,2.64,0,0,0,.27-1.37Zm8,1.89a3.45,3.45,0,0,1-.71,2.35,2.72,2.72,0,0,1-3.86,0,3.44,3.44,0,0,1-.71-2.35V32a3.46,3.46,0,0,1,.71-2.36,2.71,2.71,0,0,1,3.86,0,3.45,3.45,0,0,1,.72,2.36Zm-1.56-1.89a2.57,2.57,0,0,0-.28-1.36,1,1,0,0,0-1.61,0,2.62,2.62,0,0,0-.27,1.36v2a2.62,2.62,0,0,0,.28,1.38.91.91,0,0,0,.81.43.89.89,0,0,0,.8-.43,2.64,2.64,0,0,0,.27-1.37Zm8,1.89a3.45,3.45,0,0,1-.71,2.35,2.72,2.72,0,0,1-3.86,0,3.44,3.44,0,0,1-.71-2.35V32a3.46,3.46,0,0,1,.71-2.36,2.71,2.71,0,0,1,3.86,0,3.45,3.45,0,0,1,.72,2.36Zm-1.56-1.89a2.57,2.57,0,0,0-.28-1.36,1,1,0,0,0-1.61,0,2.62,2.62,0,0,0-.27,1.36v2a2.62,2.62,0,0,0,.28,1.38.91.91,0,0,0,.81.43.89.89,0,0,0,.8-.43,2.64,2.64,0,0,0,.27-1.37Zm8,1.89a3.45,3.45,0,0,1-.71,2.35,2.72,2.72,0,0,1-3.86,0,3.44,3.44,0,0,1-.71-2.35V32a3.46,3.46,0,0,1,.71-2.36,2.71,2.71,0,0,1,3.86,0,3.45,3.45,0,0,1,.72,2.36Zm-1.56-1.89a2.57,2.57,0,0,0-.28-1.36,1,1,0,0,0-1.61,0,2.62,2.62,0,0,0-.27,1.36v2a2.62,2.62,0,0,0,.28,1.38.91.91,0,0,0,.81.43.89.89,0,0,0,.8-.43,2.64,2.64,0,0,0,.27-1.37Zm8,1.89a3.45,3.45,0,0,1-.71,2.35,2.72,2.72,0,0,1-3.86,0,3.44,3.44,0,0,1-.71-2.35V32a3.46,3.46,0,0,1,.71-2.36,2.71,2.71,0,0,1,3.86,0,3.45,3.45,0,0,1,.72,2.36ZM314,31.85a2.57,2.57,0,0,0-.28-1.36,1,1,0,0,0-1.61,0,2.62,2.62,0,0,0-.27,1.36v2a2.62,2.62,0,0,0,.28,1.38.91.91,0,0,0,.81.43.89.89,0,0,0,.8-.43,2.64,2.64,0,0,0,.27-1.37Zm8,1.89a3.45,3.45,0,0,1-.71,2.35,2.72,2.72,0,0,1-3.86,0,3.44,3.44,0,0,1-.71-2.35V32a3.46,3.46,0,0,1,.71-2.36,2.71,2.71,0,0,1,3.86,0A3.45,3.45,0,0,1,322,32Zm-1.56-1.89a2.57,2.57,0,0,0-.28-1.36,1,1,0,0,0-1.61,0,2.62,2.62,0,0,0-.27,1.36v2a2.62,2.62,0,0,0,.28,1.38.91.91,0,0,0,.81.43.89.89,0,0,0,.8-.43,2.64,2.64,0,0,0,.27-1.37Zm8,1.89a3.45,3.45,0,0,1-.71,2.35,2.72,2.72,0,0,1-3.86,0,3.44,3.44,0,0,1-.71-2.35V32a3.46,3.46,0,0,1,.71-2.36,2.71,2.71,0,0,1,3.86,0,3.45,3.45,0,0,1,.72,2.36Zm-1.56-1.89a2.57,2.57,0,0,0-.28-1.36,1,1,0,0,0-1.61,0,2.62,2.62,0,0,0-.27,1.36v2a2.62,2.62,0,0,0,.28,1.38.91.91,0,0,0,.81.43.89.89,0,0,0,.8-.43,2.64,2.64,0,0,0,.27-1.37Z"/></svg>