<svg id="Layer_1" data-name="Layer 1" xmlns="http://www.w3.org/2000/svg" xmlns:xlink="http://www.w3.org/1999/xlink" viewBox="0 0 97.4 154"><defs><style>.cls-1,.cls-4,.cls-5{fill:none;}.cls-1{stroke:#c4c4c4;stroke-miterlimit:10;}.cls-2{fill:#c4c4c4;}.cls-3{fill:#fff;}.cls-4,.cls-5{stroke-linejoin:round;}.cls-4{stroke:url(#linear-gradient);}.cls-5{stroke:url(#linear-gradient-2);}.cls-6{fill:url(#linear-gradient-3);}.cls-7{fill:url(#linear-gradient-4);}.cls-8{fill:url(#linear-gradient-5);}.cls-9{fill:url(#linear-gradient-6);}.cls-10{fill:url(#linear-gradient-7);}</style><linearGradient id="linear-gradient" x1="48.7" y1="131.91" x2="48.7" y2="110.59" gradientUnits="userSpaceOnUse"><stop offset="0" stop-color="#0e5f99"/><stop offset="1" stop-color="#1dc7a2"/></linearGradient><linearGradient id="linear-gradient-2" x1="48.81" y1="126.69" x2="48.81" y2="117.55" xlink:href="#linear-gradient"/><linearGradient id="linear-gradient-3" x1="25.9" y1="75.15" x2="42.9" y2="75.15" gradientTransform="matrix(-0.78, 0.62, -0.63, -0.78, 114.16, 109.47)" gradientUnits="userSpaceOnUse"><stop offset="0" stop-color="#16969e"/><stop offset="1" stop-color="#0e5f99"/></linearGradient><linearGradient id="linear-gradient-4" x1="39.91" y1="71.5" x2="56.91" y2="71.5" gradientTransform="matrix(0.39, 0.92, -0.92, 0.39, 103.3, 4.73)" gradientUnits="userSpaceOnUse"><stop offset="0" stop-color="#1dc7a2"/><stop offset="1" stop-color="#16969e"/></linearGradient><linearGradient id="linear-gradient-5" x1="4.39" y1="74.46" x2="21.39" y2="74.46" gradientTransform="matrix(-0.92, 0.4, -0.4, -0.92, 98.23, 123.05)" xlink:href="#linear-gradient-3"/><linearGradient id="linear-gradient-6" x1="6.06" y1="95.92" x2="23.06" y2="95.92" gradientTransform="matrix(0.19, 0.98, -0.98, 0.19, 134.83, 14.03)" xlink:href="#linear-gradient-4"/><linearGradient id="linear-gradient-7" x1="-5.04" y1="78.52" x2="11.96" y2="78.52" gradientTransform="matrix(-0.32, 0.95, -0.95, -0.31, 131.71, 53.41)" xlink:href="#linear-gradient-3"/></defs><title>ethblender</title><path class="cls-1" d="M28.79,10v72.5a12,12,0,0,0,12,12h15a12,12,0,0,0,12-12V10"/><path class="cls-2" d="M76.36,154H21a5.67,5.67,0,0,1-5.51-7L27.34,98.58a5.67,5.67,0,0,1,5.51-4.33h31.7a5.67,5.67,0,0,1,5.51,4.33L81.86,147A5.67,5.67,0,0,1,76.36,154Z"/><path class="cls-3" d="M62.91,119.79A14.53,14.53,0,0,0,48.7,106.5a14.53,14.53,0,0,0-14.21,13.29C33.67,128.32,40,136,48.7,136S63.73,128.32,62.91,119.79Z"/><polygon class="cls-4" points="48.7 131.41 42.45 122.13 48.7 111.09 54.95 122.13 48.7 131.41"/><polyline class="cls-5" points="42.45 122.11 48.8 118.06 54.95 122.11 54.95 122.13 48.6 126.19 42.45 122.13"/><ellipse class="cls-1" cx="48.29" cy="10" rx="19.5" ry="4.17"/><path class="cls-6" d="M32.81,67.45l4.42-3.53a5.69,5.69,0,0,1,8,.89l3.54,4.42a5.67,5.67,0,0,1-.88,8l-4.42,3.53a5.69,5.69,0,0,1-8-.89l-3.54-4.42A5.67,5.67,0,0,1,32.81,67.45Z"/><path class="cls-7" d="M49.34,82.94l-2.18-5.22a5.69,5.69,0,0,1,3-7.42l5.22-2.19a5.67,5.67,0,0,1,7.41,3L65,76.36a5.69,5.69,0,0,1-3,7.42L56.76,86A5.67,5.67,0,0,1,49.34,82.94Z"/><path class="cls-8" d="M50.36,53.29,55.55,51A5.71,5.71,0,0,1,63,54l2.28,5.19a5.67,5.67,0,0,1-2.91,7.46l-5.19,2.26a5.71,5.71,0,0,1-7.48-2.93l-2.28-5.19A5.67,5.67,0,0,1,50.36,53.29Z"/><path class="cls-9" d="M35.45,51l-1-5.55a5.72,5.72,0,0,1,4.52-6.64l5.56-1.08a5.65,5.65,0,0,1,6.62,4.48l1,5.55a5.72,5.72,0,0,1-4.52,6.64l-5.56,1.08A5.65,5.65,0,0,1,35.45,51Z"/><path class="cls-10" d="M47,32l1.79-5.36A5.71,5.71,0,0,1,56,23.06l5.38,1.78A5.67,5.67,0,0,1,64.94,32l-1.79,5.36A5.71,5.71,0,0,1,56,40.95l-5.38-1.78A5.67,5.67,0,0,1,47,32Z"/><path class="cls-3" d="M34.14,145.16H32V147H34l.06-.76h1V148H30v-.77l.68-.13v-4.59l-.68-.13v-.77h5.05v1.75h-1l-.06-.77H32v1.61h2.17Z"/><path class="cls-3" d="M41.48,141.57v1.71h-1l-.05-.72H39.26v4.51l.69.13V148H37.29v-.77l.69-.13v-4.51H36.8l-.05.72h-1v-1.71Z"/><path class="cls-3" d="M41.89,142.34v-.77h2.65v.77l-.69.13v1.85h2.61v-1.85l-.69-.13v-.77h2.65v.77l-.69.13v4.59l.69.13V148H45.78v-.77l.69-.13v-1.76H43.86v1.76l.69.13V148H41.89v-.77l.68-.13v-4.59Z"/><path class="cls-3" d="M48.86,147.2l.46-.07,1.95-5.56h1.31l1.93,5.56.46.07V148H52.79v-.77l.44-.08-.28-.88H50.88l-.28.88.44.08V148H48.86Zm2.32-1.9h1.47L51.93,143h0Z"/><path class="cls-3" d="M60.25,143.61h-1l-.17-.88a1.7,1.7,0,0,0-.49-.18,2.84,2.84,0,0,0-.68-.08,1.31,1.31,0,0,0-.82.22.69.69,0,0,0-.29.57.63.63,0,0,0,.3.53,4.19,4.19,0,0,0,1,.44,4.07,4.07,0,0,1,1.61.78,1.61,1.61,0,0,1,.55,1.27,1.52,1.52,0,0,1-.65,1.3,2.85,2.85,0,0,1-1.71.47,3.72,3.72,0,0,1-1.37-.24,2.83,2.83,0,0,1-1-.67v-1.34h1l.14.91a1.55,1.55,0,0,0,.53.26,2.47,2.47,0,0,0,.74.1,1.28,1.28,0,0,0,.8-.21.7.7,0,0,0,.27-.58.74.74,0,0,0-.26-.59,2.68,2.68,0,0,0-.92-.42,5.2,5.2,0,0,1-1.72-.78,1.48,1.48,0,0,1-.58-1.24,1.52,1.52,0,0,1,.66-1.27,2.74,2.74,0,0,1,1.66-.51,3.83,3.83,0,0,1,1.34.22,3.09,3.09,0,0,1,1,.6Z"/><path class="cls-3" d="M60.85,142.34v-.77H63.5v.77l-.69.13v1.85h2.61v-1.85l-.69-.13v-.77h2.65v.77l-.69.13v4.59l.69.13V148H64.74v-.77l.69-.13v-1.76H62.82v1.76l.69.13V148H60.85v-.77l.68-.13v-4.59Z"/><path class="cls-2" d="M35.44,87.19c4.81,4.75,17.16,7.78,24.94,0-5.43,2.15-11.68,0-11.68,0S40.1,90.21,35.44,87.19Z"/></svg>