<svg id="Layer_1" data-name="Layer 1" xmlns="http://www.w3.org/2000/svg" xmlns:xlink="http://www.w3.org/1999/xlink" viewBox="0 0 340.16 103"><defs><style>.cls-1,.cls-3,.cls-4,.cls-7{fill:none;}.cls-1,.cls-3,.cls-6,.cls-7{stroke:#c4c4c4;}.cls-1,.cls-3,.cls-4,.cls-6,.cls-7{stroke-miterlimit:10;}.cls-1,.cls-6{stroke-width:2px;}.cls-2{fill:#c4c4c4;}.cls-3,.cls-4{stroke-linecap:round;}.cls-3{stroke-width:6px;}.cls-4{stroke:#fff;stroke-width:3px;}.cls-5{fill:url(#linear-gradient);}.cls-6{fill:#fff;}</style><linearGradient id="linear-gradient" x1="23.04" y1="71.67" x2="312.07" y2="71.67" gradientUnits="userSpaceOnUse"><stop offset="0" stop-color="#16969e"/><stop offset="1" stop-color="#0e5f99"/></linearGradient></defs><title>ethcat</title><path class="cls-1" d="M85,41a41.15,41.15,0,0,1,52.72,4.62"/><polygon class="cls-2" points="89.31 44 79.47 45.61 83 36.28 89.31 44"/><path class="cls-3" d="M118.2,30.94c-5.07,18.47,15.31,22.92,19.14,25s13,9.72,7.48,16.27"/><path class="cls-4" d="M118.2,30.94c-5.07,18.47,15.31,22.92,19.14,25s13,9.72,7.48,16.27"/><path class="cls-5" d="M67.73,100H35A12,12,0,0,1,23,88V55.32a12,12,0,0,1,12-12H67.73a12,12,0,0,1,12,12V88A12,12,0,0,1,67.73,100ZM195.9,88V55.32a12,12,0,0,0-12-12H151.21a12,12,0,0,0-12,12V88a12,12,0,0,0,12,12H183.9A12,12,0,0,0,195.9,88Zm116.17,0V55.32a12,12,0,0,0-12-12H267.37a12,12,0,0,0-12,12V88a12,12,0,0,0,12,12h32.69A12,12,0,0,0,312.07,88Z"/><path class="cls-1" d="M201.3,41A41.15,41.15,0,0,1,254,45.61"/><polygon class="cls-2" points="205.65 44 195.81 45.61 199.33 36.28 205.65 44"/><path class="cls-1" d="M319.62,41a41.15,41.15,0,0,1,52.72,4.62"/><polygon class="cls-2" points="323.96 44 314.12 45.61 317.65 36.28 323.96 44"/><path class="cls-1" d="M-31,41a41.15,41.15,0,0,1,52.72,4.62"/><path class="cls-6" d="M168.3,17l-3.6.78a9.69,9.69,0,0,1-5.58-.45l-12.18-4.77,4.74,22,.08.36A13.72,13.72,0,0,0,168,45.47l8.91-1.92A13.72,13.72,0,0,0,187.42,27.3l-.08-.36-4.74-22-9.49,9.5A9.69,9.69,0,0,1,168.3,17Z"/><path class="cls-2" d="M160.61,25.78l-.1-.47a1.75,1.75,0,0,1,1.34-2.08h0a1.75,1.75,0,0,1,2.08,1.34l.1.47a1.75,1.75,0,0,1-1.34,2.08h0A1.75,1.75,0,0,1,160.61,25.78Zm11-2.37-.1-.47a1.75,1.75,0,0,1,1.34-2.08h0a1.75,1.75,0,0,1,2.08,1.34l.1.47a1.75,1.75,0,0,1-1.34,2.08h0A1.75,1.75,0,0,1,171.63,23.4Z"/><path class="cls-2" d="M171.16,34.44l.21,1a1,1,0,0,0,.67.83,2.51,2.51,0,0,0,1.38,0,2.26,2.26,0,0,0,1.16-.57,1,1,0,0,0,.27-1,1.06,1.06,0,0,0-.6-.74,1.73,1.73,0,0,0-1.17-.1l-.37-1.71,0,0a3.58,3.58,0,0,1,2.63.26,2.65,2.65,0,0,1,1.41,1.84,2.79,2.79,0,0,1-.47,2.38A4.08,4.08,0,0,1,173.84,38a3.63,3.63,0,0,1-1.65,0,2.91,2.91,0,0,1-1.38-.75,2.55,2.55,0,0,1-.91,1.36,4.7,4.7,0,0,1-4.65.48,2.92,2.92,0,0,1-1.48-2,2.85,2.85,0,0,1,.48-2.3,3.7,3.7,0,0,1,2.46-1.42h.05l.37,1.71a2,2,0,0,0-1.13.62,1.13,1.13,0,0,0-.28,1,1.15,1.15,0,0,0,.69.86,2.27,2.27,0,0,0,1.4.07,2.53,2.53,0,0,0,1.39-.66,1.22,1.22,0,0,0,.25-1.12l-.21-1Z"/><path class="cls-7" d="M163,31.72a11.3,11.3,0,0,0-13.42,8.69"/><path class="cls-7" d="M162.93,32.18a11.3,11.3,0,0,0-8.42,13.58"/><path class="cls-7" d="M163.34,31.32a11.28,11.28,0,0,0-15.85,1.88"/><path class="cls-7" d="M175.5,29a11.3,11.3,0,0,1,15.8,2.4"/><path class="cls-7" d="M175.79,29.41a11.3,11.3,0,0,1,13.27,8.91"/><path class="cls-7" d="M175.06,28.8A11.28,11.28,0,0,1,190.27,24"/><polygon class="cls-2" points="172.09 28.87 169.85 32.34 166.38 30.1 172.09 28.87"/><rect class="cls-6" x="146.45" y="42.84" width="6.33" height="14.03" rx="2.79" ry="2.79" transform="translate(-3.95 13.98) rotate(-5.28)"/><rect class="cls-6" x="184.97" y="43.84" width="6.33" height="14.03" rx="2.79" ry="2.79" transform="translate(12.6 -33.8) rotate(10.62)"/></svg>