<svg id="Layer_1" data-name="Layer 1" xmlns="http://www.w3.org/2000/svg" xmlns:xlink="http://www.w3.org/1999/xlink" viewBox="0 0 340.16 106.68"><defs><style>.cls-1{fill:url(#linear-gradient);}.cls-2{fill:none;stroke:#c4c4c4;stroke-miterlimit:10;stroke-width:2px;}.cls-3{fill:#c4c4c4;}.cls-4{fill:#fff;}.cls-5{fill:#9a9a9b;}</style><linearGradient id="linear-gradient" x1="24.65" y1="78.33" x2="313.68" y2="78.33" gradientUnits="userSpaceOnUse"><stop offset="0" stop-color="#1dc7a2"/><stop offset="1" stop-color="#16969e"/></linearGradient></defs><title>ethchain</title><path class="cls-1" d="M69.35,106.68H36.65a12,12,0,0,1-12-12V62a12,12,0,0,1,12-12H69.35a12,12,0,0,1,12,12V94.68A12,12,0,0,1,69.35,106.68Zm128.17-12V62a12,12,0,0,0-12-12H152.82a12,12,0,0,0-12,12V94.68a12,12,0,0,0,12,12h32.69A12,12,0,0,0,197.51,94.68Zm116.17,0V62a12,12,0,0,0-12-12H269a12,12,0,0,0-12,12V94.68a12,12,0,0,0,12,12h32.69A12,12,0,0,0,313.68,94.68Z"/><path class="cls-2" d="M86.58,47.65a41.15,41.15,0,0,1,52.72,4.62"/><polygon class="cls-3" points="90.92 50.66 81.08 52.27 84.61 42.95 90.92 50.66"/><path class="cls-2" d="M202.92,47.65a41.15,41.15,0,0,1,52.72,4.62"/><polygon class="cls-3" points="207.26 50.66 197.42 52.27 200.95 42.95 207.26 50.66"/><path class="cls-2" d="M321.23,47.65A41.15,41.15,0,0,1,374,52.27"/><polygon class="cls-3" points="325.57 50.66 315.73 52.27 319.26 42.95 325.57 50.66"/><path class="cls-2" d="M-29.37,47.65a41.15,41.15,0,0,1,52.72,4.62"/><g id="OG_txt" data-name="OG txt"><path class="cls-4" d="M37.13,65.29a4.5,4.5,0,0,1,2.76.75,2.63,2.63,0,0,1,1,2.25,2.43,2.43,0,0,1-.5,1.52,2.55,2.55,0,0,1-1.35.9,2.74,2.74,0,0,1,1.69,1,2.78,2.78,0,0,1,.65,1.82,2.87,2.87,0,0,1-1,2.34,4,4,0,0,1-2.64.82h-5.2V76l1.27-.1V66.09L32.53,66v-.7h4.59Zm-2.39,5.1h2.62a3,3,0,0,0,1.91-.54,1.93,1.93,0,0,0,.68-1.6,1.9,1.9,0,0,0-.72-1.62,3.43,3.43,0,0,0-2.09-.54H34.74Zm0,.79v4.7h3a2.92,2.92,0,0,0,2-.62,2.17,2.17,0,0,0,.72-1.74,2.28,2.28,0,0,0-.65-1.68,2.56,2.56,0,0,0-1.89-.66Z"/><path class="cls-4" d="M42.88,65.18v-.7h2.2v11.4l1.27.1v.69H42.88V76l1.27-.1V65.28Z"/><path class="cls-4" d="M47.68,72.32a4.54,4.54,0,0,1,1-3.06,3.68,3.68,0,0,1,5.43,0,4.54,4.54,0,0,1,1,3.06v.26a4.55,4.55,0,0,1-1,3.07,3.69,3.69,0,0,1-5.43,0,4.54,4.54,0,0,1-1-3.07Zm.94.26A4,4,0,0,0,49.35,75a2.62,2.62,0,0,0,4.12,0,4,4,0,0,0,.74-2.47v-.26a4,4,0,0,0-.75-2.45,2.6,2.6,0,0,0-4.11,0,4,4,0,0,0-.74,2.45Z"/><path class="cls-4" d="M60.28,76a2.66,2.66,0,0,0,1.64-.53A1.74,1.74,0,0,0,62.64,74h.83l0,0a2.32,2.32,0,0,1-.93,2,3.48,3.48,0,0,1-2.26.79,3.21,3.21,0,0,1-2.66-1.18,4.73,4.73,0,0,1-.95-3v-.33a4.72,4.72,0,0,1,.95-3,3.2,3.2,0,0,1,2.66-1.19,4.29,4.29,0,0,1,1.79.37,3.52,3.52,0,0,1,1.32,1l0,1.84h-.8l-.15-1.5a2.67,2.67,0,0,0-.93-.67,3.12,3.12,0,0,0-1.27-.25,2.25,2.25,0,0,0-2,1,4.31,4.31,0,0,0-.65,2.45v.33a4.35,4.35,0,0,0,.65,2.47A2.26,2.26,0,0,0,60.28,76Z"/><path class="cls-4" d="M64.95,65.18v-.7h2.2v7.27h1L70.71,69l0,0-.77-.05v-.7h3v.7l-1,.09L69,72.07l3.29,3.82.94.09v.69h-3V76l.89-.05-2.94-3.37H67.15v3.33l1.27.1v.69H64.95V76l1.27-.1V65.28Z"/><path class="cls-4" d="M47.91,92.66H45.45l-.6,3.2h-.77l.6-3.2h-2v-.73h2.13l.65-3.45H43.28v-.75H45.6l.62-3.25H47l-.62,3.25h2.46l.62-3.25h.77l-.62,3.25h1.8v.75H49.47l-.65,3.45h2v.73H48.68l-.6,3.2H47.3Zm-2.32-.73H48l.65-3.45H46.23Z"/><path class="cls-4" d="M52.82,95.18l2-.1V85.49l-2.24.32v-.66l3.18-.69V95.08l2,.1v.69h-5Z"/><path class="cls-4" d="M66.44,91.45a5.38,5.38,0,0,1-.93,3.39,3.43,3.43,0,0,1-5.2,0,5.35,5.35,0,0,1-.94-3.39V88.91a5.4,5.4,0,0,1,.93-3.39,3.42,3.42,0,0,1,5.2,0,5.36,5.36,0,0,1,.94,3.39Zm-.94-2.7a4.61,4.61,0,0,0-.67-2.69,2.46,2.46,0,0,0-3.87,0,4.64,4.64,0,0,0-.66,2.69v2.84A4.62,4.62,0,0,0,61,94.29a2.43,2.43,0,0,0,3.86,0,4.68,4.68,0,0,0,.66-2.7Z"/><path class="cls-4" d="M152.38,65.29a4.5,4.5,0,0,1,2.76.75,2.63,2.63,0,0,1,1,2.25,2.43,2.43,0,0,1-.5,1.52,2.55,2.55,0,0,1-1.35.9,2.74,2.74,0,0,1,1.69,1,2.78,2.78,0,0,1,.65,1.82,2.87,2.87,0,0,1-1,2.34,4,4,0,0,1-2.64.82h-5.2V76l1.27-.1V66.09l-1.27-.1v-.7h4.59ZM150,70.39h2.62a3,3,0,0,0,1.91-.54,1.93,1.93,0,0,0,.68-1.6,1.9,1.9,0,0,0-.72-1.62,3.43,3.43,0,0,0-2.09-.54H150Zm0,.79v4.7h3a2.92,2.92,0,0,0,2-.62,2.17,2.17,0,0,0,.72-1.74,2.28,2.28,0,0,0-.65-1.68,2.56,2.56,0,0,0-1.89-.66Z"/><path class="cls-4" d="M158.13,65.18v-.7h2.2v11.4l1.27.1v.69h-3.48V76l1.27-.1V65.28Z"/><path class="cls-4" d="M162.92,72.32a4.54,4.54,0,0,1,1-3.06,3.68,3.68,0,0,1,5.43,0,4.54,4.54,0,0,1,1,3.06v.26a4.55,4.55,0,0,1-1,3.07,3.69,3.69,0,0,1-5.43,0,4.54,4.54,0,0,1-1-3.07Zm.94.26A4,4,0,0,0,164.6,75a2.62,2.62,0,0,0,4.12,0,4,4,0,0,0,.74-2.47v-.26a4,4,0,0,0-.75-2.45,2.6,2.6,0,0,0-4.11,0,4,4,0,0,0-.74,2.45Z"/><path class="cls-4" d="M175.53,76a2.66,2.66,0,0,0,1.64-.53,1.74,1.74,0,0,0,.71-1.48h.83l0,0a2.32,2.32,0,0,1-.93,2,3.48,3.48,0,0,1-2.26.79,3.21,3.21,0,0,1-2.66-1.18,4.73,4.73,0,0,1-.95-3v-.33a4.72,4.72,0,0,1,.95-3,3.2,3.2,0,0,1,2.66-1.19,4.29,4.29,0,0,1,1.79.37,3.52,3.52,0,0,1,1.32,1l0,1.84h-.8l-.15-1.5a2.67,2.67,0,0,0-.93-.67,3.12,3.12,0,0,0-1.27-.25,2.25,2.25,0,0,0-2,1,4.31,4.31,0,0,0-.65,2.45v.33a4.35,4.35,0,0,0,.65,2.47A2.26,2.26,0,0,0,175.53,76Z"/><path class="cls-4" d="M180.2,65.18v-.7h2.2v7.27h1L186,69l0,0-.77-.05v-.7h3v.7l-1,.09-2.89,3.07,3.29,3.82.94.09v.69h-3V76l.89-.05-2.94-3.37H182.4v3.33l1.27.1v.69H180.2V76l1.27-.1V65.28Z"/><path class="cls-4" d="M164.43,92.66H162l-.6,3.2h-.77l.6-3.2h-2v-.73h2.13l.65-3.45h-2.18v-.75h2.32l.62-3.25h.77l-.62,3.25h2.46l.62-3.25h.77l-.62,3.25h1.8v.75H166l-.65,3.45h2v.73H165.2l-.6,3.2h-.77Zm-2.32-.73h2.46l.65-3.45h-2.46Z"/><path class="cls-4" d="M169.35,95.18l2-.1V85.49l-2.24.32v-.66l3.18-.69V95.08l2,.1v.69h-5Z"/><path class="cls-4" d="M175.84,95.18l2-.1V85.49l-2.24.32v-.66l3.18-.69V95.08l2,.1v.69h-5Z"/><path class="cls-4" d="M269.54,65.29a4.5,4.5,0,0,1,2.76.75,2.63,2.63,0,0,1,1,2.25,2.43,2.43,0,0,1-.5,1.52,2.55,2.55,0,0,1-1.35.9,2.74,2.74,0,0,1,1.69,1,2.78,2.78,0,0,1,.65,1.82,2.87,2.87,0,0,1-1,2.34,4,4,0,0,1-2.64.82h-5.2V76l1.27-.1V66.09l-1.27-.1v-.7h4.59Zm-2.39,5.1h2.62a3,3,0,0,0,1.91-.54,1.93,1.93,0,0,0,.68-1.6,1.9,1.9,0,0,0-.72-1.62,3.43,3.43,0,0,0-2.09-.54h-2.39Zm0,.79v4.7h3a2.92,2.92,0,0,0,2-.62,2.17,2.17,0,0,0,.72-1.74,2.28,2.28,0,0,0-.65-1.68,2.56,2.56,0,0,0-1.89-.66Z"/><path class="cls-4" d="M275.29,65.18v-.7h2.2v11.4l1.27.1v.69h-3.48V76l1.27-.1V65.28Z"/><path class="cls-4" d="M280.09,72.32a4.54,4.54,0,0,1,1-3.06,3.68,3.68,0,0,1,5.43,0,4.54,4.54,0,0,1,1,3.06v.26a4.55,4.55,0,0,1-1,3.07,3.69,3.69,0,0,1-5.43,0,4.54,4.54,0,0,1-1-3.07Zm.94.26a4,4,0,0,0,.74,2.47,2.62,2.62,0,0,0,4.12,0,4,4,0,0,0,.74-2.47v-.26a4,4,0,0,0-.75-2.45,2.6,2.6,0,0,0-4.11,0,4,4,0,0,0-.74,2.45Z"/><path class="cls-4" d="M292.7,76a2.66,2.66,0,0,0,1.64-.53,1.74,1.74,0,0,0,.71-1.48h.83l0,0a2.32,2.32,0,0,1-.93,2,3.48,3.48,0,0,1-2.26.79A3.21,3.21,0,0,1,290,75.65a4.73,4.73,0,0,1-.95-3v-.33a4.72,4.72,0,0,1,.95-3,3.2,3.2,0,0,1,2.66-1.19,4.29,4.29,0,0,1,1.79.37,3.52,3.52,0,0,1,1.32,1l0,1.84H295l-.15-1.5a2.67,2.67,0,0,0-.93-.67,3.12,3.12,0,0,0-1.27-.25,2.25,2.25,0,0,0-2,1,4.31,4.31,0,0,0-.65,2.45v.33a4.35,4.35,0,0,0,.65,2.47A2.26,2.26,0,0,0,292.7,76Z"/><path class="cls-4" d="M297.36,65.18v-.7h2.2v7.27h1L303.13,69l0,0-.77-.05v-.7h3v.7l-1,.09-2.89,3.07,3.29,3.82.94.09v.69h-3V76l.89-.05-2.94-3.37h-1.09v3.33l1.27.1v.69h-3.48V76l1.27-.1V65.28Z"/><path class="cls-4" d="M280.48,92.66H278l-.6,3.2h-.77l.6-3.2h-2v-.73h2.13l.65-3.45h-2.18v-.75h2.32l.62-3.25h.77L279,87.74h2.46l.62-3.25h.77l-.62,3.25H284v.75H282l-.65,3.45h2v.73h-2.14l-.6,3.2h-.77Zm-2.32-.73h2.46l.65-3.45h-2.46Z"/><path class="cls-4" d="M285.4,95.18l2-.1V85.49l-2.24.32v-.66l3.18-.69V95.08l2,.1v.69h-5Z"/><path class="cls-4" d="M291.79,95.87v-.72l3.73-4.23A11.49,11.49,0,0,0,297,89a3.13,3.13,0,0,0,.43-1.5,2.39,2.39,0,0,0-.6-1.7,2.2,2.2,0,0,0-1.69-.64,2.57,2.57,0,0,0-2,.72,2.7,2.7,0,0,0-.67,1.92h-.87l0,0a3.19,3.19,0,0,1,.92-2.41,3.47,3.47,0,0,1,2.61-1,3.25,3.25,0,0,1,2.35.84,3,3,0,0,1,.88,2.27,3.63,3.63,0,0,1-.59,1.9,15.88,15.88,0,0,1-1.64,2.15L293,95l0,0h5l.08-1.6h.83v2.39Z"/><path class="cls-5" d="M72.61,5A2.69,2.69,0,0,1,72.83,4a2.55,2.55,0,0,1,.6-.88l.42.3a3,3,0,0,0-.41.77,2.61,2.61,0,0,0-.13.85V6h-.7Zm1.45,0A2.69,2.69,0,0,1,74.28,4a2.55,2.55,0,0,1,.6-.88l.42.3a3,3,0,0,0-.41.77,2.61,2.61,0,0,0-.13.85V6h-.7Z"/><path class="cls-5" d="M77.8,4.37V6H79.2v.57H77.8V10.7a1.35,1.35,0,0,0,.23.88.75.75,0,0,0,.6.26H79l.37,0,.11.52a1.82,1.82,0,0,1-.43.12,3.13,3.13,0,0,1-.5,0,1.31,1.31,0,0,1-1-.42,2,2,0,0,1-.37-1.34V6.57H76V6h1.09V4.37Z"/><path class="cls-5" d="M80.28,3.71V3.19h1.65V7.08A2.27,2.27,0,0,1,84,5.87a1.92,1.92,0,0,1,1.54.62,2.9,2.9,0,0,1,.54,1.93v3.32l1,.08v.52H84.42v-.52l1-.08V8.41A2.18,2.18,0,0,0,85,6.93a1.44,1.44,0,0,0-1.12-.45,1.9,1.9,0,0,0-1.2.38,2.2,2.2,0,0,0-.71,1v3.87l1,.08v.52H80.28v-.52l1-.08v-8Z"/><path class="cls-5" d="M90.83,12.45a2.55,2.55,0,0,1-2-.88,3.21,3.21,0,0,1-.79-2.23V9a3.31,3.31,0,0,1,.78-2.26,2.42,2.42,0,0,1,1.89-.9,2.35,2.35,0,0,1,1.83.74,2.82,2.82,0,0,1,.67,2v.6H88.76v.17a2.8,2.8,0,0,0,.57,1.79,1.82,1.82,0,0,0,1.5.72,3,3,0,0,0,1.11-.18,2.2,2.2,0,0,0,.79-.52l.3.48a2.53,2.53,0,0,1-.9.59A3.47,3.47,0,0,1,90.83,12.45Zm-.09-6a1.68,1.68,0,0,0-1.3.59,2.55,2.55,0,0,0-.62,1.49v0h3.71V8.41A2,2,0,0,0,92.05,7,1.66,1.66,0,0,0,90.73,6.47Z"/><path class="cls-5" d="M97.22,6.51V6h1.54l.09,1a2.3,2.3,0,0,1,.82-.81,2.32,2.32,0,0,1,1.17-.29,2.07,2.07,0,0,1,1.79.91,4.13,4.13,0,0,1,.64,2.43v.12a3.66,3.66,0,0,1-.64,2.27,2.11,2.11,0,0,1-1.78.85,2.55,2.55,0,0,1-1.17-.25,2.14,2.14,0,0,1-.82-.72v2.7l1,.08v.52H97.22v-.52l1-.08V6.59Zm5.36,2.7a3.64,3.64,0,0,0-.48-2,1.56,1.56,0,0,0-1.41-.76,1.85,1.85,0,0,0-1.15.34,2.07,2.07,0,0,0-.67.88v3a1.92,1.92,0,0,0,.69.82,2,2,0,0,0,1.13.3,1.59,1.59,0,0,0,1.4-.69,3.17,3.17,0,0,0,.48-1.83Z"/><path class="cls-5" d="M105.94,6,106,7v.08a2.25,2.25,0,0,1,.74-.92,1.86,1.86,0,0,1,1.1-.33l.26,0,.21,0-.09.66-.52,0a1.59,1.59,0,0,0-1.09.37A2.05,2.05,0,0,0,106,8v3.79l1,.08v.52h-2.61v-.52l1-.08V6.59l-1-.08V6h1.56Z"/><path class="cls-5" d="M111.93,12.45a2.55,2.55,0,0,1-2-.88,3.21,3.21,0,0,1-.79-2.23V9a3.31,3.31,0,0,1,.78-2.26,2.42,2.42,0,0,1,1.89-.9,2.35,2.35,0,0,1,1.83.74,2.82,2.82,0,0,1,.67,2v.6h-4.48v.17a2.8,2.8,0,0,0,.57,1.79,1.82,1.82,0,0,0,1.5.72,3,3,0,0,0,1.11-.18,2.2,2.2,0,0,0,.79-.52l.3.48a2.53,2.53,0,0,1-.9.59A3.47,3.47,0,0,1,111.93,12.45Zm-.09-6a1.68,1.68,0,0,0-1.3.59,2.55,2.55,0,0,0-.62,1.49v0h3.71V8.41A2,2,0,0,0,113.15,7,1.66,1.66,0,0,0,111.83,6.47Z"/><path class="cls-5" d="M117.35,6.51l-.79.06,1.58,4.17.21.74h0l.22-.74,1.56-4.17-.79-.06V6h2.13v.52l-.62.05-2.24,5.77h-.56l-2.24-5.77-.62-.05V6h2.13Z"/><path class="cls-5" d="M122.23,11.82l1-.08V6.59l-1-.08V6h1.65v5.75l1,.08v.52h-2.61Zm1.65-7.64h-.7v-1h.7Z"/><path class="cls-5" d="M126,9.07a3.41,3.41,0,0,1,.77-2.3,2.76,2.76,0,0,1,4.07,0,3.41,3.41,0,0,1,.77,2.3v.19a3.41,3.41,0,0,1-.76,2.3,2.77,2.77,0,0,1-4.08,0,3.4,3.4,0,0,1-.77-2.3Zm.7.19a3,3,0,0,0,.56,1.85,2,2,0,0,0,3.09,0,3,3,0,0,0,.56-1.85V9.07a3,3,0,0,0-.56-1.84,2,2,0,0,0-3.08,0,3,3,0,0,0-.56,1.84Z"/><path class="cls-5" d="M137.43,11.29a2.16,2.16,0,0,1-.82.86,2.37,2.37,0,0,1-1.22.3,1.93,1.93,0,0,1-1.57-.68,3.26,3.26,0,0,1-.57-2.11V6.59l-.79-.08V6H134V9.68a2.73,2.73,0,0,0,.4,1.66,1.34,1.34,0,0,0,1.12.5,2.08,2.08,0,0,0,1.27-.35,1.86,1.86,0,0,0,.67-1V6.59l-.9-.08V6h1.61v5.75l.85.08v.52h-1.46Z"/><path class="cls-5" d="M144.59,7.95H144l-.08-.9a1.78,1.78,0,0,0-.67-.43,2.59,2.59,0,0,0-.92-.15,1.72,1.72,0,0,0-1.15.33,1,1,0,0,0-.38.78.92.92,0,0,0,.33.73,3.22,3.22,0,0,0,1.32.5,4.32,4.32,0,0,1,1.69.69,1.42,1.42,0,0,1,.56,1.19,1.54,1.54,0,0,1-.64,1.28,2.73,2.73,0,0,1-1.7.49,4,4,0,0,1-1.28-.2,3,3,0,0,1-1-.55V10.43h.57l.1.9a1.63,1.63,0,0,0,.71.41,3.19,3.19,0,0,0,.9.13,1.94,1.94,0,0,0,1.2-.33,1,1,0,0,0,.44-.81,1,1,0,0,0-.37-.78,3,3,0,0,0-1.32-.54,4.45,4.45,0,0,1-1.68-.65,1.34,1.34,0,0,1-.55-1.14,1.53,1.53,0,0,1,.62-1.23,2.49,2.49,0,0,1,1.62-.5,3.64,3.64,0,0,1,1.27.21,2.57,2.57,0,0,1,.94.58Z"/><path class="cls-5" d="M82,23.74A3.66,3.66,0,0,1,81.39,26a2.11,2.11,0,0,1-1.78.85,2.45,2.45,0,0,1-1.2-.28,2.15,2.15,0,0,1-.81-.8l-.08,1h-.6V18.19l-1-.08v-.52h1.65v3.8a2.17,2.17,0,0,1,2-1.11,2.07,2.07,0,0,1,1.79.91A4.13,4.13,0,0,1,82,23.61Zm-.71-.12a3.71,3.71,0,0,0-.47-2,1.52,1.52,0,0,0-1.38-.76,1.83,1.83,0,0,0-1.19.36,2.17,2.17,0,0,0-.67.93V25a1.9,1.9,0,0,0,1.86,1.2,1.56,1.56,0,0,0,1.38-.68,3.2,3.2,0,0,0,.46-1.83Z"/><path class="cls-5" d="M83,18.11v-.52h1.65v8.55l1,.08v.52H83v-.52l1-.08v-8Z"/><path class="cls-5" d="M86.62,23.47a3.41,3.41,0,0,1,.77-2.3,2.76,2.76,0,0,1,4.07,0,3.41,3.41,0,0,1,.77,2.3v.19a3.41,3.41,0,0,1-.76,2.3,2.77,2.77,0,0,1-4.08,0,3.4,3.4,0,0,1-.77-2.3Zm.7.19a3,3,0,0,0,.56,1.85,2,2,0,0,0,3.09,0,3,3,0,0,0,.56-1.85v-.19A3,3,0,0,0,91,21.63a2,2,0,0,0-3.08,0,3,3,0,0,0-.56,1.84Z"/><path class="cls-5" d="M96.08,26.26a2,2,0,0,0,1.23-.4,1.3,1.3,0,0,0,.53-1.11h.62v0a1.74,1.74,0,0,1-.7,1.47,2.61,2.61,0,0,1-1.7.59,2.41,2.41,0,0,1-2-.89,3.54,3.54,0,0,1-.71-2.28v-.25a3.54,3.54,0,0,1,.71-2.27,2.4,2.4,0,0,1,2-.89,3.22,3.22,0,0,1,1.34.28,2.64,2.64,0,0,1,1,.75l0,1.38h-.6l-.11-1.12a2,2,0,0,0-.7-.5,2.34,2.34,0,0,0-1-.18,1.69,1.69,0,0,0-1.51.73,3.23,3.23,0,0,0-.49,1.84v.25a3.26,3.26,0,0,0,.49,1.85A1.7,1.7,0,0,0,96.08,26.26Z"/><path class="cls-5" d="M99.58,18.11v-.52h1.65V23H102L103.9,21v0l-.58,0v-.52h2.23v.52l-.74.07-2.17,2.3,2.47,2.87.7.06v.52h-2.23v-.52l.67,0L102,23.64h-.81v2.5l1,.08v.52H99.58v-.52l1-.08v-8Z"/><path class="cls-5" d="M109.65,26.22l1-.08V21l-1-.08v-.52h1.65v5.75l1,.08v.52h-2.61Zm1.65-7.64h-.7v-1h.7Z"/><path class="cls-5" d="M118,22.35h-.57l-.08-.9a1.78,1.78,0,0,0-.67-.43,2.59,2.59,0,0,0-.92-.15,1.72,1.72,0,0,0-1.15.33,1,1,0,0,0-.38.78.92.92,0,0,0,.33.73,3.22,3.22,0,0,0,1.32.5,4.32,4.32,0,0,1,1.69.69,1.42,1.42,0,0,1,.56,1.19,1.54,1.54,0,0,1-.64,1.28,2.73,2.73,0,0,1-1.7.49,4,4,0,0,1-1.28-.2,3,3,0,0,1-1-.55V24.83h.57l.1.9a1.63,1.63,0,0,0,.71.41,3.19,3.19,0,0,0,.9.13,1.94,1.94,0,0,0,1.2-.33,1,1,0,0,0,.44-.81,1,1,0,0,0-.37-.78,3,3,0,0,0-1.32-.54,4.45,4.45,0,0,1-1.68-.65,1.34,1.34,0,0,1-.55-1.14,1.53,1.53,0,0,1,.62-1.23,2.49,2.49,0,0,1,1.62-.5,3.64,3.64,0,0,1,1.27.21,2.57,2.57,0,0,1,.94.58Z"/><path class="cls-5" d="M126.08,24.33h-1.84l-.45,2.4h-.58l.45-2.4h-1.49v-.54h1.59l.49-2.58h-1.63v-.56h1.74l.46-2.44h.58l-.46,2.44h1.85l.46-2.44h.58l-.46,2.44h1.35v.56h-1.45l-.49,2.58h1.5v.54h-1.61l-.45,2.4h-.58Zm-1.74-.54h1.85l.49-2.58h-1.85Z"/><path class="cls-5" d="M129.76,26.22l1.53-.08v-7.2l-1.68.24v-.49l2.38-.52v8l1.53.08v.52h-3.76Z"/><path class="cls-5" d="M140,23.42a4,4,0,0,1-.7,2.54,2.57,2.57,0,0,1-3.9,0,4,4,0,0,1-.71-2.54v-1.9a4,4,0,0,1,.7-2.54,2.57,2.57,0,0,1,3.9,0,4,4,0,0,1,.71,2.54Zm-.7-2a3.46,3.46,0,0,0-.5-2,1.84,1.84,0,0,0-2.9,0,3.48,3.48,0,0,0-.5,2v2.13a3.46,3.46,0,0,0,.51,2,1.82,1.82,0,0,0,2.9,0,3.51,3.51,0,0,0,.5-2Z"/><path class="cls-5" d="M142.38,18.62a2.69,2.69,0,0,1-.22,1.07,2.49,2.49,0,0,1-.6.87l-.42-.3a3,3,0,0,0,.41-.76,2.59,2.59,0,0,0,.13-.85v-1h.7Zm1.43,0a2.69,2.69,0,0,1-.22,1.07,2.49,2.49,0,0,1-.6.87l-.42-.3a3,3,0,0,0,.41-.76,2.59,2.59,0,0,0,.13-.85v-1h.7Z"/><path class="cls-5" d="M189,5A2.69,2.69,0,0,1,189.17,4a2.55,2.55,0,0,1,.6-.88l.42.3a3,3,0,0,0-.41.77,2.61,2.61,0,0,0-.13.85V6H189Zm1.45,0A2.69,2.69,0,0,1,190.61,4a2.55,2.55,0,0,1,.6-.88l.42.3a3,3,0,0,0-.41.77,2.61,2.61,0,0,0-.13.85V6h-.7Z"/><path class="cls-5" d="M194.14,4.37V6h1.39v.57h-1.39V10.7a1.35,1.35,0,0,0,.23.88.75.75,0,0,0,.6.26h.33l.37,0,.11.52a1.82,1.82,0,0,1-.43.12,3.13,3.13,0,0,1-.5,0,1.31,1.31,0,0,1-1-.42,2,2,0,0,1-.37-1.34V6.57h-1.09V6h1.09V4.37Z"/><path class="cls-5" d="M196.62,3.71V3.19h1.65V7.08a2.27,2.27,0,0,1,2.07-1.2,1.92,1.92,0,0,1,1.54.62,2.9,2.9,0,0,1,.54,1.93v3.32l1,.08v.52h-2.61v-.52l1-.08V8.41a2.18,2.18,0,0,0-.41-1.48,1.44,1.44,0,0,0-1.12-.45,1.9,1.9,0,0,0-1.2.38,2.2,2.2,0,0,0-.71,1v3.87l1,.08v.52h-2.61v-.52l1-.08v-8Z"/><path class="cls-5" d="M207.17,12.45a2.55,2.55,0,0,1-2-.88,3.21,3.21,0,0,1-.79-2.23V9a3.31,3.31,0,0,1,.78-2.26,2.42,2.42,0,0,1,1.89-.9,2.35,2.35,0,0,1,1.83.74,2.82,2.82,0,0,1,.67,2v.6H205.1v.17a2.8,2.8,0,0,0,.57,1.79,1.82,1.82,0,0,0,1.5.72,3,3,0,0,0,1.11-.18,2.2,2.2,0,0,0,.79-.52l.3.48a2.53,2.53,0,0,1-.9.59A3.47,3.47,0,0,1,207.17,12.45Zm-.09-6a1.68,1.68,0,0,0-1.3.59,2.55,2.55,0,0,0-.62,1.49v0h3.71V8.41A2,2,0,0,0,208.39,7,1.66,1.66,0,0,0,207.07,6.47Z"/><path class="cls-5" d="M213.56,6.51V6h1.54l.09,1a2.3,2.3,0,0,1,.82-.81,2.32,2.32,0,0,1,1.17-.29,2.07,2.07,0,0,1,1.79.91,4.13,4.13,0,0,1,.64,2.43v.12a3.66,3.66,0,0,1-.64,2.27,2.11,2.11,0,0,1-1.78.85A2.55,2.55,0,0,1,216,12.2a2.14,2.14,0,0,1-.82-.72v2.7l1,.08v.52h-2.61v-.52l1-.08V6.59Zm5.36,2.7a3.64,3.64,0,0,0-.48-2A1.56,1.56,0,0,0,217,6.48a1.85,1.85,0,0,0-1.15.34,2.07,2.07,0,0,0-.67.88v3a1.92,1.92,0,0,0,.69.82,2,2,0,0,0,1.13.3,1.59,1.59,0,0,0,1.4-.69,3.17,3.17,0,0,0,.48-1.83Z"/><path class="cls-5" d="M222.28,6,222.37,7v.08a2.25,2.25,0,0,1,.74-.92,1.86,1.86,0,0,1,1.1-.33l.26,0,.21,0-.09.66-.52,0a1.59,1.59,0,0,0-1.09.37,2.05,2.05,0,0,0-.61,1v3.79l1,.08v.52h-2.61v-.52l1-.08V6.59l-1-.08V6h1.56Z"/><path class="cls-5" d="M228.27,12.45a2.55,2.55,0,0,1-2-.88,3.21,3.21,0,0,1-.79-2.23V9a3.31,3.31,0,0,1,.78-2.26,2.42,2.42,0,0,1,1.89-.9,2.35,2.35,0,0,1,1.83.74,2.82,2.82,0,0,1,.67,2v.6H226.2v.17a2.8,2.8,0,0,0,.57,1.79,1.82,1.82,0,0,0,1.5.72,3,3,0,0,0,1.11-.18,2.2,2.2,0,0,0,.79-.52l.3.48a2.53,2.53,0,0,1-.9.59A3.47,3.47,0,0,1,228.27,12.45Zm-.09-6a1.68,1.68,0,0,0-1.3.59,2.55,2.55,0,0,0-.62,1.49v0H230V8.41A2,2,0,0,0,229.49,7,1.66,1.66,0,0,0,228.17,6.47Z"/><path class="cls-5" d="M233.69,6.51l-.79.06,1.58,4.17.21.74h0l.22-.74,1.56-4.17-.79-.06V6h2.13v.52l-.62.05L235,12.33h-.56l-2.24-5.77-.62-.05V6h2.13Z"/><path class="cls-5" d="M238.57,11.82l1-.08V6.59l-1-.08V6h1.65v5.75l1,.08v.52h-2.61Zm1.65-7.64h-.7v-1h.7Z"/><path class="cls-5" d="M242.36,9.07a3.41,3.41,0,0,1,.77-2.3,2.76,2.76,0,0,1,4.07,0,3.41,3.41,0,0,1,.77,2.3v.19a3.41,3.41,0,0,1-.76,2.3,2.77,2.77,0,0,1-4.08,0,3.4,3.4,0,0,1-.77-2.3Zm.7.19a3,3,0,0,0,.56,1.85,2,2,0,0,0,3.09,0,3,3,0,0,0,.56-1.85V9.07a3,3,0,0,0-.56-1.84,2,2,0,0,0-3.08,0,3,3,0,0,0-.56,1.84Z"/><path class="cls-5" d="M253.77,11.29a2.16,2.16,0,0,1-.82.86,2.37,2.37,0,0,1-1.22.3,1.93,1.93,0,0,1-1.57-.68,3.26,3.26,0,0,1-.57-2.11V6.59l-.79-.08V6h1.48V9.68a2.73,2.73,0,0,0,.4,1.66,1.34,1.34,0,0,0,1.12.5,2.08,2.08,0,0,0,1.27-.35,1.86,1.86,0,0,0,.67-1V6.59l-.9-.08V6h1.61v5.75l.85.08v.52h-1.46Z"/><path class="cls-5" d="M260.93,7.95h-.57l-.08-.9a1.78,1.78,0,0,0-.67-.43,2.59,2.59,0,0,0-.92-.15,1.72,1.72,0,0,0-1.15.33,1,1,0,0,0-.38.78.92.92,0,0,0,.33.73,3.22,3.22,0,0,0,1.32.5,4.32,4.32,0,0,1,1.69.69,1.42,1.42,0,0,1,.56,1.19,1.54,1.54,0,0,1-.64,1.28,2.73,2.73,0,0,1-1.7.49,4,4,0,0,1-1.28-.2,3,3,0,0,1-1-.55V10.43H257l.1.9a1.63,1.63,0,0,0,.71.41,3.19,3.19,0,0,0,.9.13,1.94,1.94,0,0,0,1.2-.33,1,1,0,0,0,.44-.81,1,1,0,0,0-.37-.78,3,3,0,0,0-1.32-.54A4.45,4.45,0,0,1,257,8.74a1.34,1.34,0,0,1-.55-1.14,1.53,1.53,0,0,1,.62-1.23,2.49,2.49,0,0,1,1.62-.5,3.64,3.64,0,0,1,1.27.21,2.57,2.57,0,0,1,.94.58Z"/><path class="cls-5" d="M199.33,23.74a3.66,3.66,0,0,1-.64,2.27,2.11,2.11,0,0,1-1.78.85,2.45,2.45,0,0,1-1.2-.28,2.15,2.15,0,0,1-.81-.8l-.08,1h-.6V18.19l-1-.08v-.52h1.65v3.8a2.17,2.17,0,0,1,2-1.11,2.07,2.07,0,0,1,1.79.91,4.13,4.13,0,0,1,.64,2.43Zm-.71-.12a3.71,3.71,0,0,0-.47-2,1.52,1.52,0,0,0-1.38-.76,1.83,1.83,0,0,0-1.19.36,2.17,2.17,0,0,0-.67.93V25a1.9,1.9,0,0,0,1.86,1.2,1.56,1.56,0,0,0,1.38-.68,3.2,3.2,0,0,0,.46-1.83Z"/><path class="cls-5" d="M200.32,18.11v-.52H202v8.55l1,.08v.52h-2.61v-.52l1-.08v-8Z"/><path class="cls-5" d="M203.92,23.47a3.41,3.41,0,0,1,.77-2.3,2.76,2.76,0,0,1,4.07,0,3.41,3.41,0,0,1,.77,2.3v.19a3.41,3.41,0,0,1-.76,2.3,2.77,2.77,0,0,1-4.08,0,3.4,3.4,0,0,1-.77-2.3Zm.7.19a3,3,0,0,0,.56,1.85,2,2,0,0,0,3.09,0,3,3,0,0,0,.56-1.85v-.19a3,3,0,0,0-.56-1.84,2,2,0,0,0-3.08,0,3,3,0,0,0-.56,1.84Z"/><path class="cls-5" d="M213.38,26.26a2,2,0,0,0,1.23-.4,1.3,1.3,0,0,0,.53-1.11h.62v0a1.74,1.74,0,0,1-.7,1.47,2.61,2.61,0,0,1-1.7.59,2.41,2.41,0,0,1-2-.89,3.54,3.54,0,0,1-.71-2.28v-.25a3.54,3.54,0,0,1,.71-2.27,2.4,2.4,0,0,1,2-.89,3.22,3.22,0,0,1,1.34.28,2.64,2.64,0,0,1,1,.75l0,1.38h-.6L215,21.56a2,2,0,0,0-.7-.5,2.34,2.34,0,0,0-1-.18,1.69,1.69,0,0,0-1.51.73,3.23,3.23,0,0,0-.49,1.84v.25a3.26,3.26,0,0,0,.49,1.85A1.7,1.7,0,0,0,213.38,26.26Z"/><path class="cls-5" d="M216.88,18.11v-.52h1.65V23h.74L221.2,21v0l-.58,0v-.52h2.23v.52l-.74.07-2.17,2.3,2.47,2.87.7.06v.52h-2.23v-.52l.67,0-2.2-2.53h-.81v2.5l1,.08v.52h-2.61v-.52l1-.08v-8Z"/><path class="cls-5" d="M226.95,26.22l1-.08V21l-1-.08v-.52h1.65v5.75l1,.08v.52h-2.61Zm1.65-7.64h-.7v-1h.7Z"/><path class="cls-5" d="M235.33,22.35h-.57l-.08-.9A1.78,1.78,0,0,0,234,21a2.59,2.59,0,0,0-.92-.15,1.72,1.72,0,0,0-1.15.33,1,1,0,0,0-.38.78.92.92,0,0,0,.33.73,3.22,3.22,0,0,0,1.32.5,4.32,4.32,0,0,1,1.69.69,1.42,1.42,0,0,1,.56,1.19,1.54,1.54,0,0,1-.64,1.28,2.73,2.73,0,0,1-1.7.49,4,4,0,0,1-1.28-.2,3,3,0,0,1-1-.55V24.83h.57l.1.9a1.63,1.63,0,0,0,.71.41,3.19,3.19,0,0,0,.9.13,1.94,1.94,0,0,0,1.2-.33,1,1,0,0,0,.44-.81,1,1,0,0,0-.37-.78,3,3,0,0,0-1.32-.54,4.45,4.45,0,0,1-1.68-.65,1.34,1.34,0,0,1-.55-1.14,1.53,1.53,0,0,1,.62-1.23,2.49,2.49,0,0,1,1.62-.5,3.64,3.64,0,0,1,1.27.21,2.57,2.57,0,0,1,.94.58Z"/><path class="cls-5" d="M243.37,24.33h-1.84l-.45,2.4h-.58l.45-2.4h-1.49v-.54h1.59l.49-2.58H239.9v-.56h1.74l.46-2.44h.58l-.46,2.44h1.85l.46-2.44h.58l-.46,2.44H246v.56h-1.45l-.49,2.58h1.5v.54H244l-.45,2.4h-.58Zm-1.74-.54h1.85L244,21.2h-1.85Z"/><path class="cls-5" d="M247.06,26.22l1.53-.08v-7.2l-1.68.24v-.49l2.38-.52v8l1.53.08v.52h-3.76Z"/><path class="cls-5" d="M251.93,26.22l1.53-.08v-7.2l-1.68.24v-.49l2.38-.52v8l1.53.08v.52h-3.76Z"/><path class="cls-5" d="M257.76,18.62a2.69,2.69,0,0,1-.22,1.07,2.49,2.49,0,0,1-.6.87l-.42-.3a3,3,0,0,0,.41-.76,2.59,2.59,0,0,0,.13-.85v-1h.7Zm1.43,0a2.69,2.69,0,0,1-.22,1.07,2.49,2.49,0,0,1-.6.87l-.42-.3a3,3,0,0,0,.41-.76,2.59,2.59,0,0,0,.13-.85v-1h.7Z"/></g></svg>