<svg id="Layer_1" data-name="Layer 1" xmlns="http://www.w3.org/2000/svg" xmlns:xlink="http://www.w3.org/1999/xlink" viewBox="0 0 340.16 303.83"><defs><style>.cls-1{fill:url(#linear-gradient);}.cls-2{fill:url(#linear-gradient-2);}.cls-10,.cls-3,.cls-6,.cls-7{fill:none;}.cls-10,.cls-3{stroke:#c4c4c4;stroke-miterlimit:10;}.cls-4{fill:#c4c4c4;}.cls-5{fill:#fff;}.cls-6,.cls-7{stroke-linejoin:round;}.cls-6{stroke:url(#linear-gradient-3);}.cls-7{stroke:url(#linear-gradient-4);}.cls-8{fill:#0f669a;}.cls-9{fill:#13859c;}.cls-10{stroke-width:2px;}.cls-11{fill:#0f6399;}.cls-12{fill:#9a9a9b;}</style><linearGradient id="linear-gradient" x1="44.29" y1="2" x2="44.29" y2="90.06" gradientUnits="userSpaceOnUse"><stop offset="0" stop-color="#16969e"/><stop offset="1" stop-color="#0e5f99"/></linearGradient><linearGradient id="linear-gradient-2" x1="45.92" y1="-9.93" x2="133.98" y2="-9.93" gradientTransform="matrix(0, 1, -1, 0, 188.58, -43.92)" xlink:href="#linear-gradient"/><linearGradient id="linear-gradient-3" x1="113.44" y1="264.17" x2="113.44" y2="242.86" gradientUnits="userSpaceOnUse"><stop offset="0" stop-color="#0e5f99"/><stop offset="1" stop-color="#1dc7a2"/></linearGradient><linearGradient id="linear-gradient-4" x1="113.55" y1="258.96" x2="113.55" y2="249.82" xlink:href="#linear-gradient-3"/></defs><title>ethflowchart</title><path class="cls-1" d="M83.31,31.06,69.38,23.79v2.1L62,25.8V14c0-.4,0-.79-.06-1.17v0c0-.39-.1-.78-.18-1.16v0a12,12,0,0,0-2.39-5.11v.06A12,12,0,0,0,50,2H17.26a12,12,0,0,0-12,12V46.69a12,12,0,0,0,12,12H27.78l.11,17.43h-2.1l7.07,13.94,7.27-13.94H38l.08-17.43H50a12,12,0,0,0,11.63-9.12l0-.16c.05-.23.1-.46.14-.69s0-.29.07-.43.05-.37.07-.56,0-.59,0-.89c0-.05,0-.1,0-.15v0h0V36.14L69.38,36v2.1Z"/><path class="cls-2" d="M197.76,90.06,205,76.12h-2.1L203,58.69h11.85a12,12,0,0,0,12-12V14a12,12,0,0,0-12-12H182.16a12,12,0,0,0-12,12V46.69a12,12,0,0,0,12,12h10.51l.11,17.43h-2.1Z"/><path class="cls-3" d="M93.52,172.32V214.8a12,12,0,0,0,12,12h15a12,12,0,0,0,12-12V172.32"/><path class="cls-4" d="M141.09,286.27H85.78a5.67,5.67,0,0,1-5.51-7l11.81-48.41a5.67,5.67,0,0,1,5.51-4.33h31.7a5.67,5.67,0,0,1,5.51,4.33l11.81,48.41A5.67,5.67,0,0,1,141.09,286.27Z"/><path class="cls-5" d="M127.64,252.05a14.24,14.24,0,0,0-28.42,0c-.82,8.53,5.5,16.21,14.21,16.21S128.47,260.59,127.64,252.05Z"/><polygon class="cls-6" points="113.44 263.67 107.19 254.4 113.44 243.36 119.69 254.4 113.44 263.67"/><polyline class="cls-7" points="107.19 254.38 113.53 250.32 119.69 254.38 119.69 254.4 113.34 258.46 107.19 254.4"/><path class="cls-3" d="M93.52,172.29c0-2.3,8.73-4.17,19.5-4.17s19.5,1.87,19.5,4.17"/><path class="cls-5" d="M98.87,277.42H96.71v1.83h2.06l.06-.76h1v1.75H94.74v-.77l.68-.13v-4.59l-.68-.13v-.77H99.8v1.75h-1l-.06-.77h-2v1.61h2.17Z"/><path class="cls-5" d="M106.21,273.84v1.71h-1l-.05-.72H104v4.51l.69.13v.77H102v-.77l.69-.13v-4.51h-1.17l-.05.72h-1v-1.71Z"/><path class="cls-5" d="M106.63,274.61v-.77h2.65v.77l-.69.13v1.85h2.61v-1.85l-.69-.13v-.77h2.65v.77l-.69.13v4.59l.69.13v.77h-2.65v-.77l.69-.13v-1.76h-2.61v1.76l.69.13v.77h-2.65v-.77l.68-.13v-4.59Z"/><path class="cls-5" d="M113.6,279.47l.46-.07,1.95-5.56h1.31l1.93,5.56.46.07v.77h-2.18v-.77l.44-.08-.28-.88h-2.07l-.28.88.44.08v.77H113.6Zm2.32-1.9h1.47l-.72-2.25h0Z"/><path class="cls-5" d="M125,275.88h-1l-.17-.88a1.7,1.7,0,0,0-.49-.18,2.84,2.84,0,0,0-.68-.08,1.31,1.31,0,0,0-.82.22.69.69,0,0,0-.29.57.63.63,0,0,0,.3.53,4.19,4.19,0,0,0,1,.44,4.07,4.07,0,0,1,1.61.78,1.61,1.61,0,0,1,.55,1.27,1.52,1.52,0,0,1-.65,1.3,2.85,2.85,0,0,1-1.71.47,3.72,3.72,0,0,1-1.37-.24,2.83,2.83,0,0,1-1-.67v-1.34h1l.14.91a1.55,1.55,0,0,0,.53.26,2.47,2.47,0,0,0,.74.1,1.28,1.28,0,0,0,.8-.21.7.7,0,0,0,.27-.58.74.74,0,0,0-.26-.59,2.68,2.68,0,0,0-.92-.42,5.2,5.2,0,0,1-1.72-.78,1.48,1.48,0,0,1-.58-1.24,1.52,1.52,0,0,1,.66-1.27,2.74,2.74,0,0,1,1.66-.51A3.83,3.83,0,0,1,124,274a3.09,3.09,0,0,1,1,.6Z"/><path class="cls-5" d="M125.59,274.61v-.77h2.65v.77l-.69.13v1.85h2.61v-1.85l-.69-.13v-.77h2.65v.77l-.69.13v4.59l.69.13v.77h-2.65v-.77l.69-.13v-1.76h-2.61v1.76l.69.13v.77h-2.65v-.77l.68-.13v-4.59Z"/><path class="cls-4" d="M100.17,219.45c4.81,4.75,17.16,7.78,24.94,0-5.43,2.15-11.68,0-11.68,0S104.83,222.48,100.17,219.45Z"/><path class="cls-8" d="M171.75,120.67A67.59,67.59,0,0,1,166.48,131a63.7,63.7,0,0,1-7.11,9.24,112.43,112.43,0,0,1-17.62,15c-6.13,4.45-12.39,8.66-17,13.72a24.75,24.75,0,0,0-5.05,8.2,23.56,23.56,0,0,0-1.28,9.31h-10a23.57,23.57,0,0,0-1.27-9.32,24.77,24.77,0,0,0-5-8.21c-4.58-5.07-10.84-9.28-17-13.75a112.34,112.34,0,0,1-17.59-15,63.59,63.59,0,0,1-7.09-9.23,67.48,67.48,0,0,1-5.25-10.3l2-.88a64.83,64.83,0,0,0,5.87,9.4,60,60,0,0,0,7.43,8.11,107.49,107.49,0,0,0,18,12.84c3.22,1.93,6.5,3.84,9.77,5.94a67.07,67.07,0,0,1,9.58,7.24,32.06,32.06,0,0,1,10.58,23.16h-10a33.07,33.07,0,0,1,2.93-12.79A33.42,33.42,0,0,1,119,163.25a67.11,67.11,0,0,1,9.57-7.25c3.27-2.1,6.55-4,9.76-6a107.42,107.42,0,0,0,18-12.85,59.89,59.89,0,0,0,7.41-8.11,64.74,64.74,0,0,0,5.84-9.39Z"/><polyline class="cls-8" points="108.26 176.45 108.36 193.88 106.27 193.88 113.34 207.81 120.61 193.88 118.51 193.88 118.59 176.45"/><path class="cls-3" d="M132.52,172.29c0,2.3-8.73,4.17-19.5,4.17s-19.5-1.87-19.5-4.17"/><polygon class="cls-9" points="144.06 25.6 149.48 25.68 149.48 23.58 163.41 30.85 149.48 37.92 149.48 35.82 144.06 35.93 144.06 25.6"/><line class="cls-10" x1="157.37" y1="219.45" x2="206.7" y2="219.45"/><polygon class="cls-4" points="205.24 224.44 213.87 219.45 205.24 214.47 205.24 224.44"/><path class="cls-5" d="M10.7,29.26v-.69l1.27-.1V18.69l-1.27-.1v-.7h3.48v.7l-1.27.1v9.79h4.73l.07-1.6h.83v2.39Z"/><path class="cls-5" d="M25.94,29.26c-.06-.29-.11-.53-.13-.74a5,5,0,0,1,0-.63A3.74,3.74,0,0,1,24.52,29a3.53,3.53,0,0,1-1.76.44,2.7,2.7,0,0,1-1.92-.64,2.27,2.27,0,0,1-.68-1.73,2.14,2.14,0,0,1,1-1.86,4.79,4.79,0,0,1,2.73-.69h1.87V23.39A1.8,1.8,0,0,0,25.19,22a2.37,2.37,0,0,0-1.63-.52,4.08,4.08,0,0,0-1.29.19,2.92,2.92,0,0,0-1,.52l-.08,1.13h-.77V21.67a4.87,4.87,0,0,1,1.4-.73,5.3,5.3,0,0,1,1.74-.28,3.4,3.4,0,0,1,2.25.71,2.51,2.51,0,0,1,.85,2v4.16c0,.17,0,.34,0,.5a3.78,3.78,0,0,0,.05.46l.84.05v.69Zm-3.08-.66a3.38,3.38,0,0,0,1.79-.47,2.77,2.77,0,0,0,1.12-1.21v-1.7H23.88a3.52,3.52,0,0,0-2,.53,1.57,1.57,0,0,0-.76,1.33,1.39,1.39,0,0,0,.47,1.1A1.9,1.9,0,0,0,22.86,28.6Z"/><path class="cls-5" d="M31.08,18.65v2.16h1.86v.77H31.08v5.51a1.8,1.8,0,0,0,.3,1.18,1,1,0,0,0,.8.35l.44,0,.5-.07.14.7a2.43,2.43,0,0,1-.57.16,4.21,4.21,0,0,1-.67.05,1.75,1.75,0,0,1-1.39-.56,2.65,2.65,0,0,1-.5-1.78V21.58H28.68v-.77h1.45V18.65Z"/><path class="cls-5" d="M38.38,29.43a3.4,3.4,0,0,1-2.64-1.17,4.28,4.28,0,0,1-1-3v-.43a4.41,4.41,0,0,1,1-3,3.23,3.23,0,0,1,2.52-1.2,3.13,3.13,0,0,1,2.45,1,3.76,3.76,0,0,1,.89,2.63v.8h-6v.23a3.73,3.73,0,0,0,.76,2.39,2.42,2.42,0,0,0,2,1,4.07,4.07,0,0,0,1.48-.24,2.94,2.94,0,0,0,1.05-.7l.4.64a3.38,3.38,0,0,1-1.2.79A4.63,4.63,0,0,1,38.38,29.43Zm-.12-8a2.24,2.24,0,0,0-1.74.79,3.39,3.39,0,0,0-.82,2l0,0h5V24A2.7,2.7,0,0,0,40,22.19,2.21,2.21,0,0,0,38.26,21.45Z"/><path class="cls-5" d="M49.4,23.42h-.77l-.11-1.2a2.37,2.37,0,0,0-.89-.57,3.44,3.44,0,0,0-1.23-.2,2.3,2.3,0,0,0-1.54.44,1.33,1.33,0,0,0-.51,1,1.23,1.23,0,0,0,.44,1,4.3,4.3,0,0,0,1.76.67,5.76,5.76,0,0,1,2.26.92,1.89,1.89,0,0,1,.75,1.58,2,2,0,0,1-.86,1.71,3.64,3.64,0,0,1-2.26.65,5.27,5.27,0,0,1-1.71-.26,4.07,4.07,0,0,1-1.33-.74v-1.7h.76l.13,1.2a2.18,2.18,0,0,0,.95.54,4.24,4.24,0,0,0,1.2.17,2.59,2.59,0,0,0,1.6-.45,1.32,1.32,0,0,0,.59-1.08,1.37,1.37,0,0,0-.49-1,4,4,0,0,0-1.76-.73,5.94,5.94,0,0,1-2.24-.87A1.78,1.78,0,0,1,43.42,23a2,2,0,0,1,.82-1.64,3.32,3.32,0,0,1,2.16-.67,4.85,4.85,0,0,1,1.7.29,3.43,3.43,0,0,1,1.25.77Z"/><path class="cls-5" d="M53.42,18.65v2.16h1.86v.77H53.42v5.51a1.8,1.8,0,0,0,.3,1.18,1,1,0,0,0,.8.35l.44,0,.5-.07.14.7a2.43,2.43,0,0,1-.57.16,4.21,4.21,0,0,1-.67.05A1.75,1.75,0,0,1,53,28.87a2.65,2.65,0,0,1-.5-1.78V21.58H51v-.77h1.45V18.65Z"/><path class="cls-5" d="M17.44,32.89a4.5,4.5,0,0,1,2.76.75,2.63,2.63,0,0,1,1,2.25,2.43,2.43,0,0,1-.5,1.52,2.55,2.55,0,0,1-1.35.9,2.74,2.74,0,0,1,1.69,1,2.78,2.78,0,0,1,.65,1.82,2.87,2.87,0,0,1-1,2.34,4,4,0,0,1-2.64.82h-5.2v-.69l1.27-.1V33.69l-1.27-.1v-.7h4.59ZM15,38h2.62a3,3,0,0,0,1.91-.54,1.93,1.93,0,0,0,.68-1.6,1.9,1.9,0,0,0-.72-1.62,3.43,3.43,0,0,0-2.09-.54H15Zm0,.79v4.7h3a2.92,2.92,0,0,0,2-.62,2.17,2.17,0,0,0,.72-1.74,2.28,2.28,0,0,0-.65-1.68,2.56,2.56,0,0,0-1.89-.66Z"/><path class="cls-5" d="M23.19,32.77v-.7h2.2v11.4l1.27.1v.69H23.19v-.69l1.27-.1V32.87Z"/><path class="cls-5" d="M28,39.91a4.54,4.54,0,0,1,1-3.06,3.68,3.68,0,0,1,5.43,0,4.54,4.54,0,0,1,1,3.06v.26a4.55,4.55,0,0,1-1,3.07,3.69,3.69,0,0,1-5.43,0,4.54,4.54,0,0,1-1-3.07Zm.94.26a4,4,0,0,0,.74,2.47,2.62,2.62,0,0,0,4.12,0,4,4,0,0,0,.74-2.47v-.26a4,4,0,0,0-.75-2.45,2.6,2.6,0,0,0-4.11,0,4,4,0,0,0-.74,2.45Z"/><path class="cls-5" d="M40.59,43.64a2.66,2.66,0,0,0,1.64-.53,1.74,1.74,0,0,0,.71-1.48h.83l0,0a2.32,2.32,0,0,1-.93,2,3.48,3.48,0,0,1-2.26.79,3.21,3.21,0,0,1-2.66-1.18,4.73,4.73,0,0,1-.95-3v-.33a4.72,4.72,0,0,1,.95-3,3.2,3.2,0,0,1,2.66-1.19,4.29,4.29,0,0,1,1.79.37,3.52,3.52,0,0,1,1.32,1l0,1.84h-.8l-.15-1.5a2.67,2.67,0,0,0-.93-.67,3.12,3.12,0,0,0-1.27-.25,2.25,2.25,0,0,0-2,1,4.31,4.31,0,0,0-.65,2.45v.33a4.35,4.35,0,0,0,.65,2.47A2.26,2.26,0,0,0,40.59,43.64Z"/><path class="cls-5" d="M45.26,32.77v-.7h2.2v7.27h1L51,36.6l0,0-.77-.05v-.7h3v.7l-1,.09-2.89,3.07,3.29,3.82.94.09v.69h-3v-.69l.89-.05-2.94-3.37H47.46v3.33l1.27.1v.69H45.26v-.69l1.27-.1V32.87Z"/><path class="cls-11" d="M1,109.59l1-.16V102.1l-1-.16v-.74H3.12v3.64a2.32,2.32,0,0,1,.8-.71A2.21,2.21,0,0,1,5,103.87a2,2,0,0,1,1.58.61,2.69,2.69,0,0,1,.56,1.88v3.07l1,.16v.74H5v-.74l1-.16v-3.08a1.7,1.7,0,0,0-.34-1.16,1.28,1.28,0,0,0-1-.37,1.69,1.69,0,0,0-.86.23,1.88,1.88,0,0,0-.64.61v3.78l1,.16v.74H1Z"/><path class="cls-11" d="M13.05,110.33q-.05-.26-.08-.46t0-.41a2.79,2.79,0,0,1-.83.71,2.13,2.13,0,0,1-1.07.28A2.12,2.12,0,0,1,9.52,110,1.78,1.78,0,0,1,9,108.61a1.58,1.58,0,0,1,.73-1.39,3.55,3.55,0,0,1,2-.49h1.19V106a1.14,1.14,0,0,0-.35-.88,1.39,1.39,0,0,0-1-.33,2.4,2.4,0,0,0-.76.11,1.44,1.44,0,0,0-.54.3l-.12.67H9.28v-1.23a3.43,3.43,0,0,1,1-.55,4.15,4.15,0,0,1,1.34-.21,2.66,2.66,0,0,1,1.75.55,1.93,1.93,0,0,1,.67,1.58v3.05q0,.12,0,.24t0,.23l.47.06v.74Zm-1.86-.84a2.05,2.05,0,0,0,1-.28,1.71,1.71,0,0,0,.68-.66v-1H11.7a1.76,1.76,0,0,0-1.12.33,1,1,0,0,0-.41.8.79.79,0,0,0,.26.64A1.18,1.18,0,0,0,11.2,109.49Z"/><path class="cls-11" d="M20.38,106h-.87l-.19-.76a1.56,1.56,0,0,0-.53-.32,2,2,0,0,0-.72-.12,1.33,1.33,0,0,0-.91.27.85.85,0,0,0-.3.65.73.73,0,0,0,.26.59,2.73,2.73,0,0,0,1.07.39,4.62,4.62,0,0,1,1.79.7,1.41,1.41,0,0,1,.59,1.19,1.64,1.64,0,0,1-.68,1.37,2.86,2.86,0,0,1-1.78.52,4.64,4.64,0,0,1-1.29-.17,3.45,3.45,0,0,1-1-.48v-1.45h.87l.22.85a1.21,1.21,0,0,0,.54.26,3,3,0,0,0,.7.08,1.63,1.63,0,0,0,1-.25.77.77,0,0,0,.35-.65.79.79,0,0,0-.29-.63,2.73,2.73,0,0,0-1.1-.43,4.61,4.61,0,0,1-1.74-.69,1.38,1.38,0,0,1-.59-1.17,1.66,1.66,0,0,1,.66-1.32,2.6,2.6,0,0,1,1.71-.54,4.16,4.16,0,0,1,1.29.19,2.7,2.7,0,0,1,1,.52Z"/><path class="cls-11" d="M21.49,109.59l1-.16V102.1l-1-.16v-.74H23.6v3.64a2.32,2.32,0,0,1,.8-.71,2.21,2.21,0,0,1,1.05-.25,2,2,0,0,1,1.58.61,2.69,2.69,0,0,1,.56,1.88v3.07l1,.16v.74H25.49v-.74l1-.16v-3.08a1.7,1.7,0,0,0-.34-1.16,1.28,1.28,0,0,0-1-.37,1.69,1.69,0,0,0-.86.23,1.88,1.88,0,0,0-.64.61v3.78l1,.16v.74H21.49Z"/><path class="cls-11" d="M37.6,105.51H32.71v-1H37.6Zm0,2.44H32.71v-1H37.6Z"/><path class="cls-11" d="M47.58,107.08a3.81,3.81,0,0,1-.73,2.5,2.7,2.7,0,0,1-4,0,3.79,3.79,0,0,1-.73-2.5v-2a3.83,3.83,0,0,1,.73-2.5,2.69,2.69,0,0,1,4,0,3.8,3.8,0,0,1,.73,2.5Zm-1.15-2.27a2.86,2.86,0,0,0-.4-1.67,1.35,1.35,0,0,0-1.17-.56,1.33,1.33,0,0,0-1.15.56,2.87,2.87,0,0,0-.4,1.67v2.5a2.87,2.87,0,0,0,.4,1.67A1.48,1.48,0,0,0,46,109a2.92,2.92,0,0,0,.4-1.68Z"/><path class="cls-11" d="M48.64,109.59l.68-.13,1.87-2.33-1.81-2.26-.68-.13V104h2.48v.74l-.57.07,1.18,1.52L53,104.8l-.57-.06V104h2.5v.74l-.68.13-1.81,2.26,1.86,2.33.69.13v.74H52.49v-.74l.56-.06-1.24-1.59-1.24,1.59.57.06v.74h-2.5Z"/><path class="cls-11" d="M57.27,110.33H56.12v-1.18h1.15Z"/><path class="cls-11" d="M60.16,110.33H59v-1.18h1.15Z"/><path class="cls-11" d="M63,110.33H61.89v-1.18H63Z"/><path class="cls-5" d="M178.21,16.07a3.26,3.26,0,0,1,2.11.6A2.1,2.1,0,0,1,181,18.4a2,2,0,0,1-.39,1.2,2.2,2.2,0,0,1-1.11.77,1.86,1.86,0,0,1,1.14.71,2.25,2.25,0,0,1,.35,1.29v.78a1.25,1.25,0,0,0,.14.67.52.52,0,0,0,.43.23l.29,0v.52h-.45a.92.92,0,0,1-.87-.42,2,2,0,0,1-.25-1v-.76a1.58,1.58,0,0,0-.5-1.23,2,2,0,0,0-1.38-.47h-2.14V24l1,.08v.51h-2.61v-.51l1-.08V16.67l-1-.08v-.52Zm-1.89,4h1.81a2.54,2.54,0,0,0,1.69-.46,1.56,1.56,0,0,0,.53-1.24,1.57,1.57,0,0,0-.53-1.27,2.44,2.44,0,0,0-1.61-.45h-1.89Z"/><path class="cls-5" d="M187.24,24.6q-.07-.32-.1-.56a3.82,3.82,0,0,1,0-.47,2.8,2.8,0,0,1-.94.83,2.65,2.65,0,0,1-1.32.33,2,2,0,0,1-1.44-.48,1.7,1.7,0,0,1-.51-1.3,1.61,1.61,0,0,1,.76-1.39,3.59,3.59,0,0,1,2.05-.52h1.4v-.84a1.35,1.35,0,0,0-.44-1.07,1.78,1.78,0,0,0-1.22-.39,3.07,3.07,0,0,0-1,.14,2.18,2.18,0,0,0-.73.39l-.06.85h-.58V18.9a3.64,3.64,0,0,1,1.05-.55,4,4,0,0,1,1.3-.21,2.55,2.55,0,0,1,1.69.53,1.88,1.88,0,0,1,.64,1.53v3.12q0,.19,0,.37a2.88,2.88,0,0,0,0,.35l.63,0v.52Zm-2.31-.5a2.54,2.54,0,0,0,1.34-.35,2.08,2.08,0,0,0,.84-.91V21.57H185.7a2.64,2.64,0,0,0-1.53.4,1.18,1.18,0,0,0-.57,1,1,1,0,0,0,.35.82A1.42,1.42,0,0,0,184.93,24.1Z"/><path class="cls-5" d="M189.36,24.08l1-.08V18.86l-1-.08v-.52h1.58l.06,1.11a2.26,2.26,0,0,1,.82-.91,2.29,2.29,0,0,1,1.23-.32,2,2,0,0,1,1.57.63,3,3,0,0,1,.54,2V24l1,.08v.52H193.5v-.52l1-.08V20.74A2.3,2.3,0,0,0,194,19.2a1.48,1.48,0,0,0-1.16-.45,1.81,1.81,0,0,0-1.2.39,2.17,2.17,0,0,0-.67,1V24l1,.08v.52h-2.61Z"/><path class="cls-5" d="M201.56,23.69a2.19,2.19,0,0,1-.81.77,2.43,2.43,0,0,1-1.17.27,2.1,2.1,0,0,1-1.78-.85,3.67,3.67,0,0,1-.64-2.27v-.12a4.14,4.14,0,0,1,.64-2.43,2.07,2.07,0,0,1,1.79-.91,2.18,2.18,0,0,1,2,1.07V16.06l-1-.08v-.52h1.66V24l1,.08v.52h-1.58Zm-3.7-2.08a3.22,3.22,0,0,0,.46,1.83,1.56,1.56,0,0,0,1.39.68,2,2,0,0,0,1.13-.3,2,2,0,0,0,.71-.84V20a2.18,2.18,0,0,0-.68-.88,1.83,1.83,0,0,0-1.15-.34,1.53,1.53,0,0,0-1.39.76,3.73,3.73,0,0,0-.47,2Z"/><path class="cls-5" d="M204.28,21.34A3.41,3.41,0,0,1,205,19a2.76,2.76,0,0,1,4.07,0,3.41,3.41,0,0,1,.77,2.3v.19a3.41,3.41,0,0,1-.76,2.3,2.77,2.77,0,0,1-4.08,0,3.4,3.4,0,0,1-.77-2.3Zm.7.19a3,3,0,0,0,.56,1.85,2,2,0,0,0,3.09,0,3,3,0,0,0,.56-1.85v-.19a3,3,0,0,0-.56-1.84,2,2,0,0,0-3.08,0,3,3,0,0,0-.56,1.84Z"/><path class="cls-5" d="M210.88,18.78v-.52h1.58l.06,1a2.22,2.22,0,0,1,.81-.86,2.32,2.32,0,0,1,1.21-.3,2,2,0,0,1,1.21.35,2,2,0,0,1,.7,1.08,2.47,2.47,0,0,1,.82-1.05,2.14,2.14,0,0,1,1.29-.38,1.91,1.91,0,0,1,1.57.67,3.25,3.25,0,0,1,.55,2.09V24l1,.08v.52H219v-.52l1-.08V20.89a2.57,2.57,0,0,0-.41-1.66,1.43,1.43,0,0,0-1.15-.48,1.56,1.56,0,0,0-1.26.52,2.51,2.51,0,0,0-.55,1.33s0,.06,0,.09,0,.06,0,.11V24l1,.08v.52H215v-.52l1-.08V20.89a2.55,2.55,0,0,0-.42-1.64,1.43,1.43,0,0,0-1.15-.5,1.75,1.75,0,0,0-1.19.38,2,2,0,0,0-.61,1V24l1,.08v.52h-2.61v-.52l1-.08V18.86Z"/><path class="cls-5" d="M183.89,27.07v.52l-1,.08V35.6h-.7l-4.85-7.34h0V35l1,.08v.52H175.7v-.52l1-.08V27.67l-1-.08v-.52h1.66l4.85,7.32h0V27.67l-1-.08v-.52h2.61Z"/><path class="cls-5" d="M189.51,34.56a2.16,2.16,0,0,1-.82.86,2.37,2.37,0,0,1-1.22.3,1.93,1.93,0,0,1-1.57-.68,3.26,3.26,0,0,1-.57-2.11V29.86l-.79-.08v-.52H186v3.69a2.73,2.73,0,0,0,.4,1.66,1.34,1.34,0,0,0,1.12.5,2.08,2.08,0,0,0,1.27-.35,1.86,1.86,0,0,0,.67-1V29.86l-.9-.08v-.52h1.61V35l.85.08v.52h-1.46Z"/><path class="cls-5" d="M191.92,29.78v-.52h1.58l.06,1a2.22,2.22,0,0,1,.81-.86,2.32,2.32,0,0,1,1.21-.3,2,2,0,0,1,1.21.35,2,2,0,0,1,.7,1.08,2.47,2.47,0,0,1,.82-1.05,2.14,2.14,0,0,1,1.29-.38,1.91,1.91,0,0,1,1.57.67,3.25,3.25,0,0,1,.55,2.09V35l1,.08v.52h-2.62v-.52l1-.08V31.89a2.57,2.57,0,0,0-.41-1.66,1.43,1.43,0,0,0-1.15-.48,1.56,1.56,0,0,0-1.26.52,2.51,2.51,0,0,0-.55,1.33s0,.06,0,.09,0,.06,0,.11V35l1,.08v.52H196v-.52l1-.08V31.89a2.55,2.55,0,0,0-.42-1.64,1.43,1.43,0,0,0-1.15-.5,1.75,1.75,0,0,0-1.19.38,2,2,0,0,0-.61,1V35l1,.08v.52h-2.61v-.52l1-.08V29.86Z"/><path class="cls-5" d="M209,32.61a3.66,3.66,0,0,1-.64,2.27,2.11,2.11,0,0,1-1.78.85,2.45,2.45,0,0,1-1.2-.28,2.15,2.15,0,0,1-.81-.8l-.08,1h-.6V27.06l-1-.08v-.52h1.65v3.8a2.17,2.17,0,0,1,2-1.11,2.07,2.07,0,0,1,1.79.91,4.13,4.13,0,0,1,.64,2.43Zm-.71-.12a3.71,3.71,0,0,0-.47-2,1.52,1.52,0,0,0-1.38-.76,1.83,1.83,0,0,0-1.19.36,2.17,2.17,0,0,0-.67.93v2.87a1.9,1.9,0,0,0,1.86,1.2,1.56,1.56,0,0,0,1.38-.68,3.2,3.2,0,0,0,.46-1.83Z"/><path class="cls-5" d="M213,35.72a2.55,2.55,0,0,1-2-.88,3.21,3.21,0,0,1-.79-2.23v-.32A3.31,3.31,0,0,1,211,30a2.42,2.42,0,0,1,1.89-.9,2.35,2.35,0,0,1,1.83.74,2.82,2.82,0,0,1,.67,2v.6h-4.48v.17a2.8,2.8,0,0,0,.57,1.79,1.82,1.82,0,0,0,1.5.72,3,3,0,0,0,1.11-.18,2.2,2.2,0,0,0,.79-.52l.3.48a2.53,2.53,0,0,1-.9.59A3.47,3.47,0,0,1,213,35.72Zm-.09-6a1.68,1.68,0,0,0-1.3.59,2.55,2.55,0,0,0-.62,1.49v0h3.71v-.18a2,2,0,0,0-.49-1.38A1.66,1.66,0,0,0,212.89,29.74Z"/><path class="cls-5" d="M218.17,29.26l.09,1.05v.08a2.25,2.25,0,0,1,.74-.92,1.86,1.86,0,0,1,1.1-.33l.26,0,.21,0-.09.66-.52,0a1.59,1.59,0,0,0-1.09.37,2.05,2.05,0,0,0-.61,1V35l1,.08v.52H216.6v-.52l1-.08V29.86l-1-.08v-.52h1.56Z"/><path class="cls-5" d="M192.74,45.66a2.91,2.91,0,0,1-1.06.72,4.59,4.59,0,0,1-1.89.34,3.42,3.42,0,0,1-2.71-1.2,4.6,4.6,0,0,1-1-3.13v-.18a4.49,4.49,0,0,1,1-3.08,3.47,3.47,0,0,1,2.74-1.18,4.25,4.25,0,0,1,1.7.32,3.16,3.16,0,0,1,1.2.88v1.48h-.54L192,39.37a2.43,2.43,0,0,0-.9-.61,3.37,3.37,0,0,0-1.28-.23,2.81,2.81,0,0,0-2.29,1,4,4,0,0,0-.84,2.64v.19a4.21,4.21,0,0,0,.82,2.7,2.69,2.69,0,0,0,2.22,1,4.15,4.15,0,0,0,1.42-.22,2.28,2.28,0,0,0,.83-.46V43.38l-1.64,0v-.57h2.34Z"/><path class="cls-5" d="M197.16,46.72a2.55,2.55,0,0,1-2-.88,3.21,3.21,0,0,1-.79-2.23v-.32a3.31,3.31,0,0,1,.78-2.26,2.42,2.42,0,0,1,1.89-.9,2.35,2.35,0,0,1,1.83.74,2.82,2.82,0,0,1,.67,2v.6h-4.48v.17a2.8,2.8,0,0,0,.57,1.79,1.82,1.82,0,0,0,1.5.72,3,3,0,0,0,1.11-.18,2.2,2.2,0,0,0,.79-.52l.3.48a2.53,2.53,0,0,1-.9.59A3.47,3.47,0,0,1,197.16,46.72Zm-.09-6a1.68,1.68,0,0,0-1.3.59,2.55,2.55,0,0,0-.62,1.49v0h3.71v-.18a2,2,0,0,0-.49-1.38A1.66,1.66,0,0,0,197.07,40.74Z"/><path class="cls-5" d="M200.69,46.08l1-.08V40.86l-1-.08v-.52h1.58l.06,1.11a2.26,2.26,0,0,1,.82-.91,2.29,2.29,0,0,1,1.23-.32,2,2,0,0,1,1.57.63,3,3,0,0,1,.54,2V46l1,.08v.52h-2.61v-.52l1-.08V42.74a2.3,2.3,0,0,0-.41-1.54,1.48,1.48,0,0,0-1.16-.45,1.81,1.81,0,0,0-1.2.39,2.17,2.17,0,0,0-.67,1V46l1,.08v.52h-2.61Z"/><path class="cls-5" d="M209.63,46.6h-.8v-1h.8Z"/><path class="cls-11" d="M156.6,109.59l1-.16V104.9l-1-.16V104h2l.08.94a2.3,2.3,0,0,1,.79-.78,2.12,2.12,0,0,1,1.09-.28,2.07,2.07,0,0,1,1.59.6,2.64,2.64,0,0,1,.56,1.85v3.1l1,.16v.74h-3.06v-.74l1-.16v-3.08a1.71,1.71,0,0,0-.33-1.19,1.33,1.33,0,0,0-1-.35,1.63,1.63,0,0,0-.88.24,1.75,1.75,0,0,0-.61.66v3.72l1,.16v.74H156.6Z"/><path class="cls-11" d="M169,109.39a2.14,2.14,0,0,1-.77.79,2.12,2.12,0,0,1-1.09.28,2,2,0,0,1-1.61-.66,3.07,3.07,0,0,1-.58-2.06V104.9l-.73-.16V104h1.88v3.75a2.36,2.36,0,0,0,.3,1.39,1.11,1.11,0,0,0,.93.38,1.9,1.9,0,0,0,1-.25,1.56,1.56,0,0,0,.61-.71V104.9l-.85-.16V104h2v5.44l.73.16v.74H169.1Z"/><path class="cls-11" d="M171.55,109.59l1-.16V104.9l-1-.16V104h2l.08.83a2.08,2.08,0,0,1,.79-.7,2.41,2.41,0,0,1,1.11-.25,2,2,0,0,1,1.09.29,1.77,1.77,0,0,1,.68.88,2.35,2.35,0,0,1,.79-.86,2.08,2.08,0,0,1,1.15-.32,1.9,1.9,0,0,1,1.54.67,3,3,0,0,1,.56,2v2.89l1,.16v.74h-3.07v-.74l1-.16v-2.9a2.11,2.11,0,0,0-.32-1.33,1.17,1.17,0,0,0-1-.39,1.22,1.22,0,0,0-1,.42,1.85,1.85,0,0,0-.42,1.07v3.12l1,.16v.74h-3.06v-.74l1-.16v-2.9a2.08,2.08,0,0,0-.33-1.3,1.16,1.16,0,0,0-1-.41,1.59,1.59,0,0,0-.87.22,1.4,1.4,0,0,0-.52.61v3.79l1,.16v.74h-3.06Z"/><path class="cls-11" d="M191.33,105.51h-4.89v-1h4.89Zm0,2.44h-4.89v-1h4.89Z"/><path class="cls-11" d="M198.16,109.55a1.56,1.56,0,0,0,1.32-.64,3.49,3.49,0,0,0,.5-2l0,0a1.56,1.56,0,0,1-.66.6,2.09,2.09,0,0,1-.95.21,2.56,2.56,0,0,1-2-.77,3,3,0,0,1-.72-2.17,3.14,3.14,0,0,1,.77-2.19,2.43,2.43,0,0,1,1.87-.85,2.72,2.72,0,0,1,2.11.83,3.52,3.52,0,0,1,.77,2.47v1.54a4.5,4.5,0,0,1-.82,3,2.74,2.74,0,0,1-2.19,1,5.07,5.07,0,0,1-.91-.08,3.32,3.32,0,0,1-.83-.26l.18-.87a3.08,3.08,0,0,0,.73.24A4.38,4.38,0,0,0,198.16,109.55Zm.19-2.81a1.92,1.92,0,0,0,1.06-.28,1.59,1.59,0,0,0,.61-.7v-.9a2.82,2.82,0,0,0-.43-1.71,1.47,1.47,0,0,0-1.26-.57,1.31,1.31,0,0,0-1.08.6,2.51,2.51,0,0,0-.44,1.54,2.42,2.42,0,0,0,.41,1.47A1.32,1.32,0,0,0,198.35,106.74Z"/><path class="cls-11" d="M207.78,104a1.9,1.9,0,0,1-.37,1.17,2.24,2.24,0,0,1-1,.75,2.55,2.55,0,0,1,1.18.81A2,2,0,0,1,208,108a2.19,2.19,0,0,1-.77,1.81,3.54,3.54,0,0,1-4,0,2.2,2.2,0,0,1-.76-1.81,2,2,0,0,1,.43-1.27,2.5,2.5,0,0,1,1.17-.81,2.16,2.16,0,0,1-1-.75,1.94,1.94,0,0,1-.36-1.17,2.19,2.19,0,0,1,.69-1.74,2.67,2.67,0,0,1,1.83-.61,2.72,2.72,0,0,1,1.84.61A2.17,2.17,0,0,1,207.78,104Zm-.91,4a1.54,1.54,0,0,0-.46-1.15,1.61,1.61,0,0,0-1.17-.45,1.54,1.54,0,0,0-1.61,1.61,1.48,1.48,0,0,0,.44,1.14,1.88,1.88,0,0,0,2.35,0A1.47,1.47,0,0,0,206.87,108Zm-.24-3.95a1.46,1.46,0,0,0-.4-1,1.32,1.32,0,0,0-1-.42,1.3,1.3,0,0,0-1,.4,1.49,1.49,0,0,0-.38,1.06,1.43,1.43,0,0,0,.38,1,1.47,1.47,0,0,0,2,0A1.42,1.42,0,0,0,206.63,104Z"/><path class="cls-11" d="M214.69,107.08a3.81,3.81,0,0,1-.73,2.5,2.7,2.7,0,0,1-4,0,3.79,3.79,0,0,1-.73-2.5v-2a3.83,3.83,0,0,1,.73-2.5,2.69,2.69,0,0,1,4,0,3.8,3.8,0,0,1,.73,2.5Zm-1.15-2.27a2.86,2.86,0,0,0-.4-1.67,1.35,1.35,0,0,0-1.17-.56,1.33,1.33,0,0,0-1.15.56,2.87,2.87,0,0,0-.4,1.67v2.5a2.87,2.87,0,0,0,.4,1.67,1.48,1.48,0,0,0,2.32,0,2.92,2.92,0,0,0,.4-1.68Z"/><path class="cls-11" d="M221.61,102.71a12,12,0,0,0-2.09,3.26,14.56,14.56,0,0,0-.78,3.44l-.09.92h-1.15l.09-.92a12.53,12.53,0,0,1,1-3.6,13.9,13.9,0,0,1,1.94-3.1h-3.56l-.09,1h-1V101.8h5.77Z"/><path class="cls-11" d="M222.57,110.33v-.79l2.79-3.11a7.84,7.84,0,0,0,1-1.33,2.09,2.09,0,0,0,.27-1,1.59,1.59,0,0,0-.37-1.08,1.24,1.24,0,0,0-1-.44,1.69,1.69,0,0,0-1.3.45,1.82,1.82,0,0,0-.42,1.28h-1.11v0a2.4,2.4,0,0,1,.73-1.85,2.87,2.87,0,0,1,2.11-.75,2.51,2.51,0,0,1,1.84.67,2.29,2.29,0,0,1,.68,1.71,2.72,2.72,0,0,1-.41,1.39,9.09,9.09,0,0,1-1.16,1.51L224,109.4v0h3l.09-1h1v1.88Z"/><path class="cls-11" d="M230.76,105.53h1a1.34,1.34,0,0,0,1.09-.38,1.62,1.62,0,0,0,.32-1.07,1.55,1.55,0,0,0-.36-1.11,1.41,1.41,0,0,0-1.07-.38,1.49,1.49,0,0,0-1.08.4,1.4,1.4,0,0,0-.41,1.05h-1.11v0a2.07,2.07,0,0,1,.7-1.64,2.69,2.69,0,0,1,1.91-.68,2.72,2.72,0,0,1,1.89.63,2.29,2.29,0,0,1,.7,1.8,2.05,2.05,0,0,1-1.28,1.85,1.88,1.88,0,0,1,1.09.79,2.53,2.53,0,0,1-.45,3,2.86,2.86,0,0,1-2,.67,2.93,2.93,0,0,1-1.93-.63,2,2,0,0,1-.73-1.71l0,0h1.1a1.42,1.42,0,0,0,.41,1.07,1.56,1.56,0,0,0,1.13.4,1.59,1.59,0,0,0,1.15-.4,1.56,1.56,0,0,0,.42-1.18,1.61,1.61,0,0,0-.37-1.17,1.58,1.58,0,0,0-1.17-.37h-1Z"/><path class="cls-11" d="M239.91,103.49l-.11-.66h-2.55l-.28,2.4a2.54,2.54,0,0,1,.59-.33,2.22,2.22,0,0,1,.76-.14,2.3,2.3,0,0,1,1.85.77,3.09,3.09,0,0,1,.68,2.1,3,3,0,0,1-.69,2.06,2.54,2.54,0,0,1-2,.78,2.74,2.74,0,0,1-1.8-.59,2.05,2.05,0,0,1-.69-1.74v0h1a1.36,1.36,0,0,0,1.44,1.46,1.36,1.36,0,0,0,1.14-.52,2.23,2.23,0,0,0,.4-1.41,2.14,2.14,0,0,0-.41-1.35,1.35,1.35,0,0,0-1.13-.52,1.83,1.83,0,0,0-1,.21,1.16,1.16,0,0,0-.45.63l-1-.1.49-4.68h4.51v1.69Z"/><path class="cls-9" d="M92.92,29.36l1-.16V24.67l-1-.16v-.74h2l.08.94a2.3,2.3,0,0,1,.79-.78,2.12,2.12,0,0,1,1.09-.28,2.07,2.07,0,0,1,1.59.6A2.64,2.64,0,0,1,99,26.1v3.1l1,.16v.74H96.91v-.74l1-.16V26.12a1.71,1.71,0,0,0-.33-1.19,1.33,1.33,0,0,0-1-.35,1.63,1.63,0,0,0-.88.24,1.75,1.75,0,0,0-.61.66V29.2l1,.16v.74H92.92Z"/><path class="cls-9" d="M105.35,29.16a2.14,2.14,0,0,1-.77.79,2.12,2.12,0,0,1-1.09.28,2,2,0,0,1-1.61-.66,3.07,3.07,0,0,1-.58-2.06V24.67l-.73-.16v-.74h1.88v3.75a2.36,2.36,0,0,0,.3,1.39,1.11,1.11,0,0,0,.93.38,1.9,1.9,0,0,0,1-.25,1.56,1.56,0,0,0,.61-.71V24.67l-.85-.16v-.74h2V29.2l.73.16v.74h-1.76Z"/><path class="cls-9" d="M107.88,29.36l1-.16V24.67l-1-.16v-.74h2l.08.83a2.08,2.08,0,0,1,.79-.7,2.41,2.41,0,0,1,1.11-.25,2,2,0,0,1,1.09.29,1.77,1.77,0,0,1,.68.88,2.35,2.35,0,0,1,.79-.86,2.08,2.08,0,0,1,1.15-.32,1.9,1.9,0,0,1,1.54.67,3,3,0,0,1,.56,2V29.2l1,.16v.74h-3.07v-.74l1-.16v-2.9a2.11,2.11,0,0,0-.32-1.33,1.17,1.17,0,0,0-1-.39,1.22,1.22,0,0,0-1,.42,1.85,1.85,0,0,0-.42,1.07V29.2l1,.16v.74h-3.06v-.74l1-.16v-2.9a2.08,2.08,0,0,0-.33-1.3,1.16,1.16,0,0,0-1-.41,1.59,1.59,0,0,0-.87.22,1.4,1.4,0,0,0-.52.61V29.2l1,.16v.74h-3.06Z"/><path class="cls-9" d="M125.24,27.17a3.48,3.48,0,0,1-.66,2.21,2.18,2.18,0,0,1-1.81.84,2.31,2.31,0,0,1-1.08-.24,2,2,0,0,1-.76-.7l-.11.81h-1V21.87l-1-.16V21H121v3.55a2,2,0,0,1,.74-.64,2.27,2.27,0,0,1,1-.22,2.11,2.11,0,0,1,1.83.94,4.22,4.22,0,0,1,.66,2.47ZM124.08,27a3.52,3.52,0,0,0-.4-1.78,1.32,1.32,0,0,0-1.22-.69,1.52,1.52,0,0,0-.9.26,1.83,1.83,0,0,0-.58.69v2.8a1.79,1.79,0,0,0,.59.7,1.55,1.55,0,0,0,.91.26,1.36,1.36,0,0,0,1.21-.58,2.68,2.68,0,0,0,.4-1.54Z"/><path class="cls-9" d="M129.29,30.22a2.67,2.67,0,0,1-2.11-.88,3.32,3.32,0,0,1-.78-2.29v-.26a3.25,3.25,0,0,1,.81-2.25,2.48,2.48,0,0,1,1.91-.9,2.4,2.4,0,0,1,1.94.77,3.07,3.07,0,0,1,.66,2.06v.72h-4.11l0,0a2.51,2.51,0,0,0,.46,1.5,1.47,1.47,0,0,0,1.25.59,2.9,2.9,0,0,0,1-.17,2.36,2.36,0,0,0,.76-.46l.45.75a2.77,2.77,0,0,1-.9.55A3.59,3.59,0,0,1,129.29,30.22Zm-.18-5.67a1.25,1.25,0,0,0-1,.49,2.32,2.32,0,0,0-.5,1.23v0h2.92v-.15a1.77,1.77,0,0,0-.36-1.14A1.29,1.29,0,0,0,129.11,24.55Z"/><path class="cls-9" d="M132.84,24.5v-.74h2l.11.92a2.21,2.21,0,0,1,.67-.76,1.55,1.55,0,0,1,.91-.28l.28,0,.22,0-.15,1.07-.66,0a1.32,1.32,0,0,0-.77.21,1.38,1.38,0,0,0-.48.6V29.2l1,.16v.74h-3.06v-.74l1-.16V24.67Z"/><path class="cls-9" d="M96.88,34.7V34H99V42.2l1,.16v.74H96.88v-.74l1-.16V34.87Z"/><path class="cls-9" d="M103.71,43.22a2.67,2.67,0,0,1-2.11-.88,3.32,3.32,0,0,1-.78-2.29v-.26a3.25,3.25,0,0,1,.81-2.25,2.48,2.48,0,0,1,1.91-.9,2.4,2.4,0,0,1,1.94.77,3.07,3.07,0,0,1,.66,2.06v.72H102l0,0a2.51,2.51,0,0,0,.46,1.5,1.47,1.47,0,0,0,1.25.59,2.9,2.9,0,0,0,1-.17,2.36,2.36,0,0,0,.76-.46l.45.75a2.77,2.77,0,0,1-.9.55A3.59,3.59,0,0,1,103.71,43.22Zm-.18-5.67a1.25,1.25,0,0,0-1,.49,2.32,2.32,0,0,0-.5,1.23v0H105v-.15a1.77,1.77,0,0,0-.36-1.14A1.29,1.29,0,0,0,103.53,37.55Z"/><path class="cls-9" d="M107.1,42.36l1-.16V37.67l-1-.16v-.74h2l.08.94a2.3,2.3,0,0,1,.79-.78,2.12,2.12,0,0,1,1.09-.28,2.07,2.07,0,0,1,1.59.6,2.64,2.64,0,0,1,.56,1.85v3.1l1,.16v.74h-3.06v-.74l1-.16V39.12a1.71,1.71,0,0,0-.33-1.19,1.33,1.33,0,0,0-1-.35,1.63,1.63,0,0,0-.88.24,1.75,1.75,0,0,0-.61.66V42.2l1,.16v.74H107.1Z"/><path class="cls-9" d="M114.94,40a4.16,4.16,0,0,1,.67-2.47,2.14,2.14,0,0,1,1.85-.94,2.24,2.24,0,0,1,1,.23,2.06,2.06,0,0,1,.76.68l.11-.8h1V43a2.66,2.66,0,0,1-.69,1.94,2.59,2.59,0,0,1-2,.71,4.32,4.32,0,0,1-1-.13,3.85,3.85,0,0,1-.94-.34l.3-.9a3.74,3.74,0,0,0,1.62.39,1.39,1.39,0,0,0,1.13-.43,1.89,1.89,0,0,0,.36-1.24v-.6a2,2,0,0,1-.74.6,2.3,2.3,0,0,1-1,.21,2.21,2.21,0,0,1-1.83-.84,3.45,3.45,0,0,1-.67-2.21Zm1.15.12a2.63,2.63,0,0,0,.4,1.54,1.4,1.4,0,0,0,1.23.58,1.53,1.53,0,0,0,.87-.24,1.8,1.8,0,0,0,.58-.67V38.46a1.79,1.79,0,0,0-.58-.64,1.52,1.52,0,0,0-.86-.24,1.34,1.34,0,0,0-1.24.69,3.44,3.44,0,0,0-.41,1.78Z"/><path class="cls-9" d="M123.74,35.23v1.53h1.2v.86h-1.2v3.85a.86.86,0,0,0,.18.63.67.67,0,0,0,.49.18l.34,0,.32-.06.16.79a1.48,1.48,0,0,1-.48.17,3,3,0,0,1-.63.07A1.49,1.49,0,0,1,123,42.8a1.84,1.84,0,0,1-.42-1.33V37.61h-1v-.86h1V35.23Z"/><path class="cls-9" d="M126,42.36l1-.16V34.87l-1-.16V34h2.11V37.6a2.32,2.32,0,0,1,.8-.71,2.21,2.21,0,0,1,1.05-.25,2,2,0,0,1,1.58.61,2.69,2.69,0,0,1,.56,1.88V42.2l1,.16v.74H130v-.74l1-.16V39.11a1.7,1.7,0,0,0-.34-1.16,1.28,1.28,0,0,0-1-.37,1.69,1.69,0,0,0-.86.23,1.88,1.88,0,0,0-.64.61V42.2l1,.16v.74H126Z"/><path class="cls-12" d="M302.81,126.76l1-.16v-4.53l-1-.16v-.74h2l.08.94a2.3,2.3,0,0,1,.79-.78,2.12,2.12,0,0,1,1.09-.28,2.07,2.07,0,0,1,1.59.6,2.64,2.64,0,0,1,.56,1.85v3.1l1,.16v.74H306.8v-.74l1-.16v-3.08a1.71,1.71,0,0,0-.33-1.19,1.33,1.33,0,0,0-1-.35,1.63,1.63,0,0,0-.88.24,1.75,1.75,0,0,0-.61.66v3.72l1,.16v.74h-3.06Z"/><path class="cls-12" d="M310.65,124.27a3.49,3.49,0,0,1,.76-2.32,2.82,2.82,0,0,1,4.15,0,3.48,3.48,0,0,1,.76,2.32v.13a3.47,3.47,0,0,1-.76,2.32,2.83,2.83,0,0,1-4.15,0,3.48,3.48,0,0,1-.76-2.32Zm1.15.13a3,3,0,0,0,.42,1.66,1.53,1.53,0,0,0,2.51,0,3,3,0,0,0,.43-1.66v-.13a3,3,0,0,0-.43-1.66,1.52,1.52,0,0,0-2.51,0,3,3,0,0,0-.42,1.66Z"/><path class="cls-12" d="M317.23,129.19l1-.16v-7l-1-.16v-.74h1.95l.11.77a2.13,2.13,0,0,1,.77-.66,2.31,2.31,0,0,1,1.05-.23,2.11,2.11,0,0,1,1.83.93,4.23,4.23,0,0,1,.65,2.47v.12a3.49,3.49,0,0,1-.66,2.21,2.17,2.17,0,0,1-1.81.84,2.52,2.52,0,0,1-1-.2,2,2,0,0,1-.75-.58V129l1,.16v.74h-3.06Zm5.2-4.75a3.37,3.37,0,0,0-.42-1.78,1.38,1.38,0,0,0-1.25-.69,1.54,1.54,0,0,0-.84.22,1.68,1.68,0,0,0-.57.61v3.09a1.51,1.51,0,0,0,1.42.82,1.42,1.42,0,0,0,1.24-.6,2.63,2.63,0,0,0,.42-1.55Z"/><path class="cls-12" d="M327.54,127.62a2.67,2.67,0,0,1-2.11-.88,3.32,3.32,0,0,1-.78-2.29v-.26a3.25,3.25,0,0,1,.81-2.25,2.48,2.48,0,0,1,1.91-.9,2.4,2.4,0,0,1,1.94.77,3.07,3.07,0,0,1,.66,2.06v.72h-4.11l0,0a2.51,2.51,0,0,0,.46,1.5,1.47,1.47,0,0,0,1.25.59,2.9,2.9,0,0,0,1-.17,2.36,2.36,0,0,0,.76-.46l.45.75a2.77,2.77,0,0,1-.9.55A3.59,3.59,0,0,1,327.54,127.62Zm-.18-5.67a1.25,1.25,0,0,0-1,.49,2.32,2.32,0,0,0-.5,1.23v0h2.92v-.15a1.77,1.77,0,0,0-.36-1.14A1.29,1.29,0,0,0,327.36,122Z"/><path class="cls-12" d="M332.57,127.5h-1.15v-1.18h1.15Z"/><path class="cls-12" d="M335.46,127.5h-1.15v-1.18h1.15Z"/><path class="cls-12" d="M338.35,127.5H337.2v-1.18h1.15Z"/><path class="cls-11" d="M241.92,273.87,241,274l1.79,3.48,1.79-3.48-.91-.11v-.74h2.93v.74l-.72.11-2.53,4.68v2.1l1,.16v.74h-3.06v-.74l1-.16v-2.19L239.7,274l-.71-.11v-.74h2.93Z"/><path class="cls-11" d="M247.38,281.65v-.74l1-.16V274l-1-.16v-.74h6.55v2.05h-1l-.09-1.14h-3.36v2.76h3.26v.91h-3.26v3.05h3.43l.09-1.14h1v2Z"/><path class="cls-11" d="M261.21,275.64h-.87l-.22-1.22a2.12,2.12,0,0,0-.7-.37,3.23,3.23,0,0,0-1-.15,2.23,2.23,0,0,0-1.41.39,1.24,1.24,0,0,0-.49,1,1.12,1.12,0,0,0,.5.93,4.76,4.76,0,0,0,1.62.65,4.59,4.59,0,0,1,2,1,2.11,2.11,0,0,1,.7,1.61,2,2,0,0,1-.84,1.66,3.59,3.59,0,0,1-2.2.63,4.47,4.47,0,0,1-1.75-.32,3.52,3.52,0,0,1-1.25-.84V279h.87l.22,1.22a2.81,2.81,0,0,0,.8.45,3.12,3.12,0,0,0,1.11.18,2.3,2.3,0,0,0,1.38-.37,1.17,1.17,0,0,0,.51-1,1.27,1.27,0,0,0-.44-1,3.69,3.69,0,0,0-1.55-.67,5.19,5.19,0,0,1-2.12-.95,2,2,0,0,1-.76-1.58,2,2,0,0,1,.85-1.67,3.48,3.48,0,0,1,2.21-.67,4.19,4.19,0,0,1,1.63.31,3.68,3.68,0,0,1,1.18.75Z"/><path class="cls-11" d="M263.91,278.85h-1.15v-5.73h1.15Zm0,2.8h-1.15v-1.2h1.15Z"/><path class="cls-12" d="M217.14,290.63v-.74h3.06v.74l-1,.16v2.95h4.14v-2.95l-1-.16v-.74h3.06v.74l-1,.16v6.72l1,.16v.74h-3.06v-.74l1-.16v-2.87h-4.14v2.87l1,.16v.74h-3.06v-.74l1-.16v-6.72Z"/><path class="cls-12" d="M229.36,298.54a2.67,2.67,0,0,1-2.11-.88,3.32,3.32,0,0,1-.78-2.29v-.26a3.25,3.25,0,0,1,.81-2.25,2.48,2.48,0,0,1,1.91-.9,2.4,2.4,0,0,1,1.94.77,3.07,3.07,0,0,1,.66,2.06v.72h-4.11l0,0a2.51,2.51,0,0,0,.46,1.5,1.47,1.47,0,0,0,1.25.59,2.9,2.9,0,0,0,1-.17,2.36,2.36,0,0,0,.76-.46l.45.75a2.77,2.77,0,0,1-.9.55A3.59,3.59,0,0,1,229.36,298.54Zm-.18-5.67a1.25,1.25,0,0,0-1,.49,2.32,2.32,0,0,0-.5,1.23v0h2.92v-.15a1.77,1.77,0,0,0-.36-1.14A1.29,1.29,0,0,0,229.18,292.87Z"/><path class="cls-12" d="M232.91,292.82v-.74h2l.11.92a2.21,2.21,0,0,1,.67-.76,1.55,1.55,0,0,1,.91-.28l.28,0,.22,0-.15,1.07-.66,0a1.32,1.32,0,0,0-.77.21,1.38,1.38,0,0,0-.48.6v3.64l1,.16v.74h-3.06v-.74l1-.16V293Z"/><path class="cls-12" d="M240.66,298.54a2.67,2.67,0,0,1-2.11-.88,3.32,3.32,0,0,1-.78-2.29v-.26a3.25,3.25,0,0,1,.81-2.25,2.48,2.48,0,0,1,1.91-.9,2.4,2.4,0,0,1,1.94.77,3.07,3.07,0,0,1,.66,2.06v.72H239l0,0a2.51,2.51,0,0,0,.46,1.5,1.47,1.47,0,0,0,1.25.59,2.9,2.9,0,0,0,1-.17,2.36,2.36,0,0,0,.76-.46l.45.75a2.77,2.77,0,0,1-.9.55A3.59,3.59,0,0,1,240.66,298.54Zm-.18-5.67a1.25,1.25,0,0,0-1,.49,2.32,2.32,0,0,0-.5,1.23v0h2.92v-.15a1.77,1.77,0,0,0-.36-1.14A1.29,1.29,0,0,0,240.48,292.87Z"/><path class="cls-12" d="M245.59,290.35a2.93,2.93,0,0,1-.28,1.21,2.84,2.84,0,0,1-.77,1l-.66-.43a3.47,3.47,0,0,0,.42-.85,3.05,3.05,0,0,0,.14-.94v-1.1h1.15Z"/><path class="cls-12" d="M251,294.07h-.87l-.19-.76a1.56,1.56,0,0,0-.53-.32,2,2,0,0,0-.72-.12,1.33,1.33,0,0,0-.91.27.85.85,0,0,0-.3.65.73.73,0,0,0,.26.59,2.73,2.73,0,0,0,1.07.39,4.62,4.62,0,0,1,1.79.7,1.41,1.41,0,0,1,.59,1.19,1.64,1.64,0,0,1-.68,1.37,2.86,2.86,0,0,1-1.78.52,4.64,4.64,0,0,1-1.29-.17,3.45,3.45,0,0,1-1-.48v-1.45h.87l.22.85a1.21,1.21,0,0,0,.54.26,3,3,0,0,0,.7.08,1.63,1.63,0,0,0,1-.25.77.77,0,0,0,.35-.65.79.79,0,0,0-.29-.63,2.73,2.73,0,0,0-1.1-.43,4.61,4.61,0,0,1-1.74-.69,1.38,1.38,0,0,1-.59-1.17,1.66,1.66,0,0,1,.66-1.32,2.6,2.6,0,0,1,1.71-.54,4.16,4.16,0,0,1,1.29.19,2.7,2.7,0,0,1,1,.52Z"/><path class="cls-12" d="M259.49,291.57l-.11-.66h-2.55l-.28,2.4a2.54,2.54,0,0,1,.59-.33,2.22,2.22,0,0,1,.76-.14,2.3,2.3,0,0,1,1.85.77,3.09,3.09,0,0,1,.68,2.1,3,3,0,0,1-.69,2.06,2.54,2.54,0,0,1-2,.78,2.74,2.74,0,0,1-1.8-.59,2.05,2.05,0,0,1-.69-1.74v0h1a1.36,1.36,0,0,0,1.44,1.46,1.36,1.36,0,0,0,1.14-.52,2.23,2.23,0,0,0,.4-1.41,2.14,2.14,0,0,0-.41-1.35,1.35,1.35,0,0,0-1.13-.52,1.83,1.83,0,0,0-1,.21,1.16,1.16,0,0,0-.45.63l-1-.1.49-4.68h4.51v1.69Z"/><path class="cls-12" d="M264.42,298.42v-.74l1-.16v-6.72l-1-.16v-.74H271v2.05h-1l-.09-1.14h-3.36v2.76h3.26v.91h-3.26v3.05H270l.09-1.14h1v2Z"/><path class="cls-12" d="M279.08,289.88v1.89h-1l-.09-1h-1.89v6.72l1,.16v.74H274v-.74l1-.16v-6.72h-1.9l-.08,1h-1v-1.89Z"/><path class="cls-12" d="M279.72,290.63v-.74h3.06v.74l-1,.16v2.95H286v-2.95l-1-.16v-.74h3.06v.74l-1,.16v6.72l1,.16v.74H285v-.74l1-.16v-2.87h-4.14v2.87l1,.16v.74h-3.06v-.74l1-.16v-6.72Z"/><path class="cls-12" d="M235.77,210.64H235l-.22-1.21A2.23,2.23,0,0,0,234,209a2.47,2.47,0,0,0-1-.18,2.39,2.39,0,0,0-2,1,4,4,0,0,0-.71,2.45v.13a4.08,4.08,0,0,0,.7,2.45,2.26,2.26,0,0,0,1.94,1,2.93,2.93,0,0,0,1.05-.18,2,2,0,0,0,.73-.45l.22-1.21h.81v1.52a3.2,3.2,0,0,1-1.11.85,3.75,3.75,0,0,1-1.71.37,3.45,3.45,0,0,1-2.73-1.23,4.55,4.55,0,0,1-1.07-3.09v-.12a4.61,4.61,0,0,1,1-3.1A3.44,3.44,0,0,1,233,207.9a3.7,3.7,0,0,1,1.71.38,3.29,3.29,0,0,1,1.11.85Z"/><path class="cls-12" d="M237,213.32a3.49,3.49,0,0,1,.76-2.32,2.82,2.82,0,0,1,4.15,0,3.48,3.48,0,0,1,.76,2.32v.13a3.47,3.47,0,0,1-.76,2.32,2.83,2.83,0,0,1-4.15,0,3.48,3.48,0,0,1-.76-2.32Zm1.15.13a3,3,0,0,0,.42,1.66,1.53,1.53,0,0,0,2.51,0,3,3,0,0,0,.43-1.66v-.13a3,3,0,0,0-.43-1.66,1.52,1.52,0,0,0-2.51,0,3,3,0,0,0-.42,1.66Z"/><path class="cls-12" d="M243.74,211v-.74h2l.11.92a2.21,2.21,0,0,1,.67-.76,1.55,1.55,0,0,1,.91-.28l.28,0,.22,0-.15,1.07-.66,0a1.32,1.32,0,0,0-.77.21,1.38,1.38,0,0,0-.48.6v3.64l1,.16v.74h-3.06v-.74l1-.16v-4.53Z"/><path class="cls-12" d="M248.7,211v-.74h2l.11.92a2.21,2.21,0,0,1,.67-.76,1.55,1.55,0,0,1,.91-.28l.28,0,.22,0-.15,1.07-.66,0a1.32,1.32,0,0,0-.77.21,1.38,1.38,0,0,0-.48.6v3.64l1,.16v.74H248.7v-.74l1-.16v-4.53Z"/><path class="cls-12" d="M256.44,216.68a2.67,2.67,0,0,1-2.11-.88,3.32,3.32,0,0,1-.78-2.29v-.26a3.25,3.25,0,0,1,.81-2.25,2.48,2.48,0,0,1,1.91-.9,2.4,2.4,0,0,1,1.94.77,3.07,3.07,0,0,1,.66,2.06v.72h-4.11l0,0a2.51,2.51,0,0,0,.46,1.5,1.47,1.47,0,0,0,1.25.59,2.9,2.9,0,0,0,1-.17,2.36,2.36,0,0,0,.76-.46l.45.75a2.77,2.77,0,0,1-.9.55A3.59,3.59,0,0,1,256.44,216.68Zm-.18-5.67a1.25,1.25,0,0,0-1,.49,2.32,2.32,0,0,0-.5,1.23v0h2.92v-.15a1.77,1.77,0,0,0-.36-1.14A1.29,1.29,0,0,0,256.27,211Z"/><path class="cls-12" d="M262.85,215.77a1.56,1.56,0,0,0,1-.35,1.08,1.08,0,0,0,.44-.87h1v0a1.78,1.78,0,0,1-.73,1.46,2.67,2.67,0,0,1-1.77.64,2.56,2.56,0,0,1-2.11-.9,3.49,3.49,0,0,1-.73-2.27v-.25a3.48,3.48,0,0,1,.73-2.26,2.56,2.56,0,0,1,2.11-.91,3.54,3.54,0,0,1,1.37.25,2.76,2.76,0,0,1,1,.69l.05,1.41h-.92l-.25-1a1.53,1.53,0,0,0-.53-.32,2,2,0,0,0-.73-.12,1.39,1.39,0,0,0-1.3.65,3.08,3.08,0,0,0-.39,1.6v.25a3.11,3.11,0,0,0,.39,1.62A1.39,1.39,0,0,0,262.85,215.77Z"/><path class="cls-12" d="M268.49,208.68v1.53h1.2v.86h-1.2v3.85a.86.86,0,0,0,.18.63.67.67,0,0,0,.49.18l.34,0,.32-.06.16.79a1.48,1.48,0,0,1-.48.17,3,3,0,0,1-.63.07,1.49,1.49,0,0,1-1.12-.42,1.84,1.84,0,0,1-.42-1.33v-3.85h-1v-.86h1v-1.53Z"/><path class="cls-12" d="M238.4,228.59a3.76,3.76,0,0,1-1.11.74,4.45,4.45,0,0,1-1.9.35,3.58,3.58,0,0,1-2.79-1.2,4.48,4.48,0,0,1-1.08-3.12v-.14a4.51,4.51,0,0,1,1.07-3.12,3.63,3.63,0,0,1,2.84-1.2,4.35,4.35,0,0,1,1.67.3,3.71,3.71,0,0,1,1.21.78v1.55h-.81l-.28-1.18a2.44,2.44,0,0,0-.69-.39,2.79,2.79,0,0,0-1-.15,2.56,2.56,0,0,0-2.13.95,3.84,3.84,0,0,0-.75,2.45v.15a4,4,0,0,0,.72,2.47,2.38,2.38,0,0,0,2,.94,3.73,3.73,0,0,0,1.14-.15,3.09,3.09,0,0,0,.71-.32v-1.87l-1.4-.06v-.85h2.55Z"/><path class="cls-12" d="M244.37,228.62a2.14,2.14,0,0,1-.77.79,2.12,2.12,0,0,1-1.09.28,2,2,0,0,1-1.61-.66,3.07,3.07,0,0,1-.58-2.06v-2.83l-.73-.16v-.74h1.88V227a2.36,2.36,0,0,0,.3,1.39,1.11,1.11,0,0,0,.93.38,1.9,1.9,0,0,0,1-.25,1.56,1.56,0,0,0,.61-.71v-3.66l-.85-.16v-.74h2v5.44l.73.16v.74h-1.76Z"/><path class="cls-12" d="M250,229.68a2.67,2.67,0,0,1-2.11-.88,3.32,3.32,0,0,1-.78-2.29v-.26a3.25,3.25,0,0,1,.81-2.25,2.48,2.48,0,0,1,1.91-.9,2.4,2.4,0,0,1,1.94.77,3.07,3.07,0,0,1,.66,2.06v.72h-4.11l0,0a2.51,2.51,0,0,0,.46,1.5,1.47,1.47,0,0,0,1.25.59,2.9,2.9,0,0,0,1-.17,2.36,2.36,0,0,0,.76-.46l.45.75a2.77,2.77,0,0,1-.9.55A3.59,3.59,0,0,1,250,229.68Zm-.18-5.67a1.25,1.25,0,0,0-1,.49,2.32,2.32,0,0,0-.5,1.23v0h2.92v-.15a1.77,1.77,0,0,0-.36-1.14A1.29,1.29,0,0,0,249.85,224Z"/><path class="cls-12" d="M258.43,225.21h-.87l-.19-.76a1.56,1.56,0,0,0-.53-.32,2,2,0,0,0-.72-.12,1.33,1.33,0,0,0-.91.27.85.85,0,0,0-.3.65.73.73,0,0,0,.26.59,2.73,2.73,0,0,0,1.07.39,4.62,4.62,0,0,1,1.79.7,1.41,1.41,0,0,1,.59,1.19,1.64,1.64,0,0,1-.68,1.37,2.86,2.86,0,0,1-1.78.52,4.64,4.64,0,0,1-1.29-.17,3.45,3.45,0,0,1-1-.48v-1.45h.87l.22.85a1.21,1.21,0,0,0,.54.26,3,3,0,0,0,.7.08,1.63,1.63,0,0,0,1-.25.77.77,0,0,0,.35-.65.79.79,0,0,0-.29-.63,2.73,2.73,0,0,0-1.1-.43,4.61,4.61,0,0,1-1.74-.69,1.38,1.38,0,0,1-.59-1.17,1.66,1.66,0,0,1,.66-1.32,2.6,2.6,0,0,1,1.71-.54,4.16,4.16,0,0,1,1.29.19,2.7,2.7,0,0,1,1,.52Z"/><path class="cls-12" d="M264.55,225.21h-.87l-.19-.76a1.56,1.56,0,0,0-.53-.32,2,2,0,0,0-.72-.12,1.33,1.33,0,0,0-.91.27.85.85,0,0,0-.3.65.73.73,0,0,0,.26.59,2.73,2.73,0,0,0,1.07.39,4.62,4.62,0,0,1,1.79.7,1.41,1.41,0,0,1,.59,1.19,1.64,1.64,0,0,1-.68,1.37,2.86,2.86,0,0,1-1.78.52,4.64,4.64,0,0,1-1.29-.17,3.45,3.45,0,0,1-1-.48v-1.45h.87l.22.85a1.21,1.21,0,0,0,.54.26,3,3,0,0,0,.7.08,1.63,1.63,0,0,0,1-.25.77.77,0,0,0,.35-.65.79.79,0,0,0-.29-.63,2.73,2.73,0,0,0-1.1-.43,4.61,4.61,0,0,1-1.74-.69,1.38,1.38,0,0,1-.59-1.17,1.66,1.66,0,0,1,.66-1.32,2.6,2.6,0,0,1,1.71-.54,4.16,4.16,0,0,1,1.29.19,2.7,2.7,0,0,1,1,.52Z"/><path class="cls-12" d="M267.4,227.15a3.49,3.49,0,0,1,.14-1.18,2.94,2.94,0,0,1,.74-.86,12.86,12.86,0,0,0,.83-1.05,1.57,1.57,0,0,0,.25-.89,1.3,1.3,0,0,0-.33-1,1.27,1.27,0,0,0-.95-.33,1.43,1.43,0,0,0-.91.29,1,1,0,0,0-.37.85h-1.1l0,0a1.82,1.82,0,0,1,.66-1.51,2.61,2.61,0,0,1,1.73-.57,2.55,2.55,0,0,1,1.79.59,2.12,2.12,0,0,1,.64,1.64,2.46,2.46,0,0,1-.41,1.38A7.72,7.72,0,0,1,269,225.8a1.39,1.39,0,0,0-.38.57,3.31,3.31,0,0,0-.07.79Zm1.19,2.4h-1.2v-1.22h1.2Z"/><path class="cls-10" d="M276.66,200.33A115.83,115.83,0,0,0,251.25,43.62"/><polygon class="cls-4" points="255.34 40.51 245.42 39.42 249.44 48.55 255.34 40.51"/><line class="cls-10" x1="251.71" y1="239.24" x2="251.71" y2="258.55"/><polygon class="cls-4" points="246.72 257.09 251.71 265.73 256.69 257.09 246.72 257.09"/></svg>