<svg id="Layer_1" data-name="Layer 1" xmlns="http://www.w3.org/2000/svg" xmlns:xlink="http://www.w3.org/1999/xlink" viewBox="0 0 340.16 277.77"><defs><style>.cls-1{fill:url(#linear-gradient);}.cls-2,.cls-3,.cls-7,.cls-8,.cls-9{fill:none;}.cls-2{stroke:#14899d;stroke-width:6px;}.cls-2,.cls-7{stroke-linecap:round;}.cls-2,.cls-7,.cls-8,.cls-9{stroke-linejoin:round;}.cls-3{stroke:#dadada;}.cls-3,.cls-4{stroke-miterlimit:10;}.cls-4,.cls-6{fill:#fff;}.cls-4{stroke:#c4c4c4;}.cls-4,.cls-8,.cls-9{stroke-width:2px;}.cls-5{fill:#c4c4c4;}.cls-7{stroke:#fff;stroke-width:10px;}.cls-8{stroke:url(#linear-gradient-2);}.cls-9{stroke:url(#linear-gradient-3);}</style><linearGradient id="linear-gradient" x1="168" y1="91.72" x2="168" y2="271.39" gradientUnits="userSpaceOnUse"><stop offset="0" stop-color="#1dc7a2"/><stop offset="1" stop-color="#179d9e"/></linearGradient><linearGradient id="linear-gradient-2" x1="170.01" y1="58.94" x2="170.01" y2="21.33" gradientUnits="userSpaceOnUse"><stop offset="0" stop-color="#0e5f99"/><stop offset="1" stop-color="#1dc7a2"/></linearGradient><linearGradient id="linear-gradient-3" x1="170.23" y1="49.79" x2="170.23" y2="33.53" xlink:href="#linear-gradient-2"/></defs><title>ethmap</title><path class="cls-1" d="M113,176.4v11.17a2.83,2.83,0,0,1-2.83,2.83h-10a2.83,2.83,0,0,0-2,.83l-8.33,8.33a2.83,2.83,0,0,0,2,4.84h6a2.83,2.83,0,0,1,2,.83l12.34,12.34a2.83,2.83,0,0,0,2,.83h11.71a2.83,2.83,0,0,1,1.93.76l12,11.24a2.83,2.83,0,0,1,.07,4.08L113,261.4l-9.16,9.16a2.83,2.83,0,0,1-4.84-2v-20a2.83,2.83,0,0,1,.76-1.93l11.37-12.18a2.83,2.83,0,0,0-.07-3.94L99.83,219.23a2.83,2.83,0,0,0-2-.83H86.17a2.83,2.83,0,0,1-2-.83L71.83,205.23a2.83,2.83,0,0,1-.83-2V191.57a2.83,2.83,0,0,0-.83-2L57,176.4,42.83,162.23a2.83,2.83,0,0,0-2-.83h-10A2.83,2.83,0,0,1,28,158.56v-8.33a2.83,2.83,0,0,1,2.83-2.83H54.17A2.83,2.83,0,0,0,57,144.56v-10a2.83,2.83,0,0,1,.83-2l12.34-12.34a2.83,2.83,0,0,1,2-.83h10A2.83,2.83,0,0,0,85,116.56v-10a2.83,2.83,0,0,1,.76-1.93l11.17-12a2.83,2.83,0,0,1,4.14,0l10.06,10.78a2.83,2.83,0,0,1-.07,3.94L99.83,118.57a2.83,2.83,0,0,0-.83,2v11.65a2.83,2.83,0,0,0,.83,2l12.34,12.34a2.83,2.83,0,0,1,.83,2V176.4Zm18.77-19.45,9.33-8.71a2.83,2.83,0,0,0,.9-2.07V120.63a2.83,2.83,0,0,0-.9-2.07L129,107.27a2.83,2.83,0,0,0-3.94.07l-11.23,11.23a2.83,2.83,0,0,0-.83,2v11.65a2.83,2.83,0,0,0,.83,2l12.34,12.34a2.83,2.83,0,0,1,.83,2v6.3A2.83,2.83,0,0,0,131.77,156.95Zm54.3,102.23,11.17-12a2.83,2.83,0,0,0,.76-1.93v-38a2.83,2.83,0,0,0-2.83-2.83h-10a2.83,2.83,0,0,1-2-.83l-12.34-12.34a2.83,2.83,0,0,0-2-.83H157.17a2.83,2.83,0,0,0-2,.83L144,202.39a2.83,2.83,0,0,0,0,4l11.17,11.17a2.83,2.83,0,0,0,2,.83h10a2.83,2.83,0,0,1,2.83,2.83v24a2.83,2.83,0,0,0,.76,1.93l11.17,12A2.83,2.83,0,0,0,186.07,259.18Zm-28.14-80.84,11.23,11.23a2.83,2.83,0,0,0,2,.83h11.65a2.83,2.83,0,0,1,2,.83l12.34,12.34a2.83,2.83,0,0,0,2,.83h12.65a2.83,2.83,0,0,1,2,.83L225,216.39a2.83,2.83,0,0,0,4,0l11.17-11.17a2.83,2.83,0,0,1,2-.83h11.65a2.83,2.83,0,0,0,2-.83l12.34-12.34a2.83,2.83,0,0,0,.83-2V177.51a2.83,2.83,0,0,1,.76-1.93l8.33-8.93a2.83,2.83,0,0,1,4.91,1.93v1a2.83,2.83,0,0,0,4.84,2L298,161.4l9.16-9.16a2.83,2.83,0,0,0-2-4.84h-6a2.83,2.83,0,0,1-1.93-.76l-13.37-12.48a2.83,2.83,0,0,0-1.93-.76H270.17a2.83,2.83,0,0,1-2-.83l-12.34-12.34a2.83,2.83,0,0,0-2-.83H242.17a2.83,2.83,0,0,0-2,.83l-12.34,12.34a2.83,2.83,0,0,1-2,.83H214.12a2.83,2.83,0,0,0-1.93.76l-9.41,8.79a2.83,2.83,0,0,1-4.77-2.07v-4.64a2.83,2.83,0,0,0-2.83-2.83h-10a2.83,2.83,0,0,0-2,.83l-12.34,12.34a2.83,2.83,0,0,0-.83,2v11.71a2.83,2.83,0,0,1-.76,1.93L157.87,174.4A2.83,2.83,0,0,0,157.94,178.33Zm123.46,67.83,9.88-10.43a2.83,2.83,0,0,0-.05-4l-11-11a2.83,2.83,0,0,0-2-.83H266.39a2.83,2.83,0,0,0-2,.83l-8.5,8.5a2.83,2.83,0,0,0,2,4.84H264a2.83,2.83,0,0,1,2,.83l11.28,11.28A2.83,2.83,0,0,0,281.39,246.17Z"/><path class="cls-2" d="M177.09,154.93,139,193a8.5,8.5,0,0,0-2.49,6v10.7a8.5,8.5,0,0,1-2.49,6l-10.41,10.41"/><path class="cls-2" d="M67.79,185.5h23.7"/><path class="cls-2" d="M228.08,196.68C216,182.33,205.59,172,205.59,172"/><path class="cls-2" d="M276.31,225.79V201.43a8.5,8.5,0,0,0-2.38-5.9l-11.8-12.26L249.85,171a8.5,8.5,0,0,0-6-2.49H109.75a8.5,8.5,0,0,0-6,2.49L94,180.74a8.5,8.5,0,0,0-2.49,6v22.72a8.5,8.5,0,0,0,2.49,6l6.92,6.92a8.5,8.5,0,0,0,6,2.49h10a8.5,8.5,0,0,1,6,2.49L147.45,252a8.5,8.5,0,0,0,6,2.49h29.3a8.5,8.5,0,0,0,8.5-8.5V196.72a8.5,8.5,0,0,0-2.43-6L167,168.49"/><path class="cls-3" d="M262.13,183.27C262.13,100.76,231.22,62,199.89,62"/><path class="cls-3" d="M205.44,169.1c0-51.64-8.4-83.43-18.77-83.43"/><path class="cls-3" d="M177.09,154.93c0-42.89-1.38-67.59-3.09-67.59"/><path class="cls-3" d="M190.1,257.56C190.1,153.89,186,80,181,80"/><path class="cls-3" d="M162.92,168.49c0-51.31,2.27-82.82,5.08-82.82"/><path class="cls-3" d="M109.75,168.49C109.75,103.83,119.89,62,142.33,62"/><path class="cls-3" d="M235.33,203.33c0-72.4-16.54-131-37-131"/><path class="cls-3" d="M120.4,224c0-87.53,9.81-148.35,21.93-148.35"/><path class="cls-3" d="M92.06,183.27C92.06,102.42,115.44,47,144.33,47"/><path class="cls-3" d="M63.71,183.27c0-87.74,32.06-155.75,76.62-155.75"/><path class="cls-3" d="M276.31,225.79C279.67,67.19,243.82,27,203.67,27"/><circle class="cls-4" cx="177.09" cy="154.93" r="7.09"/><circle class="cls-4" cx="190.1" cy="250.47" r="7.09"/><circle class="cls-4" cx="276.31" cy="225.79" r="7.09"/><circle class="cls-4" cx="262.13" cy="183.27" r="7.09"/><circle class="cls-4" cx="162.92" cy="169.1" r="7.09"/><circle class="cls-4" cx="205.44" cy="169.1" r="7.09"/><circle class="cls-4" cx="233.01" cy="201.77" r="7.09"/><circle class="cls-4" cx="106.23" cy="169.1" r="7.09"/><circle class="cls-4" cx="92.06" cy="183.27" r="7.09"/><circle class="cls-4" cx="63.71" cy="183.27" r="7.09"/><circle class="cls-4" cx="120.4" cy="225.79" r="7.09"/><rect class="cls-4" x="134.43" y="7.91" width="71.16" height="64.43" rx="2.83" ry="2.83"/><rect class="cls-5" x="140.13" y="13.08" width="59.76" height="54.11" rx="2.83" ry="2.83"/><rect class="cls-5" x="134.43" y="75.65" width="71.16" height="15.17" rx="2.83" ry="2.83"/><polygon class="cls-6" points="170.01 57.94 159.05 41.68 170.01 22.33 180.96 41.68 170.01 57.94"/><polygon class="cls-7" points="170.01 57.94 159.05 41.68 170.01 22.33 180.96 41.68 170.01 57.94"/><polygon class="cls-8" points="170.01 57.94 159.05 41.68 170.01 22.33 180.96 41.68 170.01 57.94"/><polyline class="cls-9" points="159.05 41.64 170.18 34.53 180.96 41.64 180.96 41.68 169.84 48.79 159.05 41.68"/></svg>