<svg xmlns="http://www.w3.org/2000/svg" xmlns:xlink="http://www.w3.org/1999/xlink" viewBox="0 0 2125.98 1700.79"><defs><style>.cls-1,.cls-21,.cls-44,.cls-47,.cls-5,.cls-56,.cls-57,.cls-64,.cls-65,.cls-73,.cls-74,.cls-77,.cls-78{fill:none;}.cls-2{fill:#1c93c3;}.cls-107,.cls-22,.cls-28,.cls-3,.cls-48{font-size:30px;}.cls-107,.cls-3,.cls-8{fill:#fff;}.cls-107,.cls-3{font-family:SourceSansPro-Black, Source Sans Pro;}.cls-24,.cls-3,.cls-51{letter-spacing:-0.02em;}.cls-4{letter-spacing:0em;}.cls-5{stroke:#fff;}.cls-106,.cls-21,.cls-44,.cls-47,.cls-5,.cls-56,.cls-57,.cls-64,.cls-65,.cls-72,.cls-75,.cls-76,.cls-77{stroke-miterlimit:10;}.cls-44,.cls-47,.cls-5{stroke-width:6px;}.cls-102,.cls-106,.cls-36,.cls-6,.cls-72,.cls-75,.cls-76{fill:#f7f8fa;}.cls-7{fill:url(#linear-gradient);}.cls-9{font-size:80px;fill:#167bc4;}.cls-52,.cls-81,.cls-9{font-family:SourceSansPro-Light, Source Sans Pro;}.cls-10,.cls-11,.cls-12,.cls-13{fill:#1362c1;}.cls-10{letter-spacing:0em;}.cls-11{letter-spacing:-0.02em;}.cls-13,.cls-87{letter-spacing:-0.01em;}.cls-14{fill:#0f40bb;letter-spacing:0em;}.cls-15,.cls-16,.cls-17,.cls-18{fill:#0e32ad;}.cls-15{letter-spacing:-0.04em;}.cls-17{letter-spacing:0.01em;}.cls-18,.cls-58,.cls-86{letter-spacing:0em;}.cls-19,.cls-20{fill:#0e26a1;}.cls-20{letter-spacing:-0.02em;}.cls-21,.cls-64,.cls-65{stroke:#1662b2;}.cls-21{stroke-width:2px;}.cls-22{font-family:SourceSansPro-SemiboldIt, Source Sans Pro;}.cls-22,.cls-28,.cls-36,.cls-40,.cls-48{font-style:italic;}.cls-23,.cls-24,.cls-54,.cls-58,.cls-59,.cls-88,.cls-89{font-weight:700;}.cls-25,.cls-26,.cls-27,.cls-28,.cls-36,.cls-40,.cls-48{font-family:SourceSansPro-LightIt, Source Sans Pro;}.cls-26{letter-spacing:-0.1em;}.cls-27,.cls-35{letter-spacing:-0.01em;}.cls-29{letter-spacing:-0.03em;}.cls-30{letter-spacing:-0.01em;}.cls-31{letter-spacing:-0.03em;}.cls-32{letter-spacing:0em;}.cls-33{letter-spacing:-0.03em;}.cls-34{letter-spacing:-0.02em;}.cls-36,.cls-40{font-size:20px;}.cls-37{letter-spacing:0em;}.cls-38{letter-spacing:-0.01em;}.cls-39,.cls-45,.cls-63{fill:#1a86bf;}.cls-39{opacity:0.42;}.cls-40{fill:#eaeaea;}.cls-41{letter-spacing:-0.01em;}.cls-42{fill:#d8d8d8;}.cls-43{fill:#c6c6c6;}.cls-44{stroke:#c9c9c9;}.cls-46{fill:#62b0d3;opacity:0.8;}.cls-47{stroke:#1556ad;}.cls-101,.cls-48,.cls-52,.cls-81,.cls-89{fill:#515151;}.cls-49{letter-spacing:-0.02em;}.cls-50{letter-spacing:-0.01em;}.cls-52,.cls-89{font-size:40px;}.cls-53{letter-spacing:-0.01em;}.cls-54,.cls-58,.cls-59,.cls-89{font-family:SourceSansPro-Semibold, Source Sans Pro;}.cls-55,.cls-59{letter-spacing:-0.03em;}.cls-56,.cls-72,.cls-73{stroke:#f7f8fa;}.cls-102,.cls-56,.cls-57,.cls-65,.cls-72,.cls-73,.cls-74,.cls-75,.cls-77,.cls-78{stroke-linecap:round;}.cls-56,.cls-74{stroke-width:20px;}.cls-57{stroke:#197fbc;}.cls-102,.cls-57,.cls-77,.cls-78{stroke-width:10px;}.cls-60{letter-spacing:-0.01em;}.cls-61{letter-spacing:-0.01em;}.cls-62{letter-spacing:-0.03em;}.cls-63{opacity:0.1;}.cls-64,.cls-65{stroke-width:8px;}.cls-66{letter-spacing:-0.01em;}.cls-67{letter-spacing:-0.02em;}.cls-68{letter-spacing:-0.02em;}.cls-69{fill:#c1c1c1;}.cls-70{clip-path:url(#clip-path);}.cls-71{fill:url(#linear-gradient-2);}.cls-72{stroke-width:30px;}.cls-102,.cls-73,.cls-74,.cls-78{stroke-linejoin:round;}.cls-73{stroke-width:40px;}.cls-102,.cls-106,.cls-74,.cls-75,.cls-76{stroke:#c1c1c1;}.cls-75,.cls-76{stroke-width:15px;}.cls-77,.cls-78{stroke:#1c93c3;}.cls-79{fill:#aaa;}.cls-80{fill:#b9baba;}.cls-81{font-size:22px;}.cls-82{fill:#0fa19c;}.cls-83{fill:#1c9dc5;}.cls-84{letter-spacing:-0.05em;}.cls-85{letter-spacing:-0.03em;}.cls-88{font-family:SourceSansPro-Bold, Source Sans Pro;}.cls-89{opacity:0.2;}.cls-90{letter-spacing:-0.01em;}.cls-91{letter-spacing:-0.03em;}.cls-92{opacity:0.4;}.cls-93{letter-spacing:-0.02em;}.cls-94{letter-spacing:0em;}.cls-95{letter-spacing:0em;}.cls-96{fill:url(#linear-gradient-3);}.cls-97{fill:#a5a5a5;}.cls-98{fill:#e4e4e4;}.cls-99{fill:#1665b2;}.cls-100{clip-path:url(#clip-path-2);}.cls-103{clip-path:url(#clip-path-3);}.cls-104{fill:url(#linear-gradient-4);}.cls-105{fill:#284077;}.cls-106{stroke-width:7px;}.cls-108{letter-spacing:-0.04em;}</style><linearGradient id="linear-gradient" y1="113.39" x2="2125.98" y2="113.39" gradientUnits="userSpaceOnUse"><stop offset="0" stop-color="#1d9dc7"/><stop offset="1" stop-color="#0e1f99"/></linearGradient><clipPath id="clip-path"><path class="cls-1" d="M1846.6,1279.69H727.94c-20,0-22.44-16.26-6.22-35.33l184.65-217.09c8.58-10.09,26.68-18.11,40.47-18.11h773c13.79,0,29.15,8,34.3,18.11l110.72,217.09C1874.58,1263.43,1866.55,1279.69,1846.6,1279.69Z"/></clipPath><linearGradient id="linear-gradient-2" x1="772.49" y1="1170.27" x2="1838.49" y2="1170.27" xlink:href="#linear-gradient"/><linearGradient id="linear-gradient-3" x1="2006.61" y1="434.1" x2="2006.61" y2="1167" gradientUnits="userSpaceOnUse"><stop offset="0.37" stop-color="#eee"/><stop offset="1" stop-color="#dfdfdf"/></linearGradient><clipPath id="clip-path-2"><ellipse class="cls-1" cx="1778.99" cy="1063.5" rx="63.5" ry="98.5"/></clipPath><clipPath id="clip-path-3"><rect class="cls-1" x="677.89" y="410.33" width="221.2" height="159.63" rx="28.35" ry="28.35"/></clipPath><linearGradient id="linear-gradient-4" x1="677.49" y1="422.14" x2="899.49" y2="422.14" gradientUnits="userSpaceOnUse"><stop offset="0" stop-color="#1d9dc7"/><stop offset="1" stop-color="#0ea199"/></linearGradient><symbol id="Tx_2" data-name="Tx 2" viewBox="0 0 60.33 69"><rect class="cls-5" x="3" y="3" width="54.33" height="63" rx="12" ry="12"/><text class="cls-3" transform="translate(12.69 46)">T<tspan class="cls-4" x="16.32" y="0">X</tspan></text></symbol><symbol id="Tx" data-name="Tx" viewBox="0 0 54.33 63"><rect class="cls-2" width="54.33" height="63" rx="12" ry="12"/><text class="cls-3" transform="translate(9.69 43)">T<tspan class="cls-4" x="16.32" y="0">X</tspan></text></symbol></defs><title>ethMEW</title><g id="Header_and_background" data-name="Header and background"><rect class="cls-6" width="2125.98" height="1700.79"/><rect class="cls-7" width="2125.98" height="226.77"/><path class="cls-8" d="M0,0V198.43H2126V0ZM120.39,137.15a3.07,3.07,0,0,1-1.77,1.86,40.66,40.66,0,0,1-15.14,2.89h0a41.68,41.68,0,0,1-16-3.2A42.47,42.47,0,0,1,74.17,130a39.87,39.87,0,0,1-12.48-28.86A45.72,45.72,0,0,1,64.53,85.2a3.07,3.07,0,0,1,4.06-1.69l16.63,7.07A3.07,3.07,0,0,1,87,94.1l-.19.84q0,.12-.06.24A17.28,17.28,0,0,0,86,99.42v.13a4.42,4.42,0,0,0,0,.56v.36a17.36,17.36,0,0,0,21.32,16.66,3.07,3.07,0,0,1,3.35,1.43l9.45,16A3.06,3.06,0,0,1,120.39,137.15Zm23.12-22a3.07,3.07,0,0,1-4,1.53L97.38,98.82a3.06,3.06,0,0,1,1.18-5.88l23.21-.1a17.32,17.32,0,0,0-5.22-7.16,18.37,18.37,0,0,0-11.5-4.49,16.37,16.37,0,0,0-5.33.89,3.07,3.07,0,0,1-3.64-1.34L86.74,64.89a3.06,3.06,0,0,1,1.36-4.34,40.47,40.47,0,0,1,17-3.68,41,41,0,0,1,16,3.25,42.41,42.41,0,0,1,13.24,8.8,40.28,40.28,0,0,1,12.41,28.94C146.71,104.79,145.66,110.43,143.51,115.12Z"/><text class="cls-9" transform="translate(265.62 127.09)">My<tspan class="cls-10" x="91.36" y="0">Ether</tspan><tspan class="cls-11" x="263.76" y="0">W</tspan><tspan class="cls-12" x="323.84" y="0">all</tspan><tspan class="cls-13" x="401.67" y="0">e</tspan><tspan class="cls-10" x="439.44" y="0">t</tspan><tspan class="cls-14" x="464.39" y="0" xml:space="preserve"> Behind</tspan><tspan class="cls-15" x="711.83" y="0">-</tspan><tspan class="cls-16" x="732.87" y="0">Th</tspan><tspan class="cls-17" x="817.03" y="0">e</tspan><tspan class="cls-18" x="856.39" y="0">-</tspan><tspan class="cls-19" x="880.31" y="0">S</tspan><tspan class="cls-20" x="921.99" y="0">c</tspan><tspan class="cls-19" x="956.55" y="0">enes</tspan></text><line class="cls-21" y1="712" x2="1918.49" y2="712"/><text class="cls-22" transform="translate(1301.81 702.59)"><tspan class="cls-23">AB</tspan><tspan class="cls-24" x="33.69" y="0">O</tspan><tspan class="cls-23" x="52.5" y="0">VE</tspan><tspan class="cls-25" x="83.73" y="0" xml:space="preserve"> THIS LINE IS WH</tspan><tspan class="cls-26" x="275.67" y="0">A</tspan><tspan class="cls-25" x="287.43" y="0">T MEW IS RESPONSIBLE </tspan><tspan class="cls-27" x="568.43" y="0">F</tspan><tspan class="cls-25" x="581.78" y="0">OR</tspan></text><text class="cls-28" transform="translate(1365.26 740.59)">BE<tspan class="cls-29" x="31.8" y="0">L</tspan><tspan x="43.98" y="0">OW IS J</tspan><tspan class="cls-30" x="130.56" y="0">U</tspan><tspan class="cls-31" x="148.26" y="0">S</tspan><tspan class="cls-32" x="162.15" y="0">T HOW THE B</tspan><tspan class="cls-33" x="317.64" y="0">L</tspan><tspan x="329.82" y="0">OC</tspan><tspan class="cls-34" x="364.56" y="0">K</tspan><tspan x="379.86" y="0">CHAIN WOR</tspan><tspan class="cls-35" x="515.96" y="0">K</tspan><tspan x="531.63" y="0">S.</tspan></text><text class="cls-36" transform="translate(1937 219)">Made <tspan class="cls-37" x="47.98" y="0">b</tspan><tspan x="58.44" y="0">y @veenspa</tspan><tspan class="cls-38" x="152.48" y="0">c</tspan><tspan x="160.78" y="0">e</tspan></text></g><g id="Step_6" data-name="Step 6"><g id="Empty_Block" data-name="Empty Block"><path class="cls-39" d="M279.49,1343l-149-110c0-2.09,26.39-17.92,28-19,3-2,4.9-3,7.5-3H305a8.5,8.5,0,0,1,8.5,8.5v97a8.48,8.48,0,0,1-2.8,6.31C309.18,1324.17,281.68,1343,279.49,1343Z"/><rect class="cls-39" x="127.49" y="1231" width="156" height="113.39" rx="8.5" ry="8.5"/><text class="cls-40" transform="translate(160.23 1280.5)">N<tspan class="cls-41" x="12.1" y="0">e</tspan><tspan x="21.3" y="0">w block</tspan><tspan x="2.15" y="24">on the kid</tspan></text></g><g id="The_Blockchain" data-name="The Blockchain"><path class="cls-42" d="M2109,1562l125.52-24a8.32,8.32,0,0,0,8.13-8.5L2260,1454c0-2.09-10.07-15.51-11.27-17a8,8,0,0,0-6.21-3h-136.9a8.32,8.32,0,0,0-8.13,8.5v97a13.84,13.84,0,0,0,1.5,6.5C2100.27,1548.55,2106.9,1562,2109,1562Z"/><rect class="cls-43" x="2106.49" y="1451" width="156" height="113.39" rx="8.5" ry="8.5"/><use width="60.33" height="69" transform="translate(2113.75 1509.34) scale(0.72 0.73)" xlink:href="#Tx_2"/><use width="60.33" height="69" transform="translate(2113.75 1456.09) scale(0.72 0.73)" xlink:href="#Tx_2"/><path class="cls-42" d="M1906,1562l125.52-24a8.32,8.32,0,0,0,8.13-8.5L2057,1454c0-2.09-10.07-15.51-11.27-17a8,8,0,0,0-6.21-3h-136.9a8.32,8.32,0,0,0-8.13,8.5v97a13.84,13.84,0,0,0,1.5,6.5C1897.27,1548.55,1903.9,1562,1906,1562Z"/><rect class="cls-43" x="1903.49" y="1451" width="156" height="113.39" rx="8.5" ry="8.5"/><path class="cls-44" d="M2097,1518.25c-33.08-2.47-34.07-30.34.46-34.08"/><path class="cls-44" d="M2058,1480.28c36,2.7,37.47,32.75.67,37.37"/><use width="60.33" height="69" transform="translate(2006.79 1509.34) scale(0.72 0.73)" xlink:href="#Tx_2"/><use width="60.33" height="69" transform="translate(2006.79 1456.09) scale(0.72 0.73)" xlink:href="#Tx_2"/><use width="60.33" height="69" transform="translate(1958.29 1509.34) scale(0.72 0.73)" xlink:href="#Tx_2"/><use width="60.33" height="69" transform="translate(1958.29 1456.09) scale(0.72 0.73)" xlink:href="#Tx_2"/><use width="60.33" height="69" transform="translate(1910.75 1509.34) scale(0.72 0.73)" xlink:href="#Tx_2"/><use width="60.33" height="69" transform="translate(1910.75 1456.09) scale(0.72 0.73)" xlink:href="#Tx_2"/><path class="cls-42" d="M1703,1562l128.53-24a8.32,8.32,0,0,0,8.13-8.5L1854,1454c0-2.09-7.07-15.51-8.27-17a8,8,0,0,0-6.21-3h-136.9a8.32,8.32,0,0,0-8.13,8.5v97a13.84,13.84,0,0,0,1.5,6.5C1697.27,1548.55,1700.9,1562,1703,1562Z"/><rect class="cls-43" x="1700.49" y="1451" width="156" height="113.39" rx="8.5" ry="8.5"/><path class="cls-44" d="M1894,1518.25c-33.08-2.47-34.07-30.34.46-34.08"/><path class="cls-44" d="M1855,1480.28c36,2.7,37.47,32.75.67,37.37"/><use width="60.33" height="69" transform="translate(1803.79 1509.34) scale(0.72 0.73)" xlink:href="#Tx_2"/><use width="60.33" height="69" transform="translate(1803.79 1456.09) scale(0.72 0.73)" xlink:href="#Tx_2"/><use width="60.33" height="69" transform="translate(1755.29 1509.34) scale(0.72 0.73)" xlink:href="#Tx_2"/><use width="60.33" height="69" transform="translate(1755.29 1456.09) scale(0.72 0.73)" xlink:href="#Tx_2"/><use width="60.33" height="69" transform="translate(1707.75 1509.34) scale(0.72 0.73)" xlink:href="#Tx_2"/><use width="60.33" height="69" transform="translate(1707.75 1456.09) scale(0.72 0.73)" xlink:href="#Tx_2"/><path class="cls-42" d="M1450.49,1562,1322,1538a8.32,8.32,0,0,1-8.13-8.5l-11.34-71.5c0-2.09,1.07-19.51,2.27-21a8,8,0,0,1,6.21-3h139.9a8.32,8.32,0,0,1,8.13,8.5v97a13.84,13.84,0,0,1-1.5,6.5C1456.22,1548.55,1452.59,1562,1450.49,1562Z"/><rect class="cls-43" x="1302.49" y="1451" width="156" height="113.39" rx="8.5" ry="8.5"/><path class="cls-44" d="M1497,1518.25c-33.08-2.47-34.07-30.34.46-34.08"/><path class="cls-44" d="M1458,1480.28c36,2.7,37.47,32.75.67,37.37"/><use width="60.33" height="69" transform="translate(1405.79 1509.34) scale(0.72 0.73)" xlink:href="#Tx_2"/><use width="60.33" height="69" transform="translate(1405.79 1456.09) scale(0.72 0.73)" xlink:href="#Tx_2"/><use width="60.33" height="69" transform="translate(1357.29 1509.34) scale(0.72 0.73)" xlink:href="#Tx_2"/><use width="60.33" height="69" transform="translate(1357.29 1456.09) scale(0.72 0.73)" xlink:href="#Tx_2"/><use width="60.33" height="69" transform="translate(1309.75 1509.34) scale(0.72 0.73)" xlink:href="#Tx_2"/><use width="60.33" height="69" transform="translate(1309.75 1456.09) scale(0.72 0.73)" xlink:href="#Tx_2"/><path class="cls-42" d="M1506,1562l128.53-24a8.32,8.32,0,0,0,8.13-8.5L1657,1454c0-2.09-7.07-15.51-8.27-17a8,8,0,0,0-6.21-3h-136.9a8.32,8.32,0,0,0-8.13,8.5v97a13.84,13.84,0,0,0,1.5,6.5C1500.27,1548.55,1503.9,1562,1506,1562Z"/><rect class="cls-43" x="1502.49" y="1451" width="156" height="113.39" rx="8.5" ry="8.5"/><path class="cls-44" d="M1695,1518.25c-33.08-2.47-34.07-30.34.46-34.08"/><path class="cls-44" d="M1656,1480.28c36,2.7,37.47,32.75.67,37.37"/><use width="60.33" height="69" transform="translate(1605.79 1509.34) scale(0.72 0.73)" xlink:href="#Tx_2"/><use width="60.33" height="69" transform="translate(1605.79 1456.09) scale(0.72 0.73)" xlink:href="#Tx_2"/><use width="60.33" height="69" transform="translate(1557.29 1509.34) scale(0.72 0.73)" xlink:href="#Tx_2"/><use width="60.33" height="69" transform="translate(1557.29 1456.09) scale(0.72 0.73)" xlink:href="#Tx_2"/><use width="60.33" height="69" transform="translate(1509.75 1509.34) scale(0.72 0.73)" xlink:href="#Tx_2"/><use width="60.33" height="69" transform="translate(1509.75 1456.09) scale(0.72 0.73)" xlink:href="#Tx_2"/><path class="cls-42" d="M1258.49,1562,1130,1538a8.32,8.32,0,0,1-8.13-8.5l-14.34-75.5c0-2.09,7.07-15.51,8.27-17a8,8,0,0,1,6.21-3h136.9a8.32,8.32,0,0,1,8.13,8.5v97a13.84,13.84,0,0,1-1.5,6.5C1264.22,1548.55,1260.59,1562,1258.49,1562Z"/><rect class="cls-43" x="1105.49" y="1451" width="156" height="113.39" rx="8.5" ry="8.5"/><path class="cls-44" d="M1303,1518.25c-33.08-2.47-34.07-30.34.46-34.08"/><path class="cls-44" d="M1264,1480.28c36,2.7,37.47,32.75.67,37.37"/><use width="60.33" height="69" transform="translate(1208.79 1509.34) scale(0.72 0.73)" xlink:href="#Tx_2"/><use width="60.33" height="69" transform="translate(1208.79 1456.09) scale(0.72 0.73)" xlink:href="#Tx_2"/><use width="60.33" height="69" transform="translate(1160.29 1509.34) scale(0.72 0.73)" xlink:href="#Tx_2"/><use width="60.33" height="69" transform="translate(1160.29 1456.09) scale(0.72 0.73)" xlink:href="#Tx_2"/><use width="60.33" height="69" transform="translate(1112.75 1509.34) scale(0.72 0.73)" xlink:href="#Tx_2"/><use width="60.33" height="69" transform="translate(1112.75 1456.09) scale(0.72 0.73)" xlink:href="#Tx_2"/><path class="cls-42" d="M1058.49,1562,930,1538a8.32,8.32,0,0,1-8.13-8.5L907.49,1454c0-2.09,11.07-15.51,12.27-17a8,8,0,0,1,6.21-3h136.9a8.32,8.32,0,0,1,8.13,8.5v97a13.84,13.84,0,0,1-1.5,6.5C1068.22,1548.55,1060.59,1562,1058.49,1562Z"/><rect class="cls-43" x="905.49" y="1451" width="156" height="113.39" rx="8.5" ry="8.5"/><path class="cls-44" d="M1106,1518.25c-33.08-2.47-34.07-30.34.46-34.08"/><path class="cls-44" d="M1067,1480.28c36,2.7,37.47,32.75.67,37.37"/><use width="60.33" height="69" transform="translate(1008.79 1509.34) scale(0.72 0.73)" xlink:href="#Tx_2"/><use width="60.33" height="69" transform="translate(1008.79 1456.09) scale(0.72 0.73)" xlink:href="#Tx_2"/><use width="60.33" height="69" transform="translate(960.29 1509.34) scale(0.72 0.73)" xlink:href="#Tx_2"/><use width="60.33" height="69" transform="translate(960.29 1456.09) scale(0.72 0.73)" xlink:href="#Tx_2"/><use width="60.33" height="69" transform="translate(912.75 1509.34) scale(0.72 0.73)" xlink:href="#Tx_2"/><use width="60.33" height="69" transform="translate(912.75 1456.09) scale(0.72 0.73)" xlink:href="#Tx_2"/><g id="New_Block" data-name="New Block"><path class="cls-45" d="M852,1564,703.49,1454c0-2.09,15.76-15.51,17-17a8.49,8.49,0,0,1,6.49-3H866a8.5,8.5,0,0,1,8.5,8.5v97a8.48,8.48,0,0,1-2.8,6.31C870.18,1547.17,854.19,1564,852,1564Z"/><rect class="cls-46" x="701.49" y="1451" width="156" height="113.39" rx="8.5" ry="8.5"/><use width="60.33" height="69" transform="translate(804.79 1509.34) scale(0.72 0.73)" xlink:href="#Tx_2"/><use width="60.33" height="69" transform="translate(804.79 1456.09) scale(0.72 0.73)" xlink:href="#Tx_2"/><use width="60.33" height="69" transform="translate(756.29 1509.34) scale(0.72 0.73)" xlink:href="#Tx_2"/><use width="60.33" height="69" transform="translate(756.29 1456.09) scale(0.72 0.73)" xlink:href="#Tx_2"/><path class="cls-47" d="M904,1518.25c-33.08-2.47-34.07-30.34.46-34.08"/><path class="cls-47" d="M865,1480.28c36,2.7,37.47,32.75.67,37.37"/><use width="60.33" height="69" transform="translate(708.75 1509.34) scale(0.72 0.73)" xlink:href="#Tx_2"/><use width="60.33" height="69" transform="translate(708.75 1456.09) scale(0.72 0.73)" xlink:href="#Tx_2"/></g></g><text class="cls-48" transform="translate(701.49 1611.8)">ONCE IN THE B<tspan class="cls-29" x="174.39" y="0">L</tspan><tspan x="186.57" y="0">OC</tspan><tspan class="cls-49" x="221.31" y="0">K</tspan><tspan x="236.61" y="0">CHAIN, </tspan><tspan class="cls-50" x="322.62" y="0">Y</tspan><tspan class="cls-4" x="335.28" y="0">OUR </tspan><tspan class="cls-51" x="393.42" y="0">T</tspan><tspan x="407.73" y="0">X IS PERMANENT!</tspan></text><text class="cls-52" transform="translate(110.52 1471.07)">6. Mine<tspan class="cls-53" x="113.88" y="0">r</tspan><tspan x="126.16" y="0">s then </tspan><tspan class="cls-54" x="232.48" y="0">put </tspan><tspan class="cls-54"><tspan x="0" y="48">t</tspan><tspan class="cls-55" x="14.44" y="48">r</tspan><tspan x="28.28" y="48">ansactions in a block </tspan><tspan x="0" y="96">and add it </tspan><tspan class="cls-53" x="181.44" y="96">t</tspan><tspan x="195.48" y="96">o the chain</tspan></tspan></text><path class="cls-56" d="M446,1172c-42,163,73.94,287.68,196.08,305.54"/><path class="cls-57" d="M446,1172c-42,163,73.94,287.68,196.08,305.54"/><polyline class="cls-57" points="658.45 1462.16 669.69 1486.93 643.35 1498.88"/><path class="cls-57" d="M486,1384c-65-87-147.51-101-147.51-101"/></g><g id="Step_5" data-name="Step 5"><text class="cls-52" transform="translate(114.52 891.07)">5. Mine<tspan class="cls-53" x="113.88" y="0">r</tspan><tspan x="126.16" y="0">s </tspan><tspan class="cls-58" x="150.32" y="0">pick t</tspan><tspan class="cls-59" x="245.35" y="0">r</tspan><tspan class="cls-54" x="259.19" y="0">ansactions</tspan><tspan x="445.67" y="0" xml:space="preserve">    f</tspan><tspan class="cls-60" x="488.03" y="0">r</tspan><tspan x="500.31" y="0">om the pool</tspan></text><text class="cls-48" transform="translate(115.51 939.8)">HIGH G<tspan class="cls-35" x="83.28" y="0">A</tspan><tspan class="cls-4" x="97.62" y="0">S PRICES PICKED FI</tspan><tspan class="cls-61" x="321.09" y="0">R</tspan><tspan class="cls-62" x="336.6" y="0">S</tspan><tspan x="350.49" y="0">T!</tspan></text><path class="cls-63" d="M579.68,1114.87c-2.05-9.23-9-14.65-17.78-17.36a55.23,55.23,0,0,0-9.62-2c-3.76-2.21-9.76-2.71-12.75-2.87a49.46,49.46,0,0,0-16.41-1.16l-.56-.13a44.18,44.18,0,0,0-11.87-.88c-2.59.14-12.25,1.07-15.28,4.47a33.6,33.6,0,0,0-6.18-1.13,47.62,47.62,0,0,0-11.43.17A40.06,40.06,0,0,0,462.6,1095a127.56,127.56,0,0,1-12.42-7.09c-5.9-3.61-14.28-4.32-21-3.42-2.36.31-7.39,1-10.64,2.85a39.66,39.66,0,0,0-18.43-4.43c-6.74,0-17.3.92-21.45,7.24-7.34-.44-15.12.83-20.27,4.63-3.92,2.89-4.8,7.21-4.07,11.52a17.83,17.83,0,0,0-1.63,2.16,14.93,14.93,0,0,0,3.28,20.18c7,5.52,17.83,6.31,26.26,5.47,1.43-.14,2.87-.35,4.29-.61,11.27,5.26,24.29,6.91,36.84,7.67a68,68,0,0,0,18.88.94,55.11,55.11,0,0,0,13.93-2.86,43.9,43.9,0,0,0,13.67,2c1.47,0,3,0,4.48-.12,6.15,8.38,23.46,8.46,31.93,7,6.78-1.14,13.23-3.68,18.18-8.08,6.33,2.48,14.11,2.81,19.68,2.51a48.38,48.38,0,0,0,15.43-3.13,28.81,28.81,0,0,0,12.53-4.16C578.36,1131.14,581.3,1122.18,579.68,1114.87Z"/><path class="cls-39" d="M572.52,1030.36a30.51,30.51,0,0,1-.74,5.61l-11.57,50.85c-3.21,14.1-19.29,25.2-35.22,25.39l-147.79,1.68c-9.45.11-18.52-7.7-20.53-17.74l-7-34.84h0a25.33,25.33,0,0,1-.11-9.54,22.69,22.69,0,0,1,3.65-6l7.18-8.79,2.22-2.71c12.42-15.17,46.19-27.59,75-27.59H540q4.48,0,8.46.39a61.12,61.12,0,0,1,9.09,1.51h0C567,1011.8,572.85,1019.92,572.52,1030.36Z"/><use width="60.33" height="69" transform="matrix(0.6, -0.37, 0.37, 0.6, 368.96, 1061.93)" xlink:href="#Tx_2"/><use width="60.33" height="69" transform="matrix(0.84, 0.17, -0.17, 0.84, 445.4, 1019.1)" xlink:href="#Tx_2"/><use width="60.33" height="69" transform="matrix(0.55, 0.46, -0.46, 0.55, 525.93, 1040.44)" xlink:href="#Tx_2"/><path class="cls-64" d="M485.41,1073.34H383.08c-28.85,0-42.29-12.42-29.86-27.59l9.41-11.49c12.42-15.18,46.19-27.59,75-27.59H540c28.85,0,42.29,12.42,29.86,27.59l-9.41,11.49C548,1060.93,514.26,1073.34,485.41,1073.34Z"/><line class="cls-65" x1="619.83" y1="819.87" x2="480.3" y2="1004.52"/></g><g id="Step_4_Pool" data-name="Step 4 Pool"><text class="cls-48" transform="translate(1105.52 939.47)">IF <tspan class="cls-66" x="26.13" y="0">Y</tspan><tspan x="38.79" y="0">OUR </tspan><tspan class="cls-51" x="96.93" y="0">T</tspan><tspan x="111.24" y="0">X IS PENDING, IT’S IN THE POOL</tspan></text><text class="cls-52" transform="translate(970.61 891.07)">4. ..<tspan class="cls-67" x="53.4" y="0">.</tspan><tspan x="61.56" y="0">who put</tspan><tspan class="cls-54" x="194.84" y="0" xml:space="preserve"> it in the pool </tspan><tspan x="427.99" y="0">of all signed t</tspan><tspan class="cls-68" x="642.39" y="0">r</tspan><tspan x="654.15" y="0">ansactions </tspan></text><path class="cls-6" d="M727.94,1294.69c-19.75,0-27.12-11.33-29.37-16.2-5.72-12.38-1.45-28.36,11.73-43.85l184.65-217.09c11.34-13.33,33.65-23.39,51.89-23.39h773c19.53,0,40,11.3,47.66,26.29l110.72,217.08c7.41,14.53,7.69,29.36.75,40.68-6.41,10.47-18.21,16.47-32.37,16.47Z"/><path class="cls-69" d="M1719.83,1009.16c13.79,0,29.15,8,34.3,18.11l110.72,217.09c9.73,19.07,1.7,35.33-18.25,35.33H727.94c-20,0-22.44-16.26-6.22-35.33l184.65-217.09c8.58-10.09,26.68-18.11,40.47-18.11h773m0-30h-773c-22.56,0-49.19,12.06-63.32,28.67L698.87,1224.92c-17.12,20.13-22.19,41.95-13.91,59.86a41.28,41.28,0,0,0,19.59,19.85,52.67,52.67,0,0,0,23.4,5.06H1846.6c19.5,0,36-8.61,45.16-23.63,9.72-15.87,9.66-36-.18-55.33l-110.71-217.09c-5.35-10.49-14.57-19.4-26.67-25.76a75.29,75.29,0,0,0-34.36-8.72Z"/><g id="Pool_water_TXs" data-name="Pool water + TXs"><g class="cls-70"><path class="cls-71" d="M786.49,1243c12-25,34-32,55-40s26-39,43-50c11.26-7.29,27-21,33-35s18.51-43.51,27-52c11-11,37-12,54-1s52,10.58,64,2c21-15,75-20,106-7s81,18,96,11,44-29,73-10,54,17,78,4,44-20,68-9,61,16,76,8,59-9,69,1,45,6,50,2,35-20,52,9,6.85,28.85,28,70c15,29.2,36.87,33.31,50,60,16.09,32.69,30,84,30,84h-1066A152.65,152.65,0,0,1,786.49,1243Z"/><use width="60.33" height="69" transform="translate(1026.51 1147) scale(0.99 1)" xlink:href="#Tx_2"/><use width="60.33" height="69" transform="matrix(0.93, -0.34, 0.34, 0.94, 1228.57, 1155.25)" xlink:href="#Tx_2"/><use width="60.33" height="69" transform="matrix(0.9, 0.43, -0.43, 0.9, 1396.4, 1088.42)" xlink:href="#Tx_2"/><use width="60.33" height="69" transform="matrix(0.9, 0.43, -0.43, 0.9, 1356.4, 1220.42)" xlink:href="#Tx_2"/><use width="60.33" height="69" transform="matrix(0.9, 0.43, -0.43, 0.9, 1152.4, 1088.42)" xlink:href="#Tx_2"/><use width="60.33" height="69" transform="matrix(0.97, -0.2, 0.21, 0.98, 1520.06, 1093.9)" xlink:href="#Tx_2"/><use width="60.33" height="69" transform="matrix(0.97, -0.2, 0.21, 0.98, 1652.06, 1245.9)" xlink:href="#Tx_2"/><use width="60.33" height="69" transform="matrix(0.99, 0.12, -0.12, 0.99, 1525.02, 1221.56)" xlink:href="#Tx_2"/><use width="60.33" height="69" transform="matrix(0.99, 0.12, -0.12, 0.99, 1149.02, 1210.56)" xlink:href="#Tx_2"/><use width="60.33" height="69" transform="matrix(0.97, -0.2, 0.21, 0.98, 914.06, 1211.9)" xlink:href="#Tx_2"/></g></g><g id="Pool_ladder" data-name="Pool ladder"><path class="cls-72" d="M860.49,1192.5c0,1.5,44.5-62,44.5-62"/><path class="cls-73" d="M817,1054.5c0-68,88-62,88,0v104"/><path class="cls-74" d="M817,1054.5c0-68,88-62,88,0v104"/><path class="cls-73" d="M772.49,1108c0-68,88-62,88,0v104"/><path class="cls-74" d="M772.49,1108c0-68,88-62,88,0v104"/><path class="cls-75" d="M860.49,1192.5c0,1.5,44.5-62,44.5-62"/><path class="cls-76" d="M860.49,1152.5c0,1.5,44.5-62,44.5-62"/></g><g id="Arrow_to_5" data-name="Arrow to 5"><path class="cls-56" d="M1029.49,1091c-110-172-281-196-395.73-110.54"/><path class="cls-57" d="M1029.49,1091c-110-172-281-196-395.73-110.54"/></g><polyline class="cls-57" points="633.06 1002.91 607.6 993.34 617.78 966.26"/></g><g id="Step_3_Slide" data-name="Step 3 + Slide"><line class="cls-77" x1="1216.1" y1="487" x2="1346.49" y2="487"/><polyline class="cls-78" points="1353.54 467.91 1372.77 487.14 1352.32 507.59"/><use width="54.33" height="63" transform="translate(1256.49 454)" xlink:href="#Tx"/><g id="DDOS_shield" data-name="DDOS shield"><path class="cls-79" d="M1174.49,567.89l-4.65-12.25c-15.59-8.21-28.35-25.3-28.35-38l-17-103.77c0-12.68,29.76-13.68,45.35-5.47l21.31,11.22c15.59,8.21,28.35,25.3,28.35,38v101.1C1219.49,571.41,1190.08,576.1,1174.49,567.89Z"/><path class="cls-80" d="M1172.15,566.86l-21.31-11.22c-15.59-8.21-28.35-25.3-28.35-38V416.55c0-12.68,12.76-16.34,28.35-8.13l21.31,11.22c15.59,8.21,28.35,25.3,28.35,38v101.1C1200.49,571.41,1187.74,575.07,1172.15,566.86Z"/><path class="cls-43" d="M1172.15,566.86s-36.9-166.64-21.31-158.43l21.31,11.22c15.59,8.21,28.35,25.3,28.35,38v101.1C1200.49,571.41,1187.74,575.07,1172.15,566.86Z"/></g><text class="cls-81" transform="matrix(1, 0.59, 0, 1, 1135.34, 470.5)">DDOS<tspan x="-6.66" y="26.4">SHIELD</tspan></text><circle class="cls-82" cx="1446.3" cy="458.34" r="25.54"/><circle class="cls-82" cx="1504.4" cy="517.66" r="25.54"/><circle class="cls-82" cx="1562.49" cy="458.34" r="25.54"/><circle class="cls-82" cx="1620.59" cy="517.66" r="25.54"/><circle class="cls-82" cx="1678.68" cy="458.34" r="25.54"/><circle class="cls-83" cx="1446.3" cy="517.66" r="25.54"/><circle class="cls-83" cx="1504.4" cy="458.34" r="25.54"/><circle class="cls-83" cx="1562.49" cy="517.66" r="25.54"/><circle class="cls-83" cx="1620.59" cy="458.34" r="25.54"/><circle class="cls-83" cx="1678.68" cy="517.66" r="25.54"/><text class="cls-48" transform="translate(1420.11 586)">5 GETH, 5 <tspan class="cls-84" x="116.1" y="0">P</tspan><tspan x="130.65" y="0">ARI</tspan><tspan class="cls-35" x="168.03" y="0">T</tspan><tspan x="182.64" y="0">Y NODES</tspan></text><text class="cls-52" transform="translate(1163.11 378.53)">3. <tspan class="cls-85" x="35.88" y="0">Y</tspan><tspan x="52.44" y="0">our t</tspan><tspan class="cls-68" x="128.12" y="0">r</tspan><tspan class="cls-86" x="139.88" y="0">ansaction </tspan><tspan class="cls-87" x="307.51" y="0">g</tspan><tspan x="326.55" y="0">oes </tspan><tspan class="cls-60" x="391.43" y="0">t</tspan><tspan x="403.51" y="0">o a </tspan><tspan class="cls-88" x="460.79" y="0">MEW node...</tspan></text><text class="cls-89" transform="translate(1624.99 303)">in<tspan class="cls-90" x="32.88" y="0">f</tspan><tspan x="45.16" y="0">u</tspan><tspan class="cls-91" x="67.4" y="0">r</tspan><tspan x="81.24" y="0">a /</tspan><tspan class="cls-92"><tspan class="cls-93" x="0" y="36">e</tspan><tspan class="cls-94" x="19.64" y="36">the</tspan><tspan class="cls-53" x="76.68" y="36">r</tspan><tspan class="cls-95" x="91.2" y="36">s</tspan><tspan class="cls-53" x="108.44" y="36">c</tspan><tspan x="126.52" y="36">an /</tspan></tspan></text><g id="Slide"><path class="cls-96" d="M1778.49,1167a5,5,0,0,1-5-4.56l-17-193a5,5,0,0,1,3.17-5.1c63-24.42,149.43-34.46,225.7-43.32,42-4.88,81.73-9.49,110-15.89,46.76-10.59,75.74-39.45,86.11-85.77,18.2-81.24-27.73-186.26-67.58-217.42-20.47-16-61.53-31.86-115.62-44.65-49.57-11.72-104.5-19.31-146.93-20.29a5,5,0,0,1-4.88-5V441a5,5,0,0,1,4.67-5c19.43-1.27,39.67-1.91,60.17-1.91,78.77,0,162.49,9.55,229.69,26.2,39.94,9.9,107.9,30.94,114.36,60.63,5.11,23.5-4.82,148.91-21.68,273.86-12.21,90.49-36.75,245.89-63.89,269.95-22.17,19.65-79.47,43.28-153.26,63.21-78.21,21.12-164.89,35.35-237.8,39Z"/><path class="cls-69" d="M1911.34,439.1c166,0,330.23,41.85,339.16,82.9,10,46-40,500-84,539s-230,93-388,101l-17-193c98-38,256.47-41.21,335-59,154.51-35,87-260,20.51-312-45.45-35.53-179.51-64-265.51-66V441c19.8-1.29,39.83-1.9,59.84-1.9m0-10c-20.6,0-41,.65-60.5,1.92a10,10,0,0,0-9.35,10v91a10,10,0,0,0,9.77,10c84.78,2,216.64,30.31,259.58,63.88,20.13,15.74,41,49.91,54.46,89.17,15.18,44.28,19.2,88,11.32,123.21-9.92,44.27-37.62,71.85-82.34,82-28,6.35-67.58,10.94-109.47,15.8-76.57,8.89-163.35,19-226.93,43.62a10,10,0,0,0-6.35,10.2l17,193a10,10,0,0,0,10,9.12h.51c73.26-3.71,160.31-18,238.85-39.21,75.62-20.42,132.21-43.85,155.28-64.3,7.65-6.78,19.73-24.48,36.23-99.54,10-45.4,20.11-105.39,29.3-173.48,15-111.27,27.55-248.28,21.61-275.59-2.89-13.29-15.54-25.42-38.69-37.08-19.63-9.89-47.07-19.35-79.35-27.35-67.57-16.75-151.73-26.35-230.89-26.35Z"/><path class="cls-97" d="M1779,1167c-18.72,0-36.16-11.06-49.1-31.14-12.51-19.4-19.4-45.1-19.4-72.36s6.89-53,19.4-72.36c12.95-20.08,30.38-31.14,49.1-31.14s36.16,11.06,49.1,31.14c12.51,19.4,19.4,45.1,19.4,72.36s-6.89,53-19.4,72.36C1815.15,1155.94,1797.71,1167,1779,1167Z"/><path class="cls-69" d="M1779,965c35.07,0,63.5,44.1,63.5,98.5s-28.43,98.5-63.5,98.5-63.5-44.1-63.5-98.5S1743.92,965,1779,965m0-10c-20.48,0-39.41,11.87-53.31,33.43-13,20.2-20.19,46.86-20.19,75.07s7.17,54.87,20.19,75.07c13.9,21.56,32.83,33.43,53.31,33.43s39.41-11.87,53.31-33.43c13-20.2,20.19-46.86,20.19-75.07s-7.17-54.87-20.19-75.07C1818.4,966.87,1799.47,955,1779,955Z"/><path class="cls-98" d="M1851.49,537c-17.94,0-32-22.18-32-50.5s14.06-50.5,32-50.5,32,22.18,32,50.5S1869.44,537,1851.49,537Z"/><path class="cls-69" d="M1851.49,441c14.91,0,27,20.37,27,45.5s-12.09,45.5-27,45.5-27-20.37-27-45.5,12.09-45.5,27-45.5m0-10c-10.73,0-20.82,6.64-27.69,18.22-6,10.12-9.31,23.35-9.31,37.28s3.31,27.16,9.31,37.28c6.87,11.58,17,18.22,27.69,18.22s20.82-6.64,27.69-18.22c6-10.12,9.31-23.35,9.31-37.28s-3.31-27.16-9.31-37.28c-6.87-11.58-17-18.22-27.69-18.22Z"/><path class="cls-99" d="M1826.49,1114c-57,3-107,16-130,48s-4,9,5,4-17,32-13,30,27-18,27-18-19,21-14,21,38-18,47-24,67.61-31.57,67.61-31.57l17.42-29.43Z"/><use width="60.33" height="69" transform="matrix(0.47, 0.88, -0.88, 0.47, 1795.15, 1066.61)" xlink:href="#Tx_2"/><g class="cls-100"><path class="cls-8" d="M1759.75,1047.18l1.73-.21c-.11,3.33-.13,5-.12,8.26q-.06,1.14,0,2.28c0,.75,0,1.51,0,2.26l.15,0q.89-1.22,1.82-2.43t1.82-2.43c2.79-3.5,4.27-5.24,7.42-8.69l1.73,0c-.12,3.38-.16,5.06-.18,8.39q0,2.32,0,4.62h.15q1.67-2.28,3.62-4.56c2.68-3.28,4.1-4.91,7.11-8.14l1.68.13a138.77,138.77,0,0,0-12,13.73l-1.94,0c-.06-3.84-.07-5.78,0-9.68q.06-.84.1-1.66t.16-1.69h-.16q-.66.88-1.4,1.71t-1.44,1.71c-3.44,4-5,6.05-8,10.11l-2,.21C1759.71,1055.58,1759.67,1052.8,1759.75,1047.18Z"/><path class="cls-8" d="M1791,1047.06a101,101,0,0,1,12.88,2.27l-.51.75a100.26,100.26,0,0,0-11.21-2c-1.2,2.13-1.78,3.2-2.89,5.32,3.76.47,5.61.78,9.25,1.54l-.46.75c-3.6-.75-5.43-1-9.14-1.51-1.28,2.46-1.89,3.68-3,6.13a91.38,91.38,0,0,1,10.8,1.79l-.42.75a90.91,90.91,0,0,0-12.18-1.93A147,147,0,0,1,1791,1047.06Z"/><path class="cls-8" d="M1808.89,1050.63a98.64,98.64,0,0,1,12.05,4.08l-.57.7a98,98,0,0,0-10.49-3.61c-1.4,2-2.07,3-3.38,5.08,3.53,1,5.27,1.58,8.66,2.85l-.53.71c-3.36-1.25-5.07-1.82-8.56-2.81-1.51,2.35-2.23,3.53-3.61,5.88a89.48,89.48,0,0,1,10.11,3.35l-.49.71a89,89,0,0,0-11.41-3.69A152.66,152.66,0,0,1,1808.89,1050.63Z"/><path class="cls-8" d="M1825.65,1056.71a97.92,97.92,0,0,1,11.1,5.73l-.63.65a97.39,97.39,0,0,0-9.65-5.05c-1.58,1.91-2.34,2.87-3.83,4.8,3.27,1.5,4.87,2.31,8,4.05l-.59.67c-3.08-1.72-4.66-2.52-7.88-4-1.72,2.22-2.55,3.34-4.14,5.58a89.21,89.21,0,0,1,9.3,4.76l-.55.67a88.71,88.71,0,0,0-10.51-5.29A156.88,156.88,0,0,1,1825.65,1056.71Z"/><path class="cls-8" d="M1841,1065.07a98.86,98.86,0,0,1,10,7.23l-.68.6a98.43,98.43,0,0,0-8.71-6.36c-1.74,1.77-2.58,2.67-4.24,4.46,3,1.95,4.41,3,7.21,5.14l-.64.62c-2.77-2.13-4.19-3.15-7.13-5.07-1.91,2.08-2.84,3.12-4.63,5.23a90.49,90.49,0,0,1,8.39,6l-.61.62a89.91,89.91,0,0,0-9.49-6.74C1834.44,1072.07,1836.54,1069.71,1841,1065.07Z"/></g><path class="cls-101" d="M1851.42,1124l1.56-.12,6.63,11.21,2.51,4.2h.12l.68-4.47,1.91-11.93,1.56-.14,3.89,19.06-1,.09-2.71-13.29q-.23-1.13-.47-2.46t-.42-2.52h-.12l-.68,4.3-2,12.34-1.14.1-6.89-11.6-2.41-4h-.12q.3,1.18.6,2.51t.53,2.45l2.71,13.29-.9.07Z"/><path class="cls-101" d="M1872.4,1122.16c4.25-.43,6.37-.65,10.61-1.13l.17.81c-3.86.43-5.79.64-9.65,1l1.57,7.68c3.24-.33,4.86-.5,8.1-.86l.17.81c-3.24.36-4.86.53-8.1.86l1.83,9c4-.4,6-.62,10-1.07l.17.81c-4.36.49-6.54.72-10.91,1.16Z"/><path class="cls-101" d="M1885.59,1120.73l1-.12,5,11.24,2.71,6.07h.12q0-1.6.11-3.21t.17-3.22c.35-4.78.52-7.17.87-12l1.08-.14,5.59,11.13,2.89,6,.12,0q0-1.61.05-3.21t0-3.21c.11-4.76.16-7.15.27-11.91l1-.13c-.26,7.88-.39,11.82-.65,19.69l-1,.13-6.62-13.19q-.5-1.09-1-2.07t-1-2.07l-.12,0q0,1.16-.13,2.21T1896,1125c-.39,5.67-.58,8.5-1,14.16l-1,.12Z"/><path class="cls-101" d="M1918.76,1132.64a8.64,8.64,0,0,0,3,1.54,7.8,7.8,0,0,0,3.45.21,6.9,6.9,0,0,0,2.08-.64,4.78,4.78,0,0,0,1.45-1.1,3.63,3.63,0,0,0,.78-1.45,3.73,3.73,0,0,0,0-1.74,4,4,0,0,0-.62-1.55,4,4,0,0,0-1-1,5.36,5.36,0,0,0-1.31-.64q-.72-.24-1.53-.44l-3.31-.85c-.45-.11-.94-.25-1.45-.43a7.15,7.15,0,0,1-1.48-.71,4.79,4.79,0,0,1-1.25-1.15,4.28,4.28,0,0,1-.76-1.78,4,4,0,0,1,.91-3.53,5.17,5.17,0,0,1,1.56-1.21,7,7,0,0,1,2.13-.68,7.2,7.2,0,0,1,3.28.18,8.67,8.67,0,0,1,2.54,1.21l-.46.73a7,7,0,0,0-2.35-1.14,6.65,6.65,0,0,0-2.82-.12,5.07,5.07,0,0,0-3.12,1.51,3.1,3.1,0,0,0-.73,2.84,3.3,3.3,0,0,0,.65,1.46,4.17,4.17,0,0,0,1.08.94,6,6,0,0,0,1.27.58q.66.21,1.24.36l3.31.85q.87.22,1.72.51a6.44,6.44,0,0,1,1.54.78,4.66,4.66,0,0,1,1.2,1.22,5,5,0,0,1,.73,1.83,4.52,4.52,0,0,1,0,2.08,4.69,4.69,0,0,1-.92,1.79,5.53,5.53,0,0,1-1.72,1.37,7.71,7.71,0,0,1-2.42.77,8.61,8.61,0,0,1-4-.22,9.83,9.83,0,0,1-3.16-1.66Z"/><path class="cls-101" d="M1931.76,1114.14l.95-.16,3.73,18.25c3.68-.63,5.52-1,9.19-1.63l.17.81c-4.05.74-6.08,1.1-10.14,1.79Z"/><path class="cls-101" d="M1945.4,1111.71l.95-.18,3.89,19.06-.95.18Z"/><path class="cls-101" d="M1952.26,1110.4l4.37-.86a10.56,10.56,0,0,1,4-.11,7.22,7.22,0,0,1,3.12,1.37,8.19,8.19,0,0,1,2.2,2.67,13.81,13.81,0,0,1,1.3,3.75,14.14,14.14,0,0,1,.28,4,8.26,8.26,0,0,1-1,3.35,7.48,7.48,0,0,1-2.33,2.53,9.93,9.93,0,0,1-3.75,1.5l-4.37.86Zm8,17.41a8.77,8.77,0,0,0,3.42-1.38,6.69,6.69,0,0,0,2.07-2.34,7.61,7.61,0,0,0,.83-3.08,13.48,13.48,0,0,0-.27-3.59,13.11,13.11,0,0,0-1.15-3.37,7.44,7.44,0,0,0-2-2.45,6.65,6.65,0,0,0-2.82-1.3,9.14,9.14,0,0,0-3.69.07l-3.31.66,3.56,17.44Z"/><path class="cls-101" d="M1970,1106.77c4.17-.9,6.25-1.37,10.41-2.32l.17.81c-3.78.87-5.67,1.29-9.47,2.11l1.57,7.68c3.18-.69,4.77-1,7.94-1.77l.17.81c-3.17.72-4.76,1.07-7.94,1.77l1.83,9c3.91-.85,5.86-1.29,9.76-2.18l.16.81c-4.27,1-6.41,1.46-10.7,2.39Z"/><path class="cls-101" d="M1992.1,1100.82a6.85,6.85,0,0,0-1.09,1.9,4,4,0,0,0-.06,2.11.65.65,0,0,1,.23-.09,1.19,1.19,0,0,1,.72.05.77.77,0,0,1,.47.63,1,1,0,0,1-.13.8,1.11,1.11,0,0,1-.67.42.94.94,0,0,1-.89-.22,2.1,2.1,0,0,1-.56-1.18,5,5,0,0,1,.1-2.65,6.42,6.42,0,0,1,1.31-2.18Z"/><path class="cls-101" d="M2007.33,1118.25a7,7,0,0,1-3.3.1,6.93,6.93,0,0,1-2.88-1.38,9.33,9.33,0,0,1-2.26-2.73,13.35,13.35,0,0,1-1.42-3.94,13.67,13.67,0,0,1-.25-4.22,10,10,0,0,1,1-3.5,8,8,0,0,1,2.07-2.59,7.72,7.72,0,0,1,3-1.5,7.28,7.28,0,0,1,3.28-.12,6.83,6.83,0,0,1,2.88,1.31,8.86,8.86,0,0,1,2.25,2.66,13.12,13.12,0,0,1,1.41,3.92,14,14,0,0,1,.25,4.24,10.57,10.57,0,0,1-1,3.56,8,8,0,0,1-2.07,2.66A7.54,7.54,0,0,1,2007.33,1118.25Zm-.18-.87a6.47,6.47,0,0,0,2.65-1.37,6.94,6.94,0,0,0,1.78-2.4,9.73,9.73,0,0,0,.8-3.23,13.56,13.56,0,0,0-.27-3.86,12.79,12.79,0,0,0-1.25-3.58,8.34,8.34,0,0,0-2-2.46,5.73,5.73,0,0,0-2.52-1.22,6.36,6.36,0,0,0-2.91.1,6.75,6.75,0,0,0-2.68,1.34A6.68,6.68,0,0,0,1999,1103a9.4,9.4,0,0,0-.81,3.18,13.32,13.32,0,0,0,.26,3.83,13,13,0,0,0,1.26,3.6,8.61,8.61,0,0,0,2,2.51,5.87,5.87,0,0,0,5.46,1.22Z"/><path class="cls-101" d="M2021.46,1094c4.08-1.15,6.12-1.73,10.2-2.93l.17.81c-3.7,1.09-5.56,1.62-9.27,2.67l1.64,8c3.13-.88,4.7-1.33,7.82-2.25l.17.81c-3.12.91-4.69,1.36-7.82,2.25l1.92,9.42-.93.26Z"/><path class="cls-101" d="M2035,1090l.92-.28,2.39,11.73a10.27,10.27,0,0,0,1.1,3.15,5,5,0,0,0,1.6,1.74,3.85,3.85,0,0,0,1.93.6,6.24,6.24,0,0,0,2.07-.28,7.07,7.07,0,0,0,2-1,5.09,5.09,0,0,0,1.5-1.65,6.42,6.42,0,0,0,.77-2.47,10.79,10.79,0,0,0-.22-3.42l-2.39-11.73.86-.27,2.44,12a10.88,10.88,0,0,1,.2,3.83,7.13,7.13,0,0,1-1,2.73,5.85,5.85,0,0,1-1.77,1.81,8.9,8.9,0,0,1-2.21,1,8.06,8.06,0,0,1-2.33.36,4.48,4.48,0,0,1-2.23-.58,5.59,5.59,0,0,1-1.9-1.85,10,10,0,0,1-1.29-3.49Z"/><path class="cls-101" d="M2053.21,1084.39l1-.32c4.49,4.51,6.74,6.75,11.22,11.22l2.94,3,.11,0q-.34-1.37-.64-2.67t-.57-2.66l-2.52-12.36.86-.29,3.89,19.06-1,.33c-4.48-4.46-6.72-6.7-11.21-11.2l-2.95-3-.11,0q.33,1.34.62,2.57t.56,2.59l2.56,12.53-.86.28Z"/></g><line class="cls-77" x1="1703.1" y1="487" x2="1833.49" y2="487"/><use width="54.33" height="63" transform="translate(1739.49 454)" xlink:href="#Tx"/><polyline class="cls-78" points="1840.54 467.91 1859.77 487.14 1839.32 507.59"/></g><g id="Steps_1_and_2" data-name="Steps 1 and 2"><line class="cls-77" x1="907.49" y1="489.06" x2="1037.49" y2="489.06"/><polyline class="cls-78" points="1043.54 469.97 1062.77 489.2 1042.32 509.65"/><use width="54.33" height="63" transform="translate(951.49 456.06)" xlink:href="#Tx"/><g id="MEW_computar_of_d00m" data-name="MEW computar of d00m"><rect class="cls-6" x="672.89" y="405.33" width="231.2" height="169.63" rx="33.35" ry="33.35"/><path class="cls-69" d="M870.75,410.33a28.43,28.43,0,0,1,28.35,28.35V541.61A28.43,28.43,0,0,1,870.75,570H706.24a28.43,28.43,0,0,1-28.35-28.35V438.68a28.43,28.43,0,0,1,28.35-28.35H870.75m0-10H706.24a38.39,38.39,0,0,0-38.35,38.35V541.61A38.39,38.39,0,0,0,706.24,580H870.75a38.39,38.39,0,0,0,38.35-38.35V438.68a38.39,38.39,0,0,0-38.35-38.35Z"/><polyline class="cls-102" points="788.49 573.14 788.49 610.14 834.49 610.14 744.49 610.14"/><g class="cls-103"><rect class="cls-104" x="677.49" y="405.14" width="222" height="34"/><rect class="cls-105" x="677.49" y="539.14" width="222" height="51"/></g><circle class="cls-105" cx="717.49" cy="470.14" r="6"/><circle class="cls-105" cx="717.49" cy="488.14" r="6"/><circle class="cls-105" cx="717.49" cy="506.14" r="6"/><line class="cls-106" x1="734.49" y1="470.14" x2="792.49" y2="470.14"/><line class="cls-106" x1="734.49" y1="488.64" x2="792.49" y2="488.64"/><line class="cls-106" x1="734.49" y1="506.64" x2="792.49" y2="506.64"/></g><path d="M603.33,449.43c0-.59,0-.88,0-1.47,4.89-1.46,7.34-2.1,12.27-3.23,2.66-.62,4-.9,6.66-1.42v-.14q-1.61-.53-3.22-1.13t-3.2-1.27c-4.72-2-7.05-3.16-11.66-5.56.07-.6.11-.9.19-1.51,5.07-1.14,7.61-1.61,12.68-2.36,2.73-.34,4.09-.48,6.82-.72l0-.14L620.85,429q-1.53-.72-3-1.5c-4.49-2.31-6.7-3.53-11.08-6.12.13-.51.19-.77.33-1.28a170.17,170.17,0,0,0,18.26,10.15c-.09.43-.13.65-.21,1.08a140.68,140.68,0,0,0-15,2.32q-1.23.19-2.33.41l-2.33.44,0,.17q1.13.52,2.14,1.06t2.15,1a149.24,149.24,0,0,0,13.93,6.05c0,.45,0,.68-.07,1.13A155.23,155.23,0,0,0,603.33,449.43Z"/><path d="M608.55,414.89l.4-1.25,19.11,6.19-.33,1Z"/><path d="M614.84,400.94c-1.45,3.13-2.12,4.73-3.34,8l-.8-.3a96.45,96.45,0,0,1,7.94-16.87l.74.42c-1.71,3-2.51,4.5-4,7.61L632.75,408l-.46,1Z"/><path d="M621.35,387.25l.7-1.08,7.5,4.87a89.73,89.73,0,0,1,8.19-11l-6.82-5.79.84-1,15.17,13.16-.69.81-7.84-6.65a89,89,0,0,0-8.13,10.91l8.63,5.6-.58.9Z"/><path d="M643,362l1.58-1.36a123.75,123.75,0,0,1,11.83,6.11c1.72,1,2.58,1.48,4.25,2.51l.11-.08c-.5-1.9-.74-2.85-1.18-4.78a122.29,122.29,0,0,1-2.26-13.13l1.78-1.11,10.44,17.16-.91.56L661.24,356q-.63-1-1.34-2.22t-1.3-2.31l-.14.08c.24,1.92.37,2.87.66,4.77a120.49,120.49,0,0,0,2.73,13.4l-1,.77a121.33,121.33,0,0,0-12-6.61c-1.73-.84-2.61-1.25-4.37-2l-.12.1q.87.9,1.81,1.93t1.71,1.94L657,376.44l-.75.65Z"/><path d="M666.16,346.19a96.32,96.32,0,0,1,13.16-5.81l.29.8a95.59,95.59,0,0,0-11.92,5.18l3.64,7.23a88.9,88.9,0,0,1,9.25-4.12l.31.79a88.19,88.19,0,0,0-9.17,4.09l4.24,8.43a80.36,80.36,0,0,1,10.34-4.47l.29.8a79.67,79.67,0,0,0-11.2,4.92Z"/><path d="M682.64,339.21l1.33-.43c2.87,4.19,4.23,6.33,6.82,10.65,1.41,2.33,2.09,3.51,3.41,5.87l.13,0q0-1.69,0-3.4t.15-3.43c.38-5.11.67-7.68,1.45-12.81l1.47-.29c2.7,4.44,4,6.7,6.3,11.26,1.2,2.48,1.78,3.72,2.88,6.23l.14,0q.2-1.68.4-3.36t.46-3.36c.77-5,1.23-7.48,2.32-12.45l1.36-.1a159.5,159.5,0,0,0-3.88,20.55l-1.11.15a148.21,148.21,0,0,0-7-13.48q-.57-1.1-1.13-2.08T697,336.6l-.16,0q-.13,1.24-.31,2.36t-.28,2.36a144.34,144.34,0,0,0-1.16,15.1l-1.06.28A169,169,0,0,0,682.64,339.21Z"/><path d="M716.93,352.56a1.07,1.07,0,0,1,.37-.92,1.49,1.49,0,0,1,1.81,0,1.07,1.07,0,0,1,.4.91,1,1,0,0,1-.39.85,1.47,1.47,0,0,1-1.78,0A1,1,0,0,1,716.93,352.56Zm.38-17.72,0-1.89,1.38,0v1.89c0,5.31,0,8-.05,13.27h-.9C717.56,342.8,717.47,340.15,717.3,334.84Z"/><text class="cls-52" transform="translate(115.11 472.5)">1. <tspan class="cls-85" x="35.88" y="0">Y</tspan><tspan x="52.44" y="0">ou </tspan><tspan class="cls-88" x="102.96" y="0">sign </tspan><tspan x="184.28" y="0">your t</tspan><tspan class="cls-68" x="277.39" y="0">r</tspan><tspan x="289.15" y="0">ansaction</tspan><tspan x="0" y="48">2. </tspan><tspan class="cls-85" x="35.88" y="48">Y</tspan><tspan x="52.44" y="48">ou </tspan><tspan class="cls-88" x="102.96" y="48">send </tspan><tspan x="195.52" y="48">your t</tspan><tspan class="cls-68" x="288.63" y="48">r</tspan><tspan x="300.39" y="48">ansaction</tspan></text><line class="cls-77" x1="343.49" y1="317" x2="343.49" y2="397"/><polyline class="cls-78" points="362.58 403.05 343.35 422.28 322.9 401.83"/><rect class="cls-2" x="229.49" y="284.57" width="226.77" height="85.04" rx="42.52" ry="42.52"/><text class="cls-107" transform="translate(261.26 337)"><tspan class="cls-51">S</tspan><tspan class="cls-108" x="16.32" y="0">T</tspan><tspan x="32.04" y="0">A</tspan><tspan class="cls-51" x="49.56" y="0">R</tspan><tspan x="67.86" y="0">T HERE</tspan></text></g></svg>