<svg id="Layer_1" data-name="Layer 1" xmlns="http://www.w3.org/2000/svg" xmlns:xlink="http://www.w3.org/1999/xlink" viewBox="0 0 381.67 171.59"><defs><style>.cls-1,.cls-4{fill:none;}.cls-1{stroke:#c4c4c4;stroke-miterlimit:10;}.cls-2{fill:#9a9a9b;}.cls-3,.cls-5{fill:#c4c4c4;}.cls-4{stroke-linejoin:round;stroke-width:2px;stroke:url(#linear-gradient);}.cls-5{font-size:5px;font-family:RobotoSlab-Regular, Roboto Slab;}.cls-6{letter-spacing:-0.01em;}.cls-7{letter-spacing:0em;}</style><linearGradient id="linear-gradient" x1="210.6" y1="-0.31" x2="210.6" y2="151.97" gradientUnits="userSpaceOnUse"><stop offset="0" stop-color="#1dc7a2"/><stop offset="1" stop-color="#0e5f99"/></linearGradient></defs><title>ethregret</title><line class="cls-1" x1="78.35" y1="143.68" x2="332.25" y2="143.68"/><path class="cls-2" d="M108.24,49.15a3.91,3.91,0,0,1,2.7.88,3.17,3.17,0,0,1,0,4.6,3.94,3.94,0,0,1-2.7.87h-1.68V57.7l1.07.21v1.2H103.5v-1.2l1.06-.21V50.56l-1.06-.21v-1.2h4.74ZM106.56,54h1.68a1.65,1.65,0,0,0,1.26-.45,1.63,1.63,0,0,0,.43-1.16,1.69,1.69,0,0,0-.43-1.19,1.62,1.62,0,0,0-1.26-.47h-1.68Z"/><path class="cls-2" d="M112.55,57.91l1-.21V53.12l-1.07-.21v-1.2h3.06v6l1,.21v1.2h-3.92Zm3-8h-2v-1.5h2Z"/><path class="cls-2" d="M119.77,57.57h2.06l.08-1h1.52V59.1h-6.15V57.93l3.52-4.68H119l-.08,1h-1.53V51.71h5.92v1.14Z"/><path class="cls-2" d="M127.08,57.57h2.06l.08-1h1.52V59.1h-6.15V57.93l3.52-4.68h-1.81l-.08,1h-1.53V51.71h5.92v1.14Z"/><path class="cls-2" d="M136.46,59.1a3.69,3.69,0,0,1-.14-.38,3.08,3.08,0,0,1-.1-.39,2.75,2.75,0,0,1-.86.66,2.58,2.58,0,0,1-1.17.25,2.44,2.44,0,0,1-1.73-.59,2.09,2.09,0,0,1-.64-1.61,1.83,1.83,0,0,1,.83-1.61,4.36,4.36,0,0,1,2.45-.57h1v-.72a1.09,1.09,0,0,0-.31-.83,1.27,1.27,0,0,0-.91-.29,2.14,2.14,0,0,0-.61.08,1.56,1.56,0,0,0-.43.19l-.13.79h-1.5V52.45a5.62,5.62,0,0,1,1.25-.62,4.54,4.54,0,0,1,1.54-.25,3.51,3.51,0,0,1,2.23.67,2.29,2.29,0,0,1,.86,1.92v3.06c0,.11,0,.22,0,.32a2.31,2.31,0,0,0,0,.29l.61.08v1.2Zm-1.73-1.33a1.74,1.74,0,0,0,.82-.19,1.59,1.59,0,0,0,.57-.49V56h-1a1.4,1.4,0,0,0-1,.3.93.93,0,0,0-.33.71.74.74,0,0,0,.24.59A1,1,0,0,0,134.73,57.77Z"/><path class="cls-2" d="M151.07,58a4.43,4.43,0,0,1-1.42.87,6.18,6.18,0,0,1-2.35.39A4.29,4.29,0,0,1,144,57.9a4.92,4.92,0,0,1-1.26-3.51V54A5.27,5.27,0,0,1,144,50.41a4.15,4.15,0,0,1,3.26-1.4,5.91,5.91,0,0,1,2.14.37,4.61,4.61,0,0,1,1.61,1v2h-1.48l-.28-1.33a2,2,0,0,0-.72-.37,3.44,3.44,0,0,0-1-.14,2.39,2.39,0,0,0-2,1,4.09,4.09,0,0,0-.72,2.52v.36a3.82,3.82,0,0,0,.71,2.42,2.45,2.45,0,0,0,2.05.91,3.78,3.78,0,0,0,1-.1,2.15,2.15,0,0,0,.58-.24V55.69l-1.42-.11v-1.4h3.42Z"/><path class="cls-2" d="M157.3,58.17a2.4,2.4,0,0,1-2.07,1.08,2.32,2.32,0,0,1-1.83-.75,3.44,3.44,0,0,1-.66-2.33V53.12l-.81-.21v-1.2h2.81v4.48a1.93,1.93,0,0,0,.27,1.16,1,1,0,0,0,.8.35,2,2,0,0,0,.82-.15,1.42,1.42,0,0,0,.56-.44v-4l-.87-.21v-1.2h2.87v6l.9.21v1.2h-2.65Z"/><path class="cls-2" d="M168.13,52.91l-.69.1-2.72,7.2a4,4,0,0,1-.86,1.34,2.19,2.19,0,0,1-1.62.54,2.62,2.62,0,0,1-.48,0l-.52-.12.23-1.46.2,0h.18a1.1,1.1,0,0,0,.77-.24,1.6,1.6,0,0,0,.41-.6l.23-.56L160.91,53l-.69-.11v-1.2h3.62v1.2L163,53l1,3,.1.53h0L165.34,53l-.83-.14v-1.2h3.62Z"/><path class="cls-2" d="M176.61,49.15a4.13,4.13,0,0,1,2.66.78,2.6,2.6,0,0,1,1,2.14,2.16,2.16,0,0,1-.4,1.31,2.82,2.82,0,0,1-1.18.9,2.15,2.15,0,0,1,1.27.86,2.74,2.74,0,0,1,.39,1.5v.51a.86.86,0,0,0,.13.51.58.58,0,0,0,.43.22l.25,0v1.2h-1a1.62,1.62,0,0,1-1.37-.53,2.2,2.2,0,0,1-.4-1.36v-.57a1.6,1.6,0,0,0-.39-1.14,1.48,1.48,0,0,0-1.09-.43H175.2V57.7l1.07.21v1.2h-4.12v-1.2l1.06-.21V50.56l-1.06-.21v-1.2h4.47Zm-1.42,4.39h1.38a1.89,1.89,0,0,0,1.25-.36,1.27,1.27,0,0,0,.42-1,1.42,1.42,0,0,0-.41-1.07,1.69,1.69,0,0,0-1.22-.4H175.2Z"/><path class="cls-2" d="M185.36,59.25a3.33,3.33,0,0,1-2.56-1,3.67,3.67,0,0,1-1-2.6v-.27a4,4,0,0,1,.91-2.71,3.38,3.38,0,0,1,4.75-.16,3.47,3.47,0,0,1,.83,2.44V56h-4.42v0a1.93,1.93,0,0,0,.49,1.2,1.52,1.52,0,0,0,1.18.47,3.8,3.8,0,0,0,1.1-.13,5,5,0,0,0,1-.42l.54,1.23A3.93,3.93,0,0,1,187,59,5,5,0,0,1,185.36,59.25Zm-.18-6.14a1,1,0,0,0-.87.42,2.21,2.21,0,0,0-.4,1.11l0,0h2.45V54.5a1.6,1.6,0,0,0-.3-1A1.07,1.07,0,0,0,185.18,53.11Z"/><path class="cls-2" d="M189.4,55.47a4.77,4.77,0,0,1,.76-2.82,2.47,2.47,0,0,1,2.14-1.07,2.11,2.11,0,0,1,1.09.28,2.43,2.43,0,0,1,.81.79l.14-.93h1.74v7.18a3.06,3.06,0,0,1-.92,2.33,3.52,3.52,0,0,1-2.53.87,5.07,5.07,0,0,1-1.19-.15,5.58,5.58,0,0,1-1.16-.42l.37-1.4a6.25,6.25,0,0,0,1,.32,4.14,4.14,0,0,0,1,.12,1.33,1.33,0,0,0,1.09-.44,1.91,1.91,0,0,0,.36-1.24v-.49a2.22,2.22,0,0,1-.77.64,2.28,2.28,0,0,1-1,.22,2.52,2.52,0,0,1-2.12-1,4.24,4.24,0,0,1-.76-2.64Zm2,.14a3,3,0,0,0,.33,1.53,1.14,1.14,0,0,0,1.07.56,1.64,1.64,0,0,0,.78-.17,1.28,1.28,0,0,0,.51-.49V53.83a1.37,1.37,0,0,0-.51-.52,1.49,1.49,0,0,0-.76-.18,1.13,1.13,0,0,0-1.07.65,3.67,3.67,0,0,0-.34,1.7Z"/><path class="cls-2" d="M197.42,57.91l1-.21V53.12l-1.06-.21v-1.2h2.92l.09,1.08a2.33,2.33,0,0,1,.67-.9,1.5,1.5,0,0,1,1-.32l.33,0,.29.06-.21,1.82-.82,0a1.4,1.4,0,0,0-.72.17,1.1,1.1,0,0,0-.44.49v3.6l1,.21v1.2h-3.91Z"/><path class="cls-2" d="M206.58,59.25a3.33,3.33,0,0,1-2.56-1,3.67,3.67,0,0,1-1-2.6v-.27a4,4,0,0,1,.91-2.71,3.38,3.38,0,0,1,4.75-.16,3.47,3.47,0,0,1,.83,2.44V56h-4.42v0a1.93,1.93,0,0,0,.49,1.2,1.52,1.52,0,0,0,1.18.47,3.8,3.8,0,0,0,1.1-.13,5,5,0,0,0,1-.42l.54,1.23a3.93,3.93,0,0,1-1.19.61A5,5,0,0,1,206.58,59.25Zm-.18-6.14a1,1,0,0,0-.87.42,2.21,2.21,0,0,0-.4,1.11l0,0h2.45V54.5a1.6,1.6,0,0,0-.3-1A1.07,1.07,0,0,0,206.4,53.11Z"/><path class="cls-2" d="M213.44,49.9v1.81h1.3v1.4h-1.3v3.77a.87.87,0,0,0,.18.62.63.63,0,0,0,.48.18l.36,0,.35-.06L215,59a4.65,4.65,0,0,1-.66.15,4.49,4.49,0,0,1-.71.05,2.13,2.13,0,0,1-1.59-.57,2.49,2.49,0,0,1-.56-1.8V53.11h-1.09v-1.4h1.09V49.9Z"/><path class="cls-2" d="M219.15,55.34a4,4,0,0,1,.93-2.71,3.64,3.64,0,0,1,5.13,0,4,4,0,0,1,.93,2.71v.14a4,4,0,0,1-.93,2.72,3.65,3.65,0,0,1-5.13,0,4,4,0,0,1-.93-2.72Zm2,.14a3.21,3.21,0,0,0,.36,1.62,1.37,1.37,0,0,0,2.28,0,3.2,3.2,0,0,0,.36-1.62v-.14a3.16,3.16,0,0,0-.36-1.61,1.23,1.23,0,0,0-1.14-.62,1.21,1.21,0,0,0-1.13.62,3.22,3.22,0,0,0-.36,1.61Z"/><path class="cls-2" d="M230,52.91l-.7.13,1,3.31.13.7h0l.14-.7,1-3.3-.71-.14v-1.2h3.36v1.2l-.64.1-2.18,6.09H229.5L227.32,53l-.64-.1v-1.2H230Z"/><path class="cls-2" d="M238.32,59.25a3.33,3.33,0,0,1-2.56-1,3.67,3.67,0,0,1-1-2.6v-.27a4,4,0,0,1,.91-2.71,3.38,3.38,0,0,1,4.75-.16,3.47,3.47,0,0,1,.83,2.44V56h-4.42v0a1.93,1.93,0,0,0,.49,1.2,1.52,1.52,0,0,0,1.18.47,3.8,3.8,0,0,0,1.1-.13,5,5,0,0,0,1-.42l.54,1.23a3.93,3.93,0,0,1-1.19.61A5,5,0,0,1,238.32,59.25Zm-.18-6.14a1,1,0,0,0-.87.42,2.21,2.21,0,0,0-.4,1.11l0,0h2.45V54.5a1.6,1.6,0,0,0-.3-1A1.07,1.07,0,0,0,238.14,53.11Z"/><path class="cls-2" d="M242.39,57.91l1-.21V53.12l-1.06-.21v-1.2h2.92l.09,1.08a2.33,2.33,0,0,1,.67-.9,1.5,1.5,0,0,1,1-.32l.33,0,.29.06-.21,1.82-.82,0a1.4,1.4,0,0,0-.72.17,1.1,1.1,0,0,0-.44.49v3.6l1,.21v1.2h-3.91Z"/><path class="cls-2" d="M260.28,49.15V51.8h-1.53l-.08-1.11h-1.83v7l1.07.21v1.2h-4.13v-1.2l1.07-.21v-7H253l-.08,1.11h-1.52V49.15Z"/><path class="cls-2" d="M260.91,57.91l1-.21V53.12l-1.07-.21v-1.2h3.06v6l1,.21v1.2h-3.92Zm3-8h-2v-1.5h2Z"/><path class="cls-2" d="M265.26,52.91v-1.2h2.92l.08,1a2.48,2.48,0,0,1,.89-.82,2.56,2.56,0,0,1,1.24-.29,2.26,2.26,0,0,1,1.22.31,1.94,1.94,0,0,1,.77,1,2.57,2.57,0,0,1,.89-.93,2.41,2.41,0,0,1,1.29-.33,2.13,2.13,0,0,1,1.73.76,3.52,3.52,0,0,1,.63,2.3V57.7l1,.21v1.2H274v-1.2l.86-.21V54.62a1.87,1.87,0,0,0-.27-1.17,1,1,0,0,0-.81-.33,1.39,1.39,0,0,0-.73.19,1.36,1.36,0,0,0-.5.52c0,.09,0,.16,0,.22s0,.13,0,.19V57.7l.81.21v1.2h-3.6v-1.2l.81-.21V54.62a1.87,1.87,0,0,0-.27-1.16,1,1,0,0,0-.82-.34,1.56,1.56,0,0,0-.71.15,1.37,1.37,0,0,0-.5.43v4l.86.21v1.2h-3.81v-1.2l1-.21V53.12Z"/><path class="cls-2" d="M282,59.25a3.33,3.33,0,0,1-2.56-1,3.67,3.67,0,0,1-1-2.6v-.27a4,4,0,0,1,.91-2.71,3.38,3.38,0,0,1,4.75-.16,3.47,3.47,0,0,1,.83,2.44V56h-4.42v0a1.93,1.93,0,0,0,.49,1.2,1.52,1.52,0,0,0,1.18.47,3.8,3.8,0,0,0,1.1-.13,5,5,0,0,0,1-.42l.54,1.23a3.93,3.93,0,0,1-1.19.61A5,5,0,0,1,282,59.25Zm-.18-6.14a1,1,0,0,0-.87.42,2.21,2.21,0,0,0-.4,1.11l0,0H283V54.5a1.6,1.6,0,0,0-.3-1A1.07,1.07,0,0,0,281.81,53.11Z"/><path class="cls-3" d="M183.69,162.29v-.48l1.7-1.88a4.76,4.76,0,0,0,.62-.81,1.27,1.27,0,0,0,.16-.61,1,1,0,0,0-.23-.65.75.75,0,0,0-.6-.26,1,1,0,0,0-.79.27,1.1,1.1,0,0,0-.25.78h-.67v0a1.46,1.46,0,0,1,.44-1.12,1.74,1.74,0,0,1,1.28-.46,1.52,1.52,0,0,1,1.11.41,1.39,1.39,0,0,1,.41,1,1.65,1.65,0,0,1-.25.85,5.51,5.51,0,0,1-.71.91l-1.36,1.48v0h1.84l.06-.59H187v1.14Z"/><path class="cls-3" d="M191.09,160.32a2.31,2.31,0,0,1-.44,1.52,1.64,1.64,0,0,1-2.41,0,2.3,2.3,0,0,1-.44-1.52v-1.23a2.32,2.32,0,0,1,.44-1.52,1.48,1.48,0,0,1,1.2-.53,1.49,1.49,0,0,1,1.21.53,2.31,2.31,0,0,1,.44,1.52Zm-.7-1.38a1.74,1.74,0,0,0-.24-1,.82.82,0,0,0-.71-.34.81.81,0,0,0-.7.34,1.74,1.74,0,0,0-.24,1v1.52a1.75,1.75,0,0,0,.25,1,.9.9,0,0,0,1.41,0,1.77,1.77,0,0,0,.24-1Z"/><path class="cls-3" d="M191.94,161.84l.8-.1v-3.88h-.81v-.44l1.51-.33v4.63l.8.1v.45h-2.3Z"/><path class="cls-3" d="M195.8,159.38h.61a.81.81,0,0,0,.66-.23,1,1,0,0,0,.19-.65.94.94,0,0,0-.22-.68.86.86,0,0,0-.65-.23.9.9,0,0,0-.66.24.85.85,0,0,0-.25.64h-.67v0a1.25,1.25,0,0,1,.42-1,1.63,1.63,0,0,1,1.16-.41,1.65,1.65,0,0,1,1.15.38,1.39,1.39,0,0,1,.43,1.09,1.24,1.24,0,0,1-.77,1.12,1.14,1.14,0,0,1,.66.48,1.41,1.41,0,0,1,.19.73,1.4,1.4,0,0,1-.46,1.11,1.73,1.73,0,0,1-1.19.41,1.78,1.78,0,0,1-1.17-.38,1.23,1.23,0,0,1-.44-1v0h.67a.86.86,0,0,0,.25.65,1,1,0,0,0,.69.24,1,1,0,0,0,.7-.24.94.94,0,0,0,.25-.71,1,1,0,0,0-.22-.71,1,1,0,0,0-.71-.23h-.61Z"/><path class="cls-3" d="M10.29,146.59A1.62,1.62,0,0,1,9,146.06a2,2,0,0,1-.47-1.39v-.16A2,2,0,0,1,9,143.15a1.51,1.51,0,0,1,1.16-.54,1.46,1.46,0,0,1,1.17.47,1.86,1.86,0,0,1,.4,1.25v.44H9.26v0a1.52,1.52,0,0,0,.28.91.89.89,0,0,0,.76.36,1.77,1.77,0,0,0,.62-.1,1.42,1.42,0,0,0,.46-.28l.27.46a1.67,1.67,0,0,1-.55.34A2.17,2.17,0,0,1,10.29,146.59Zm-.11-3.44a.76.76,0,0,0-.6.3,1.41,1.41,0,0,0-.31.74v0h1.77v-.09a1.07,1.07,0,0,0-.22-.69A.78.78,0,0,0,10.18,143.15Z"/><path class="cls-3" d="M13.72,143.12l-.46.07.79,2.19.06.28h0l.07-.28L15,143.2l-.47-.07v-.45H16v.45l-.32.05-1.29,3.34h-.53l-1.3-3.34-.32-.05v-.45h1.49Z"/><path class="cls-3" d="M18.17,146.59a1.62,1.62,0,0,1-1.28-.53,2,2,0,0,1-.47-1.39v-.16a2,2,0,0,1,.49-1.37,1.51,1.51,0,0,1,1.16-.54,1.46,1.46,0,0,1,1.17.47,1.86,1.86,0,0,1,.4,1.25v.44h-2.5v0a1.52,1.52,0,0,0,.28.91.89.89,0,0,0,.76.36,1.77,1.77,0,0,0,.62-.1,1.42,1.42,0,0,0,.46-.28l.27.46a1.67,1.67,0,0,1-.55.34A2.17,2.17,0,0,1,18.17,146.59Zm-.11-3.44a.76.76,0,0,0-.6.3,1.41,1.41,0,0,0-.31.74v0h1.77v-.09a1.07,1.07,0,0,0-.22-.69A.78.78,0,0,0,18.06,143.15Z"/><path class="cls-3" d="M20.33,143.12v-.45h1.21l.07.56a1.34,1.34,0,0,1,.4-.46.94.94,0,0,1,.55-.17h.17l.13,0-.09.65-.4,0a.8.8,0,0,0-.47.13.84.84,0,0,0-.29.36V146l.58.1v.45H20.33v-.45l.58-.1v-2.75Z"/><path class="cls-3" d="M27.06,143.12l-.34.05-1.46,3.93a2,2,0,0,1-.42.68,1,1,0,0,1-.74.29l-.21,0-.2,0,.07-.55h.31a.43.43,0,0,0,.36-.19,2.12,2.12,0,0,0,.24-.45l.17-.4-1.27-3.26-.35-.06v-.45h1.55v.45l-.43.07.66,1.9.13.49h0l.8-2.39-.44-.07v-.45h1.55Z"/><path class="cls-3" d="M28.76,141.75v.93h.73v.52h-.73v2.33a.52.52,0,0,0,.11.38.41.41,0,0,0,.3.11l.21,0,.19,0,.1.48a.89.89,0,0,1-.29.11,1.9,1.9,0,0,1-.38,0,.91.91,0,0,1-.68-.26,1.12,1.12,0,0,1-.25-.81v-2.33h-.61v-.52h.61v-.93Z"/><path class="cls-3" d="M30.1,146.07l.58-.1v-4.45l-.58-.1V141h1.28v2.21a1.41,1.41,0,0,1,.49-.43,1.35,1.35,0,0,1,.64-.15,1.24,1.24,0,0,1,1,.37,1.63,1.63,0,0,1,.34,1.14V146l.58.1v.45H32.53v-.45l.58-.1V144.1a1,1,0,0,0-.2-.7.78.78,0,0,0-.61-.23,1,1,0,0,0-.52.14,1.15,1.15,0,0,0-.39.37V146l.58.1v.45H30.1Z"/><path class="cls-3" d="M34.9,146.07l.58-.1v-2.75l-.58-.1v-.45h1.28V146l.58.1v.45H34.9Zm1.28-4.38h-.7V141h.7Z"/><path class="cls-3" d="M37.19,146.07l.58-.1v-2.75l-.58-.1v-.45h1.21l0,.57a1.4,1.4,0,0,1,.48-.47,1.28,1.28,0,0,1,.66-.17,1.25,1.25,0,0,1,1,.36,1.6,1.6,0,0,1,.34,1.13V146l.58.1v.45H39.61v-.45l.58-.1v-1.87a1,1,0,0,0-.2-.72.81.81,0,0,0-.61-.21,1,1,0,0,0-.54.15,1.07,1.07,0,0,0-.37.4V146l.58.1v.45H37.19Z"/><path class="cls-3" d="M41.94,144.67a2.53,2.53,0,0,1,.41-1.5,1.3,1.3,0,0,1,1.12-.57,1.36,1.36,0,0,1,.64.14,1.26,1.26,0,0,1,.46.41l.06-.48h.59v3.8a1.61,1.61,0,0,1-.42,1.17,1.57,1.57,0,0,1-1.18.43A2.58,2.58,0,0,1,43,148a2.36,2.36,0,0,1-.57-.21l.18-.54a2.28,2.28,0,0,0,1,.24.84.84,0,0,0,.69-.26,1.14,1.14,0,0,0,.22-.75v-.37a1.24,1.24,0,0,1-.45.37,1.4,1.4,0,0,1-.6.12,1.34,1.34,0,0,1-1.11-.51,2.1,2.1,0,0,1-.41-1.34Zm.7.07a1.6,1.6,0,0,0,.25.93.85.85,0,0,0,.75.35.93.93,0,0,0,.53-.14,1.1,1.1,0,0,0,.35-.41V143.7a1.1,1.1,0,0,0-.35-.39.93.93,0,0,0-.52-.14.82.82,0,0,0-.75.42,2.09,2.09,0,0,0-.25,1.08Z"/><path class="cls-3" d="M47.87,146.07l.58-.1v-2.75l-.58-.1v-.45h1.28V146l.58.1v.45H47.87Zm1.28-4.38h-.7V141h.7Z"/><path class="cls-3" d="M53.21,143.88h-.53l-.11-.46a.94.94,0,0,0-.32-.19,1.26,1.26,0,0,0-.44-.07.81.81,0,0,0-.55.16.51.51,0,0,0-.18.39.44.44,0,0,0,.16.36,1.65,1.65,0,0,0,.65.23,2.81,2.81,0,0,1,1.08.42.86.86,0,0,1,.36.72,1,1,0,0,1-.41.83,1.74,1.74,0,0,1-1.08.32,2.82,2.82,0,0,1-.79-.1,2.09,2.09,0,0,1-.62-.29v-.88h.53l.13.52a.73.73,0,0,0,.33.16,1.82,1.82,0,0,0,.42,0,1,1,0,0,0,.58-.15.47.47,0,0,0,.21-.4.48.48,0,0,0-.18-.38,1.65,1.65,0,0,0-.67-.26,2.79,2.79,0,0,1-1.06-.42.84.84,0,0,1-.36-.71,1,1,0,0,1,.4-.8,1.58,1.58,0,0,1,1-.33,2.51,2.51,0,0,1,.79.11,1.64,1.64,0,0,1,.58.32Z"/><path class="cls-3" d="M55.79,144.56a2.12,2.12,0,0,1,.46-1.41,1.71,1.71,0,0,1,2.51,0,2.11,2.11,0,0,1,.46,1.41v.08a2.11,2.11,0,0,1-.46,1.41,1.72,1.72,0,0,1-2.52,0,2.11,2.11,0,0,1-.46-1.41Zm.7.08a1.82,1.82,0,0,0,.26,1,.93.93,0,0,0,1.52,0,1.82,1.82,0,0,0,.26-1v-.08a1.82,1.82,0,0,0-.26-1,.85.85,0,0,0-.76-.4.84.84,0,0,0-.76.4,1.84,1.84,0,0,0-.26,1Z"/><path class="cls-3" d="M59.7,141.43V141H61v3.21h.45l.82-1-.35,0v-.45h1.61v.45l-.47.09-1,1.21L63.26,146l.44.08v.45H62.1v-.45l.36,0-1-1.28H61V146l.58.1v.45H59.7v-.45l.58-.1v-4.45Z"/><path class="cls-3" d="M66.73,146.52q0-.16,0-.28c0-.08,0-.17,0-.25a1.7,1.7,0,0,1-.51.43,1.45,1.45,0,0,1-1.56-.12,1.08,1.08,0,0,1-.31-.83,1,1,0,0,1,.44-.84,2.16,2.16,0,0,1,1.21-.3h.72v-.45a.69.69,0,0,0-.21-.54.84.84,0,0,0-.59-.2,1.46,1.46,0,0,0-.46.07.87.87,0,0,0-.33.18l-.07.41h-.54v-.75a2.08,2.08,0,0,1,.64-.34,2.52,2.52,0,0,1,.81-.13,1.61,1.61,0,0,1,1.06.33,1.17,1.17,0,0,1,.41,1v1.85s0,.1,0,.15,0,.09,0,.14l.28,0v.45ZM65.6,146a1.24,1.24,0,0,0,.64-.17,1,1,0,0,0,.41-.4v-.63h-.75a1.06,1.06,0,0,0-.68.2.6.6,0,0,0-.25.48.48.48,0,0,0,.16.39A.71.71,0,0,0,65.6,146Z"/><path class="cls-3" d="M71.83,143.12l-.34.05L70,147.11a2,2,0,0,1-.42.68,1,1,0,0,1-.74.29l-.21,0-.2,0,.07-.55h.31a.43.43,0,0,0,.36-.19,2.12,2.12,0,0,0,.24-.45l.17-.4-1.27-3.26-.35-.06v-.45h1.55v.45l-.43.07.66,1.9.13.49h0l.8-2.39-.44-.07v-.45h1.55Z"/><path class="cls-3" d="M44.53,108.92v-.52h.6v-.49a1.32,1.32,0,0,1,.32-1,1.18,1.18,0,0,1,.9-.34l.24,0,.27.05-.09.53-.15,0h-.19a.56.56,0,0,0-.46.18.82.82,0,0,0-.15.53v.49h.8v.52h-.8v2.78l.58.1v.45H44.55v-.45l.58-.1v-2.78Z"/><path class="cls-3" d="M47.12,108.92v-.52h.6v-.49a1.32,1.32,0,0,1,.32-1,1.18,1.18,0,0,1,.9-.34l.24,0,.27.05-.09.53-.15,0H49a.56.56,0,0,0-.46.18.82.82,0,0,0-.15.53v.49h.8v.52h-.8v2.78l.58.1v.45H47.14v-.45l.58-.1v-2.78Z"/><path class="cls-3" d="M49.7,108.92v-.52h.6v-.49a1.32,1.32,0,0,1,.32-1,1.18,1.18,0,0,1,.9-.34l.24,0,.27.05-.09.53-.15,0h-.19a.56.56,0,0,0-.46.18.82.82,0,0,0-.15.53v.49h.8v.52H51v2.78l.58.1v.45H49.73v-.45l.58-.1v-2.78Z"/><path class="cls-3" d="M52.29,108.92v-.52h.6v-.49a1.32,1.32,0,0,1,.32-1,1.18,1.18,0,0,1,.9-.34l.24,0,.27.05-.09.53-.15,0H54.2a.56.56,0,0,0-.46.18.82.82,0,0,0-.15.53v.49h.8v.52h-.8v2.78l.58.1v.45H52.31v-.45l.58-.1v-2.78Z"/><path class="cls-3" d="M54.88,108.92v-.52h.6v-.49a1.32,1.32,0,0,1,.32-1,1.18,1.18,0,0,1,.9-.34l.24,0,.27.05-.09.53-.15,0h-.19a.56.56,0,0,0-.46.18.82.82,0,0,0-.15.53v.49H57v.52h-.8v2.78l.58.1v.45H54.9v-.45l.58-.1v-2.78Z"/><path class="cls-3" d="M57.47,108.92v-.52h.6v-.49a1.32,1.32,0,0,1,.32-1,1.18,1.18,0,0,1,.9-.34l.24,0,.27.05-.09.53-.15,0h-.19a.56.56,0,0,0-.46.18.82.82,0,0,0-.15.53v.49h.8v.52h-.8v2.78l.58.1v.45H57.49v-.45l.58-.1v-2.78Z"/><path class="cls-3" d="M60.06,108.92v-.52h.6v-.49a1.32,1.32,0,0,1,.32-1,1.18,1.18,0,0,1,.9-.34l.24,0,.27.05-.09.53-.15,0H62a.56.56,0,0,0-.46.18.82.82,0,0,0-.15.53v.49h.8v.52h-.8v2.78l.58.1v.45H60.08v-.45l.58-.1v-2.78Z"/><path class="cls-3" d="M62.64,108.92v-.52h.6v-.49a1.32,1.32,0,0,1,.32-1,1.18,1.18,0,0,1,.9-.34l.24,0,.27.05-.09.53-.15,0h-.19a.56.56,0,0,0-.46.18.82.82,0,0,0-.15.53v.49h.8v.52h-.8v2.78l.58.1v.45H62.66v-.45l.58-.1v-2.78Z"/><path class="cls-3" d="M66.2,112.24h-.7v-.72h.7Z"/><path class="cls-3" d="M68,112.24h-.7v-.72H68Z"/><path class="cls-3" d="M69.7,112.24H69v-.72h.7Z"/><path class="cls-3" d="M71.46,112.24h-.7v-.72h.7Z"/><path class="cls-3" d="M56.69,77.52l.58-.1V73.34l-.58-.1v-.45h4V74h-.6L60,73.34H58v1.79h2v.55H58v1.74l.58.1V78H56.69Z"/><path class="cls-3" d="M66.27,73.82h0L64.58,78h-.47l-1.67-4.14h0l.07,2.09v1.5l.58.1V78H61.21v-.45l.58-.1V73.34l-.58-.1v-.45h1.48L64.34,77h0L66,72.79h1.48v.45l-.58.1v4.08l.58.1V78H65.62v-.45l.58-.1v-1.5Z"/><path class="cls-3" d="M68,78v-.45l.58-.1V73.34l-.58-.1v-.45h1.86v.45l-.58.1v4.08h1.8l.05-.59h.6V78Z"/><path class="cls-3" d="M319.09,162.29v-.48l1.7-1.88a4.76,4.76,0,0,0,.62-.81,1.27,1.27,0,0,0,.16-.61,1,1,0,0,0-.23-.65.75.75,0,0,0-.6-.26,1,1,0,0,0-.79.27,1.1,1.1,0,0,0-.25.78H319v0a1.46,1.46,0,0,1,.44-1.12,1.74,1.74,0,0,1,1.28-.46,1.52,1.52,0,0,1,1.11.41,1.39,1.39,0,0,1,.41,1,1.65,1.65,0,0,1-.25.85,5.51,5.51,0,0,1-.71.91l-1.36,1.48v0h1.84l.06-.59h.59v1.14Z"/><path class="cls-3" d="M326.49,160.32a2.31,2.31,0,0,1-.44,1.52,1.64,1.64,0,0,1-2.41,0,2.3,2.3,0,0,1-.44-1.52v-1.23a2.32,2.32,0,0,1,.44-1.52,1.48,1.48,0,0,1,1.2-.53,1.49,1.49,0,0,1,1.21.53,2.31,2.31,0,0,1,.44,1.52Zm-.7-1.38a1.74,1.74,0,0,0-.24-1,.82.82,0,0,0-.71-.34.81.81,0,0,0-.7.34,1.74,1.74,0,0,0-.24,1v1.52a1.75,1.75,0,0,0,.25,1,.9.9,0,0,0,1.41,0,1.77,1.77,0,0,0,.24-1Z"/><path class="cls-3" d="M327.35,161.84l.8-.1v-3.88h-.81v-.44l1.51-.33v4.63l.8.1v.45h-2.3Z"/><path class="cls-3" d="M333.68,157.67a7.28,7.28,0,0,0-1.27,2,8.82,8.82,0,0,0-.47,2.09l-.06.56h-.7l.06-.56a7.61,7.61,0,0,1,.58-2.19,8.43,8.43,0,0,1,1.18-1.88h-2.16l-.05.59h-.6v-1.14h3.5Z"/><path class="cls-4" d="M88.06,150.06l13,.91,6.14-4.63L117,151l7.66-4.63L132.2,151l5.76-3.34,7.13-.46s6.37-4.1,6.37-4.55,5.76,4.17,5.76,4.17L165,131.1l8.34,3.19,5.31-14,3.64,3.79,9.56-43.68,4.85,21.08s2.73,8.8,3.64,9.71,15.77,6.07,15.77,6.07l10.52-10.62s10.72,15.37,11.32,15.37S246,108.5,246,108.5l11.93,5.06,18.2-42.67,12.13,12.54s7.88-20.23,8.48-20.84,15.54-36.45,16.75-34.43,6.21,10.26,6.21,10.26L332.25,0"/><line class="cls-1" x1="78.35" y1="110.94" x2="88.06" y2="110.94"/><line class="cls-1" x1="78.35" y1="75.74" x2="88.06" y2="75.74"/><line class="cls-1" x1="190.89" y1="143.39" x2="190.89" y2="153.09"/><line class="cls-1" x1="326.33" y1="143.39" x2="326.33" y2="153.09"/><line class="cls-1" x1="88.06" y1="75.36" x2="88.06" y2="166.73"/><text class="cls-5" transform="matrix(0.32, -0.95, 0.95, 0.32, 324.24, 48.59)"><tspan class="cls-6">t</tspan><tspan x="1.78" y="0">o t</tspan><tspan class="cls-7" x="7.66" y="0">h</tspan><tspan x="10.86" y="0">e </tspan><tspan class="cls-7" x="14.79" y="0">m</tspan><tspan x="19.49" y="0">oon -&gt; </tspan></text></svg>