<svg id="Layer_1" data-name="Layer 1" xmlns="http://www.w3.org/2000/svg" xmlns:xlink="http://www.w3.org/1999/xlink" viewBox="0 0 381.67 171.59"><defs><style>.cls-1,.cls-16{fill:none;}.cls-1{stroke:#c4c4c4;stroke-miterlimit:10;}.cls-2{font-size:14px;fill:#9a9a9b;font-family:RobotoSlab-Bold, Roboto Slab;font-weight:700;}.cls-3{letter-spacing:-0.03em;}.cls-4{letter-spacing:-0.01em;}.cls-5{letter-spacing:-0.01em;}.cls-6{letter-spacing:-0.01em;}.cls-7{letter-spacing:0em;}.cls-8{font-size:7.28px;}.cls-17,.cls-8{fill:#c4c4c4;font-family:RobotoSlab-Regular, Roboto Slab;}.cls-9{letter-spacing:-0.01em;}.cls-10{letter-spacing:0em;}.cls-11{letter-spacing:0.01em;}.cls-12{letter-spacing:0em;}.cls-13{letter-spacing:-0.01em;}.cls-14{letter-spacing:-0.01em;}.cls-15{letter-spacing:0em;}.cls-16{stroke-linejoin:round;stroke-width:2px;stroke:url(#linear-gradient);}.cls-17{font-size:5px;}.cls-18{letter-spacing:-0.01em;}.cls-19{letter-spacing:0em;}</style><linearGradient id="linear-gradient" x1="210.6" y1="-0.31" x2="210.6" y2="151.97" gradientUnits="userSpaceOnUse"><stop offset="0" stop-color="#1dc7a2"/><stop offset="1" stop-color="#0e5f99"/></linearGradient></defs><title>ethregret</title><line class="cls-1" x1="78.35" y1="143.68" x2="332.25" y2="143.68"/><text class="cls-2" transform="translate(114.13 59.1)">Pizza G<tspan class="cls-3" x="48.57" y="0">u</tspan><tspan x="56.92" y="0">y Reg</tspan><tspan class="cls-4" x="93.72" y="0">r</tspan><tspan x="99.48" y="0">et </tspan><tspan class="cls-5" x="115.6" y="0">o</tspan><tspan class="cls-6" x="123.34" y="0">v</tspan><tspan x="131.23" y="0">er Ti</tspan><tspan class="cls-7" x="161.94" y="0">m</tspan><tspan x="174.89" y="0">e</tspan></text><text class="cls-8" transform="translate(183.34 162.29)">2013</text><text class="cls-8" transform="translate(8.21 146.52)"><tspan class="cls-9">ev</tspan><tspan class="cls-10" x="7.88" y="0">e</tspan><tspan class="cls-11" x="11.8" y="0">r</tspan><tspan x="14.87" y="0">ythi</tspan><tspan class="cls-12" x="28.76" y="0">n</tspan><tspan x="33.41" y="0">g is </tspan><tspan class="cls-13" x="47.25" y="0">o</tspan><tspan x="51.27" y="0">k</tspan><tspan class="cls-14" x="55.69" y="0">a</tspan><tspan class="cls-15" x="59.65" y="0">y</tspan></text><text class="cls-8" transform="translate(44.28 112.24)">ffffffff....</text><text class="cls-8" transform="translate(56.43 77.96)">FML</text><text class="cls-8" transform="translate(318.74 162.29)">2017</text><path class="cls-16" d="M88.06,150.06l13,.91,6.14-4.63L117,151l7.66-4.63L132.2,151l5.76-3.34,7.13-.46s6.37-4.1,6.37-4.55,5.76,4.17,5.76,4.17L165,131.1l8.34,3.19,5.31-14,3.64,3.79,9.56-43.68,4.85,21.08s2.73,8.8,3.64,9.71,15.77,6.07,15.77,6.07l10.52-10.62s10.72,15.37,11.32,15.37S246,108.5,246,108.5l11.93,5.06,18.2-42.67,12.13,12.54s7.88-20.23,8.48-20.84,15.54-36.45,16.75-34.43,6.21,10.26,6.21,10.26L332.25,0"/><line class="cls-1" x1="78.35" y1="110.94" x2="88.06" y2="110.94"/><line class="cls-1" x1="78.35" y1="75.74" x2="88.06" y2="75.74"/><line class="cls-1" x1="190.89" y1="143.39" x2="190.89" y2="153.09"/><line class="cls-1" x1="326.33" y1="143.39" x2="326.33" y2="153.09"/><line class="cls-1" x1="88.06" y1="75.36" x2="88.06" y2="166.73"/><text class="cls-17" transform="matrix(0.32, -0.95, 0.95, 0.32, 324.26, 48.58)"><tspan class="cls-18">t</tspan><tspan x="1.78" y="0">o t</tspan><tspan class="cls-19" x="7.66" y="0">h</tspan><tspan x="10.86" y="0">e </tspan><tspan class="cls-19" x="14.79" y="0">m</tspan><tspan x="19.49" y="0">oon -&gt; </tspan></text></svg>