<svg id="Layer_1" data-name="Layer 1" xmlns="http://www.w3.org/2000/svg" xmlns:xlink="http://www.w3.org/1999/xlink" viewBox="0 0 340.16 226.77"><defs><style>.cls-1,.cls-2,.cls-3,.cls-4,.cls-5{fill:none;}.cls-1,.cls-2{stroke-linejoin:round;stroke-width:8px;}.cls-1{stroke:url(#linear-gradient);}.cls-2{stroke:url(#linear-gradient-2);}.cls-3{stroke:#c4c4c4;}.cls-3,.cls-4,.cls-5{stroke-miterlimit:10;}.cls-4{stroke:#dadada;}.cls-5{stroke:#efefef;}</style><linearGradient id="linear-gradient" x1="170.08" y1="209.59" x2="170.08" y2="17.28" gradientUnits="userSpaceOnUse"><stop offset="0" stop-color="#0e5f99"/><stop offset="1" stop-color="#1dc7a2"/></linearGradient><linearGradient id="linear-gradient-2" x1="170.98" y1="162.25" x2="170.98" y2="80.44" xlink:href="#linear-gradient"/></defs><title>ethvisuallogo</title><polygon class="cls-1" points="170.08 205.59 113.39 121.44 170.08 21.27 226.77 121.44 170.08 205.59"/><polyline class="cls-2" points="113.39 121.25 170.96 84.44 226.77 121.25 226.77 121.44 169.2 158.25 113.39 121.44"/><polyline class="cls-3" points="139.4 213.16 78.05 122.11 139.41 13.7"/><polyline class="cls-4" points="112.05 197.81 60.93 120.77 112.06 29.06"/><polyline class="cls-5" points="84.7 182.45 43.8 119.44 84.7 44.41"/><polyline class="cls-3" points="200.75 13.7 262.1 122.11 200.76 213.16"/><polyline class="cls-4" points="228.1 29.06 279.23 120.77 228.11 197.8"/><polyline class="cls-5" points="255.45 44.41 296.36 119.44 255.46 182.45"/></svg>